<svg width="321" height="234" viewBox="0 0 321 234" fill="none" xmlns="http://www.w3.org/2000/svg">
<g filter="url(#filter0_d)">
<rect x="17.4668" y="17" width="269.879" height="183.692" rx="8" fill="url(#paint0_linear)"/>
</g>
<path d="M36.0813 87.7966H44.2413C44.2413 86.6766 44.3413 85.5566 44.5413 84.4366C44.7813 83.2766 45.1613 82.2366 45.6813 81.3166C46.2013 80.3566 46.8813 79.5966 47.7213 79.0366C48.6013 78.4366 49.6613 78.1366 50.9013 78.1366C52.7413 78.1366 54.2413 78.7166 55.4013 79.8766C56.6013 80.9966 57.2013 82.5766 57.2013 84.6166C57.2013 85.8966 56.9013 87.0366 56.3013 88.0366C55.7413 89.0366 55.0213 89.9366 54.1413 90.7366C53.3013 91.5366 52.3613 92.2766 51.3213 92.9566C50.2813 93.5966 49.3013 94.2366 48.3813 94.8766C46.5813 96.1166 44.8613 97.3366 43.2213 98.5366C41.6213 99.7366 40.2213 101.057 39.0213 102.497C37.8213 103.897 36.8613 105.497 36.1413 107.297C35.4613 109.097 35.1213 111.217 35.1213 113.657H65.9613V106.337H46.1013C47.1413 104.897 48.3413 103.637 49.7013 102.557C51.0613 101.477 52.4613 100.477 53.9013 99.5566C55.3413 98.5966 56.7613 97.6366 58.1613 96.6766C59.6013 95.7166 60.8813 94.6566 62.0013 93.4966C63.1213 92.2966 64.0213 90.9366 64.7013 89.4166C65.3813 87.8966 65.7213 86.0766 65.7213 83.9566C65.7213 81.9166 65.3213 80.0766 64.5213 78.4366C63.7613 76.7966 62.7213 75.4166 61.4013 74.2966C60.0813 73.1766 58.5413 72.3166 56.7813 71.7166C55.0613 71.1166 53.2413 70.8166 51.3213 70.8166C48.8013 70.8166 46.5613 71.2566 44.6013 72.1366C42.6813 72.9766 41.0813 74.1766 39.8013 75.7366C38.5213 77.2566 37.5613 79.0566 36.9213 81.1366C36.2813 83.1766 36.0013 85.3966 36.0813 87.7966ZM70.6112 104.417V113.657H74.9312C74.9712 114.297 74.8912 114.917 74.6912 115.517C74.4912 116.157 74.1912 116.717 73.7912 117.197C73.3912 117.717 72.9112 118.157 72.3512 118.517C71.8312 118.877 71.2712 119.117 70.6712 119.237V123.557C71.9512 123.357 73.1512 122.977 74.2712 122.417C75.4312 121.897 76.4312 121.217 77.2712 120.377C78.1112 119.537 78.7712 118.537 79.2512 117.377C79.7712 116.257 80.0312 115.017 80.0312 113.657V104.417H70.6112ZM93.1804 92.4766C93.1804 91.7566 93.1804 90.8966 93.1804 89.8966C93.2204 88.8566 93.3004 87.7966 93.4204 86.7166C93.5404 85.6366 93.7404 84.5766 94.0204 83.5366C94.3004 82.4566 94.6804 81.4966 95.1604 80.6566C95.6804 79.8166 96.3204 79.1366 97.0804 78.6166C97.8804 78.0966 98.8604 77.8366 100.02 77.8366C101.18 77.8366 102.16 78.0966 102.96 78.6166C103.76 79.1366 104.42 79.8166 104.94 80.6566C105.46 81.4966 105.84 82.4566 106.08 83.5366C106.36 84.5766 106.56 85.6366 106.68 86.7166C106.84 87.7966 106.92 88.8566 106.92 89.8966C106.96 90.8966 106.98 91.7566 106.98 92.4766C106.98 93.6766 106.94 95.1366 106.86 96.8566C106.78 98.5366 106.52 100.177 106.08 101.777C105.68 103.337 105 104.677 104.04 105.797C103.12 106.917 101.78 107.477 100.02 107.477C98.3004 107.477 96.9804 106.917 96.0604 105.797C95.1404 104.677 94.4604 103.337 94.0204 101.777C93.6204 100.177 93.3804 98.5366 93.3004 96.8566C93.2204 95.1366 93.1804 93.6766 93.1804 92.4766ZM84.6604 92.4766C84.6604 96.6766 85.0604 100.197 85.8604 103.037C86.7004 105.837 87.8204 108.077 89.2204 109.757C90.6204 111.437 92.2404 112.637 94.0804 113.357C95.9604 114.077 97.9404 114.437 100.02 114.437C102.14 114.437 104.12 114.077 105.96 113.357C107.84 112.637 109.48 111.437 110.88 109.757C112.32 108.077 113.44 105.837 114.24 103.037C115.08 100.197 115.5 96.6766 115.5 92.4766C115.5 88.3966 115.08 84.9766 114.24 82.2166C113.44 79.4166 112.32 77.1766 110.88 75.4966C109.48 73.8166 107.84 72.6166 105.96 71.8966C104.12 71.1766 102.14 70.8166 100.02 70.8166C97.9404 70.8166 95.9604 71.1766 94.0804 71.8966C92.2404 72.6166 90.6204 73.8166 89.2204 75.4966C87.8204 77.1766 86.7004 79.4166 85.8604 82.2166C85.0604 84.9766 84.6604 88.3966 84.6604 92.4766ZM126.27 92.4766C126.27 91.7566 126.27 90.8966 126.27 89.8966C126.31 88.8566 126.39 87.7966 126.51 86.7166C126.63 85.6366 126.83 84.5766 127.11 83.5366C127.39 82.4566 127.77 81.4966 128.25 80.6566C128.77 79.8166 129.41 79.1366 130.17 78.6166C130.97 78.0966 131.95 77.8366 133.11 77.8366C134.27 77.8366 135.25 78.0966 136.05 78.6166C136.85 79.1366 137.51 79.8166 138.03 80.6566C138.55 81.4966 138.93 82.4566 139.17 83.5366C139.45 84.5766 139.65 85.6366 139.77 86.7166C139.93 87.7966 140.01 88.8566 140.01 89.8966C140.05 90.8966 140.07 91.7566 140.07 92.4766C140.07 93.6766 140.03 95.1366 139.95 96.8566C139.87 98.5366 139.61 100.177 139.17 101.777C138.77 103.337 138.09 104.677 137.13 105.797C136.21 106.917 134.87 107.477 133.11 107.477C131.39 107.477 130.07 106.917 129.15 105.797C128.23 104.677 127.55 103.337 127.11 101.777C126.71 100.177 126.47 98.5366 126.39 96.8566C126.31 95.1366 126.27 93.6766 126.27 92.4766ZM117.75 92.4766C117.75 96.6766 118.15 100.197 118.95 103.037C119.79 105.837 120.91 108.077 122.31 109.757C123.71 111.437 125.33 112.637 127.17 113.357C129.05 114.077 131.03 114.437 133.11 114.437C135.23 114.437 137.21 114.077 139.05 113.357C140.93 112.637 142.57 111.437 143.97 109.757C145.41 108.077 146.53 105.837 147.33 103.037C148.17 100.197 148.59 96.6766 148.59 92.4766C148.59 88.3966 148.17 84.9766 147.33 82.2166C146.53 79.4166 145.41 77.1766 143.97 75.4966C142.57 73.8166 140.93 72.6166 139.05 71.8966C137.21 71.1766 135.23 70.8166 133.11 70.8166C131.03 70.8166 129.05 71.1766 127.17 71.8966C125.33 72.6166 123.71 73.8166 122.31 75.4966C120.91 77.1766 119.79 79.4166 118.95 82.2166C118.15 84.9766 117.75 88.3966 117.75 92.4766ZM159.36 92.4766C159.36 91.7566 159.36 90.8966 159.36 89.8966C159.4 88.8566 159.48 87.7966 159.6 86.7166C159.72 85.6366 159.92 84.5766 160.2 83.5366C160.48 82.4566 160.86 81.4966 161.34 80.6566C161.86 79.8166 162.5 79.1366 163.26 78.6166C164.06 78.0966 165.04 77.8366 166.2 77.8366C167.36 77.8366 168.34 78.0966 169.14 78.6166C169.94 79.1366 170.6 79.8166 171.12 80.6566C171.64 81.4966 172.02 82.4566 172.26 83.5366C172.54 84.5766 172.74 85.6366 172.86 86.7166C173.02 87.7966 173.1 88.8566 173.1 89.8966C173.14 90.8966 173.16 91.7566 173.16 92.4766C173.16 93.6766 173.12 95.1366 173.04 96.8566C172.96 98.5366 172.7 100.177 172.26 101.777C171.86 103.337 171.18 104.677 170.22 105.797C169.3 106.917 167.96 107.477 166.2 107.477C164.48 107.477 163.16 106.917 162.24 105.797C161.32 104.677 160.64 103.337 160.2 101.777C159.8 100.177 159.56 98.5366 159.48 96.8566C159.4 95.1366 159.36 93.6766 159.36 92.4766ZM150.84 92.4766C150.84 96.6766 151.24 100.197 152.04 103.037C152.88 105.837 154 108.077 155.4 109.757C156.8 111.437 158.42 112.637 160.26 113.357C162.14 114.077 164.12 114.437 166.2 114.437C168.32 114.437 170.3 114.077 172.14 113.357C174.02 112.637 175.66 111.437 177.06 109.757C178.5 108.077 179.62 105.837 180.42 103.037C181.26 100.197 181.68 96.6766 181.68 92.4766C181.68 88.3966 181.26 84.9766 180.42 82.2166C179.62 79.4166 178.5 77.1766 177.06 75.4966C175.66 73.8166 174.02 72.6166 172.14 71.8966C170.3 71.1766 168.32 70.8166 166.2 70.8166C164.12 70.8166 162.14 71.1766 160.26 71.8966C158.42 72.6166 156.8 73.8166 155.4 75.4966C154 77.1766 152.88 79.4166 152.04 82.2166C151.24 84.9766 150.84 88.3966 150.84 92.4766ZM203.91 95.2966V83.3566H197.49V95.2966H185.55V101.717H197.49V113.657H203.91V101.717H215.85V95.2966H203.91Z" fill="#9BF0E1"/>
<path d="M43.6813 130.41H45.4813C45.4547 129.623 45.3013 128.95 45.0213 128.39C44.7547 127.816 44.3813 127.343 43.9013 126.97C43.4347 126.596 42.888 126.323 42.2613 126.15C41.6347 125.976 40.9547 125.89 40.2213 125.89C39.568 125.89 38.928 125.976 38.3013 126.15C37.688 126.31 37.1347 126.563 36.6413 126.91C36.1613 127.243 35.7747 127.676 35.4813 128.21C35.188 128.73 35.0413 129.35 35.0413 130.07C35.0413 130.723 35.168 131.27 35.4213 131.71C35.688 132.136 36.0347 132.49 36.4613 132.77C36.9013 133.036 37.3947 133.256 37.9413 133.43C38.488 133.59 39.0413 133.736 39.6013 133.87C40.1747 133.99 40.7347 134.11 41.2813 134.23C41.828 134.35 42.3147 134.51 42.7413 134.71C43.1813 134.896 43.528 135.143 43.7813 135.45C44.048 135.756 44.1813 136.156 44.1813 136.65C44.1813 137.17 44.0747 137.596 43.8613 137.93C43.648 138.263 43.368 138.53 43.0213 138.73C42.6747 138.916 42.2813 139.05 41.8413 139.13C41.4147 139.21 40.988 139.25 40.5613 139.25C40.028 139.25 39.508 139.183 39.0013 139.05C38.4947 138.916 38.048 138.71 37.6613 138.43C37.288 138.15 36.9813 137.796 36.7413 137.37C36.5147 136.93 36.4013 136.41 36.4013 135.81H34.6013C34.6013 136.676 34.7547 137.43 35.0613 138.07C35.3813 138.696 35.808 139.216 36.3413 139.63C36.888 140.03 37.5147 140.33 38.2213 140.53C38.9413 140.73 39.7013 140.83 40.5013 140.83C41.1547 140.83 41.808 140.75 42.4613 140.59C43.128 140.443 43.728 140.203 44.2613 139.87C44.7947 139.523 45.228 139.083 45.5613 138.55C45.908 138.003 46.0813 137.35 46.0813 136.59C46.0813 135.883 45.948 135.296 45.6813 134.83C45.428 134.363 45.0813 133.976 44.6413 133.67C44.2147 133.363 43.728 133.123 43.1813 132.95C42.6347 132.763 42.0747 132.603 41.5013 132.47C40.9413 132.336 40.388 132.216 39.8413 132.11C39.2947 131.99 38.8013 131.843 38.3613 131.67C37.9347 131.496 37.588 131.276 37.3213 131.01C37.068 130.73 36.9413 130.37 36.9413 129.93C36.9413 129.463 37.028 129.076 37.2013 128.77C37.388 128.45 37.628 128.196 37.9213 128.01C38.228 127.823 38.5747 127.69 38.9613 127.61C39.348 127.53 39.7413 127.49 40.1413 127.49C41.128 127.49 41.9347 127.723 42.5613 128.19C43.2013 128.643 43.5747 129.383 43.6813 130.41ZM47.9201 130.17V144.45H49.6201V139.13H49.6601C49.8467 139.436 50.0734 139.696 50.3401 139.91C50.6201 140.11 50.9134 140.27 51.2201 140.39C51.5267 140.51 51.8334 140.596 52.1401 140.65C52.4601 140.703 52.7467 140.73 53.0001 140.73C53.7867 140.73 54.4734 140.59 55.0601 140.31C55.6601 140.03 56.1534 139.65 56.5401 139.17C56.9401 138.676 57.2334 138.103 57.4201 137.45C57.6201 136.796 57.7201 136.103 57.7201 135.37C57.7201 134.636 57.6201 133.943 57.4201 133.29C57.2201 132.636 56.9201 132.063 56.5201 131.57C56.1334 131.063 55.6401 130.663 55.0401 130.37C54.4534 130.076 53.7601 129.93 52.9601 129.93C52.2401 129.93 51.5801 130.063 50.9801 130.33C50.3801 130.583 49.9401 130.996 49.6601 131.57H49.6201V130.17H47.9201ZM55.9201 135.25C55.9201 135.756 55.8667 136.25 55.7601 136.73C55.6534 137.21 55.4801 137.636 55.2401 138.01C55.0001 138.383 54.6801 138.683 54.2801 138.91C53.8934 139.136 53.4067 139.25 52.8201 139.25C52.2334 139.25 51.7334 139.143 51.3201 138.93C50.9067 138.703 50.5667 138.41 50.3001 138.05C50.0467 137.69 49.8601 137.276 49.7401 136.81C49.6201 136.33 49.5601 135.836 49.5601 135.33C49.5601 134.85 49.6134 134.376 49.7201 133.91C49.8401 133.443 50.0267 133.03 50.2801 132.67C50.5334 132.296 50.8601 131.996 51.2601 131.77C51.6601 131.543 52.1467 131.43 52.7201 131.43C53.2667 131.43 53.7401 131.536 54.1401 131.75C54.5534 131.963 54.8867 132.25 55.1401 132.61C55.4067 132.97 55.6001 133.383 55.7201 133.85C55.8534 134.303 55.9201 134.77 55.9201 135.25ZM60.7055 135.35C60.7055 134.723 60.7855 134.17 60.9455 133.69C61.1189 133.196 61.3522 132.783 61.6455 132.45C61.9389 132.116 62.2789 131.863 62.6655 131.69C63.0655 131.516 63.4855 131.43 63.9255 131.43C64.3655 131.43 64.7789 131.516 65.1655 131.69C65.5655 131.863 65.9122 132.116 66.2055 132.45C66.4989 132.783 66.7255 133.196 66.8855 133.69C67.0589 134.17 67.1455 134.723 67.1455 135.35C67.1455 135.976 67.0589 136.536 66.8855 137.03C66.7255 137.51 66.4989 137.916 66.2055 138.25C65.9122 138.57 65.5655 138.816 65.1655 138.99C64.7789 139.163 64.3655 139.25 63.9255 139.25C63.4855 139.25 63.0655 139.163 62.6655 138.99C62.2789 138.816 61.9389 138.57 61.6455 138.25C61.3522 137.916 61.1189 137.51 60.9455 137.03C60.7855 136.536 60.7055 135.976 60.7055 135.35ZM58.9055 135.35C58.9055 136.11 59.0122 136.816 59.2255 137.47C59.4389 138.123 59.7589 138.696 60.1855 139.19C60.6122 139.67 61.1389 140.05 61.7655 140.33C62.3922 140.596 63.1122 140.73 63.9255 140.73C64.7522 140.73 65.4722 140.596 66.0855 140.33C66.7122 140.05 67.2389 139.67 67.6655 139.19C68.0922 138.696 68.4122 138.123 68.6255 137.47C68.8389 136.816 68.9455 136.11 68.9455 135.35C68.9455 134.59 68.8389 133.883 68.6255 133.23C68.4122 132.563 68.0922 131.99 67.6655 131.51C67.2389 131.016 66.7122 130.63 66.0855 130.35C65.4722 130.07 64.7522 129.93 63.9255 129.93C63.1122 129.93 62.3922 130.07 61.7655 130.35C61.1389 130.63 60.6122 131.016 60.1855 131.51C59.7589 131.99 59.4389 132.563 59.2255 133.23C59.0122 133.883 58.9055 134.59 58.9055 135.35ZM73.0599 130.17V127.07H71.3599V130.17H69.5999V131.67H71.3599V138.25C71.3599 138.73 71.4066 139.116 71.4999 139.41C71.5933 139.703 71.7333 139.93 71.9199 140.09C72.1199 140.25 72.3733 140.363 72.6799 140.43C72.9999 140.483 73.3799 140.51 73.8199 140.51H75.1199V139.01H74.3399C74.0733 139.01 73.8533 139.003 73.6799 138.99C73.5199 138.963 73.3933 138.916 73.2999 138.85C73.2066 138.783 73.1399 138.69 73.0999 138.57C73.0733 138.45 73.0599 138.29 73.0599 138.09V131.67H75.1199V130.17H73.0599ZM78.5585 128.31V126.23H76.8585V128.31H78.5585ZM76.8585 130.17V140.51H78.5585V130.17H76.8585ZM81.6421 131.67V140.51H83.3421V131.67H85.3421V130.17H83.3421V128.73C83.3421 128.276 83.4554 127.97 83.6821 127.81C83.9088 127.65 84.2288 127.57 84.6421 127.57C84.7888 127.57 84.9488 127.583 85.1221 127.61C85.2954 127.623 85.4554 127.656 85.6021 127.71V126.23C85.4421 126.176 85.2554 126.136 85.0421 126.11C84.8421 126.083 84.6621 126.07 84.5021 126.07C83.5688 126.07 82.8554 126.29 82.3621 126.73C81.8821 127.156 81.6421 127.79 81.6421 128.63V130.17H79.9021V131.67H81.6421ZM90.6701 141.89C90.4701 142.396 90.2701 142.823 90.0701 143.17C89.8834 143.516 89.6701 143.796 89.4301 144.01C89.2034 144.236 88.9434 144.396 88.6501 144.49C88.3701 144.596 88.0434 144.65 87.6701 144.65C87.4701 144.65 87.2701 144.636 87.0701 144.61C86.8701 144.583 86.6767 144.536 86.4901 144.47V142.91C86.6367 142.976 86.8034 143.03 86.9901 143.07C87.1901 143.123 87.3567 143.15 87.4901 143.15C87.8367 143.15 88.1234 143.063 88.3501 142.89C88.5901 142.73 88.7701 142.496 88.8901 142.19L89.5901 140.45L85.4901 130.17H87.4101L90.4301 138.63H90.4701L93.3701 130.17H95.1701L90.6701 141.89ZM101.736 126.23V140.51H103.436V139.13H103.476C103.663 139.436 103.89 139.696 104.156 139.91C104.436 140.11 104.73 140.27 105.036 140.39C105.343 140.51 105.65 140.596 105.956 140.65C106.276 140.703 106.563 140.73 106.816 140.73C107.603 140.73 108.29 140.59 108.876 140.31C109.476 140.03 109.97 139.65 110.356 139.17C110.756 138.676 111.05 138.103 111.236 137.45C111.436 136.796 111.536 136.103 111.536 135.37C111.536 134.636 111.436 133.943 111.236 133.29C111.036 132.636 110.736 132.063 110.336 131.57C109.95 131.063 109.456 130.663 108.856 130.37C108.27 130.076 107.576 129.93 106.776 129.93C106.056 129.93 105.396 130.063 104.796 130.33C104.196 130.583 103.756 130.996 103.476 131.57H103.436V126.23H101.736ZM109.736 135.25C109.736 135.756 109.683 136.25 109.576 136.73C109.47 137.21 109.296 137.636 109.056 138.01C108.816 138.383 108.496 138.683 108.096 138.91C107.71 139.136 107.223 139.25 106.636 139.25C106.05 139.25 105.55 139.143 105.136 138.93C104.723 138.703 104.383 138.41 104.116 138.05C103.863 137.69 103.676 137.276 103.556 136.81C103.436 136.33 103.376 135.836 103.376 135.33C103.376 134.85 103.43 134.376 103.536 133.91C103.656 133.443 103.843 133.03 104.096 132.67C104.35 132.296 104.676 131.996 105.076 131.77C105.476 131.543 105.963 131.43 106.536 131.43C107.083 131.43 107.556 131.536 107.956 131.75C108.37 131.963 108.703 132.25 108.956 132.61C109.223 132.97 109.416 133.383 109.536 133.85C109.67 134.303 109.736 134.77 109.736 135.25ZM122.442 140.47C122.149 140.643 121.742 140.73 121.222 140.73C120.782 140.73 120.429 140.61 120.162 140.37C119.909 140.116 119.782 139.71 119.782 139.15C119.315 139.71 118.769 140.116 118.142 140.37C117.529 140.61 116.862 140.73 116.142 140.73C115.675 140.73 115.229 140.676 114.802 140.57C114.389 140.463 114.029 140.296 113.722 140.07C113.415 139.843 113.169 139.55 112.982 139.19C112.809 138.816 112.722 138.37 112.722 137.85C112.722 137.263 112.822 136.783 113.022 136.41C113.222 136.036 113.482 135.736 113.802 135.51C114.135 135.27 114.509 135.09 114.922 134.97C115.349 134.85 115.782 134.75 116.222 134.67C116.689 134.576 117.129 134.51 117.542 134.47C117.969 134.416 118.342 134.35 118.662 134.27C118.982 134.176 119.235 134.05 119.422 133.89C119.609 133.716 119.702 133.47 119.702 133.15C119.702 132.776 119.629 132.476 119.482 132.25C119.349 132.023 119.169 131.85 118.942 131.73C118.729 131.61 118.482 131.53 118.202 131.49C117.935 131.45 117.669 131.43 117.402 131.43C116.682 131.43 116.082 131.57 115.602 131.85C115.122 132.116 114.862 132.63 114.822 133.39H113.122C113.149 132.75 113.282 132.21 113.522 131.77C113.762 131.33 114.082 130.976 114.482 130.71C114.882 130.43 115.335 130.23 115.842 130.11C116.362 129.99 116.915 129.93 117.502 129.93C117.969 129.93 118.429 129.963 118.882 130.03C119.349 130.096 119.769 130.236 120.142 130.45C120.515 130.65 120.815 130.936 121.042 131.31C121.269 131.683 121.382 132.17 121.382 132.77V138.09C121.382 138.49 121.402 138.783 121.442 138.97C121.495 139.156 121.655 139.25 121.922 139.25C122.069 139.25 122.242 139.216 122.442 139.15V140.47ZM119.682 135.17C119.469 135.33 119.189 135.45 118.842 135.53C118.495 135.596 118.129 135.656 117.742 135.71C117.369 135.75 116.989 135.803 116.602 135.87C116.215 135.923 115.869 136.016 115.562 136.15C115.255 136.283 115.002 136.476 114.802 136.73C114.615 136.97 114.522 137.303 114.522 137.73C114.522 138.01 114.575 138.25 114.682 138.45C114.802 138.636 114.949 138.79 115.122 138.91C115.309 139.03 115.522 139.116 115.762 139.17C116.002 139.223 116.255 139.25 116.522 139.25C117.082 139.25 117.562 139.176 117.962 139.03C118.362 138.87 118.689 138.676 118.942 138.45C119.195 138.21 119.382 137.956 119.502 137.69C119.622 137.41 119.682 137.15 119.682 136.91V135.17ZM130.794 133.49H132.554C132.487 132.876 132.327 132.35 132.074 131.91C131.821 131.456 131.494 131.083 131.094 130.79C130.707 130.496 130.254 130.283 129.734 130.15C129.227 130.003 128.681 129.93 128.094 129.93C127.281 129.93 126.567 130.076 125.954 130.37C125.341 130.65 124.827 131.043 124.414 131.55C124.014 132.043 123.714 132.63 123.514 133.31C123.314 133.976 123.214 134.696 123.214 135.47C123.214 136.243 123.314 136.956 123.514 137.61C123.727 138.25 124.034 138.803 124.434 139.27C124.847 139.736 125.354 140.096 125.954 140.35C126.567 140.603 127.267 140.73 128.054 140.73C129.374 140.73 130.414 140.383 131.174 139.69C131.947 138.996 132.427 138.01 132.614 136.73H130.874C130.767 137.53 130.474 138.15 129.994 138.59C129.527 139.03 128.874 139.25 128.034 139.25C127.501 139.25 127.041 139.143 126.654 138.93C126.267 138.716 125.954 138.436 125.714 138.09C125.474 137.73 125.294 137.323 125.174 136.87C125.067 136.416 125.014 135.95 125.014 135.47C125.014 134.95 125.067 134.45 125.174 133.97C125.281 133.476 125.454 133.043 125.694 132.67C125.947 132.296 126.281 131.996 126.694 131.77C127.107 131.543 127.621 131.43 128.234 131.43C128.954 131.43 129.527 131.61 129.954 131.97C130.381 132.33 130.661 132.836 130.794 133.49ZM134.366 126.23V140.51H136.066V136.59L137.666 135.11L141.206 140.51H143.366L138.966 133.93L143.066 130.17H140.786L136.066 134.69V126.23H134.366ZM151.567 134.35H145.627C145.654 133.95 145.741 133.576 145.887 133.23C146.034 132.87 146.234 132.556 146.487 132.29C146.741 132.023 147.041 131.816 147.387 131.67C147.747 131.51 148.147 131.43 148.587 131.43C149.014 131.43 149.401 131.51 149.747 131.67C150.107 131.816 150.414 132.023 150.667 132.29C150.934 132.543 151.141 132.85 151.287 133.21C151.447 133.57 151.541 133.95 151.567 134.35ZM153.207 137.23H151.527C151.381 137.91 151.074 138.416 150.607 138.75C150.154 139.083 149.567 139.25 148.847 139.25C148.287 139.25 147.801 139.156 147.387 138.97C146.974 138.783 146.634 138.536 146.367 138.23C146.101 137.91 145.907 137.55 145.787 137.15C145.667 136.736 145.614 136.303 145.627 135.85H153.367C153.394 135.223 153.334 134.563 153.187 133.87C153.054 133.176 152.801 132.536 152.427 131.95C152.067 131.363 151.581 130.883 150.967 130.51C150.367 130.123 149.607 129.93 148.687 129.93C147.981 129.93 147.327 130.063 146.727 130.33C146.141 130.596 145.627 130.97 145.187 131.45C144.761 131.93 144.427 132.496 144.187 133.15C143.947 133.803 143.827 134.523 143.827 135.31C143.854 136.096 143.967 136.823 144.167 137.49C144.381 138.156 144.694 138.73 145.107 139.21C145.521 139.69 146.027 140.063 146.627 140.33C147.241 140.596 147.961 140.73 148.787 140.73C149.961 140.73 150.934 140.436 151.707 139.85C152.481 139.263 152.981 138.39 153.207 137.23ZM154.88 130.17V140.51H156.58V134.67C156.58 134.203 156.64 133.776 156.76 133.39C156.893 132.99 157.086 132.643 157.34 132.35C157.593 132.056 157.906 131.83 158.28 131.67C158.666 131.51 159.12 131.43 159.64 131.43C160.293 131.43 160.806 131.616 161.18 131.99C161.553 132.363 161.74 132.87 161.74 133.51V140.51H163.44V133.71C163.44 133.15 163.38 132.643 163.26 132.19C163.153 131.723 162.96 131.323 162.68 130.99C162.4 130.656 162.033 130.396 161.58 130.21C161.126 130.023 160.56 129.93 159.88 129.93C158.346 129.93 157.226 130.556 156.52 131.81H156.48V130.17H154.88ZM166.983 135.43C166.983 134.923 167.036 134.43 167.143 133.95C167.25 133.47 167.423 133.043 167.663 132.67C167.903 132.296 168.223 131.996 168.623 131.77C169.023 131.543 169.51 131.43 170.083 131.43C170.67 131.43 171.17 131.543 171.583 131.77C171.996 131.983 172.33 132.27 172.583 132.63C172.85 132.99 173.043 133.41 173.163 133.89C173.283 134.356 173.343 134.843 173.343 135.35C173.343 135.83 173.283 136.303 173.163 136.77C173.056 137.236 172.876 137.656 172.623 138.03C172.37 138.39 172.043 138.683 171.643 138.91C171.243 139.136 170.756 139.25 170.183 139.25C169.636 139.25 169.156 139.143 168.743 138.93C168.343 138.716 168.01 138.43 167.743 138.07C167.49 137.71 167.296 137.303 167.163 136.85C167.043 136.383 166.983 135.91 166.983 135.43ZM174.983 140.51V126.23H173.283V131.55H173.243C173.056 131.243 172.823 130.99 172.543 130.79C172.276 130.576 171.99 130.41 171.683 130.29C171.376 130.156 171.07 130.063 170.763 130.01C170.456 129.956 170.17 129.93 169.903 129.93C169.116 129.93 168.423 130.076 167.823 130.37C167.236 130.65 166.743 131.036 166.343 131.53C165.956 132.01 165.663 132.576 165.463 133.23C165.276 133.883 165.183 134.576 165.183 135.31C165.183 136.043 165.283 136.736 165.483 137.39C165.683 138.043 165.976 138.616 166.363 139.11C166.763 139.603 167.256 139.996 167.843 140.29C168.443 140.583 169.143 140.73 169.943 140.73C170.663 140.73 171.323 140.603 171.923 140.35C172.523 140.096 172.963 139.683 173.243 139.11H173.283V140.51H174.983ZM36.1813 157.25H34.4813C34.508 157.89 34.6413 158.436 34.8813 158.89C35.1213 159.33 35.4413 159.69 35.8413 159.97C36.2413 160.236 36.7013 160.43 37.2213 160.55C37.7413 160.67 38.288 160.73 38.8613 160.73C39.3813 160.73 39.9013 160.676 40.4213 160.57C40.9547 160.476 41.428 160.303 41.8413 160.05C42.268 159.796 42.608 159.463 42.8613 159.05C43.128 158.636 43.2613 158.116 43.2613 157.49C43.2613 156.996 43.1613 156.583 42.9613 156.25C42.7747 155.916 42.5213 155.643 42.2013 155.43C41.8947 155.203 41.5347 155.023 41.1213 154.89C40.7213 154.756 40.308 154.643 39.8813 154.55C39.4813 154.456 39.0813 154.37 38.6813 154.29C38.2813 154.196 37.9213 154.09 37.6013 153.97C37.2813 153.836 37.0147 153.676 36.8013 153.49C36.6013 153.29 36.5013 153.043 36.5013 152.75C36.5013 152.483 36.568 152.27 36.7013 152.11C36.8347 151.936 37.008 151.803 37.2213 151.71C37.4347 151.603 37.668 151.53 37.9213 151.49C38.188 151.45 38.448 151.43 38.7013 151.43C38.9813 151.43 39.2547 151.463 39.5213 151.53C39.8013 151.583 40.0547 151.676 40.2813 151.81C40.508 151.943 40.6947 152.123 40.8413 152.35C40.988 152.563 41.0747 152.836 41.1013 153.17H42.8013C42.7613 152.543 42.628 152.023 42.4013 151.61C42.1747 151.183 41.868 150.85 41.4813 150.61C41.108 150.356 40.6747 150.183 40.1813 150.09C39.688 149.983 39.148 149.93 38.5613 149.93C38.108 149.93 37.648 149.99 37.1813 150.11C36.728 150.216 36.3147 150.39 35.9413 150.63C35.5813 150.856 35.2813 151.156 35.0413 151.53C34.8147 151.903 34.7013 152.35 34.7013 152.87C34.7013 153.536 34.868 154.056 35.2013 154.43C35.5347 154.803 35.948 155.096 36.4413 155.31C36.948 155.51 37.4947 155.67 38.0813 155.79C38.668 155.896 39.208 156.023 39.7013 156.17C40.208 156.303 40.628 156.483 40.9613 156.71C41.2947 156.936 41.4613 157.27 41.4613 157.71C41.4613 158.03 41.3813 158.296 41.2213 158.51C41.0613 158.71 40.8547 158.863 40.6013 158.97C40.3613 159.076 40.0947 159.15 39.8013 159.19C39.508 159.23 39.228 159.25 38.9613 159.25C38.6147 159.25 38.2747 159.216 37.9413 159.15C37.6213 159.083 37.328 158.976 37.0613 158.83C36.808 158.67 36.6013 158.463 36.4413 158.21C36.2813 157.943 36.1947 157.623 36.1813 157.25ZM52.0713 154.35H46.1313C46.158 153.95 46.2447 153.576 46.3913 153.23C46.538 152.87 46.738 152.556 46.9913 152.29C47.2447 152.023 47.5447 151.816 47.8913 151.67C48.2513 151.51 48.6513 151.43 49.0913 151.43C49.518 151.43 49.9047 151.51 50.2513 151.67C50.6113 151.816 50.918 152.023 51.1713 152.29C51.438 152.543 51.6447 152.85 51.7913 153.21C51.9513 153.57 52.0447 153.95 52.0713 154.35ZM53.7113 157.23H52.0313C51.8847 157.91 51.578 158.416 51.1113 158.75C50.658 159.083 50.0713 159.25 49.3513 159.25C48.7913 159.25 48.3047 159.156 47.8913 158.97C47.478 158.783 47.138 158.536 46.8713 158.23C46.6047 157.91 46.4113 157.55 46.2913 157.15C46.1713 156.736 46.118 156.303 46.1313 155.85H53.8713C53.898 155.223 53.838 154.563 53.6913 153.87C53.558 153.176 53.3047 152.536 52.9313 151.95C52.5713 151.363 52.0847 150.883 51.4713 150.51C50.8713 150.123 50.1113 149.93 49.1913 149.93C48.4847 149.93 47.8313 150.063 47.2313 150.33C46.6447 150.596 46.1313 150.97 45.6913 151.45C45.2647 151.93 44.9313 152.496 44.6913 153.15C44.4513 153.803 44.3313 154.523 44.3313 155.31C44.358 156.096 44.4713 156.823 44.6713 157.49C44.8847 158.156 45.198 158.73 45.6113 159.21C46.0247 159.69 46.5313 160.063 47.1313 160.33C47.7447 160.596 48.4647 160.73 49.2913 160.73C50.4647 160.73 51.438 160.436 52.2113 159.85C52.9847 159.263 53.4847 158.39 53.7113 157.23ZM55.3235 150.17V160.51H57.0235V155.91C57.0235 155.243 57.0902 154.656 57.2235 154.15C57.3568 153.63 57.5702 153.19 57.8635 152.83C58.1568 152.47 58.5435 152.196 59.0235 152.01C59.5035 151.823 60.0835 151.73 60.7635 151.73V149.93C59.8435 149.903 59.0835 150.09 58.4835 150.49C57.8835 150.89 57.3768 151.51 56.9635 152.35H56.9235V150.17H55.3235ZM66.4537 160.51L70.2337 150.17H68.4537L65.6337 158.79H65.5937L62.6937 150.17H60.7937L64.6337 160.51H66.4537ZM73.3437 148.31V146.23H71.6437V148.31H73.3437ZM71.6437 150.17V160.51H73.3437V150.17H71.6437ZM82.7473 153.49H84.5073C84.4406 152.876 84.2806 152.35 84.0273 151.91C83.7739 151.456 83.4473 151.083 83.0473 150.79C82.6606 150.496 82.2073 150.283 81.6873 150.15C81.1806 150.003 80.6339 149.93 80.0473 149.93C79.2339 149.93 78.5206 150.076 77.9073 150.37C77.2939 150.65 76.7806 151.043 76.3673 151.55C75.9673 152.043 75.6673 152.63 75.4673 153.31C75.2673 153.976 75.1673 154.696 75.1673 155.47C75.1673 156.243 75.2673 156.956 75.4673 157.61C75.6806 158.25 75.9873 158.803 76.3873 159.27C76.8006 159.736 77.3073 160.096 77.9073 160.35C78.5206 160.603 79.2206 160.73 80.0073 160.73C81.3273 160.73 82.3673 160.383 83.1273 159.69C83.9006 158.996 84.3806 158.01 84.5673 156.73H82.8273C82.7206 157.53 82.4273 158.15 81.9473 158.59C81.4806 159.03 80.8273 159.25 79.9873 159.25C79.4539 159.25 78.9939 159.143 78.6073 158.93C78.2206 158.716 77.9073 158.436 77.6673 158.09C77.4273 157.73 77.2473 157.323 77.1273 156.87C77.0206 156.416 76.9673 155.95 76.9673 155.47C76.9673 154.95 77.0206 154.45 77.1273 153.97C77.2339 153.476 77.4073 153.043 77.6473 152.67C77.9006 152.296 78.2339 151.996 78.6473 151.77C79.0606 151.543 79.5739 151.43 80.1873 151.43C80.9073 151.43 81.4806 151.61 81.9073 151.97C82.3339 152.33 82.6139 152.836 82.7473 153.49ZM93.3995 154.35H87.4595C87.4861 153.95 87.5728 153.576 87.7195 153.23C87.8661 152.87 88.0661 152.556 88.3195 152.29C88.5728 152.023 88.8728 151.816 89.2195 151.67C89.5795 151.51 89.9795 151.43 90.4195 151.43C90.8461 151.43 91.2328 151.51 91.5795 151.67C91.9395 151.816 92.2461 152.023 92.4995 152.29C92.7661 152.543 92.9728 152.85 93.1195 153.21C93.2795 153.57 93.3728 153.95 93.3995 154.35ZM95.0395 157.23H93.3595C93.2128 157.91 92.9061 158.416 92.4395 158.75C91.9861 159.083 91.3995 159.25 90.6795 159.25C90.1195 159.25 89.6328 159.156 89.2195 158.97C88.8061 158.783 88.4661 158.536 88.1995 158.23C87.9328 157.91 87.7395 157.55 87.6195 157.15C87.4995 156.736 87.4461 156.303 87.4595 155.85H95.1995C95.2261 155.223 95.1661 154.563 95.0195 153.87C94.8861 153.176 94.6328 152.536 94.2595 151.95C93.8995 151.363 93.4128 150.883 92.7995 150.51C92.1995 150.123 91.4395 149.93 90.5195 149.93C89.8128 149.93 89.1595 150.063 88.5595 150.33C87.9728 150.596 87.4595 150.97 87.0195 151.45C86.5928 151.93 86.2595 152.496 86.0195 153.15C85.7795 153.803 85.6595 154.523 85.6595 155.31C85.6861 156.096 85.7995 156.823 85.9995 157.49C86.2128 158.156 86.5261 158.73 86.9395 159.21C87.3528 159.69 87.8595 160.063 88.4595 160.33C89.0728 160.596 89.7928 160.73 90.6195 160.73C91.7928 160.73 92.7661 160.436 93.5395 159.85C94.3128 159.263 94.8128 158.39 95.0395 157.23ZM97.7516 157.25H96.0516C96.0783 157.89 96.2116 158.436 96.4516 158.89C96.6916 159.33 97.0116 159.69 97.4116 159.97C97.8116 160.236 98.2716 160.43 98.7916 160.55C99.3116 160.67 99.8583 160.73 100.432 160.73C100.952 160.73 101.472 160.676 101.992 160.57C102.525 160.476 102.998 160.303 103.412 160.05C103.838 159.796 104.178 159.463 104.432 159.05C104.698 158.636 104.832 158.116 104.832 157.49C104.832 156.996 104.732 156.583 104.532 156.25C104.345 155.916 104.092 155.643 103.772 155.43C103.465 155.203 103.105 155.023 102.692 154.89C102.292 154.756 101.878 154.643 101.452 154.55C101.052 154.456 100.652 154.37 100.252 154.29C99.8516 154.196 99.4916 154.09 99.1716 153.97C98.8516 153.836 98.585 153.676 98.3716 153.49C98.1716 153.29 98.0716 153.043 98.0716 152.75C98.0716 152.483 98.1383 152.27 98.2716 152.11C98.405 151.936 98.5783 151.803 98.7916 151.71C99.005 151.603 99.2383 151.53 99.4916 151.49C99.7583 151.45 100.018 151.43 100.272 151.43C100.552 151.43 100.825 151.463 101.092 151.53C101.372 151.583 101.625 151.676 101.852 151.81C102.078 151.943 102.265 152.123 102.412 152.35C102.558 152.563 102.645 152.836 102.672 153.17H104.372C104.332 152.543 104.198 152.023 103.972 151.61C103.745 151.183 103.438 150.85 103.052 150.61C102.678 150.356 102.245 150.183 101.752 150.09C101.258 149.983 100.718 149.93 100.132 149.93C99.6783 149.93 99.2183 149.99 98.7516 150.11C98.2983 150.216 97.885 150.39 97.5116 150.63C97.1516 150.856 96.8516 151.156 96.6116 151.53C96.385 151.903 96.2716 152.35 96.2716 152.87C96.2716 153.536 96.4383 154.056 96.7716 154.43C97.105 154.803 97.5183 155.096 98.0116 155.31C98.5183 155.51 99.065 155.67 99.6516 155.79C100.238 155.896 100.778 156.023 101.272 156.17C101.778 156.303 102.198 156.483 102.532 156.71C102.865 156.936 103.032 157.27 103.032 157.71C103.032 158.03 102.952 158.296 102.792 158.51C102.632 158.71 102.425 158.863 102.172 158.97C101.932 159.076 101.665 159.15 101.372 159.19C101.078 159.23 100.798 159.25 100.532 159.25C100.185 159.25 99.845 159.216 99.5116 159.15C99.1916 159.083 98.8983 158.976 98.6316 158.83C98.3783 158.67 98.1716 158.463 98.0116 158.21C97.8516 157.943 97.765 157.623 97.7516 157.25ZM113.018 155.35C113.018 154.723 113.098 154.17 113.258 153.69C113.431 153.196 113.665 152.783 113.958 152.45C114.251 152.116 114.591 151.863 114.978 151.69C115.378 151.516 115.798 151.43 116.238 151.43C116.678 151.43 117.091 151.516 117.478 151.69C117.878 151.863 118.225 152.116 118.518 152.45C118.811 152.783 119.038 153.196 119.198 153.69C119.371 154.17 119.458 154.723 119.458 155.35C119.458 155.976 119.371 156.536 119.198 157.03C119.038 157.51 118.811 157.916 118.518 158.25C118.225 158.57 117.878 158.816 117.478 158.99C117.091 159.163 116.678 159.25 116.238 159.25C115.798 159.25 115.378 159.163 114.978 158.99C114.591 158.816 114.251 158.57 113.958 158.25C113.665 157.916 113.431 157.51 113.258 157.03C113.098 156.536 113.018 155.976 113.018 155.35ZM111.218 155.35C111.218 156.11 111.325 156.816 111.538 157.47C111.751 158.123 112.071 158.696 112.498 159.19C112.925 159.67 113.451 160.05 114.078 160.33C114.705 160.596 115.425 160.73 116.238 160.73C117.065 160.73 117.785 160.596 118.398 160.33C119.025 160.05 119.551 159.67 119.978 159.19C120.405 158.696 120.725 158.123 120.938 157.47C121.151 156.816 121.258 156.11 121.258 155.35C121.258 154.59 121.151 153.883 120.938 153.23C120.725 152.563 120.405 151.99 119.978 151.51C119.551 151.016 119.025 150.63 118.398 150.35C117.785 150.07 117.065 149.93 116.238 149.93C115.425 149.93 114.705 150.07 114.078 150.35C113.451 150.63 112.925 151.016 112.498 151.51C112.071 151.99 111.751 152.563 111.538 153.23C111.325 153.883 111.218 154.59 111.218 155.35ZM123.012 150.17V160.51H124.712V154.67C124.712 154.203 124.772 153.776 124.892 153.39C125.026 152.99 125.219 152.643 125.472 152.35C125.726 152.056 126.039 151.83 126.412 151.67C126.799 151.51 127.252 151.43 127.772 151.43C128.426 151.43 128.939 151.616 129.312 151.99C129.686 152.363 129.872 152.87 129.872 153.51V160.51H131.572V153.71C131.572 153.15 131.512 152.643 131.392 152.19C131.286 151.723 131.092 151.323 130.812 150.99C130.532 150.656 130.166 150.396 129.712 150.21C129.259 150.023 128.692 149.93 128.012 149.93C126.479 149.93 125.359 150.556 124.652 151.81H124.612V150.17H123.012ZM37.3213 172.37V167.83H41.1213C41.5347 167.83 41.9213 167.856 42.2813 167.91C42.6547 167.95 42.9813 168.05 43.2613 168.21C43.5413 168.37 43.7613 168.596 43.9213 168.89C44.0813 169.183 44.1613 169.583 44.1613 170.09C44.1613 170.85 43.9213 171.423 43.4413 171.81C42.9747 172.183 42.2013 172.37 41.1213 172.37H37.3213ZM35.4213 166.23V180.51H42.3213C43.028 180.51 43.648 180.396 44.1813 180.17C44.728 179.93 45.1813 179.623 45.5413 179.25C45.9147 178.863 46.1947 178.423 46.3813 177.93C46.568 177.436 46.6613 176.93 46.6613 176.41C46.6613 175.53 46.428 174.783 45.9613 174.17C45.4947 173.556 44.8213 173.156 43.9413 172.97V172.93C44.6213 172.663 45.1413 172.256 45.5013 171.71C45.8747 171.15 46.0613 170.49 46.0613 169.73C46.0613 169.01 45.8947 168.403 45.5613 167.91C45.2413 167.416 44.848 167.03 44.3813 166.75C44.168 166.616 43.908 166.516 43.6013 166.45C43.308 166.383 42.988 166.336 42.6413 166.31C42.2947 166.27 41.9413 166.25 41.5813 166.25C41.2347 166.236 40.908 166.23 40.6013 166.23H35.4213ZM37.3213 178.91V173.97H41.6613C42.0613 173.97 42.448 174.01 42.8213 174.09C43.1947 174.156 43.5213 174.283 43.8013 174.47C44.0947 174.643 44.328 174.883 44.5013 175.19C44.6747 175.496 44.7613 175.883 44.7613 176.35C44.7613 177.15 44.5213 177.776 44.0413 178.23C43.5747 178.683 42.9213 178.91 42.0813 178.91H37.3213ZM57.7427 180.47C57.4494 180.643 57.0427 180.73 56.5227 180.73C56.0827 180.73 55.7294 180.61 55.4627 180.37C55.2094 180.116 55.0827 179.71 55.0827 179.15C54.6161 179.71 54.0694 180.116 53.4427 180.37C52.8294 180.61 52.1627 180.73 51.4427 180.73C50.9761 180.73 50.5294 180.676 50.1027 180.57C49.6894 180.463 49.3294 180.296 49.0227 180.07C48.7161 179.843 48.4694 179.55 48.2827 179.19C48.1094 178.816 48.0227 178.37 48.0227 177.85C48.0227 177.263 48.1227 176.783 48.3227 176.41C48.5227 176.036 48.7827 175.736 49.1027 175.51C49.4361 175.27 49.8094 175.09 50.2227 174.97C50.6494 174.85 51.0827 174.75 51.5227 174.67C51.9894 174.576 52.4294 174.51 52.8427 174.47C53.2694 174.416 53.6427 174.35 53.9627 174.27C54.2827 174.176 54.5361 174.05 54.7227 173.89C54.9094 173.716 55.0027 173.47 55.0027 173.15C55.0027 172.776 54.9294 172.476 54.7827 172.25C54.6494 172.023 54.4694 171.85 54.2427 171.73C54.0294 171.61 53.7827 171.53 53.5027 171.49C53.2361 171.45 52.9694 171.43 52.7027 171.43C51.9827 171.43 51.3827 171.57 50.9027 171.85C50.4227 172.116 50.1627 172.63 50.1227 173.39H48.4227C48.4494 172.75 48.5827 172.21 48.8227 171.77C49.0627 171.33 49.3827 170.976 49.7827 170.71C50.1827 170.43 50.6361 170.23 51.1427 170.11C51.6627 169.99 52.2161 169.93 52.8027 169.93C53.2694 169.93 53.7294 169.963 54.1827 170.03C54.6494 170.096 55.0694 170.236 55.4427 170.45C55.8161 170.65 56.1161 170.936 56.3427 171.31C56.5694 171.683 56.6827 172.17 56.6827 172.77V178.09C56.6827 178.49 56.7027 178.783 56.7427 178.97C56.7961 179.156 56.9561 179.25 57.2227 179.25C57.3694 179.25 57.5427 179.216 57.7427 179.15V180.47ZM54.9827 175.17C54.7694 175.33 54.4894 175.45 54.1427 175.53C53.7961 175.596 53.4294 175.656 53.0427 175.71C52.6694 175.75 52.2894 175.803 51.9027 175.87C51.5161 175.923 51.1694 176.016 50.8627 176.15C50.5561 176.283 50.3027 176.476 50.1027 176.73C49.9161 176.97 49.8227 177.303 49.8227 177.73C49.8227 178.01 49.8761 178.25 49.9827 178.45C50.1027 178.636 50.2494 178.79 50.4227 178.91C50.6094 179.03 50.8227 179.116 51.0627 179.17C51.3027 179.223 51.5561 179.25 51.8227 179.25C52.3827 179.25 52.8627 179.176 53.2627 179.03C53.6627 178.87 53.9894 178.676 54.2427 178.45C54.4961 178.21 54.6827 177.956 54.8027 177.69C54.9227 177.41 54.9827 177.15 54.9827 176.91V175.17ZM66.0949 173.49H67.8549C67.7883 172.876 67.6283 172.35 67.3749 171.91C67.1216 171.456 66.7949 171.083 66.3949 170.79C66.0083 170.496 65.5549 170.283 65.0349 170.15C64.5283 170.003 63.9816 169.93 63.3949 169.93C62.5816 169.93 61.8683 170.076 61.2549 170.37C60.6416 170.65 60.1283 171.043 59.7149 171.55C59.3149 172.043 59.0149 172.63 58.8149 173.31C58.6149 173.976 58.5149 174.696 58.5149 175.47C58.5149 176.243 58.6149 176.956 58.8149 177.61C59.0283 178.25 59.3349 178.803 59.7349 179.27C60.1483 179.736 60.6549 180.096 61.2549 180.35C61.8683 180.603 62.5683 180.73 63.3549 180.73C64.6749 180.73 65.7149 180.383 66.4749 179.69C67.2483 178.996 67.7283 178.01 67.9149 176.73H66.1749C66.0683 177.53 65.7749 178.15 65.2949 178.59C64.8283 179.03 64.1749 179.25 63.3349 179.25C62.8016 179.25 62.3416 179.143 61.9549 178.93C61.5683 178.716 61.2549 178.436 61.0149 178.09C60.7749 177.73 60.5949 177.323 60.4749 176.87C60.3683 176.416 60.3149 175.95 60.3149 175.47C60.3149 174.95 60.3683 174.45 60.4749 173.97C60.5816 173.476 60.7549 173.043 60.9949 172.67C61.2483 172.296 61.5816 171.996 61.9949 171.77C62.4083 171.543 62.9216 171.43 63.5349 171.43C64.2549 171.43 64.8283 171.61 65.2549 171.97C65.6816 172.33 65.9616 172.836 66.0949 173.49ZM69.6671 166.23V180.51H71.3671V176.59L72.9671 175.11L76.5071 180.51H78.6671L74.2671 173.93L78.3671 170.17H76.0871L71.3671 174.69V166.23H69.6671ZM80.7282 177.25H79.0282C79.0549 177.89 79.1882 178.436 79.4282 178.89C79.6682 179.33 79.9882 179.69 80.3882 179.97C80.7882 180.236 81.2482 180.43 81.7682 180.55C82.2882 180.67 82.8349 180.73 83.4082 180.73C83.9282 180.73 84.4482 180.676 84.9682 180.57C85.5015 180.476 85.9749 180.303 86.3882 180.05C86.8149 179.796 87.1549 179.463 87.4082 179.05C87.6749 178.636 87.8082 178.116 87.8082 177.49C87.8082 176.996 87.7082 176.583 87.5082 176.25C87.3215 175.916 87.0682 175.643 86.7482 175.43C86.4415 175.203 86.0815 175.023 85.6682 174.89C85.2682 174.756 84.8549 174.643 84.4282 174.55C84.0282 174.456 83.6282 174.37 83.2282 174.29C82.8282 174.196 82.4682 174.09 82.1482 173.97C81.8282 173.836 81.5615 173.676 81.3482 173.49C81.1482 173.29 81.0482 173.043 81.0482 172.75C81.0482 172.483 81.1149 172.27 81.2482 172.11C81.3815 171.936 81.5549 171.803 81.7682 171.71C81.9815 171.603 82.2149 171.53 82.4682 171.49C82.7349 171.45 82.9949 171.43 83.2482 171.43C83.5282 171.43 83.8015 171.463 84.0682 171.53C84.3482 171.583 84.6015 171.676 84.8282 171.81C85.0549 171.943 85.2415 172.123 85.3882 172.35C85.5349 172.563 85.6215 172.836 85.6482 173.17H87.3482C87.3082 172.543 87.1749 172.023 86.9482 171.61C86.7215 171.183 86.4149 170.85 86.0282 170.61C85.6549 170.356 85.2215 170.183 84.7282 170.09C84.2349 169.983 83.6949 169.93 83.1082 169.93C82.6549 169.93 82.1949 169.99 81.7282 170.11C81.2749 170.216 80.8615 170.39 80.4882 170.63C80.1282 170.856 79.8282 171.156 79.5882 171.53C79.3615 171.903 79.2482 172.35 79.2482 172.87C79.2482 173.536 79.4149 174.056 79.7482 174.43C80.0815 174.803 80.4949 175.096 80.9882 175.31C81.4949 175.51 82.0415 175.67 82.6282 175.79C83.2149 175.896 83.7549 176.023 84.2482 176.17C84.7549 176.303 85.1749 176.483 85.5082 176.71C85.8415 176.936 86.0082 177.27 86.0082 177.71C86.0082 178.03 85.9282 178.296 85.7682 178.51C85.6082 178.71 85.4015 178.863 85.1482 178.97C84.9082 179.076 84.6415 179.15 84.3482 179.19C84.0549 179.23 83.7749 179.25 83.5082 179.25C83.1615 179.25 82.8215 179.216 82.4882 179.15C82.1682 179.083 81.8749 178.976 81.6082 178.83C81.3549 178.67 81.1482 178.463 80.9882 178.21C80.8282 177.943 80.7415 177.623 80.7282 177.25ZM91.7982 170.17V167.07H90.0982V170.17H88.3382V171.67H90.0982V178.25C90.0982 178.73 90.1449 179.116 90.2382 179.41C90.3315 179.703 90.4715 179.93 90.6582 180.09C90.8582 180.25 91.1115 180.363 91.4182 180.43C91.7382 180.483 92.1182 180.51 92.5582 180.51H93.8582V179.01H93.0782C92.8115 179.01 92.5915 179.003 92.4182 178.99C92.2582 178.963 92.1315 178.916 92.0382 178.85C91.9449 178.783 91.8782 178.69 91.8382 178.57C91.8115 178.45 91.7982 178.29 91.7982 178.09V171.67H93.8582V170.17H91.7982ZM104.657 180.47C104.363 180.643 103.957 180.73 103.437 180.73C102.997 180.73 102.643 180.61 102.377 180.37C102.123 180.116 101.997 179.71 101.997 179.15C101.53 179.71 100.983 180.116 100.357 180.37C99.7435 180.61 99.0768 180.73 98.3568 180.73C97.8901 180.73 97.4435 180.676 97.0168 180.57C96.6035 180.463 96.2435 180.296 95.9368 180.07C95.6301 179.843 95.3835 179.55 95.1968 179.19C95.0235 178.816 94.9368 178.37 94.9368 177.85C94.9368 177.263 95.0368 176.783 95.2368 176.41C95.4368 176.036 95.6968 175.736 96.0168 175.51C96.3501 175.27 96.7235 175.09 97.1368 174.97C97.5635 174.85 97.9968 174.75 98.4368 174.67C98.9035 174.576 99.3435 174.51 99.7568 174.47C100.183 174.416 100.557 174.35 100.877 174.27C101.197 174.176 101.45 174.05 101.637 173.89C101.823 173.716 101.917 173.47 101.917 173.15C101.917 172.776 101.843 172.476 101.697 172.25C101.563 172.023 101.383 171.85 101.157 171.73C100.943 171.61 100.697 171.53 100.417 171.49C100.15 171.45 99.8835 171.43 99.6168 171.43C98.8968 171.43 98.2968 171.57 97.8168 171.85C97.3368 172.116 97.0768 172.63 97.0368 173.39H95.3368C95.3635 172.75 95.4968 172.21 95.7368 171.77C95.9768 171.33 96.2968 170.976 96.6968 170.71C97.0968 170.43 97.5501 170.23 98.0568 170.11C98.5768 169.99 99.1301 169.93 99.7168 169.93C100.183 169.93 100.643 169.963 101.097 170.03C101.563 170.096 101.983 170.236 102.357 170.45C102.73 170.65 103.03 170.936 103.257 171.31C103.483 171.683 103.597 172.17 103.597 172.77V178.09C103.597 178.49 103.617 178.783 103.657 178.97C103.71 179.156 103.87 179.25 104.137 179.25C104.283 179.25 104.457 179.216 104.657 179.15V180.47ZM101.897 175.17C101.683 175.33 101.403 175.45 101.057 175.53C100.71 175.596 100.343 175.656 99.9568 175.71C99.5835 175.75 99.2035 175.803 98.8168 175.87C98.4301 175.923 98.0835 176.016 97.7768 176.15C97.4701 176.283 97.2168 176.476 97.0168 176.73C96.8301 176.97 96.7368 177.303 96.7368 177.73C96.7368 178.01 96.7901 178.25 96.8968 178.45C97.0168 178.636 97.1635 178.79 97.3368 178.91C97.5235 179.03 97.7368 179.116 97.9768 179.17C98.2168 179.223 98.4701 179.25 98.7368 179.25C99.2968 179.25 99.7768 179.176 100.177 179.03C100.577 178.87 100.903 178.676 101.157 178.45C101.41 178.21 101.597 177.956 101.717 177.69C101.837 177.41 101.897 177.15 101.897 176.91V175.17ZM114.909 179.63V170.17H113.309V171.65H113.289C112.982 171.076 112.556 170.65 112.009 170.37C111.462 170.076 110.862 169.93 110.209 169.93C109.316 169.93 108.562 170.103 107.949 170.45C107.336 170.783 106.842 171.216 106.469 171.75C106.096 172.27 105.829 172.856 105.669 173.51C105.509 174.15 105.429 174.776 105.429 175.39C105.429 176.096 105.522 176.77 105.709 177.41C105.909 178.036 106.202 178.59 106.589 179.07C106.976 179.536 107.456 179.91 108.029 180.19C108.602 180.47 109.276 180.61 110.049 180.61C110.716 180.61 111.342 180.463 111.929 180.17C112.529 179.863 112.976 179.39 113.269 178.75H113.309V179.43C113.309 180.003 113.249 180.53 113.129 181.01C113.022 181.49 112.842 181.896 112.589 182.23C112.336 182.576 112.016 182.843 111.629 183.03C111.242 183.23 110.769 183.33 110.209 183.33C109.929 183.33 109.636 183.296 109.329 183.23C109.022 183.176 108.736 183.083 108.469 182.95C108.216 182.816 107.996 182.643 107.809 182.43C107.636 182.216 107.542 181.956 107.529 181.65H105.829C105.856 182.21 106.002 182.683 106.269 183.07C106.536 183.456 106.869 183.77 107.269 184.01C107.682 184.25 108.136 184.423 108.629 184.53C109.136 184.636 109.629 184.69 110.109 184.69C111.762 184.69 112.976 184.27 113.749 183.43C114.522 182.59 114.909 181.323 114.909 179.63ZM110.149 179.13C109.589 179.13 109.122 179.016 108.749 178.79C108.376 178.55 108.076 178.243 107.849 177.87C107.622 177.483 107.462 177.056 107.369 176.59C107.276 176.123 107.229 175.656 107.229 175.19C107.229 174.696 107.282 174.223 107.389 173.77C107.509 173.316 107.689 172.916 107.929 172.57C108.182 172.223 108.502 171.95 108.889 171.75C109.276 171.536 109.742 171.43 110.289 171.43C110.822 171.43 111.276 171.536 111.649 171.75C112.022 171.963 112.322 172.25 112.549 172.61C112.789 172.956 112.962 173.35 113.069 173.79C113.176 174.23 113.229 174.676 113.229 175.13C113.229 175.61 113.169 176.09 113.049 176.57C112.942 177.05 112.769 177.483 112.529 177.87C112.289 178.243 111.969 178.55 111.569 178.79C111.182 179.016 110.709 179.13 110.149 179.13ZM124.403 174.35H118.463C118.49 173.95 118.577 173.576 118.723 173.23C118.87 172.87 119.07 172.556 119.323 172.29C119.577 172.023 119.877 171.816 120.223 171.67C120.583 171.51 120.983 171.43 121.423 171.43C121.85 171.43 122.237 171.51 122.583 171.67C122.943 171.816 123.25 172.023 123.503 172.29C123.77 172.543 123.977 172.85 124.123 173.21C124.283 173.57 124.377 173.95 124.403 174.35ZM126.043 177.23H124.363C124.217 177.91 123.91 178.416 123.443 178.75C122.99 179.083 122.403 179.25 121.683 179.25C121.123 179.25 120.637 179.156 120.223 178.97C119.81 178.783 119.47 178.536 119.203 178.23C118.937 177.91 118.743 177.55 118.623 177.15C118.503 176.736 118.45 176.303 118.463 175.85H126.203C126.23 175.223 126.17 174.563 126.023 173.87C125.89 173.176 125.637 172.536 125.263 171.95C124.903 171.363 124.417 170.883 123.803 170.51C123.203 170.123 122.443 169.93 121.523 169.93C120.817 169.93 120.163 170.063 119.563 170.33C118.977 170.596 118.463 170.97 118.023 171.45C117.597 171.93 117.263 172.496 117.023 173.15C116.783 173.803 116.663 174.523 116.663 175.31C116.69 176.096 116.803 176.823 117.003 177.49C117.217 178.156 117.53 178.73 117.943 179.21C118.357 179.69 118.863 180.063 119.463 180.33C120.077 180.596 120.797 180.73 121.623 180.73C122.797 180.73 123.77 180.436 124.543 179.85C125.317 179.263 125.817 178.39 126.043 177.23Z" fill="#BDBDBD"/>
<defs>
<filter id="filter0_d" x="0.466797" y="0" width="319.879" height="233.692" filterUnits="userSpaceOnUse" color-interpolation-filters="sRGB">
<feFlood flood-opacity="0" result="BackgroundImageFix"/>
<feColorMatrix in="SourceAlpha" type="matrix" values="0 0 0 0 0 0 0 0 0 0 0 0 0 0 0 0 0 0 127 0"/>
<feOffset dx="8" dy="8"/>
<feGaussianBlur stdDeviation="12.5"/>
<feColorMatrix type="matrix" values="0 0 0 0 0 0 0 0 0 0 0 0 0 0 0 0 0 0 0.7 0"/>
<feBlend mode="normal" in2="BackgroundImageFix" result="effect1_dropShadow"/>
<feBlend mode="normal" in="SourceGraphic" in2="effect1_dropShadow" result="shape"/>
</filter>
<linearGradient id="paint0_linear" x1="17.4668" y1="114.077" x2="388.862" y2="114.077" gradientUnits="userSpaceOnUse">
<stop stop-color="#181818"/>
<stop offset="1" stop-color="#282828"/>
</linearGradient>
</defs>
</svg>
