<svg width="321" height="234" viewBox="0 0 321 234" fill="none" xmlns="http://www.w3.org/2000/svg">
<g filter="url(#filter0_d)">
<rect x="17.7627" y="17.2793" width="269.879" height="183.692" rx="8" fill="url(#paint0_linear)"/>
</g>
<path d="M52.8772 82.616V97.196H41.8372L52.6972 82.616H52.8772ZM52.8772 104.216V113.936H60.9772V104.216H66.5572V97.196H60.9772V71.936H53.3572L35.1172 96.416V104.216H52.8772ZM70.9071 104.696V113.936H75.2271C75.2671 114.576 75.1871 115.196 74.9871 115.796C74.7871 116.436 74.4871 116.996 74.0871 117.476C73.6871 117.996 73.2071 118.436 72.6471 118.796C72.1271 119.156 71.5671 119.396 70.9671 119.516V123.836C72.2471 123.636 73.4471 123.256 74.5671 122.696C75.7271 122.176 76.7271 121.496 77.5671 120.656C78.4071 119.816 79.0671 118.816 79.5471 117.656C80.0671 116.536 80.3271 115.296 80.3271 113.936V104.696H70.9071ZM93.4763 92.756C93.4763 92.036 93.4763 91.176 93.4763 90.176C93.5163 89.136 93.5963 88.076 93.7163 86.996C93.8363 85.916 94.0363 84.856 94.3163 83.816C94.5963 82.736 94.9763 81.776 95.4563 80.936C95.9763 80.096 96.6163 79.416 97.3763 78.896C98.1763 78.376 99.1563 78.116 100.316 78.116C101.476 78.116 102.456 78.376 103.256 78.896C104.056 79.416 104.716 80.096 105.236 80.936C105.756 81.776 106.136 82.736 106.376 83.816C106.656 84.856 106.856 85.916 106.976 86.996C107.136 88.076 107.216 89.136 107.216 90.176C107.256 91.176 107.276 92.036 107.276 92.756C107.276 93.956 107.236 95.416 107.156 97.136C107.076 98.816 106.816 100.456 106.376 102.056C105.976 103.616 105.296 104.956 104.336 106.076C103.416 107.196 102.076 107.756 100.316 107.756C98.5963 107.756 97.2763 107.196 96.3563 106.076C95.4363 104.956 94.7563 103.616 94.3163 102.056C93.9163 100.456 93.6763 98.816 93.5963 97.136C93.5163 95.416 93.4763 93.956 93.4763 92.756ZM84.9563 92.756C84.9563 96.956 85.3563 100.476 86.1563 103.316C86.9963 106.116 88.1163 108.356 89.5163 110.036C90.9163 111.716 92.5363 112.916 94.3763 113.636C96.2563 114.356 98.2363 114.716 100.316 114.716C102.436 114.716 104.416 114.356 106.256 113.636C108.136 112.916 109.776 111.716 111.176 110.036C112.616 108.356 113.736 106.116 114.536 103.316C115.376 100.476 115.796 96.956 115.796 92.756C115.796 88.676 115.376 85.256 114.536 82.496C113.736 79.696 112.616 77.456 111.176 75.776C109.776 74.096 108.136 72.896 106.256 72.176C104.416 71.456 102.436 71.096 100.316 71.096C98.2363 71.096 96.2563 71.456 94.3763 72.176C92.5363 72.896 90.9163 74.096 89.5163 75.776C88.1163 77.456 86.9963 79.696 86.1563 82.496C85.3563 85.256 84.9563 88.676 84.9563 92.756ZM126.566 92.756C126.566 92.036 126.566 91.176 126.566 90.176C126.606 89.136 126.686 88.076 126.806 86.996C126.926 85.916 127.126 84.856 127.406 83.816C127.686 82.736 128.066 81.776 128.546 80.936C129.066 80.096 129.706 79.416 130.466 78.896C131.266 78.376 132.246 78.116 133.406 78.116C134.566 78.116 135.546 78.376 136.346 78.896C137.146 79.416 137.806 80.096 138.326 80.936C138.846 81.776 139.226 82.736 139.466 83.816C139.746 84.856 139.946 85.916 140.066 86.996C140.226 88.076 140.306 89.136 140.306 90.176C140.346 91.176 140.366 92.036 140.366 92.756C140.366 93.956 140.326 95.416 140.246 97.136C140.166 98.816 139.906 100.456 139.466 102.056C139.066 103.616 138.386 104.956 137.426 106.076C136.506 107.196 135.166 107.756 133.406 107.756C131.686 107.756 130.366 107.196 129.446 106.076C128.526 104.956 127.846 103.616 127.406 102.056C127.006 100.456 126.766 98.816 126.686 97.136C126.606 95.416 126.566 93.956 126.566 92.756ZM118.046 92.756C118.046 96.956 118.446 100.476 119.246 103.316C120.086 106.116 121.206 108.356 122.606 110.036C124.006 111.716 125.626 112.916 127.466 113.636C129.346 114.356 131.326 114.716 133.406 114.716C135.526 114.716 137.506 114.356 139.346 113.636C141.226 112.916 142.866 111.716 144.266 110.036C145.706 108.356 146.826 106.116 147.626 103.316C148.466 100.476 148.886 96.956 148.886 92.756C148.886 88.676 148.466 85.256 147.626 82.496C146.826 79.696 145.706 77.456 144.266 75.776C142.866 74.096 141.226 72.896 139.346 72.176C137.506 71.456 135.526 71.096 133.406 71.096C131.326 71.096 129.346 71.456 127.466 72.176C125.626 72.896 124.006 74.096 122.606 75.776C121.206 77.456 120.086 79.696 119.246 82.496C118.446 85.256 118.046 88.676 118.046 92.756ZM159.656 92.756C159.656 92.036 159.656 91.176 159.656 90.176C159.696 89.136 159.776 88.076 159.896 86.996C160.016 85.916 160.216 84.856 160.496 83.816C160.776 82.736 161.156 81.776 161.636 80.936C162.156 80.096 162.796 79.416 163.556 78.896C164.356 78.376 165.336 78.116 166.496 78.116C167.656 78.116 168.636 78.376 169.436 78.896C170.236 79.416 170.896 80.096 171.416 80.936C171.936 81.776 172.316 82.736 172.556 83.816C172.836 84.856 173.036 85.916 173.156 86.996C173.316 88.076 173.396 89.136 173.396 90.176C173.436 91.176 173.456 92.036 173.456 92.756C173.456 93.956 173.416 95.416 173.336 97.136C173.256 98.816 172.996 100.456 172.556 102.056C172.156 103.616 171.476 104.956 170.516 106.076C169.596 107.196 168.256 107.756 166.496 107.756C164.776 107.756 163.456 107.196 162.536 106.076C161.616 104.956 160.936 103.616 160.496 102.056C160.096 100.456 159.856 98.816 159.776 97.136C159.696 95.416 159.656 93.956 159.656 92.756ZM151.136 92.756C151.136 96.956 151.536 100.476 152.336 103.316C153.176 106.116 154.296 108.356 155.696 110.036C157.096 111.716 158.716 112.916 160.556 113.636C162.436 114.356 164.416 114.716 166.496 114.716C168.616 114.716 170.596 114.356 172.436 113.636C174.316 112.916 175.956 111.716 177.356 110.036C178.796 108.356 179.916 106.116 180.716 103.316C181.556 100.476 181.976 96.956 181.976 92.756C181.976 88.676 181.556 85.256 180.716 82.496C179.916 79.696 178.796 77.456 177.356 75.776C175.956 74.096 174.316 72.896 172.436 72.176C170.596 71.456 168.616 71.096 166.496 71.096C164.416 71.096 162.436 71.456 160.556 72.176C158.716 72.896 157.096 74.096 155.696 75.776C154.296 77.456 153.176 79.696 152.336 82.496C151.536 85.256 151.136 88.676 151.136 92.756ZM204.206 95.576V83.636H197.786V95.576H185.846V101.996H197.786V113.936H204.206V101.996H216.146V95.576H204.206Z" fill="#9BF0E1"/>
<path d="M43.9772 130.689H45.7772C45.7506 129.902 45.5972 129.229 45.3172 128.669C45.0506 128.096 44.6772 127.622 44.1972 127.249C43.7306 126.876 43.1839 126.602 42.5572 126.429C41.9306 126.256 41.2506 126.169 40.5172 126.169C39.8639 126.169 39.2239 126.256 38.5972 126.429C37.9839 126.589 37.4306 126.842 36.9372 127.189C36.4572 127.522 36.0706 127.956 35.7772 128.489C35.4839 129.009 35.3372 129.629 35.3372 130.349C35.3372 131.002 35.4639 131.549 35.7172 131.989C35.9839 132.416 36.3306 132.769 36.7572 133.049C37.1972 133.316 37.6906 133.536 38.2372 133.709C38.7839 133.869 39.3372 134.016 39.8972 134.149C40.4706 134.269 41.0306 134.389 41.5772 134.509C42.1239 134.629 42.6106 134.789 43.0372 134.989C43.4772 135.176 43.8239 135.422 44.0772 135.729C44.3439 136.036 44.4772 136.436 44.4772 136.929C44.4772 137.449 44.3706 137.876 44.1572 138.209C43.9439 138.542 43.6639 138.809 43.3172 139.009C42.9706 139.196 42.5772 139.329 42.1372 139.409C41.7106 139.489 41.2839 139.529 40.8572 139.529C40.3239 139.529 39.8039 139.462 39.2972 139.329C38.7906 139.196 38.3439 138.989 37.9572 138.709C37.5839 138.429 37.2772 138.076 37.0372 137.649C36.8106 137.209 36.6972 136.689 36.6972 136.089H34.8972C34.8972 136.956 35.0506 137.709 35.3572 138.349C35.6772 138.976 36.1039 139.496 36.6372 139.909C37.1839 140.309 37.8106 140.609 38.5172 140.809C39.2372 141.009 39.9972 141.109 40.7972 141.109C41.4506 141.109 42.1039 141.029 42.7572 140.869C43.4239 140.722 44.0239 140.482 44.5572 140.149C45.0906 139.802 45.5239 139.362 45.8572 138.829C46.2039 138.282 46.3772 137.629 46.3772 136.869C46.3772 136.162 46.2439 135.576 45.9772 135.109C45.7239 134.642 45.3772 134.256 44.9372 133.949C44.5106 133.642 44.0239 133.402 43.4772 133.229C42.9306 133.042 42.3706 132.882 41.7972 132.749C41.2372 132.616 40.6839 132.496 40.1372 132.389C39.5906 132.269 39.0972 132.122 38.6572 131.949C38.2306 131.776 37.8839 131.556 37.6172 131.289C37.3639 131.009 37.2372 130.649 37.2372 130.209C37.2372 129.742 37.3239 129.356 37.4972 129.049C37.6839 128.729 37.9239 128.476 38.2172 128.289C38.5239 128.102 38.8706 127.969 39.2572 127.889C39.6439 127.809 40.0372 127.769 40.4372 127.769C41.4239 127.769 42.2306 128.002 42.8572 128.469C43.4972 128.922 43.8706 129.662 43.9772 130.689ZM48.216 130.449V144.729H49.916V139.409H49.956C50.1426 139.716 50.3693 139.976 50.636 140.189C50.916 140.389 51.2093 140.549 51.516 140.669C51.8226 140.789 52.1293 140.876 52.436 140.929C52.756 140.982 53.0426 141.009 53.296 141.009C54.0826 141.009 54.7693 140.869 55.356 140.589C55.956 140.309 56.4493 139.929 56.836 139.449C57.236 138.956 57.5293 138.382 57.716 137.729C57.916 137.076 58.016 136.382 58.016 135.649C58.016 134.916 57.916 134.222 57.716 133.569C57.516 132.916 57.216 132.342 56.816 131.849C56.4293 131.342 55.936 130.942 55.336 130.649C54.7493 130.356 54.056 130.209 53.256 130.209C52.536 130.209 51.876 130.342 51.276 130.609C50.676 130.862 50.236 131.276 49.956 131.849H49.916V130.449H48.216ZM56.216 135.529C56.216 136.036 56.1626 136.529 56.056 137.009C55.9493 137.489 55.776 137.916 55.536 138.289C55.296 138.662 54.976 138.962 54.576 139.189C54.1893 139.416 53.7026 139.529 53.116 139.529C52.5293 139.529 52.0293 139.422 51.616 139.209C51.2026 138.982 50.8626 138.689 50.596 138.329C50.3426 137.969 50.156 137.556 50.036 137.089C49.916 136.609 49.856 136.116 49.856 135.609C49.856 135.129 49.9093 134.656 50.016 134.189C50.136 133.722 50.3226 133.309 50.576 132.949C50.8293 132.576 51.156 132.276 51.556 132.049C51.956 131.822 52.4426 131.709 53.016 131.709C53.5626 131.709 54.036 131.816 54.436 132.029C54.8493 132.242 55.1826 132.529 55.436 132.889C55.7026 133.249 55.896 133.662 56.016 134.129C56.1493 134.582 56.216 135.049 56.216 135.529ZM61.0014 135.629C61.0014 135.002 61.0814 134.449 61.2414 133.969C61.4148 133.476 61.6481 133.062 61.9414 132.729C62.2348 132.396 62.5748 132.142 62.9614 131.969C63.3614 131.796 63.7814 131.709 64.2214 131.709C64.6614 131.709 65.0748 131.796 65.4614 131.969C65.8614 132.142 66.2081 132.396 66.5014 132.729C66.7948 133.062 67.0214 133.476 67.1814 133.969C67.3548 134.449 67.4414 135.002 67.4414 135.629C67.4414 136.256 67.3548 136.816 67.1814 137.309C67.0214 137.789 66.7948 138.196 66.5014 138.529C66.2081 138.849 65.8614 139.096 65.4614 139.269C65.0748 139.442 64.6614 139.529 64.2214 139.529C63.7814 139.529 63.3614 139.442 62.9614 139.269C62.5748 139.096 62.2348 138.849 61.9414 138.529C61.6481 138.196 61.4148 137.789 61.2414 137.309C61.0814 136.816 61.0014 136.256 61.0014 135.629ZM59.2014 135.629C59.2014 136.389 59.3081 137.096 59.5214 137.749C59.7348 138.402 60.0548 138.976 60.4814 139.469C60.9081 139.949 61.4348 140.329 62.0614 140.609C62.6881 140.876 63.4081 141.009 64.2214 141.009C65.0481 141.009 65.7681 140.876 66.3814 140.609C67.0081 140.329 67.5348 139.949 67.9614 139.469C68.3881 138.976 68.7081 138.402 68.9214 137.749C69.1348 137.096 69.2414 136.389 69.2414 135.629C69.2414 134.869 69.1348 134.162 68.9214 133.509C68.7081 132.842 68.3881 132.269 67.9614 131.789C67.5348 131.296 67.0081 130.909 66.3814 130.629C65.7681 130.349 65.0481 130.209 64.2214 130.209C63.4081 130.209 62.6881 130.349 62.0614 130.629C61.4348 130.909 60.9081 131.296 60.4814 131.789C60.0548 132.269 59.7348 132.842 59.5214 133.509C59.3081 134.162 59.2014 134.869 59.2014 135.629ZM73.3558 130.449V127.349H71.6558V130.449H69.8958V131.949H71.6558V138.529C71.6558 139.009 71.7025 139.396 71.7958 139.689C71.8892 139.982 72.0292 140.209 72.2158 140.369C72.4158 140.529 72.6692 140.642 72.9758 140.709C73.2958 140.762 73.6758 140.789 74.1158 140.789H75.4158V139.289H74.6358C74.3692 139.289 74.1492 139.282 73.9758 139.269C73.8158 139.242 73.6892 139.196 73.5958 139.129C73.5025 139.062 73.4358 138.969 73.3958 138.849C73.3692 138.729 73.3558 138.569 73.3558 138.369V131.949H75.4158V130.449H73.3558ZM78.8544 128.589V126.509H77.1544V128.589H78.8544ZM77.1544 130.449V140.789H78.8544V130.449H77.1544ZM81.938 131.949V140.789H83.638V131.949H85.638V130.449H83.638V129.009C83.638 128.556 83.7513 128.249 83.978 128.089C84.2047 127.929 84.5247 127.849 84.938 127.849C85.0847 127.849 85.2447 127.862 85.418 127.889C85.5913 127.902 85.7513 127.936 85.898 127.989V126.509C85.738 126.456 85.5513 126.416 85.338 126.389C85.138 126.362 84.958 126.349 84.798 126.349C83.8647 126.349 83.1513 126.569 82.658 127.009C82.178 127.436 81.938 128.069 81.938 128.909V130.449H80.198V131.949H81.938ZM90.966 142.169C90.766 142.676 90.566 143.102 90.366 143.449C90.1793 143.796 89.966 144.076 89.726 144.289C89.4993 144.516 89.2393 144.676 88.946 144.769C88.666 144.876 88.3393 144.929 87.966 144.929C87.766 144.929 87.566 144.916 87.366 144.889C87.166 144.862 86.9726 144.816 86.786 144.749V143.189C86.9326 143.256 87.0993 143.309 87.286 143.349C87.486 143.402 87.6526 143.429 87.786 143.429C88.1326 143.429 88.4193 143.342 88.646 143.169C88.886 143.009 89.066 142.776 89.186 142.469L89.886 140.729L85.786 130.449H87.706L90.726 138.909H90.766L93.666 130.449H95.466L90.966 142.169ZM103.212 135.709C103.212 135.202 103.266 134.709 103.372 134.229C103.479 133.749 103.652 133.322 103.892 132.949C104.132 132.576 104.452 132.276 104.852 132.049C105.252 131.822 105.739 131.709 106.312 131.709C106.899 131.709 107.399 131.822 107.812 132.049C108.226 132.262 108.559 132.549 108.812 132.909C109.079 133.269 109.272 133.689 109.392 134.169C109.512 134.636 109.572 135.122 109.572 135.629C109.572 136.109 109.512 136.582 109.392 137.049C109.286 137.516 109.106 137.936 108.852 138.309C108.599 138.669 108.272 138.962 107.872 139.189C107.472 139.416 106.986 139.529 106.412 139.529C105.866 139.529 105.386 139.422 104.972 139.209C104.572 138.996 104.239 138.709 103.972 138.349C103.719 137.989 103.526 137.582 103.392 137.129C103.272 136.662 103.212 136.189 103.212 135.709ZM111.212 140.789V126.509H109.512V131.829H109.472C109.286 131.522 109.052 131.269 108.772 131.069C108.506 130.856 108.219 130.689 107.912 130.569C107.606 130.436 107.299 130.342 106.992 130.289C106.686 130.236 106.399 130.209 106.132 130.209C105.346 130.209 104.652 130.356 104.052 130.649C103.466 130.929 102.972 131.316 102.572 131.809C102.186 132.289 101.892 132.856 101.692 133.509C101.506 134.162 101.412 134.856 101.412 135.589C101.412 136.322 101.512 137.016 101.712 137.669C101.912 138.322 102.206 138.896 102.592 139.389C102.992 139.882 103.486 140.276 104.072 140.569C104.672 140.862 105.372 141.009 106.172 141.009C106.892 141.009 107.552 140.882 108.152 140.629C108.752 140.376 109.192 139.962 109.472 139.389H109.512V140.789H111.212ZM122.738 140.749C122.445 140.922 122.038 141.009 121.518 141.009C121.078 141.009 120.725 140.889 120.458 140.649C120.205 140.396 120.078 139.989 120.078 139.429C119.611 139.989 119.065 140.396 118.438 140.649C117.825 140.889 117.158 141.009 116.438 141.009C115.971 141.009 115.525 140.956 115.098 140.849C114.685 140.742 114.325 140.576 114.018 140.349C113.711 140.122 113.465 139.829 113.278 139.469C113.105 139.096 113.018 138.649 113.018 138.129C113.018 137.542 113.118 137.062 113.318 136.689C113.518 136.316 113.778 136.016 114.098 135.789C114.431 135.549 114.805 135.369 115.218 135.249C115.645 135.129 116.078 135.029 116.518 134.949C116.985 134.856 117.425 134.789 117.838 134.749C118.265 134.696 118.638 134.629 118.958 134.549C119.278 134.456 119.531 134.329 119.718 134.169C119.905 133.996 119.998 133.749 119.998 133.429C119.998 133.056 119.925 132.756 119.778 132.529C119.645 132.302 119.465 132.129 119.238 132.009C119.025 131.889 118.778 131.809 118.498 131.769C118.231 131.729 117.965 131.709 117.698 131.709C116.978 131.709 116.378 131.849 115.898 132.129C115.418 132.396 115.158 132.909 115.118 133.669H113.418C113.445 133.029 113.578 132.489 113.818 132.049C114.058 131.609 114.378 131.256 114.778 130.989C115.178 130.709 115.631 130.509 116.138 130.389C116.658 130.269 117.211 130.209 117.798 130.209C118.265 130.209 118.725 130.242 119.178 130.309C119.645 130.376 120.065 130.516 120.438 130.729C120.811 130.929 121.111 131.216 121.338 131.589C121.565 131.962 121.678 132.449 121.678 133.049V138.369C121.678 138.769 121.698 139.062 121.738 139.249C121.791 139.436 121.951 139.529 122.218 139.529C122.365 139.529 122.538 139.496 122.738 139.429V140.749ZM119.978 135.449C119.765 135.609 119.485 135.729 119.138 135.809C118.791 135.876 118.425 135.936 118.038 135.989C117.665 136.029 117.285 136.082 116.898 136.149C116.511 136.202 116.165 136.296 115.858 136.429C115.551 136.562 115.298 136.756 115.098 137.009C114.911 137.249 114.818 137.582 114.818 138.009C114.818 138.289 114.871 138.529 114.978 138.729C115.098 138.916 115.245 139.069 115.418 139.189C115.605 139.309 115.818 139.396 116.058 139.449C116.298 139.502 116.551 139.529 116.818 139.529C117.378 139.529 117.858 139.456 118.258 139.309C118.658 139.149 118.985 138.956 119.238 138.729C119.491 138.489 119.678 138.236 119.798 137.969C119.918 137.689 119.978 137.429 119.978 137.189V135.449ZM126.43 130.449V127.349H124.73V130.449H122.97V131.949H124.73V138.529C124.73 139.009 124.777 139.396 124.87 139.689C124.963 139.982 125.103 140.209 125.29 140.369C125.49 140.529 125.743 140.642 126.05 140.709C126.37 140.762 126.75 140.789 127.19 140.789H128.49V139.289H127.71C127.443 139.289 127.223 139.282 127.05 139.269C126.89 139.242 126.763 139.196 126.67 139.129C126.577 139.062 126.51 138.969 126.47 138.849C126.443 138.729 126.43 138.569 126.43 138.369V131.949H128.49V130.449H126.43ZM139.289 140.749C138.995 140.922 138.589 141.009 138.069 141.009C137.629 141.009 137.275 140.889 137.009 140.649C136.755 140.396 136.629 139.989 136.629 139.429C136.162 139.989 135.615 140.396 134.989 140.649C134.375 140.889 133.709 141.009 132.989 141.009C132.522 141.009 132.075 140.956 131.649 140.849C131.235 140.742 130.875 140.576 130.569 140.349C130.262 140.122 130.015 139.829 129.829 139.469C129.655 139.096 129.569 138.649 129.569 138.129C129.569 137.542 129.669 137.062 129.869 136.689C130.069 136.316 130.329 136.016 130.649 135.789C130.982 135.549 131.355 135.369 131.769 135.249C132.195 135.129 132.629 135.029 133.069 134.949C133.535 134.856 133.975 134.789 134.389 134.749C134.815 134.696 135.189 134.629 135.509 134.549C135.829 134.456 136.082 134.329 136.269 134.169C136.455 133.996 136.549 133.749 136.549 133.429C136.549 133.056 136.475 132.756 136.329 132.529C136.195 132.302 136.015 132.129 135.789 132.009C135.575 131.889 135.329 131.809 135.049 131.769C134.782 131.729 134.515 131.709 134.249 131.709C133.529 131.709 132.929 131.849 132.449 132.129C131.969 132.396 131.709 132.909 131.669 133.669H129.969C129.995 133.029 130.129 132.489 130.369 132.049C130.609 131.609 130.929 131.256 131.329 130.989C131.729 130.709 132.182 130.509 132.689 130.389C133.209 130.269 133.762 130.209 134.349 130.209C134.815 130.209 135.275 130.242 135.729 130.309C136.195 130.376 136.615 130.516 136.989 130.729C137.362 130.929 137.662 131.216 137.889 131.589C138.115 131.962 138.229 132.449 138.229 133.049V138.369C138.229 138.769 138.249 139.062 138.289 139.249C138.342 139.436 138.502 139.529 138.769 139.529C138.915 139.529 139.089 139.496 139.289 139.429V140.749ZM136.529 135.449C136.315 135.609 136.035 135.729 135.689 135.809C135.342 135.876 134.975 135.936 134.589 135.989C134.215 136.029 133.835 136.082 133.449 136.149C133.062 136.202 132.715 136.296 132.409 136.429C132.102 136.562 131.849 136.756 131.649 137.009C131.462 137.249 131.369 137.582 131.369 138.009C131.369 138.289 131.422 138.529 131.529 138.729C131.649 138.916 131.795 139.069 131.969 139.189C132.155 139.309 132.369 139.396 132.609 139.449C132.849 139.502 133.102 139.529 133.369 139.529C133.929 139.529 134.409 139.456 134.809 139.309C135.209 139.149 135.535 138.956 135.789 138.729C136.042 138.489 136.229 138.236 136.349 137.969C136.469 137.689 136.529 137.429 136.529 137.189V135.449ZM35.4972 150.449V164.729H37.1972V159.409H37.2372C37.4239 159.716 37.6506 159.976 37.9172 160.189C38.1972 160.389 38.4906 160.549 38.7972 160.669C39.1039 160.789 39.4106 160.876 39.7172 160.929C40.0372 160.982 40.3239 161.009 40.5772 161.009C41.3639 161.009 42.0506 160.869 42.6372 160.589C43.2372 160.309 43.7306 159.929 44.1172 159.449C44.5172 158.956 44.8106 158.382 44.9972 157.729C45.1972 157.076 45.2972 156.382 45.2972 155.649C45.2972 154.916 45.1972 154.222 44.9972 153.569C44.7972 152.916 44.4972 152.342 44.0972 151.849C43.7106 151.342 43.2172 150.942 42.6172 150.649C42.0306 150.356 41.3372 150.209 40.5372 150.209C39.8172 150.209 39.1572 150.342 38.5572 150.609C37.9572 150.862 37.5172 151.276 37.2372 151.849H37.1972V150.449H35.4972ZM43.4972 155.529C43.4972 156.036 43.4439 156.529 43.3372 157.009C43.2306 157.489 43.0572 157.916 42.8172 158.289C42.5772 158.662 42.2572 158.962 41.8572 159.189C41.4706 159.416 40.9839 159.529 40.3972 159.529C39.8106 159.529 39.3106 159.422 38.8972 159.209C38.4839 158.982 38.1439 158.689 37.8772 158.329C37.6239 157.969 37.4372 157.556 37.3172 157.089C37.1972 156.609 37.1372 156.116 37.1372 155.609C37.1372 155.129 37.1906 154.656 37.2972 154.189C37.4172 153.722 37.6039 153.309 37.8572 152.949C38.1106 152.576 38.4372 152.276 38.8372 152.049C39.2372 151.822 39.7239 151.709 40.2972 151.709C40.8439 151.709 41.3172 151.816 41.7172 152.029C42.1306 152.242 42.4639 152.529 42.7172 152.889C42.9839 153.249 43.1772 153.662 43.2972 154.129C43.4306 154.582 43.4972 155.049 43.4972 155.529ZM48.8427 148.589V146.509H47.1427V148.589H48.8427ZM47.1427 150.449V160.789H48.8427V150.449H47.1427ZM51.2863 150.449V164.729H52.9863V159.409H53.0263C53.213 159.716 53.4396 159.976 53.7063 160.189C53.9863 160.389 54.2796 160.549 54.5863 160.669C54.893 160.789 55.1996 160.876 55.5063 160.929C55.8263 160.982 56.113 161.009 56.3663 161.009C57.153 161.009 57.8396 160.869 58.4263 160.589C59.0263 160.309 59.5196 159.929 59.9063 159.449C60.3063 158.956 60.5996 158.382 60.7863 157.729C60.9863 157.076 61.0863 156.382 61.0863 155.649C61.0863 154.916 60.9863 154.222 60.7863 153.569C60.5863 152.916 60.2863 152.342 59.8863 151.849C59.4996 151.342 59.0063 150.942 58.4063 150.649C57.8196 150.356 57.1263 150.209 56.3263 150.209C55.6063 150.209 54.9463 150.342 54.3463 150.609C53.7463 150.862 53.3063 151.276 53.0263 151.849H52.9863V150.449H51.2863ZM59.2863 155.529C59.2863 156.036 59.233 156.529 59.1263 157.009C59.0196 157.489 58.8463 157.916 58.6063 158.289C58.3663 158.662 58.0463 158.962 57.6463 159.189C57.2596 159.416 56.773 159.529 56.1863 159.529C55.5996 159.529 55.0996 159.422 54.6863 159.209C54.273 158.982 53.933 158.689 53.6663 158.329C53.413 157.969 53.2263 157.556 53.1063 157.089C52.9863 156.609 52.9263 156.116 52.9263 155.609C52.9263 155.129 52.9796 154.656 53.0863 154.189C53.2063 153.722 53.393 153.309 53.6463 152.949C53.8996 152.576 54.2263 152.276 54.6263 152.049C55.0263 151.822 55.513 151.709 56.0863 151.709C56.633 151.709 57.1063 151.816 57.5063 152.029C57.9196 152.242 58.253 152.529 58.5063 152.889C58.773 153.249 58.9663 153.662 59.0863 154.129C59.2196 154.582 59.2863 155.049 59.2863 155.529ZM70.0118 154.629H64.0718C64.0984 154.229 64.1851 153.856 64.3318 153.509C64.4784 153.149 64.6784 152.836 64.9318 152.569C65.1851 152.302 65.4851 152.096 65.8318 151.949C66.1918 151.789 66.5918 151.709 67.0318 151.709C67.4584 151.709 67.8451 151.789 68.1918 151.949C68.5518 152.096 68.8584 152.302 69.1118 152.569C69.3784 152.822 69.5851 153.129 69.7318 153.489C69.8918 153.849 69.9851 154.229 70.0118 154.629ZM71.6518 157.509H69.9718C69.8251 158.189 69.5184 158.696 69.0518 159.029C68.5984 159.362 68.0118 159.529 67.2918 159.529C66.7318 159.529 66.2451 159.436 65.8318 159.249C65.4184 159.062 65.0784 158.816 64.8118 158.509C64.5451 158.189 64.3518 157.829 64.2318 157.429C64.1118 157.016 64.0584 156.582 64.0718 156.129H71.8118C71.8384 155.502 71.7784 154.842 71.6318 154.149C71.4984 153.456 71.2451 152.816 70.8718 152.229C70.5118 151.642 70.0251 151.162 69.4118 150.789C68.8118 150.402 68.0518 150.209 67.1318 150.209C66.4251 150.209 65.7718 150.342 65.1718 150.609C64.5851 150.876 64.0718 151.249 63.6318 151.729C63.2051 152.209 62.8718 152.776 62.6318 153.429C62.3918 154.082 62.2718 154.802 62.2718 155.589C62.2984 156.376 62.4118 157.102 62.6118 157.769C62.8251 158.436 63.1384 159.009 63.5518 159.489C63.9651 159.969 64.4718 160.342 65.0718 160.609C65.6851 160.876 66.4051 161.009 67.2318 161.009C68.4051 161.009 69.3784 160.716 70.1518 160.129C70.9251 159.542 71.4251 158.669 71.6518 157.509ZM73.4239 146.509V160.789H75.1239V146.509H73.4239ZM79.3075 148.589V146.509H77.6075V148.589H79.3075ZM77.6075 150.449V160.789H79.3075V150.449H77.6075ZM81.6911 150.449V160.789H83.3911V154.949C83.3911 154.482 83.4511 154.056 83.5711 153.669C83.7045 153.269 83.8978 152.922 84.1511 152.629C84.4045 152.336 84.7178 152.109 85.0911 151.949C85.4778 151.789 85.9311 151.709 86.4511 151.709C87.1045 151.709 87.6178 151.896 87.9911 152.269C88.3645 152.642 88.5511 153.149 88.5511 153.789V160.789H90.2511V153.989C90.2511 153.429 90.1911 152.922 90.0711 152.469C89.9645 152.002 89.7711 151.602 89.4911 151.269C89.2111 150.936 88.8445 150.676 88.3911 150.489C87.9378 150.302 87.3711 150.209 86.6911 150.209C85.1578 150.209 84.0378 150.836 83.3311 152.089H83.2911V150.449H81.6911ZM99.7344 154.629H93.7944C93.8211 154.229 93.9077 153.856 94.0544 153.509C94.2011 153.149 94.4011 152.836 94.6544 152.569C94.9077 152.302 95.2077 152.096 95.5544 151.949C95.9144 151.789 96.3144 151.709 96.7544 151.709C97.1811 151.709 97.5677 151.789 97.9144 151.949C98.2744 152.096 98.5811 152.302 98.8344 152.569C99.1011 152.822 99.3077 153.129 99.4544 153.489C99.6144 153.849 99.7077 154.229 99.7344 154.629ZM101.374 157.509H99.6944C99.5477 158.189 99.2411 158.696 98.7744 159.029C98.3211 159.362 97.7344 159.529 97.0144 159.529C96.4544 159.529 95.9677 159.436 95.5544 159.249C95.1411 159.062 94.8011 158.816 94.5344 158.509C94.2677 158.189 94.0744 157.829 93.9544 157.429C93.8344 157.016 93.7811 156.582 93.7944 156.129H101.534C101.561 155.502 101.501 154.842 101.354 154.149C101.221 153.456 100.968 152.816 100.594 152.229C100.234 151.642 99.7477 151.162 99.1344 150.789C98.5344 150.402 97.7744 150.209 96.8544 150.209C96.1477 150.209 95.4944 150.342 94.8944 150.609C94.3077 150.876 93.7944 151.249 93.3544 151.729C92.9277 152.209 92.5944 152.776 92.3544 153.429C92.1144 154.082 91.9944 154.802 91.9944 155.589C92.0211 156.376 92.1344 157.102 92.3344 157.769C92.5477 158.436 92.8611 159.009 93.2744 159.489C93.6877 159.969 94.1944 160.342 94.7944 160.609C95.4077 160.876 96.1277 161.009 96.9544 161.009C98.1277 161.009 99.1011 160.716 99.8744 160.129C100.648 159.542 101.148 158.669 101.374 157.509ZM104.087 157.529H102.387C102.413 158.169 102.547 158.716 102.787 159.169C103.027 159.609 103.347 159.969 103.747 160.249C104.147 160.516 104.607 160.709 105.127 160.829C105.647 160.949 106.193 161.009 106.767 161.009C107.287 161.009 107.807 160.956 108.327 160.849C108.86 160.756 109.333 160.582 109.747 160.329C110.173 160.076 110.513 159.742 110.767 159.329C111.033 158.916 111.167 158.396 111.167 157.769C111.167 157.276 111.067 156.862 110.867 156.529C110.68 156.196 110.427 155.922 110.107 155.709C109.8 155.482 109.44 155.302 109.027 155.169C108.627 155.036 108.213 154.922 107.787 154.829C107.387 154.736 106.987 154.649 106.587 154.569C106.187 154.476 105.827 154.369 105.507 154.249C105.187 154.116 104.92 153.956 104.707 153.769C104.507 153.569 104.407 153.322 104.407 153.029C104.407 152.762 104.473 152.549 104.607 152.389C104.74 152.216 104.913 152.082 105.127 151.989C105.34 151.882 105.573 151.809 105.827 151.769C106.093 151.729 106.353 151.709 106.607 151.709C106.887 151.709 107.16 151.742 107.427 151.809C107.707 151.862 107.96 151.956 108.187 152.089C108.413 152.222 108.6 152.402 108.747 152.629C108.893 152.842 108.98 153.116 109.007 153.449H110.707C110.667 152.822 110.533 152.302 110.307 151.889C110.08 151.462 109.773 151.129 109.387 150.889C109.013 150.636 108.58 150.462 108.087 150.369C107.593 150.262 107.053 150.209 106.467 150.209C106.013 150.209 105.553 150.269 105.087 150.389C104.633 150.496 104.22 150.669 103.847 150.909C103.487 151.136 103.187 151.436 102.947 151.809C102.72 152.182 102.607 152.629 102.607 153.149C102.607 153.816 102.773 154.336 103.107 154.709C103.44 155.082 103.853 155.376 104.347 155.589C104.853 155.789 105.4 155.949 105.987 156.069C106.573 156.176 107.113 156.302 107.607 156.449C108.113 156.582 108.533 156.762 108.867 156.989C109.2 157.216 109.367 157.549 109.367 157.989C109.367 158.309 109.287 158.576 109.127 158.789C108.967 158.989 108.76 159.142 108.507 159.249C108.267 159.356 108 159.429 107.707 159.469C107.413 159.509 107.133 159.529 106.867 159.529C106.52 159.529 106.18 159.496 105.847 159.429C105.527 159.362 105.233 159.256 104.967 159.109C104.713 158.949 104.507 158.742 104.347 158.489C104.187 158.222 104.1 157.902 104.087 157.529ZM119.353 155.629C119.353 155.002 119.433 154.449 119.593 153.969C119.766 153.476 120 153.062 120.293 152.729C120.586 152.396 120.926 152.142 121.313 151.969C121.713 151.796 122.133 151.709 122.573 151.709C123.013 151.709 123.426 151.796 123.813 151.969C124.213 152.142 124.56 152.396 124.853 152.729C125.146 153.062 125.373 153.476 125.533 153.969C125.706 154.449 125.793 155.002 125.793 155.629C125.793 156.256 125.706 156.816 125.533 157.309C125.373 157.789 125.146 158.196 124.853 158.529C124.56 158.849 124.213 159.096 123.813 159.269C123.426 159.442 123.013 159.529 122.573 159.529C122.133 159.529 121.713 159.442 121.313 159.269C120.926 159.096 120.586 158.849 120.293 158.529C120 158.196 119.766 157.789 119.593 157.309C119.433 156.816 119.353 156.256 119.353 155.629ZM117.553 155.629C117.553 156.389 117.66 157.096 117.873 157.749C118.086 158.402 118.406 158.976 118.833 159.469C119.26 159.949 119.786 160.329 120.413 160.609C121.04 160.876 121.76 161.009 122.573 161.009C123.4 161.009 124.12 160.876 124.733 160.609C125.36 160.329 125.886 159.949 126.313 159.469C126.74 158.976 127.06 158.402 127.273 157.749C127.486 157.096 127.593 156.389 127.593 155.629C127.593 154.869 127.486 154.162 127.273 153.509C127.06 152.842 126.74 152.269 126.313 151.789C125.886 151.296 125.36 150.909 124.733 150.629C124.12 150.349 123.4 150.209 122.573 150.209C121.76 150.209 121.04 150.349 120.413 150.629C119.786 150.909 119.26 151.296 118.833 151.789C118.406 152.269 118.086 152.842 117.873 153.509C117.66 154.162 117.553 154.869 117.553 155.629ZM129.347 150.449V160.789H131.047V154.949C131.047 154.482 131.107 154.056 131.227 153.669C131.361 153.269 131.554 152.922 131.807 152.629C132.061 152.336 132.374 152.109 132.747 151.949C133.134 151.789 133.587 151.709 134.107 151.709C134.761 151.709 135.274 151.896 135.647 152.269C136.021 152.642 136.207 153.149 136.207 153.789V160.789H137.907V153.989C137.907 153.429 137.847 152.922 137.727 152.469C137.621 152.002 137.427 151.602 137.147 151.269C136.867 150.936 136.501 150.676 136.047 150.489C135.594 150.302 135.027 150.209 134.347 150.209C132.814 150.209 131.694 150.836 130.987 152.089H130.947V150.449H129.347ZM37.6172 172.649V168.109H41.4172C41.8306 168.109 42.2172 168.136 42.5772 168.189C42.9506 168.229 43.2772 168.329 43.5572 168.489C43.8372 168.649 44.0572 168.876 44.2172 169.169C44.3772 169.462 44.4572 169.862 44.4572 170.369C44.4572 171.129 44.2172 171.702 43.7372 172.089C43.2706 172.462 42.4972 172.649 41.4172 172.649H37.6172ZM35.7172 166.509V180.789H42.6172C43.3239 180.789 43.9439 180.676 44.4772 180.449C45.0239 180.209 45.4772 179.902 45.8372 179.529C46.2106 179.142 46.4906 178.702 46.6772 178.209C46.8639 177.716 46.9572 177.209 46.9572 176.689C46.9572 175.809 46.7239 175.062 46.2572 174.449C45.7906 173.836 45.1172 173.436 44.2372 173.249V173.209C44.9172 172.942 45.4372 172.536 45.7972 171.989C46.1706 171.429 46.3572 170.769 46.3572 170.009C46.3572 169.289 46.1906 168.682 45.8572 168.189C45.5372 167.696 45.1439 167.309 44.6772 167.029C44.4639 166.896 44.2039 166.796 43.8972 166.729C43.6039 166.662 43.2839 166.616 42.9372 166.589C42.5906 166.549 42.2372 166.529 41.8772 166.529C41.5306 166.516 41.2039 166.509 40.8972 166.509H35.7172ZM37.6172 179.189V174.249H41.9572C42.3572 174.249 42.7439 174.289 43.1172 174.369C43.4906 174.436 43.8172 174.562 44.0972 174.749C44.3906 174.922 44.6239 175.162 44.7972 175.469C44.9706 175.776 45.0572 176.162 45.0572 176.629C45.0572 177.429 44.8172 178.056 44.3372 178.509C43.8706 178.962 43.2172 179.189 42.3772 179.189H37.6172ZM58.0386 180.749C57.7453 180.922 57.3386 181.009 56.8186 181.009C56.3786 181.009 56.0253 180.889 55.7586 180.649C55.5053 180.396 55.3786 179.989 55.3786 179.429C54.912 179.989 54.3653 180.396 53.7386 180.649C53.1253 180.889 52.4586 181.009 51.7386 181.009C51.272 181.009 50.8253 180.956 50.3986 180.849C49.9853 180.742 49.6253 180.576 49.3186 180.349C49.012 180.122 48.7653 179.829 48.5786 179.469C48.4053 179.096 48.3186 178.649 48.3186 178.129C48.3186 177.542 48.4186 177.062 48.6186 176.689C48.8186 176.316 49.0786 176.016 49.3986 175.789C49.732 175.549 50.1053 175.369 50.5186 175.249C50.9453 175.129 51.3786 175.029 51.8186 174.949C52.2853 174.856 52.7253 174.789 53.1386 174.749C53.5653 174.696 53.9386 174.629 54.2586 174.549C54.5786 174.456 54.832 174.329 55.0186 174.169C55.2053 173.996 55.2986 173.749 55.2986 173.429C55.2986 173.056 55.2253 172.756 55.0786 172.529C54.9453 172.302 54.7653 172.129 54.5386 172.009C54.3253 171.889 54.0786 171.809 53.7986 171.769C53.532 171.729 53.2653 171.709 52.9986 171.709C52.2786 171.709 51.6786 171.849 51.1986 172.129C50.7186 172.396 50.4586 172.909 50.4186 173.669H48.7186C48.7453 173.029 48.8786 172.489 49.1186 172.049C49.3586 171.609 49.6786 171.256 50.0786 170.989C50.4786 170.709 50.932 170.509 51.4386 170.389C51.9586 170.269 52.512 170.209 53.0986 170.209C53.5653 170.209 54.0253 170.242 54.4786 170.309C54.9453 170.376 55.3653 170.516 55.7386 170.729C56.112 170.929 56.412 171.216 56.6386 171.589C56.8653 171.962 56.9786 172.449 56.9786 173.049V178.369C56.9786 178.769 56.9986 179.062 57.0386 179.249C57.092 179.436 57.252 179.529 57.5186 179.529C57.6653 179.529 57.8386 179.496 58.0386 179.429V180.749ZM55.2786 175.449C55.0653 175.609 54.7853 175.729 54.4386 175.809C54.092 175.876 53.7253 175.936 53.3386 175.989C52.9653 176.029 52.5853 176.082 52.1986 176.149C51.812 176.202 51.4653 176.296 51.1586 176.429C50.852 176.562 50.5986 176.756 50.3986 177.009C50.212 177.249 50.1186 177.582 50.1186 178.009C50.1186 178.289 50.172 178.529 50.2786 178.729C50.3986 178.916 50.5453 179.069 50.7186 179.189C50.9053 179.309 51.1186 179.396 51.3586 179.449C51.5986 179.502 51.852 179.529 52.1186 179.529C52.6786 179.529 53.1586 179.456 53.5586 179.309C53.9586 179.149 54.2853 178.956 54.5386 178.729C54.792 178.489 54.9786 178.236 55.0986 177.969C55.2186 177.689 55.2786 177.429 55.2786 177.189V175.449ZM66.3908 173.769H68.1508C68.0842 173.156 67.9242 172.629 67.6708 172.189C67.4175 171.736 67.0908 171.362 66.6908 171.069C66.3042 170.776 65.8508 170.562 65.3308 170.429C64.8242 170.282 64.2775 170.209 63.6908 170.209C62.8775 170.209 62.1642 170.356 61.5508 170.649C60.9375 170.929 60.4242 171.322 60.0108 171.829C59.6108 172.322 59.3108 172.909 59.1108 173.589C58.9108 174.256 58.8108 174.976 58.8108 175.749C58.8108 176.522 58.9108 177.236 59.1108 177.889C59.3242 178.529 59.6308 179.082 60.0308 179.549C60.4442 180.016 60.9508 180.376 61.5508 180.629C62.1642 180.882 62.8642 181.009 63.6508 181.009C64.9708 181.009 66.0108 180.662 66.7708 179.969C67.5442 179.276 68.0242 178.289 68.2108 177.009H66.4708C66.3642 177.809 66.0708 178.429 65.5908 178.869C65.1242 179.309 64.4708 179.529 63.6308 179.529C63.0975 179.529 62.6375 179.422 62.2508 179.209C61.8642 178.996 61.5508 178.716 61.3108 178.369C61.0708 178.009 60.8908 177.602 60.7708 177.149C60.6642 176.696 60.6108 176.229 60.6108 175.749C60.6108 175.229 60.6642 174.729 60.7708 174.249C60.8775 173.756 61.0508 173.322 61.2908 172.949C61.5442 172.576 61.8775 172.276 62.2908 172.049C62.7042 171.822 63.2175 171.709 63.8308 171.709C64.5508 171.709 65.1242 171.889 65.5508 172.249C65.9775 172.609 66.2575 173.116 66.3908 173.769ZM69.963 166.509V180.789H71.663V176.869L73.263 175.389L76.803 180.789H78.963L74.563 174.209L78.663 170.449H76.383L71.663 174.969V166.509H69.963ZM81.0241 177.529H79.3241C79.3508 178.169 79.4841 178.716 79.7241 179.169C79.9641 179.609 80.2841 179.969 80.6841 180.249C81.0841 180.516 81.5441 180.709 82.0641 180.829C82.5841 180.949 83.1308 181.009 83.7041 181.009C84.2241 181.009 84.7441 180.956 85.2641 180.849C85.7974 180.756 86.2708 180.582 86.6841 180.329C87.1108 180.076 87.4508 179.742 87.7041 179.329C87.9708 178.916 88.1041 178.396 88.1041 177.769C88.1041 177.276 88.0041 176.862 87.8041 176.529C87.6174 176.196 87.3641 175.922 87.0441 175.709C86.7374 175.482 86.3774 175.302 85.9641 175.169C85.5641 175.036 85.1508 174.922 84.7241 174.829C84.3241 174.736 83.9241 174.649 83.5241 174.569C83.1241 174.476 82.7641 174.369 82.4441 174.249C82.1241 174.116 81.8574 173.956 81.6441 173.769C81.4441 173.569 81.3441 173.322 81.3441 173.029C81.3441 172.762 81.4108 172.549 81.5441 172.389C81.6774 172.216 81.8508 172.082 82.0641 171.989C82.2774 171.882 82.5108 171.809 82.7641 171.769C83.0308 171.729 83.2908 171.709 83.5441 171.709C83.8241 171.709 84.0974 171.742 84.3641 171.809C84.6441 171.862 84.8974 171.956 85.1241 172.089C85.3508 172.222 85.5374 172.402 85.6841 172.629C85.8308 172.842 85.9174 173.116 85.9441 173.449H87.6441C87.6041 172.822 87.4708 172.302 87.2441 171.889C87.0174 171.462 86.7108 171.129 86.3241 170.889C85.9508 170.636 85.5174 170.462 85.0241 170.369C84.5308 170.262 83.9908 170.209 83.4041 170.209C82.9508 170.209 82.4908 170.269 82.0241 170.389C81.5708 170.496 81.1574 170.669 80.7841 170.909C80.4241 171.136 80.1241 171.436 79.8841 171.809C79.6574 172.182 79.5441 172.629 79.5441 173.149C79.5441 173.816 79.7108 174.336 80.0441 174.709C80.3774 175.082 80.7908 175.376 81.2841 175.589C81.7908 175.789 82.3374 175.949 82.9241 176.069C83.5108 176.176 84.0508 176.302 84.5441 176.449C85.0508 176.582 85.4708 176.762 85.8041 176.989C86.1374 177.216 86.3041 177.549 86.3041 177.989C86.3041 178.309 86.2241 178.576 86.0641 178.789C85.9041 178.989 85.6974 179.142 85.4441 179.249C85.2041 179.356 84.9374 179.429 84.6441 179.469C84.3508 179.509 84.0708 179.529 83.8041 179.529C83.4574 179.529 83.1174 179.496 82.7841 179.429C82.4641 179.362 82.1708 179.256 81.9041 179.109C81.6508 178.949 81.4441 178.742 81.2841 178.489C81.1241 178.222 81.0374 177.902 81.0241 177.529ZM92.0941 170.449V167.349H90.3941V170.449H88.6341V171.949H90.3941V178.529C90.3941 179.009 90.4408 179.396 90.5341 179.689C90.6274 179.982 90.7674 180.209 90.9541 180.369C91.1541 180.529 91.4074 180.642 91.7141 180.709C92.0341 180.762 92.4141 180.789 92.8541 180.789H94.1541V179.289H93.3741C93.1074 179.289 92.8874 179.282 92.7141 179.269C92.5541 179.242 92.4274 179.196 92.3341 179.129C92.2408 179.062 92.1741 178.969 92.1341 178.849C92.1074 178.729 92.0941 178.569 92.0941 178.369V171.949H94.1541V170.449H92.0941ZM104.953 180.749C104.659 180.922 104.253 181.009 103.733 181.009C103.293 181.009 102.939 180.889 102.673 180.649C102.419 180.396 102.293 179.989 102.293 179.429C101.826 179.989 101.279 180.396 100.653 180.649C100.039 180.889 99.3727 181.009 98.6527 181.009C98.186 181.009 97.7394 180.956 97.3127 180.849C96.8994 180.742 96.5394 180.576 96.2327 180.349C95.926 180.122 95.6794 179.829 95.4927 179.469C95.3194 179.096 95.2327 178.649 95.2327 178.129C95.2327 177.542 95.3327 177.062 95.5327 176.689C95.7327 176.316 95.9927 176.016 96.3127 175.789C96.646 175.549 97.0194 175.369 97.4327 175.249C97.8594 175.129 98.2927 175.029 98.7327 174.949C99.1994 174.856 99.6394 174.789 100.053 174.749C100.479 174.696 100.853 174.629 101.173 174.549C101.493 174.456 101.746 174.329 101.933 174.169C102.119 173.996 102.213 173.749 102.213 173.429C102.213 173.056 102.139 172.756 101.993 172.529C101.859 172.302 101.679 172.129 101.453 172.009C101.239 171.889 100.993 171.809 100.713 171.769C100.446 171.729 100.179 171.709 99.9127 171.709C99.1927 171.709 98.5927 171.849 98.1127 172.129C97.6327 172.396 97.3727 172.909 97.3327 173.669H95.6327C95.6594 173.029 95.7927 172.489 96.0327 172.049C96.2727 171.609 96.5927 171.256 96.9927 170.989C97.3927 170.709 97.846 170.509 98.3527 170.389C98.8727 170.269 99.426 170.209 100.013 170.209C100.479 170.209 100.939 170.242 101.393 170.309C101.859 170.376 102.279 170.516 102.653 170.729C103.026 170.929 103.326 171.216 103.553 171.589C103.779 171.962 103.893 172.449 103.893 173.049V178.369C103.893 178.769 103.913 179.062 103.953 179.249C104.006 179.436 104.166 179.529 104.433 179.529C104.579 179.529 104.753 179.496 104.953 179.429V180.749ZM102.193 175.449C101.979 175.609 101.699 175.729 101.353 175.809C101.006 175.876 100.639 175.936 100.253 175.989C99.8794 176.029 99.4994 176.082 99.1127 176.149C98.726 176.202 98.3794 176.296 98.0727 176.429C97.766 176.562 97.5127 176.756 97.3127 177.009C97.126 177.249 97.0327 177.582 97.0327 178.009C97.0327 178.289 97.086 178.529 97.1927 178.729C97.3127 178.916 97.4594 179.069 97.6327 179.189C97.8194 179.309 98.0327 179.396 98.2727 179.449C98.5127 179.502 98.766 179.529 99.0327 179.529C99.5927 179.529 100.073 179.456 100.473 179.309C100.873 179.149 101.199 178.956 101.453 178.729C101.706 178.489 101.893 178.236 102.013 177.969C102.133 177.689 102.193 177.429 102.193 177.189V175.449ZM115.205 179.909V170.449H113.605V171.929H113.585C113.278 171.356 112.852 170.929 112.305 170.649C111.758 170.356 111.158 170.209 110.505 170.209C109.612 170.209 108.858 170.382 108.245 170.729C107.632 171.062 107.138 171.496 106.765 172.029C106.392 172.549 106.125 173.136 105.965 173.789C105.805 174.429 105.725 175.056 105.725 175.669C105.725 176.376 105.818 177.049 106.005 177.689C106.205 178.316 106.498 178.869 106.885 179.349C107.272 179.816 107.752 180.189 108.325 180.469C108.898 180.749 109.572 180.889 110.345 180.889C111.012 180.889 111.638 180.742 112.225 180.449C112.825 180.142 113.272 179.669 113.565 179.029H113.605V179.709C113.605 180.282 113.545 180.809 113.425 181.289C113.318 181.769 113.138 182.176 112.885 182.509C112.632 182.856 112.312 183.122 111.925 183.309C111.538 183.509 111.065 183.609 110.505 183.609C110.225 183.609 109.932 183.576 109.625 183.509C109.318 183.456 109.032 183.362 108.765 183.229C108.512 183.096 108.292 182.922 108.105 182.709C107.932 182.496 107.838 182.236 107.825 181.929H106.125C106.152 182.489 106.298 182.962 106.565 183.349C106.832 183.736 107.165 184.049 107.565 184.289C107.978 184.529 108.432 184.702 108.925 184.809C109.432 184.916 109.925 184.969 110.405 184.969C112.058 184.969 113.272 184.549 114.045 183.709C114.818 182.869 115.205 181.602 115.205 179.909ZM110.445 179.409C109.885 179.409 109.418 179.296 109.045 179.069C108.672 178.829 108.372 178.522 108.145 178.149C107.918 177.762 107.758 177.336 107.665 176.869C107.572 176.402 107.525 175.936 107.525 175.469C107.525 174.976 107.578 174.502 107.685 174.049C107.805 173.596 107.985 173.196 108.225 172.849C108.478 172.502 108.798 172.229 109.185 172.029C109.572 171.816 110.038 171.709 110.585 171.709C111.118 171.709 111.572 171.816 111.945 172.029C112.318 172.242 112.618 172.529 112.845 172.889C113.085 173.236 113.258 173.629 113.365 174.069C113.472 174.509 113.525 174.956 113.525 175.409C113.525 175.889 113.465 176.369 113.345 176.849C113.238 177.329 113.065 177.762 112.825 178.149C112.585 178.522 112.265 178.829 111.865 179.069C111.478 179.296 111.005 179.409 110.445 179.409ZM124.699 174.629H118.759C118.786 174.229 118.873 173.856 119.019 173.509C119.166 173.149 119.366 172.836 119.619 172.569C119.873 172.302 120.173 172.096 120.519 171.949C120.879 171.789 121.279 171.709 121.719 171.709C122.146 171.709 122.533 171.789 122.879 171.949C123.239 172.096 123.546 172.302 123.799 172.569C124.066 172.822 124.273 173.129 124.419 173.489C124.579 173.849 124.673 174.229 124.699 174.629ZM126.339 177.509H124.659C124.513 178.189 124.206 178.696 123.739 179.029C123.286 179.362 122.699 179.529 121.979 179.529C121.419 179.529 120.933 179.436 120.519 179.249C120.106 179.062 119.766 178.816 119.499 178.509C119.233 178.189 119.039 177.829 118.919 177.429C118.799 177.016 118.746 176.582 118.759 176.129H126.499C126.526 175.502 126.466 174.842 126.319 174.149C126.186 173.456 125.933 172.816 125.559 172.229C125.199 171.642 124.713 171.162 124.099 170.789C123.499 170.402 122.739 170.209 121.819 170.209C121.113 170.209 120.459 170.342 119.859 170.609C119.273 170.876 118.759 171.249 118.319 171.729C117.893 172.209 117.559 172.776 117.319 173.429C117.079 174.082 116.959 174.802 116.959 175.589C116.986 176.376 117.099 177.102 117.299 177.769C117.513 178.436 117.826 179.009 118.239 179.489C118.653 179.969 119.159 180.342 119.759 180.609C120.373 180.876 121.093 181.009 121.919 181.009C123.093 181.009 124.066 180.716 124.839 180.129C125.613 179.542 126.113 178.669 126.339 177.509Z" fill="#BDBDBD"/>
<defs>
<filter id="filter0_d" x="0.762695" y="0.279297" width="319.879" height="233.692" filterUnits="userSpaceOnUse" color-interpolation-filters="sRGB">
<feFlood flood-opacity="0" result="BackgroundImageFix"/>
<feColorMatrix in="SourceAlpha" type="matrix" values="0 0 0 0 0 0 0 0 0 0 0 0 0 0 0 0 0 0 127 0"/>
<feOffset dx="8" dy="8"/>
<feGaussianBlur stdDeviation="12.5"/>
<feColorMatrix type="matrix" values="0 0 0 0 0 0 0 0 0 0 0 0 0 0 0 0 0 0 0.7 0"/>
<feBlend mode="normal" in2="BackgroundImageFix" result="effect1_dropShadow"/>
<feBlend mode="normal" in="SourceGraphic" in2="effect1_dropShadow" result="shape"/>
</filter>
<linearGradient id="paint0_linear" x1="17.7627" y1="114.357" x2="389.158" y2="114.357" gradientUnits="userSpaceOnUse">
<stop stop-color="#181818"/>
<stop offset="1" stop-color="#282828"/>
</linearGradient>
</defs>
</svg>
