<svg width="320" height="234" viewBox="0 0 320 234" fill="none" xmlns="http://www.w3.org/2000/svg">
<g filter="url(#filter0_d)">
<rect x="17" y="17" width="269.879" height="183.692" rx="8" fill="url(#paint0_linear)"/>
</g>
<path d="M35.6145 87.7966H43.7745C43.7745 86.6766 43.8745 85.5566 44.0745 84.4366C44.3145 83.2766 44.6945 82.2366 45.2145 81.3166C45.7345 80.3566 46.4145 79.5966 47.2545 79.0366C48.1345 78.4366 49.1945 78.1366 50.4345 78.1366C52.2745 78.1366 53.7745 78.7166 54.9345 79.8766C56.1345 80.9966 56.7345 82.5766 56.7345 84.6166C56.7345 85.8966 56.4345 87.0366 55.8345 88.0366C55.2745 89.0366 54.5545 89.9366 53.6745 90.7366C52.8345 91.5366 51.8945 92.2766 50.8545 92.9566C49.8145 93.5966 48.8345 94.2366 47.9145 94.8766C46.1145 96.1166 44.3945 97.3366 42.7545 98.5366C41.1545 99.7366 39.7545 101.057 38.5545 102.497C37.3545 103.897 36.3945 105.497 35.6745 107.297C34.9945 109.097 34.6545 111.217 34.6545 113.657H65.4945V106.337H45.6345C46.6745 104.897 47.8745 103.637 49.2345 102.557C50.5945 101.477 51.9945 100.477 53.4345 99.5566C54.8745 98.5966 56.2945 97.6366 57.6945 96.6766C59.1345 95.7166 60.4145 94.6566 61.5345 93.4966C62.6545 92.2966 63.5545 90.9366 64.2345 89.4166C64.9145 87.8966 65.2545 86.0766 65.2545 83.9566C65.2545 81.9166 64.8545 80.0766 64.0545 78.4366C63.2945 76.7966 62.2545 75.4166 60.9345 74.2966C59.6145 73.1766 58.0745 72.3166 56.3145 71.7166C54.5945 71.1166 52.7745 70.8166 50.8545 70.8166C48.3345 70.8166 46.0945 71.2566 44.1345 72.1366C42.2145 72.9766 40.6145 74.1766 39.3345 75.7366C38.0545 77.2566 37.0945 79.0566 36.4545 81.1366C35.8145 83.1766 35.5345 85.3966 35.6145 87.7966ZM76.2644 92.4766C76.2644 91.7566 76.2644 90.8966 76.2644 89.8966C76.3044 88.8566 76.3844 87.7966 76.5044 86.7166C76.6244 85.6366 76.8244 84.5766 77.1044 83.5366C77.3844 82.4566 77.7644 81.4966 78.2444 80.6566C78.7644 79.8166 79.4044 79.1366 80.1644 78.6166C80.9644 78.0966 81.9444 77.8366 83.1044 77.8366C84.2644 77.8366 85.2444 78.0966 86.0444 78.6166C86.8444 79.1366 87.5044 79.8166 88.0244 80.6566C88.5444 81.4966 88.9244 82.4566 89.1644 83.5366C89.4444 84.5766 89.6444 85.6366 89.7644 86.7166C89.9244 87.7966 90.0044 88.8566 90.0044 89.8966C90.0444 90.8966 90.0644 91.7566 90.0644 92.4766C90.0644 93.6766 90.0244 95.1366 89.9444 96.8566C89.8644 98.5366 89.6044 100.177 89.1644 101.777C88.7644 103.337 88.0844 104.677 87.1244 105.797C86.2044 106.917 84.8644 107.477 83.1044 107.477C81.3844 107.477 80.0644 106.917 79.1444 105.797C78.2244 104.677 77.5444 103.337 77.1044 101.777C76.7044 100.177 76.4644 98.5366 76.3844 96.8566C76.3044 95.1366 76.2644 93.6766 76.2644 92.4766ZM67.7444 92.4766C67.7444 96.6766 68.1444 100.197 68.9444 103.037C69.7844 105.837 70.9044 108.077 72.3044 109.757C73.7044 111.437 75.3244 112.637 77.1644 113.357C79.0444 114.077 81.0244 114.437 83.1044 114.437C85.2244 114.437 87.2044 114.077 89.0444 113.357C90.9244 112.637 92.5644 111.437 93.9644 109.757C95.4044 108.077 96.5244 105.837 97.3244 103.037C98.1644 100.197 98.5844 96.6766 98.5844 92.4766C98.5844 88.3966 98.1644 84.9766 97.3244 82.2166C96.5244 79.4166 95.4044 77.1766 93.9644 75.4966C92.5644 73.8166 90.9244 72.6166 89.0444 71.8966C87.2044 71.1766 85.2244 70.8166 83.1044 70.8166C81.0244 70.8166 79.0444 71.1766 77.1644 71.8966C75.3244 72.6166 73.7044 73.8166 72.3044 75.4966C70.9044 77.1766 69.7844 79.4166 68.9444 82.2166C68.1444 84.9766 67.7444 88.3966 67.7444 92.4766ZM109.354 92.4766C109.354 91.7566 109.354 90.8966 109.354 89.8966C109.394 88.8566 109.474 87.7966 109.594 86.7166C109.714 85.6366 109.914 84.5766 110.194 83.5366C110.474 82.4566 110.854 81.4966 111.334 80.6566C111.854 79.8166 112.494 79.1366 113.254 78.6166C114.054 78.0966 115.034 77.8366 116.194 77.8366C117.354 77.8366 118.334 78.0966 119.134 78.6166C119.934 79.1366 120.594 79.8166 121.114 80.6566C121.634 81.4966 122.014 82.4566 122.254 83.5366C122.534 84.5766 122.734 85.6366 122.854 86.7166C123.014 87.7966 123.094 88.8566 123.094 89.8966C123.134 90.8966 123.154 91.7566 123.154 92.4766C123.154 93.6766 123.114 95.1366 123.034 96.8566C122.954 98.5366 122.694 100.177 122.254 101.777C121.854 103.337 121.174 104.677 120.214 105.797C119.294 106.917 117.954 107.477 116.194 107.477C114.474 107.477 113.154 106.917 112.234 105.797C111.314 104.677 110.634 103.337 110.194 101.777C109.794 100.177 109.554 98.5366 109.474 96.8566C109.394 95.1366 109.354 93.6766 109.354 92.4766ZM100.834 92.4766C100.834 96.6766 101.234 100.197 102.034 103.037C102.874 105.837 103.994 108.077 105.394 109.757C106.794 111.437 108.414 112.637 110.254 113.357C112.134 114.077 114.114 114.437 116.194 114.437C118.314 114.437 120.294 114.077 122.134 113.357C124.014 112.637 125.654 111.437 127.054 109.757C128.494 108.077 129.614 105.837 130.414 103.037C131.254 100.197 131.674 96.6766 131.674 92.4766C131.674 88.3966 131.254 84.9766 130.414 82.2166C129.614 79.4166 128.494 77.1766 127.054 75.4966C125.654 73.8166 124.014 72.6166 122.134 71.8966C120.294 71.1766 118.314 70.8166 116.194 70.8166C114.114 70.8166 112.134 71.1766 110.254 71.8966C108.414 72.6166 106.794 73.8166 105.394 75.4966C103.994 77.1766 102.874 79.4166 102.034 82.2166C101.234 84.9766 100.834 88.3966 100.834 92.4766Z" fill="#9BF0E1"/>
<path d="M43.2145 130.41H45.0145C44.9879 129.623 44.8345 128.95 44.5545 128.39C44.2879 127.816 43.9145 127.343 43.4345 126.97C42.9679 126.596 42.4212 126.323 41.7945 126.15C41.1679 125.976 40.4879 125.89 39.7545 125.89C39.1012 125.89 38.4612 125.976 37.8345 126.15C37.2212 126.31 36.6679 126.563 36.1745 126.91C35.6945 127.243 35.3079 127.676 35.0145 128.21C34.7212 128.73 34.5745 129.35 34.5745 130.07C34.5745 130.723 34.7012 131.27 34.9545 131.71C35.2212 132.136 35.5679 132.49 35.9945 132.77C36.4345 133.036 36.9279 133.256 37.4745 133.43C38.0212 133.59 38.5745 133.736 39.1345 133.87C39.7079 133.99 40.2679 134.11 40.8145 134.23C41.3612 134.35 41.8479 134.51 42.2745 134.71C42.7145 134.896 43.0612 135.143 43.3145 135.45C43.5812 135.756 43.7145 136.156 43.7145 136.65C43.7145 137.17 43.6079 137.596 43.3945 137.93C43.1812 138.263 42.9012 138.53 42.5545 138.73C42.2079 138.916 41.8145 139.05 41.3745 139.13C40.9479 139.21 40.5212 139.25 40.0945 139.25C39.5612 139.25 39.0412 139.183 38.5345 139.05C38.0279 138.916 37.5812 138.71 37.1945 138.43C36.8212 138.15 36.5145 137.796 36.2745 137.37C36.0479 136.93 35.9345 136.41 35.9345 135.81H34.1345C34.1345 136.676 34.2879 137.43 34.5945 138.07C34.9145 138.696 35.3412 139.216 35.8745 139.63C36.4212 140.03 37.0479 140.33 37.7545 140.53C38.4745 140.73 39.2345 140.83 40.0345 140.83C40.6879 140.83 41.3412 140.75 41.9945 140.59C42.6612 140.443 43.2612 140.203 43.7945 139.87C44.3279 139.523 44.7612 139.083 45.0945 138.55C45.4412 138.003 45.6145 137.35 45.6145 136.59C45.6145 135.883 45.4812 135.296 45.2145 134.83C44.9612 134.363 44.6145 133.976 44.1745 133.67C43.7479 133.363 43.2612 133.123 42.7145 132.95C42.1679 132.763 41.6079 132.603 41.0345 132.47C40.4745 132.336 39.9212 132.216 39.3745 132.11C38.8279 131.99 38.3345 131.843 37.8945 131.67C37.4679 131.496 37.1212 131.276 36.8545 131.01C36.6012 130.73 36.4745 130.37 36.4745 129.93C36.4745 129.463 36.5612 129.076 36.7345 128.77C36.9212 128.45 37.1612 128.196 37.4545 128.01C37.7612 127.823 38.1079 127.69 38.4945 127.61C38.8812 127.53 39.2745 127.49 39.6745 127.49C40.6612 127.49 41.4679 127.723 42.0945 128.19C42.7345 128.643 43.1079 129.383 43.2145 130.41ZM47.4533 130.17V144.45H49.1533V139.13H49.1933C49.3799 139.436 49.6066 139.696 49.8733 139.91C50.1533 140.11 50.4466 140.27 50.7533 140.39C51.0599 140.51 51.3666 140.596 51.6733 140.65C51.9933 140.703 52.2799 140.73 52.5333 140.73C53.3199 140.73 54.0066 140.59 54.5933 140.31C55.1933 140.03 55.6866 139.65 56.0733 139.17C56.4733 138.676 56.7666 138.103 56.9533 137.45C57.1533 136.796 57.2533 136.103 57.2533 135.37C57.2533 134.636 57.1533 133.943 56.9533 133.29C56.7533 132.636 56.4533 132.063 56.0533 131.57C55.6666 131.063 55.1733 130.663 54.5733 130.37C53.9866 130.076 53.2933 129.93 52.4933 129.93C51.7733 129.93 51.1133 130.063 50.5133 130.33C49.9133 130.583 49.4733 130.996 49.1933 131.57H49.1533V130.17H47.4533ZM55.4533 135.25C55.4533 135.756 55.3999 136.25 55.2933 136.73C55.1866 137.21 55.0133 137.636 54.7733 138.01C54.5333 138.383 54.2133 138.683 53.8133 138.91C53.4266 139.136 52.9399 139.25 52.3533 139.25C51.7666 139.25 51.2666 139.143 50.8533 138.93C50.4399 138.703 50.0999 138.41 49.8333 138.05C49.5799 137.69 49.3933 137.276 49.2733 136.81C49.1533 136.33 49.0933 135.836 49.0933 135.33C49.0933 134.85 49.1466 134.376 49.2533 133.91C49.3733 133.443 49.5599 133.03 49.8133 132.67C50.0666 132.296 50.3933 131.996 50.7933 131.77C51.1933 131.543 51.6799 131.43 52.2533 131.43C52.7999 131.43 53.2733 131.536 53.6733 131.75C54.0866 131.963 54.4199 132.25 54.6733 132.61C54.9399 132.97 55.1333 133.383 55.2533 133.85C55.3866 134.303 55.4533 134.77 55.4533 135.25ZM60.2388 135.35C60.2388 134.723 60.3188 134.17 60.4788 133.69C60.6521 133.196 60.8854 132.783 61.1788 132.45C61.4721 132.116 61.8121 131.863 62.1988 131.69C62.5988 131.516 63.0188 131.43 63.4588 131.43C63.8988 131.43 64.3121 131.516 64.6988 131.69C65.0988 131.863 65.4454 132.116 65.7388 132.45C66.0321 132.783 66.2588 133.196 66.4188 133.69C66.5921 134.17 66.6788 134.723 66.6788 135.35C66.6788 135.976 66.5921 136.536 66.4188 137.03C66.2588 137.51 66.0321 137.916 65.7388 138.25C65.4454 138.57 65.0988 138.816 64.6988 138.99C64.3121 139.163 63.8988 139.25 63.4588 139.25C63.0188 139.25 62.5988 139.163 62.1988 138.99C61.8121 138.816 61.4721 138.57 61.1788 138.25C60.8854 137.916 60.6521 137.51 60.4788 137.03C60.3188 136.536 60.2388 135.976 60.2388 135.35ZM58.4388 135.35C58.4388 136.11 58.5454 136.816 58.7588 137.47C58.9721 138.123 59.2921 138.696 59.7188 139.19C60.1454 139.67 60.6721 140.05 61.2988 140.33C61.9254 140.596 62.6454 140.73 63.4588 140.73C64.2854 140.73 65.0054 140.596 65.6188 140.33C66.2454 140.05 66.7721 139.67 67.1988 139.19C67.6254 138.696 67.9454 138.123 68.1588 137.47C68.3721 136.816 68.4788 136.11 68.4788 135.35C68.4788 134.59 68.3721 133.883 68.1588 133.23C67.9454 132.563 67.6254 131.99 67.1988 131.51C66.7721 131.016 66.2454 130.63 65.6188 130.35C65.0054 130.07 64.2854 129.93 63.4588 129.93C62.6454 129.93 61.9254 130.07 61.2988 130.35C60.6721 130.63 60.1454 131.016 59.7188 131.51C59.2921 131.99 58.9721 132.563 58.7588 133.23C58.5454 133.883 58.4388 134.59 58.4388 135.35ZM72.5931 130.17V127.07H70.8931V130.17H69.1331V131.67H70.8931V138.25C70.8931 138.73 70.9398 139.116 71.0331 139.41C71.1265 139.703 71.2665 139.93 71.4531 140.09C71.6531 140.25 71.9065 140.363 72.2131 140.43C72.5331 140.483 72.9131 140.51 73.3531 140.51H74.6531V139.01H73.8731C73.6065 139.01 73.3865 139.003 73.2131 138.99C73.0531 138.963 72.9265 138.916 72.8331 138.85C72.7398 138.783 72.6731 138.69 72.6331 138.57C72.6065 138.45 72.5931 138.29 72.5931 138.09V131.67H74.6531V130.17H72.5931ZM78.0917 128.31V126.23H76.3917V128.31H78.0917ZM76.3917 130.17V140.51H78.0917V130.17H76.3917ZM81.1753 131.67V140.51H82.8753V131.67H84.8753V130.17H82.8753V128.73C82.8753 128.276 82.9886 127.97 83.2153 127.81C83.442 127.65 83.762 127.57 84.1753 127.57C84.322 127.57 84.482 127.583 84.6553 127.61C84.8286 127.623 84.9886 127.656 85.1353 127.71V126.23C84.9753 126.176 84.7886 126.136 84.5753 126.11C84.3753 126.083 84.1953 126.07 84.0353 126.07C83.102 126.07 82.3886 126.29 81.8953 126.73C81.4153 127.156 81.1753 127.79 81.1753 128.63V130.17H79.4353V131.67H81.1753ZM90.2033 141.89C90.0033 142.396 89.8033 142.823 89.6033 143.17C89.4166 143.516 89.2033 143.796 88.9633 144.01C88.7366 144.236 88.4766 144.396 88.1833 144.49C87.9033 144.596 87.5766 144.65 87.2033 144.65C87.0033 144.65 86.8033 144.636 86.6033 144.61C86.4033 144.583 86.2099 144.536 86.0233 144.47V142.91C86.1699 142.976 86.3366 143.03 86.5233 143.07C86.7233 143.123 86.8899 143.15 87.0233 143.15C87.3699 143.15 87.6566 143.063 87.8833 142.89C88.1233 142.73 88.3033 142.496 88.4233 142.19L89.1233 140.45L85.0233 130.17H86.9433L89.9633 138.63H90.0033L92.9033 130.17H94.7033L90.2033 141.89ZM101.21 130.17V140.51H102.91V134.07C102.91 133.87 102.956 133.623 103.05 133.33C103.156 133.023 103.316 132.73 103.53 132.45C103.756 132.17 104.043 131.93 104.39 131.73C104.75 131.53 105.176 131.43 105.67 131.43C106.056 131.43 106.37 131.49 106.61 131.61C106.863 131.716 107.063 131.876 107.21 132.09C107.356 132.29 107.456 132.53 107.51 132.81C107.576 133.09 107.61 133.396 107.61 133.73V140.51H109.31V134.07C109.31 133.27 109.55 132.63 110.03 132.15C110.51 131.67 111.17 131.43 112.01 131.43C112.423 131.43 112.756 131.49 113.01 131.61C113.276 131.73 113.483 131.896 113.63 132.11C113.776 132.31 113.876 132.55 113.93 132.83C113.983 133.11 114.01 133.41 114.01 133.73V140.51H115.71V132.93C115.71 132.396 115.623 131.943 115.45 131.57C115.29 131.183 115.056 130.87 114.75 130.63C114.456 130.39 114.096 130.216 113.67 130.11C113.256 129.99 112.79 129.93 112.27 129.93C111.59 129.93 110.963 130.083 110.39 130.39C109.83 130.696 109.376 131.13 109.03 131.69C108.816 131.05 108.45 130.596 107.93 130.33C107.41 130.063 106.83 129.93 106.19 129.93C104.736 129.93 103.623 130.516 102.85 131.69H102.81V130.17H101.21ZM119.25 135.35C119.25 134.723 119.33 134.17 119.49 133.69C119.664 133.196 119.897 132.783 120.19 132.45C120.484 132.116 120.824 131.863 121.21 131.69C121.61 131.516 122.03 131.43 122.47 131.43C122.91 131.43 123.324 131.516 123.71 131.69C124.11 131.863 124.457 132.116 124.75 132.45C125.044 132.783 125.27 133.196 125.43 133.69C125.604 134.17 125.69 134.723 125.69 135.35C125.69 135.976 125.604 136.536 125.43 137.03C125.27 137.51 125.044 137.916 124.75 138.25C124.457 138.57 124.11 138.816 123.71 138.99C123.324 139.163 122.91 139.25 122.47 139.25C122.03 139.25 121.61 139.163 121.21 138.99C120.824 138.816 120.484 138.57 120.19 138.25C119.897 137.916 119.664 137.51 119.49 137.03C119.33 136.536 119.25 135.976 119.25 135.35ZM117.45 135.35C117.45 136.11 117.557 136.816 117.77 137.47C117.984 138.123 118.304 138.696 118.73 139.19C119.157 139.67 119.684 140.05 120.31 140.33C120.937 140.596 121.657 140.73 122.47 140.73C123.297 140.73 124.017 140.596 124.63 140.33C125.257 140.05 125.784 139.67 126.21 139.19C126.637 138.696 126.957 138.123 127.17 137.47C127.384 136.816 127.49 136.11 127.49 135.35C127.49 134.59 127.384 133.883 127.17 133.23C126.957 132.563 126.637 131.99 126.21 131.51C125.784 131.016 125.257 130.63 124.63 130.35C124.017 130.07 123.297 129.93 122.47 129.93C121.657 129.93 120.937 130.07 120.31 130.35C119.684 130.63 119.157 131.016 118.73 131.51C118.304 131.99 117.984 132.563 117.77 133.23C117.557 133.883 117.45 134.59 117.45 135.35ZM129.305 126.23V140.51H131.005V139.13H131.045C131.232 139.436 131.458 139.696 131.725 139.91C132.005 140.11 132.298 140.27 132.605 140.39C132.912 140.51 133.218 140.596 133.525 140.65C133.845 140.703 134.132 140.73 134.385 140.73C135.172 140.73 135.858 140.59 136.445 140.31C137.045 140.03 137.538 139.65 137.925 139.17C138.325 138.676 138.618 138.103 138.805 137.45C139.005 136.796 139.105 136.103 139.105 135.37C139.105 134.636 139.005 133.943 138.805 133.29C138.605 132.636 138.305 132.063 137.905 131.57C137.518 131.063 137.025 130.663 136.425 130.37C135.838 130.076 135.145 129.93 134.345 129.93C133.625 129.93 132.965 130.063 132.365 130.33C131.765 130.583 131.325 130.996 131.045 131.57H131.005V126.23H129.305ZM137.305 135.25C137.305 135.756 137.252 136.25 137.145 136.73C137.038 137.21 136.865 137.636 136.625 138.01C136.385 138.383 136.065 138.683 135.665 138.91C135.278 139.136 134.792 139.25 134.205 139.25C133.618 139.25 133.118 139.143 132.705 138.93C132.292 138.703 131.952 138.41 131.685 138.05C131.432 137.69 131.245 137.276 131.125 136.81C131.005 136.33 130.945 135.836 130.945 135.33C130.945 134.85 130.998 134.376 131.105 133.91C131.225 133.443 131.412 133.03 131.665 132.67C131.918 132.296 132.245 131.996 132.645 131.77C133.045 131.543 133.532 131.43 134.105 131.43C134.652 131.43 135.125 131.536 135.525 131.75C135.938 131.963 136.272 132.25 136.525 132.61C136.792 132.97 136.985 133.383 137.105 133.85C137.238 134.303 137.305 134.77 137.305 135.25ZM142.65 128.31V126.23H140.95V128.31H142.65ZM140.95 130.17V140.51H142.65V130.17H140.95ZM145.134 126.23V140.51H146.834V126.23H145.134ZM156.398 134.35H150.458C150.484 133.95 150.571 133.576 150.718 133.23C150.864 132.87 151.064 132.556 151.318 132.29C151.571 132.023 151.871 131.816 152.218 131.67C152.578 131.51 152.978 131.43 153.418 131.43C153.844 131.43 154.231 131.51 154.578 131.67C154.938 131.816 155.244 132.023 155.498 132.29C155.764 132.543 155.971 132.85 156.118 133.21C156.278 133.57 156.371 133.95 156.398 134.35ZM158.037 137.23H156.358C156.211 137.91 155.904 138.416 155.438 138.75C154.984 139.083 154.398 139.25 153.678 139.25C153.118 139.25 152.631 139.156 152.218 138.97C151.804 138.783 151.464 138.536 151.198 138.23C150.931 137.91 150.738 137.55 150.618 137.15C150.498 136.736 150.444 136.303 150.458 135.85H158.198C158.224 135.223 158.164 134.563 158.018 133.87C157.884 133.176 157.631 132.536 157.258 131.95C156.898 131.363 156.411 130.883 155.798 130.51C155.198 130.123 154.438 129.93 153.518 129.93C152.811 129.93 152.158 130.063 151.558 130.33C150.971 130.596 150.458 130.97 150.018 131.45C149.591 131.93 149.258 132.496 149.018 133.15C148.778 133.803 148.658 134.523 148.658 135.31C148.684 136.096 148.798 136.823 148.998 137.49C149.211 138.156 149.524 138.73 149.938 139.21C150.351 139.69 150.858 140.063 151.458 140.33C152.071 140.596 152.791 140.73 153.618 140.73C154.791 140.73 155.764 140.436 156.538 139.85C157.311 139.263 157.811 138.39 158.037 137.23ZM35.3745 151.67V160.51H37.0745V151.67H39.0745V150.17H37.0745V148.73C37.0745 148.276 37.1879 147.97 37.4145 147.81C37.6412 147.65 37.9612 147.57 38.3745 147.57C38.5212 147.57 38.6812 147.583 38.8545 147.61C39.0279 147.623 39.1879 147.656 39.3345 147.71V146.23C39.1745 146.176 38.9879 146.136 38.7745 146.11C38.5745 146.083 38.3945 146.07 38.2345 146.07C37.3012 146.07 36.5879 146.29 36.0945 146.73C35.6145 147.156 35.3745 147.79 35.3745 148.63V150.17H33.6345V151.67H35.3745ZM47.5225 154.35H41.5825C41.6092 153.95 41.6958 153.576 41.8425 153.23C41.9892 152.87 42.1892 152.556 42.4425 152.29C42.6958 152.023 42.9958 151.816 43.3425 151.67C43.7025 151.51 44.1025 151.43 44.5425 151.43C44.9692 151.43 45.3558 151.51 45.7025 151.67C46.0625 151.816 46.3692 152.023 46.6225 152.29C46.8892 152.543 47.0958 152.85 47.2425 153.21C47.4025 153.57 47.4958 153.95 47.5225 154.35ZM49.1625 157.23H47.4825C47.3358 157.91 47.0292 158.416 46.5625 158.75C46.1092 159.083 45.5225 159.25 44.8025 159.25C44.2425 159.25 43.7558 159.156 43.3425 158.97C42.9292 158.783 42.5892 158.536 42.3225 158.23C42.0558 157.91 41.8625 157.55 41.7425 157.15C41.6225 156.736 41.5692 156.303 41.5825 155.85H49.3225C49.3492 155.223 49.2892 154.563 49.1425 153.87C49.0092 153.176 48.7558 152.536 48.3825 151.95C48.0225 151.363 47.5358 150.883 46.9225 150.51C46.3225 150.123 45.5625 149.93 44.6425 149.93C43.9358 149.93 43.2825 150.063 42.6825 150.33C42.0958 150.596 41.5825 150.97 41.1425 151.45C40.7158 151.93 40.3825 152.496 40.1425 153.15C39.9025 153.803 39.7825 154.523 39.7825 155.31C39.8092 156.096 39.9225 156.823 40.1225 157.49C40.3358 158.156 40.6492 158.73 41.0625 159.21C41.4758 159.69 41.9825 160.063 42.5825 160.33C43.1958 160.596 43.9158 160.73 44.7425 160.73C45.9158 160.73 46.8892 160.436 47.6625 159.85C48.4358 159.263 48.9358 158.39 49.1625 157.23ZM59.9947 160.47C59.7014 160.643 59.2947 160.73 58.7747 160.73C58.3347 160.73 57.9814 160.61 57.7147 160.37C57.4614 160.116 57.3347 159.71 57.3347 159.15C56.868 159.71 56.3214 160.116 55.6947 160.37C55.0814 160.61 54.4147 160.73 53.6947 160.73C53.228 160.73 52.7814 160.676 52.3547 160.57C51.9414 160.463 51.5814 160.296 51.2747 160.07C50.968 159.843 50.7214 159.55 50.5347 159.19C50.3614 158.816 50.2747 158.37 50.2747 157.85C50.2747 157.263 50.3747 156.783 50.5747 156.41C50.7747 156.036 51.0347 155.736 51.3547 155.51C51.688 155.27 52.0614 155.09 52.4747 154.97C52.9014 154.85 53.3347 154.75 53.7747 154.67C54.2414 154.576 54.6814 154.51 55.0947 154.47C55.5214 154.416 55.8947 154.35 56.2147 154.27C56.5347 154.176 56.788 154.05 56.9747 153.89C57.1614 153.716 57.2547 153.47 57.2547 153.15C57.2547 152.776 57.1814 152.476 57.0347 152.25C56.9014 152.023 56.7214 151.85 56.4947 151.73C56.2814 151.61 56.0347 151.53 55.7547 151.49C55.488 151.45 55.2214 151.43 54.9547 151.43C54.2347 151.43 53.6347 151.57 53.1547 151.85C52.6747 152.116 52.4147 152.63 52.3747 153.39H50.6747C50.7014 152.75 50.8347 152.21 51.0747 151.77C51.3147 151.33 51.6347 150.976 52.0347 150.71C52.4347 150.43 52.888 150.23 53.3947 150.11C53.9147 149.99 54.468 149.93 55.0547 149.93C55.5214 149.93 55.9814 149.963 56.4347 150.03C56.9014 150.096 57.3214 150.236 57.6947 150.45C58.068 150.65 58.368 150.936 58.5947 151.31C58.8214 151.683 58.9347 152.17 58.9347 152.77V158.09C58.9347 158.49 58.9547 158.783 58.9947 158.97C59.048 159.156 59.208 159.25 59.4747 159.25C59.6214 159.25 59.7947 159.216 59.9947 159.15V160.47ZM57.2347 155.17C57.0214 155.33 56.7414 155.45 56.3947 155.53C56.048 155.596 55.6814 155.656 55.2947 155.71C54.9214 155.75 54.5414 155.803 54.1547 155.87C53.768 155.923 53.4214 156.016 53.1147 156.15C52.808 156.283 52.5547 156.476 52.3547 156.73C52.168 156.97 52.0747 157.303 52.0747 157.73C52.0747 158.01 52.128 158.25 52.2347 158.45C52.3547 158.636 52.5014 158.79 52.6747 158.91C52.8614 159.03 53.0747 159.116 53.3147 159.17C53.5547 159.223 53.808 159.25 54.0747 159.25C54.6347 159.25 55.1147 159.176 55.5147 159.03C55.9147 158.87 56.2414 158.676 56.4947 158.45C56.748 158.21 56.9347 157.956 57.0547 157.69C57.1747 157.41 57.2347 157.15 57.2347 156.91V155.17ZM63.6869 150.17V147.07H61.9869V150.17H60.2269V151.67H61.9869V158.25C61.9869 158.73 62.0335 159.116 62.1269 159.41C62.2202 159.703 62.3602 159.93 62.5469 160.09C62.7469 160.25 63.0002 160.363 63.3069 160.43C63.6269 160.483 64.0069 160.51 64.4469 160.51H65.7469V159.01H64.9669C64.7002 159.01 64.4802 159.003 64.3069 158.99C64.1469 158.963 64.0202 158.916 63.9269 158.85C63.8335 158.783 63.7669 158.69 63.7269 158.57C63.7002 158.45 63.6869 158.29 63.6869 158.09V151.67H65.7469V150.17H63.6869ZM75.9455 160.51V150.17H74.2455V156.01C74.2455 156.476 74.1788 156.91 74.0455 157.31C73.9255 157.696 73.7388 158.036 73.4855 158.33C73.2321 158.623 72.9121 158.85 72.5255 159.01C72.1521 159.17 71.7055 159.25 71.1855 159.25C70.5321 159.25 70.0188 159.063 69.6455 158.69C69.2721 158.316 69.0855 157.81 69.0855 157.17V150.17H67.3855V156.97C67.3855 157.53 67.4388 158.043 67.5455 158.51C67.6655 158.963 67.8655 159.356 68.1455 159.69C68.4255 160.023 68.7921 160.283 69.2455 160.47C69.6988 160.643 70.2655 160.73 70.9455 160.73C71.7055 160.73 72.3655 160.583 72.9255 160.29C73.4855 159.983 73.9455 159.51 74.3055 158.87H74.3455V160.51H75.9455ZM78.1888 150.17V160.51H79.8888V155.91C79.8888 155.243 79.9554 154.656 80.0888 154.15C80.2221 153.63 80.4354 153.19 80.7288 152.83C81.0221 152.47 81.4088 152.196 81.8888 152.01C82.3688 151.823 82.9488 151.73 83.6288 151.73V149.93C82.7088 149.903 81.9488 150.09 81.3488 150.49C80.7488 150.89 80.2421 151.51 79.8288 152.35H79.7888V150.17H78.1888ZM91.4873 154.35H85.5473C85.574 153.95 85.6607 153.576 85.8073 153.23C85.954 152.87 86.154 152.556 86.4073 152.29C86.6607 152.023 86.9607 151.816 87.3073 151.67C87.6673 151.51 88.0673 151.43 88.5073 151.43C88.934 151.43 89.3207 151.51 89.6673 151.67C90.0273 151.816 90.334 152.023 90.5873 152.29C90.854 152.543 91.0607 152.85 91.2073 153.21C91.3673 153.57 91.4607 153.95 91.4873 154.35ZM93.1273 157.23H91.4473C91.3007 157.91 90.994 158.416 90.5273 158.75C90.074 159.083 89.4873 159.25 88.7673 159.25C88.2073 159.25 87.7207 159.156 87.3073 158.97C86.894 158.783 86.554 158.536 86.2873 158.23C86.0207 157.91 85.8273 157.55 85.7073 157.15C85.5873 156.736 85.534 156.303 85.5473 155.85H93.2873C93.314 155.223 93.254 154.563 93.1073 153.87C92.974 153.176 92.7207 152.536 92.3473 151.95C91.9873 151.363 91.5007 150.883 90.8873 150.51C90.2873 150.123 89.5273 149.93 88.6073 149.93C87.9007 149.93 87.2473 150.063 86.6473 150.33C86.0607 150.596 85.5473 150.97 85.1073 151.45C84.6807 151.93 84.3473 152.496 84.1073 153.15C83.8673 153.803 83.7473 154.523 83.7473 155.31C83.774 156.096 83.8873 156.823 84.0873 157.49C84.3007 158.156 84.614 158.73 85.0273 159.21C85.4407 159.69 85.9473 160.063 86.5473 160.33C87.1607 160.596 87.8807 160.73 88.7073 160.73C89.8807 160.73 90.854 160.436 91.6273 159.85C92.4007 159.263 92.9007 158.39 93.1273 157.23ZM95.8395 157.25H94.1395C94.1662 157.89 94.2995 158.436 94.5395 158.89C94.7795 159.33 95.0995 159.69 95.4995 159.97C95.8995 160.236 96.3595 160.43 96.8795 160.55C97.3995 160.67 97.9462 160.73 98.5195 160.73C99.0395 160.73 99.5595 160.676 100.08 160.57C100.613 160.476 101.086 160.303 101.5 160.05C101.926 159.796 102.266 159.463 102.52 159.05C102.786 158.636 102.92 158.116 102.92 157.49C102.92 156.996 102.82 156.583 102.62 156.25C102.433 155.916 102.18 155.643 101.86 155.43C101.553 155.203 101.193 155.023 100.78 154.89C100.38 154.756 99.9662 154.643 99.5395 154.55C99.1395 154.456 98.7395 154.37 98.3395 154.29C97.9395 154.196 97.5795 154.09 97.2595 153.97C96.9395 153.836 96.6729 153.676 96.4595 153.49C96.2595 153.29 96.1595 153.043 96.1595 152.75C96.1595 152.483 96.2262 152.27 96.3595 152.11C96.4929 151.936 96.6662 151.803 96.8795 151.71C97.0929 151.603 97.3262 151.53 97.5795 151.49C97.8462 151.45 98.1062 151.43 98.3595 151.43C98.6395 151.43 98.9129 151.463 99.1795 151.53C99.4595 151.583 99.7129 151.676 99.9395 151.81C100.166 151.943 100.353 152.123 100.5 152.35C100.646 152.563 100.733 152.836 100.76 153.17H102.46C102.42 152.543 102.286 152.023 102.06 151.61C101.833 151.183 101.526 150.85 101.14 150.61C100.766 150.356 100.333 150.183 99.8395 150.09C99.3462 149.983 98.8062 149.93 98.2195 149.93C97.7662 149.93 97.3062 149.99 96.8395 150.11C96.3862 150.216 95.9729 150.39 95.5995 150.63C95.2395 150.856 94.9395 151.156 94.6995 151.53C94.4729 151.903 94.3595 152.35 94.3595 152.87C94.3595 153.536 94.5262 154.056 94.8595 154.43C95.1929 154.803 95.6062 155.096 96.0995 155.31C96.6062 155.51 97.1529 155.67 97.7395 155.79C98.3262 155.896 98.8662 156.023 99.3595 156.17C99.8662 156.303 100.286 156.483 100.62 156.71C100.953 156.936 101.12 157.27 101.12 157.71C101.12 158.03 101.04 158.296 100.88 158.51C100.72 158.71 100.513 158.863 100.26 158.97C100.02 159.076 99.7529 159.15 99.4595 159.19C99.1662 159.23 98.8862 159.25 98.6195 159.25C98.2729 159.25 97.9329 159.216 97.5995 159.15C97.2795 159.083 96.9862 158.976 96.7195 158.83C96.4662 158.67 96.2595 158.463 96.0995 158.21C95.9395 157.943 95.8529 157.623 95.8395 157.25ZM111.106 155.35C111.106 154.723 111.186 154.17 111.346 153.69C111.519 153.196 111.753 152.783 112.046 152.45C112.339 152.116 112.679 151.863 113.066 151.69C113.466 151.516 113.886 151.43 114.326 151.43C114.766 151.43 115.179 151.516 115.566 151.69C115.966 151.863 116.313 152.116 116.606 152.45C116.899 152.783 117.126 153.196 117.286 153.69C117.459 154.17 117.546 154.723 117.546 155.35C117.546 155.976 117.459 156.536 117.286 157.03C117.126 157.51 116.899 157.916 116.606 158.25C116.313 158.57 115.966 158.816 115.566 158.99C115.179 159.163 114.766 159.25 114.326 159.25C113.886 159.25 113.466 159.163 113.066 158.99C112.679 158.816 112.339 158.57 112.046 158.25C111.753 157.916 111.519 157.51 111.346 157.03C111.186 156.536 111.106 155.976 111.106 155.35ZM109.306 155.35C109.306 156.11 109.413 156.816 109.626 157.47C109.839 158.123 110.159 158.696 110.586 159.19C111.013 159.67 111.539 160.05 112.166 160.33C112.793 160.596 113.513 160.73 114.326 160.73C115.153 160.73 115.873 160.596 116.486 160.33C117.113 160.05 117.639 159.67 118.066 159.19C118.493 158.696 118.813 158.123 119.026 157.47C119.239 156.816 119.346 156.11 119.346 155.35C119.346 154.59 119.239 153.883 119.026 153.23C118.813 152.563 118.493 151.99 118.066 151.51C117.639 151.016 117.113 150.63 116.486 150.35C115.873 150.07 115.153 149.93 114.326 149.93C113.513 149.93 112.793 150.07 112.166 150.35C111.539 150.63 111.013 151.016 110.586 151.51C110.159 151.99 109.839 152.563 109.626 153.23C109.413 153.883 109.306 154.59 109.306 155.35ZM121.1 150.17V160.51H122.8V154.67C122.8 154.203 122.86 153.776 122.98 153.39C123.114 152.99 123.307 152.643 123.56 152.35C123.814 152.056 124.127 151.83 124.5 151.67C124.887 151.51 125.34 151.43 125.86 151.43C126.514 151.43 127.027 151.616 127.4 151.99C127.774 152.363 127.96 152.87 127.96 153.51V160.51H129.66V153.71C129.66 153.15 129.6 152.643 129.48 152.19C129.374 151.723 129.18 151.323 128.9 150.99C128.62 150.656 128.254 150.396 127.8 150.21C127.347 150.023 126.78 149.93 126.1 149.93C124.567 149.93 123.447 150.556 122.74 151.81H122.7V150.17H121.1ZM36.8545 172.37V167.83H40.6545C41.0679 167.83 41.4545 167.856 41.8145 167.91C42.1879 167.95 42.5145 168.05 42.7945 168.21C43.0745 168.37 43.2945 168.596 43.4545 168.89C43.6145 169.183 43.6945 169.583 43.6945 170.09C43.6945 170.85 43.4545 171.423 42.9745 171.81C42.5079 172.183 41.7345 172.37 40.6545 172.37H36.8545ZM34.9545 166.23V180.51H41.8545C42.5612 180.51 43.1812 180.396 43.7145 180.17C44.2612 179.93 44.7145 179.623 45.0745 179.25C45.4479 178.863 45.7279 178.423 45.9145 177.93C46.1012 177.436 46.1945 176.93 46.1945 176.41C46.1945 175.53 45.9612 174.783 45.4945 174.17C45.0279 173.556 44.3545 173.156 43.4745 172.97V172.93C44.1545 172.663 44.6745 172.256 45.0345 171.71C45.4079 171.15 45.5945 170.49 45.5945 169.73C45.5945 169.01 45.4279 168.403 45.0945 167.91C44.7745 167.416 44.3812 167.03 43.9145 166.75C43.7012 166.616 43.4412 166.516 43.1345 166.45C42.8412 166.383 42.5212 166.336 42.1745 166.31C41.8279 166.27 41.4745 166.25 41.1145 166.25C40.7679 166.236 40.4412 166.23 40.1345 166.23H34.9545ZM36.8545 178.91V173.97H41.1945C41.5945 173.97 41.9812 174.01 42.3545 174.09C42.7279 174.156 43.0545 174.283 43.3345 174.47C43.6279 174.643 43.8612 174.883 44.0345 175.19C44.2079 175.496 44.2945 175.883 44.2945 176.35C44.2945 177.15 44.0545 177.776 43.5745 178.23C43.1079 178.683 42.4545 178.91 41.6145 178.91H36.8545ZM57.2759 180.47C56.9826 180.643 56.5759 180.73 56.0559 180.73C55.6159 180.73 55.2626 180.61 54.9959 180.37C54.7426 180.116 54.6159 179.71 54.6159 179.15C54.1493 179.71 53.6026 180.116 52.9759 180.37C52.3626 180.61 51.6959 180.73 50.9759 180.73C50.5093 180.73 50.0626 180.676 49.6359 180.57C49.2226 180.463 48.8626 180.296 48.5559 180.07C48.2493 179.843 48.0026 179.55 47.8159 179.19C47.6426 178.816 47.5559 178.37 47.5559 177.85C47.5559 177.263 47.6559 176.783 47.8559 176.41C48.0559 176.036 48.3159 175.736 48.6359 175.51C48.9693 175.27 49.3426 175.09 49.7559 174.97C50.1826 174.85 50.6159 174.75 51.0559 174.67C51.5226 174.576 51.9626 174.51 52.3759 174.47C52.8026 174.416 53.1759 174.35 53.4959 174.27C53.8159 174.176 54.0693 174.05 54.2559 173.89C54.4426 173.716 54.5359 173.47 54.5359 173.15C54.5359 172.776 54.4626 172.476 54.3159 172.25C54.1826 172.023 54.0026 171.85 53.7759 171.73C53.5626 171.61 53.3159 171.53 53.0359 171.49C52.7693 171.45 52.5026 171.43 52.2359 171.43C51.5159 171.43 50.9159 171.57 50.4359 171.85C49.9559 172.116 49.6959 172.63 49.6559 173.39H47.9559C47.9826 172.75 48.1159 172.21 48.3559 171.77C48.5959 171.33 48.9159 170.976 49.3159 170.71C49.7159 170.43 50.1693 170.23 50.6759 170.11C51.1959 169.99 51.7493 169.93 52.3359 169.93C52.8026 169.93 53.2626 169.963 53.7159 170.03C54.1826 170.096 54.6026 170.236 54.9759 170.45C55.3493 170.65 55.6493 170.936 55.8759 171.31C56.1026 171.683 56.2159 172.17 56.2159 172.77V178.09C56.2159 178.49 56.2359 178.783 56.2759 178.97C56.3293 179.156 56.4893 179.25 56.7559 179.25C56.9026 179.25 57.0759 179.216 57.2759 179.15V180.47ZM54.5159 175.17C54.3026 175.33 54.0226 175.45 53.6759 175.53C53.3293 175.596 52.9626 175.656 52.5759 175.71C52.2026 175.75 51.8226 175.803 51.4359 175.87C51.0493 175.923 50.7026 176.016 50.3959 176.15C50.0893 176.283 49.8359 176.476 49.6359 176.73C49.4493 176.97 49.3559 177.303 49.3559 177.73C49.3559 178.01 49.4093 178.25 49.5159 178.45C49.6359 178.636 49.7826 178.79 49.9559 178.91C50.1426 179.03 50.3559 179.116 50.5959 179.17C50.8359 179.223 51.0893 179.25 51.3559 179.25C51.9159 179.25 52.3959 179.176 52.7959 179.03C53.1959 178.87 53.5226 178.676 53.7759 178.45C54.0293 178.21 54.2159 177.956 54.3359 177.69C54.4559 177.41 54.5159 177.15 54.5159 176.91V175.17ZM65.6281 173.49H67.3881C67.3215 172.876 67.1615 172.35 66.9081 171.91C66.6548 171.456 66.3281 171.083 65.9281 170.79C65.5415 170.496 65.0881 170.283 64.5681 170.15C64.0615 170.003 63.5148 169.93 62.9281 169.93C62.1148 169.93 61.4015 170.076 60.7881 170.37C60.1748 170.65 59.6615 171.043 59.2481 171.55C58.8481 172.043 58.5481 172.63 58.3481 173.31C58.1481 173.976 58.0481 174.696 58.0481 175.47C58.0481 176.243 58.1481 176.956 58.3481 177.61C58.5615 178.25 58.8681 178.803 59.2681 179.27C59.6815 179.736 60.1881 180.096 60.7881 180.35C61.4015 180.603 62.1015 180.73 62.8881 180.73C64.2081 180.73 65.2481 180.383 66.0081 179.69C66.7815 178.996 67.2615 178.01 67.4481 176.73H65.7081C65.6015 177.53 65.3081 178.15 64.8281 178.59C64.3615 179.03 63.7081 179.25 62.8681 179.25C62.3348 179.25 61.8748 179.143 61.4881 178.93C61.1015 178.716 60.7881 178.436 60.5481 178.09C60.3081 177.73 60.1281 177.323 60.0081 176.87C59.9015 176.416 59.8481 175.95 59.8481 175.47C59.8481 174.95 59.9015 174.45 60.0081 173.97C60.1148 173.476 60.2881 173.043 60.5281 172.67C60.7815 172.296 61.1148 171.996 61.5281 171.77C61.9415 171.543 62.4548 171.43 63.0681 171.43C63.7881 171.43 64.3615 171.61 64.7881 171.97C65.2148 172.33 65.4948 172.836 65.6281 173.49ZM69.2003 166.23V180.51H70.9003V176.59L72.5003 175.11L76.0403 180.51H78.2003L73.8003 173.93L77.9003 170.17H75.6203L70.9003 174.69V166.23H69.2003ZM80.2614 177.25H78.5614C78.5881 177.89 78.7214 178.436 78.9614 178.89C79.2014 179.33 79.5214 179.69 79.9214 179.97C80.3214 180.236 80.7814 180.43 81.3014 180.55C81.8214 180.67 82.3681 180.73 82.9414 180.73C83.4614 180.73 83.9814 180.676 84.5014 180.57C85.0347 180.476 85.5081 180.303 85.9214 180.05C86.3481 179.796 86.6881 179.463 86.9414 179.05C87.2081 178.636 87.3414 178.116 87.3414 177.49C87.3414 176.996 87.2414 176.583 87.0414 176.25C86.8547 175.916 86.6014 175.643 86.2814 175.43C85.9747 175.203 85.6147 175.023 85.2014 174.89C84.8014 174.756 84.3881 174.643 83.9614 174.55C83.5614 174.456 83.1614 174.37 82.7614 174.29C82.3614 174.196 82.0014 174.09 81.6814 173.97C81.3614 173.836 81.0947 173.676 80.8814 173.49C80.6814 173.29 80.5814 173.043 80.5814 172.75C80.5814 172.483 80.6481 172.27 80.7814 172.11C80.9147 171.936 81.0881 171.803 81.3014 171.71C81.5147 171.603 81.7481 171.53 82.0014 171.49C82.2681 171.45 82.5281 171.43 82.7814 171.43C83.0614 171.43 83.3347 171.463 83.6014 171.53C83.8814 171.583 84.1347 171.676 84.3614 171.81C84.5881 171.943 84.7747 172.123 84.9214 172.35C85.0681 172.563 85.1547 172.836 85.1814 173.17H86.8814C86.8414 172.543 86.7081 172.023 86.4814 171.61C86.2547 171.183 85.9481 170.85 85.5614 170.61C85.1881 170.356 84.7547 170.183 84.2614 170.09C83.7681 169.983 83.2281 169.93 82.6414 169.93C82.1881 169.93 81.7281 169.99 81.2614 170.11C80.8081 170.216 80.3947 170.39 80.0214 170.63C79.6614 170.856 79.3614 171.156 79.1214 171.53C78.8947 171.903 78.7814 172.35 78.7814 172.87C78.7814 173.536 78.9481 174.056 79.2814 174.43C79.6147 174.803 80.0281 175.096 80.5214 175.31C81.0281 175.51 81.5747 175.67 82.1614 175.79C82.7481 175.896 83.2881 176.023 83.7814 176.17C84.2881 176.303 84.7081 176.483 85.0414 176.71C85.3747 176.936 85.5414 177.27 85.5414 177.71C85.5414 178.03 85.4614 178.296 85.3014 178.51C85.1414 178.71 84.9347 178.863 84.6814 178.97C84.4414 179.076 84.1747 179.15 83.8814 179.19C83.5881 179.23 83.3081 179.25 83.0414 179.25C82.6947 179.25 82.3547 179.216 82.0214 179.15C81.7014 179.083 81.4081 178.976 81.1414 178.83C80.8881 178.67 80.6814 178.463 80.5214 178.21C80.3614 177.943 80.2747 177.623 80.2614 177.25ZM91.3314 170.17V167.07H89.6314V170.17H87.8714V171.67H89.6314V178.25C89.6314 178.73 89.6781 179.116 89.7714 179.41C89.8647 179.703 90.0047 179.93 90.1914 180.09C90.3914 180.25 90.6447 180.363 90.9514 180.43C91.2714 180.483 91.6514 180.51 92.0914 180.51H93.3914V179.01H92.6114C92.3447 179.01 92.1247 179.003 91.9514 178.99C91.7914 178.963 91.6647 178.916 91.5714 178.85C91.4781 178.783 91.4114 178.69 91.3714 178.57C91.3447 178.45 91.3314 178.29 91.3314 178.09V171.67H93.3914V170.17H91.3314ZM104.19 180.47C103.897 180.643 103.49 180.73 102.97 180.73C102.53 180.73 102.177 180.61 101.91 180.37C101.657 180.116 101.53 179.71 101.53 179.15C101.063 179.71 100.517 180.116 99.89 180.37C99.2767 180.61 98.61 180.73 97.89 180.73C97.4233 180.73 96.9767 180.676 96.55 180.57C96.1367 180.463 95.7767 180.296 95.47 180.07C95.1633 179.843 94.9167 179.55 94.73 179.19C94.5567 178.816 94.47 178.37 94.47 177.85C94.47 177.263 94.57 176.783 94.77 176.41C94.97 176.036 95.23 175.736 95.55 175.51C95.8833 175.27 96.2567 175.09 96.67 174.97C97.0967 174.85 97.53 174.75 97.97 174.67C98.4367 174.576 98.8767 174.51 99.29 174.47C99.7167 174.416 100.09 174.35 100.41 174.27C100.73 174.176 100.983 174.05 101.17 173.89C101.357 173.716 101.45 173.47 101.45 173.15C101.45 172.776 101.377 172.476 101.23 172.25C101.097 172.023 100.917 171.85 100.69 171.73C100.477 171.61 100.23 171.53 99.95 171.49C99.6833 171.45 99.4167 171.43 99.15 171.43C98.43 171.43 97.83 171.57 97.35 171.85C96.87 172.116 96.61 172.63 96.57 173.39H94.87C94.8967 172.75 95.03 172.21 95.27 171.77C95.51 171.33 95.83 170.976 96.23 170.71C96.63 170.43 97.0833 170.23 97.59 170.11C98.11 169.99 98.6633 169.93 99.25 169.93C99.7167 169.93 100.177 169.963 100.63 170.03C101.097 170.096 101.517 170.236 101.89 170.45C102.263 170.65 102.563 170.936 102.79 171.31C103.017 171.683 103.13 172.17 103.13 172.77V178.09C103.13 178.49 103.15 178.783 103.19 178.97C103.243 179.156 103.403 179.25 103.67 179.25C103.817 179.25 103.99 179.216 104.19 179.15V180.47ZM101.43 175.17C101.217 175.33 100.937 175.45 100.59 175.53C100.243 175.596 99.8767 175.656 99.49 175.71C99.1167 175.75 98.7367 175.803 98.35 175.87C97.9633 175.923 97.6167 176.016 97.31 176.15C97.0033 176.283 96.75 176.476 96.55 176.73C96.3633 176.97 96.27 177.303 96.27 177.73C96.27 178.01 96.3233 178.25 96.43 178.45C96.55 178.636 96.6967 178.79 96.87 178.91C97.0567 179.03 97.27 179.116 97.51 179.17C97.75 179.223 98.0033 179.25 98.27 179.25C98.83 179.25 99.31 179.176 99.71 179.03C100.11 178.87 100.437 178.676 100.69 178.45C100.943 178.21 101.13 177.956 101.25 177.69C101.37 177.41 101.43 177.15 101.43 176.91V175.17ZM114.442 179.63V170.17H112.842V171.65H112.822C112.516 171.076 112.089 170.65 111.542 170.37C110.996 170.076 110.396 169.93 109.742 169.93C108.849 169.93 108.096 170.103 107.482 170.45C106.869 170.783 106.376 171.216 106.002 171.75C105.629 172.27 105.362 172.856 105.202 173.51C105.042 174.15 104.962 174.776 104.962 175.39C104.962 176.096 105.056 176.77 105.242 177.41C105.442 178.036 105.736 178.59 106.122 179.07C106.509 179.536 106.989 179.91 107.562 180.19C108.136 180.47 108.809 180.61 109.582 180.61C110.249 180.61 110.876 180.463 111.462 180.17C112.062 179.863 112.509 179.39 112.802 178.75H112.842V179.43C112.842 180.003 112.782 180.53 112.662 181.01C112.556 181.49 112.376 181.896 112.122 182.23C111.869 182.576 111.549 182.843 111.162 183.03C110.776 183.23 110.302 183.33 109.742 183.33C109.462 183.33 109.169 183.296 108.862 183.23C108.556 183.176 108.269 183.083 108.002 182.95C107.749 182.816 107.529 182.643 107.342 182.43C107.169 182.216 107.076 181.956 107.062 181.65H105.362C105.389 182.21 105.536 182.683 105.802 183.07C106.069 183.456 106.402 183.77 106.802 184.01C107.216 184.25 107.669 184.423 108.162 184.53C108.669 184.636 109.162 184.69 109.642 184.69C111.296 184.69 112.509 184.27 113.282 183.43C114.056 182.59 114.442 181.323 114.442 179.63ZM109.682 179.13C109.122 179.13 108.656 179.016 108.282 178.79C107.909 178.55 107.609 178.243 107.382 177.87C107.156 177.483 106.996 177.056 106.902 176.59C106.809 176.123 106.762 175.656 106.762 175.19C106.762 174.696 106.816 174.223 106.922 173.77C107.042 173.316 107.222 172.916 107.462 172.57C107.716 172.223 108.036 171.95 108.422 171.75C108.809 171.536 109.276 171.43 109.822 171.43C110.356 171.43 110.809 171.536 111.182 171.75C111.556 171.963 111.856 172.25 112.082 172.61C112.322 172.956 112.496 173.35 112.602 173.79C112.709 174.23 112.762 174.676 112.762 175.13C112.762 175.61 112.702 176.09 112.582 176.57C112.476 177.05 112.302 177.483 112.062 177.87C111.822 178.243 111.502 178.55 111.102 178.79C110.716 179.016 110.242 179.13 109.682 179.13ZM123.937 174.35H117.997C118.023 173.95 118.11 173.576 118.257 173.23C118.403 172.87 118.603 172.556 118.857 172.29C119.11 172.023 119.41 171.816 119.757 171.67C120.117 171.51 120.517 171.43 120.957 171.43C121.383 171.43 121.77 171.51 122.117 171.67C122.477 171.816 122.783 172.023 123.037 172.29C123.303 172.543 123.51 172.85 123.657 173.21C123.817 173.57 123.91 173.95 123.937 174.35ZM125.577 177.23H123.897C123.75 177.91 123.443 178.416 122.977 178.75C122.523 179.083 121.937 179.25 121.217 179.25C120.657 179.25 120.17 179.156 119.757 178.97C119.343 178.783 119.003 178.536 118.737 178.23C118.47 177.91 118.277 177.55 118.157 177.15C118.037 176.736 117.983 176.303 117.997 175.85H125.737C125.763 175.223 125.703 174.563 125.557 173.87C125.423 173.176 125.17 172.536 124.797 171.95C124.437 171.363 123.95 170.883 123.337 170.51C122.737 170.123 121.977 169.93 121.057 169.93C120.35 169.93 119.697 170.063 119.097 170.33C118.51 170.596 117.997 170.97 117.557 171.45C117.13 171.93 116.797 172.496 116.557 173.15C116.317 173.803 116.197 174.523 116.197 175.31C116.223 176.096 116.337 176.823 116.537 177.49C116.75 178.156 117.063 178.73 117.477 179.21C117.89 179.69 118.397 180.063 118.997 180.33C119.61 180.596 120.33 180.73 121.157 180.73C122.33 180.73 123.303 180.436 124.077 179.85C124.85 179.263 125.35 178.39 125.577 177.23Z" fill="#BDBDBD"/>
<defs>
<filter id="filter0_d" x="0" y="0" width="319.879" height="233.692" filterUnits="userSpaceOnUse" color-interpolation-filters="sRGB">
<feFlood flood-opacity="0" result="BackgroundImageFix"/>
<feColorMatrix in="SourceAlpha" type="matrix" values="0 0 0 0 0 0 0 0 0 0 0 0 0 0 0 0 0 0 127 0"/>
<feOffset dx="8" dy="8"/>
<feGaussianBlur stdDeviation="12.5"/>
<feColorMatrix type="matrix" values="0 0 0 0 0 0 0 0 0 0 0 0 0 0 0 0 0 0 0.7 0"/>
<feBlend mode="normal" in2="BackgroundImageFix" result="effect1_dropShadow"/>
<feBlend mode="normal" in="SourceGraphic" in2="effect1_dropShadow" result="shape"/>
</filter>
<linearGradient id="paint0_linear" x1="17" y1="114.077" x2="388.395" y2="114.077" gradientUnits="userSpaceOnUse">
<stop stop-color="#181818"/>
<stop offset="1" stop-color="#282828"/>
</linearGradient>
</defs>
</svg>
