<svg width="149" height="282" viewBox="0 0 149 282" fill="none" xmlns="http://www.w3.org/2000/svg">
<g filter="url(#filter0_d)">
<rect width="136.743" height="176.012" rx="22" transform="matrix(-0.965926 0.258819 0 1 137.084 1)" fill="url(#paint0_linear)"/>
</g>
<rect width="13.1222" height="13.1222" transform="matrix(-0.965926 0.258819 0 1 121.951 100.123)" fill="#388AED"/>
<rect width="13.1222" height="13.1222" transform="matrix(-0.965926 0.258819 0 1 105.822 121.16)" fill="#388AED"/>
<rect width="13.1222" height="13.1222" transform="matrix(-0.965926 0.258819 0 1 105.822 104.33)" fill="#388AED"/>
<rect width="13.1222" height="13.1222" transform="matrix(-0.965926 0.258819 0 1 89.6943 125.367)" fill="#88BEFF"/>
<rect width="13.1222" height="13.1222" transform="matrix(-0.965926 0.258819 0 1 89.6943 108.538)" fill="#88BEFF"/>
<rect width="13.1222" height="13.1222" transform="matrix(-0.965926 0.258819 0 1 105.822 137.99)" fill="#88BEFF"/>
<rect width="13.1222" height="13.1222" transform="matrix(-0.965926 0.258819 0 1 105.822 154.82)" fill="#388AED"/>
<rect width="13.1222" height="13.1222" transform="matrix(-0.965926 0.258819 0 1 121.951 150.612)" fill="#88BEFF"/>
<rect width="13.1222" height="13.1222" transform="matrix(-0.965926 0.258819 0 1 121.951 133.782)" fill="#388AED"/>
<rect width="13.1222" height="13.1222" transform="matrix(-0.965926 0.258819 0 1 121.951 116.953)" fill="#388AED"/>
<rect width="13.1222" height="13.1222" transform="matrix(-0.965926 0.258819 0 1 105.822 70.6707)" fill="#388AED"/>
<rect width="13.1222" height="13.1222" transform="matrix(-0.965926 0.258819 0 1 105.822 87.5004)" fill="#388AED"/>
<rect width="13.1222" height="13.1222" transform="matrix(-0.965926 0.258819 0 1 121.951 83.2928)" fill="#388AED"/>
<rect width="13.1222" height="13.1222" transform="matrix(-0.965926 0.258819 0 1 121.951 65.7617)" fill="#88BEFF"/>
<rect width="13.1222" height="13.1222" transform="matrix(-0.965926 0.258819 0 1 89.6943 91.7079)" fill="#388AED"/>
<rect width="13.1222" height="13.1222" transform="matrix(-0.965926 0.258819 0 1 57.4365 133.782)" fill="#388AED"/>
<rect width="13.1222" height="13.1222" transform="matrix(-0.965926 0.258819 0 1 57.4365 167.442)" fill="#88BEFF"/>
<rect width="13.1222" height="13.1222" transform="matrix(-0.965926 0.258819 0 1 57.4365 150.612)" fill="#88BEFF"/>
<rect width="13.1222" height="13.1222" transform="matrix(-0.965926 0.258819 0 1 41.3086 171.649)" fill="#388AED"/>
<rect width="13.1222" height="13.1222" transform="matrix(-0.965926 0.258819 0 1 41.3086 154.82)" fill="#388AED"/>
<rect width="13.1222" height="13.1222" transform="matrix(-0.965926 0.258819 0 1 73.5654 163.235)" fill="#388AED"/>
<rect width="13.1222" height="13.1222" transform="matrix(-0.965926 0.258819 0 1 89.6943 159.027)" fill="#388AED"/>
<rect width="13.1222" height="13.1222" transform="matrix(-0.965926 0.258819 0 1 89.6943 142.198)" fill="#388AED"/>
<rect width="13.1222" height="13.1222" transform="matrix(-0.965926 0.258819 0 1 73.5654 129.575)" fill="#388AED"/>
<rect width="13.1222" height="13.1222" transform="matrix(-0.965926 0.258819 0 1 73.5654 112.745)" fill="#388AED"/>
<rect width="13.1222" height="13.1222" transform="matrix(-0.965926 0.258819 0 1 73.5654 146.405)" fill="#388AED"/>
<path d="M19.04 257.056L19.424 259H21.824V249.736H14.624V252.544H18.416C18.304 253.744 17.904 254.664 17.216 255.304C16.544 255.928 15.584 256.24 14.336 256.24C13.488 256.24 12.768 256.08 12.176 255.76C11.584 255.424 11.104 254.984 10.736 254.44C10.368 253.896 10.096 253.288 9.92 252.616C9.76 251.928 9.68 251.224 9.68 250.504C9.68 249.752 9.76 249.024 9.92 248.32C10.096 247.616 10.368 246.992 10.736 246.448C11.104 245.888 11.584 245.448 12.176 245.128C12.768 244.792 13.488 244.624 14.336 244.624C15.248 244.624 16.024 244.864 16.664 245.344C17.304 245.824 17.736 246.544 17.96 247.504H21.56C21.464 246.528 21.2 245.664 20.768 244.912C20.336 244.16 19.784 243.528 19.112 243.016C18.456 242.504 17.712 242.12 16.88 241.864C16.064 241.592 15.216 241.456 14.336 241.456C13.024 241.456 11.84 241.688 10.784 242.152C9.744 242.616 8.864 243.256 8.144 244.072C7.424 244.888 6.872 245.848 6.488 246.952C6.104 248.04 5.912 249.224 5.912 250.504C5.912 251.752 6.104 252.92 6.488 254.008C6.872 255.08 7.424 256.016 8.144 256.816C8.864 257.616 9.744 258.248 10.784 258.712C11.84 259.16 13.024 259.384 14.336 259.384C15.168 259.384 15.992 259.216 16.808 258.88C17.624 258.528 18.368 257.92 19.04 257.056ZM27.7609 244.672V241.864H24.3529V244.672H27.7609ZM24.3529 246.592V259H27.7609V246.592H24.3529ZM34.5144 246.592V242.872H31.1064V246.592H29.0424V248.872H31.1064V256.192C31.1064 256.816 31.2104 257.32 31.4184 257.704C31.6264 258.088 31.9064 258.384 32.2584 258.592C32.6264 258.8 33.0424 258.936 33.5064 259C33.9864 259.08 34.4904 259.12 35.0184 259.12C35.3544 259.12 35.6984 259.112 36.0504 259.096C36.4024 259.08 36.7224 259.048 37.0104 259V256.36C36.8504 256.392 36.6824 256.416 36.5064 256.432C36.3304 256.448 36.1464 256.456 35.9544 256.456C35.3784 256.456 34.9944 256.36 34.8024 256.168C34.6104 255.976 34.5144 255.592 34.5144 255.016V248.872H37.0104V246.592H34.5144ZM38.7419 241.864V259H42.5099V251.608H49.4459V259H53.2139V241.864H49.4459V248.44H42.5099V241.864H38.7419ZM67.561 259V246.592H64.153V253.096C64.153 254.36 63.945 255.272 63.529 255.832C63.113 256.376 62.441 256.648 61.513 256.648C60.697 256.648 60.129 256.4 59.809 255.904C59.489 255.392 59.329 254.624 59.329 253.6V246.592H55.921V254.224C55.921 254.992 55.985 255.696 56.113 256.336C56.257 256.96 56.497 257.496 56.833 257.944C57.169 258.376 57.625 258.712 58.201 258.952C58.793 259.192 59.545 259.312 60.457 259.312C61.177 259.312 61.881 259.152 62.569 258.832C63.257 258.512 63.817 257.992 64.249 257.272H64.321V259H67.561ZM78.9936 252.808C78.9936 253.32 78.9376 253.816 78.8256 254.296C78.7136 254.776 78.5376 255.2 78.2976 255.568C78.0576 255.936 77.7536 256.232 77.3856 256.456C77.0336 256.664 76.6016 256.768 76.0896 256.768C75.5936 256.768 75.1616 256.664 74.7936 256.456C74.4256 256.232 74.1216 255.936 73.8816 255.568C73.6416 255.2 73.4656 254.776 73.3536 254.296C73.2416 253.816 73.1856 253.32 73.1856 252.808C73.1856 252.28 73.2416 251.776 73.3536 251.296C73.4656 250.816 73.6416 250.392 73.8816 250.024C74.1216 249.656 74.4256 249.368 74.7936 249.16C75.1616 248.936 75.5936 248.824 76.0896 248.824C76.6016 248.824 77.0336 248.936 77.3856 249.16C77.7536 249.368 78.0576 249.656 78.2976 250.024C78.5376 250.392 78.7136 250.816 78.8256 251.296C78.9376 251.776 78.9936 252.28 78.9936 252.808ZM69.8976 241.864V259H73.1376V257.416H73.1856C73.5536 258.104 74.0976 258.592 74.8176 258.88C75.5376 259.168 76.3536 259.312 77.2656 259.312C77.8896 259.312 78.5056 259.184 79.1136 258.928C79.7216 258.672 80.2656 258.28 80.7456 257.752C81.2416 257.224 81.6416 256.552 81.9456 255.736C82.2496 254.904 82.4016 253.92 82.4016 252.784C82.4016 251.648 82.2496 250.672 81.9456 249.856C81.6416 249.024 81.2416 248.344 80.7456 247.816C80.2656 247.288 79.7216 246.896 79.1136 246.64C78.5056 246.384 77.8896 246.256 77.2656 246.256C76.4976 246.256 75.7536 246.408 75.0336 246.712C74.3296 247 73.7696 247.464 73.3536 248.104H73.3056V241.864H69.8976Z" fill="white"/>
<defs>
<filter id="filter0_d" x="0.000976562" y="0.963623" width="148.083" height="217.477" filterUnits="userSpaceOnUse" color-interpolation-filters="sRGB">
<feFlood flood-opacity="0" result="BackgroundImageFix"/>
<feColorMatrix in="SourceAlpha" type="matrix" values="0 0 0 0 0 0 0 0 0 0 0 0 0 0 0 0 0 0 127 0"/>
<feOffset dx="3" dy="3"/>
<feGaussianBlur stdDeviation="4"/>
<feColorMatrix type="matrix" values="0 0 0 0 0 0 0 0 0 0 0 0 0 0 0 0 0 0 0.25 0"/>
<feBlend mode="normal" in2="BackgroundImageFix" result="effect1_dropShadow"/>
<feBlend mode="normal" in="SourceGraphic" in2="effect1_dropShadow" result="shape"/>
</filter>
<linearGradient id="paint0_linear" x1="68.3713" y1="0" x2="68.3713" y2="176.012" gradientUnits="userSpaceOnUse">
<stop stop-color="#509BF5"/>
<stop offset="1" stop-color="#1975E2"/>
</linearGradient>
</defs>
</svg>
