<svg id="Layer_1" data-name="Layer 1" xmlns="http://www.w3.org/2000/svg" xmlns:xlink="http://www.w3.org/1999/xlink" viewBox="0 0 578 756"><defs><style>.cls-1{fill:url(#linear-gradient);}.cls-2{fill:#ffc635;}.cls-3{fill:url(#linear-gradient-2);}.cls-4{fill:#ffedbe;}.cls-5{fill:url(#linear-gradient-3);}.cls-6{fill:url(#linear-gradient-4);}.cls-7{fill:url(#linear-gradient-5);}</style><linearGradient id="linear-gradient" x1="-1596.11" y1="900.23" x2="-982.5" y2="901.62" gradientTransform="matrix(-0.72, 0.69, 0.7, 0.71, -1340, 585.57)" gradientUnits="userSpaceOnUse"><stop offset="0" stop-color="#ffc635"/><stop offset="1" stop-color="#ffc635" stop-opacity="0"/></linearGradient><linearGradient id="linear-gradient-2" x1="-1596.11" y1="900.23" x2="-982.5" y2="901.62" gradientTransform="matrix(-0.72, 0.69, 0.7, 0.71, -1427.96, 590.96)" gradientUnits="userSpaceOnUse"><stop offset="0" stop-color="#ffedbe"/><stop offset="1" stop-color="#ffedbe" stop-opacity="0"/></linearGradient><linearGradient id="linear-gradient-3" x1="-1596.11" y1="900.23" x2="-982.5" y2="901.62" gradientTransform="matrix(-0.72, 0.69, 0.7, 0.71, -1513.22, 605.88)" xlink:href="#linear-gradient"/><linearGradient id="linear-gradient-4" x1="-1596.11" y1="900.23" x2="-982.5" y2="901.62" gradientTransform="matrix(-0.72, 0.69, 0.7, 0.71, -1477.36, 851.62)" xlink:href="#linear-gradient-2"/><linearGradient id="linear-gradient-5" x1="-1596.11" y1="900.23" x2="-982.5" y2="901.62" gradientTransform="matrix(-0.72, 0.69, 0.7, 0.71, -1375.85, 701.85)" xlink:href="#linear-gradient"/></defs><title>Artboard 1</title><polygon class="cls-1" points="554.27 89.59 -24.5 639.58 -87.27 576.12 491.5 26.12 554.27 89.59"/><ellipse class="cls-2" cx="523.41" cy="57.39" rx="45.29" ry="44.33" transform="translate(-2.06 91.09) rotate(-9.93)"/><polygon class="cls-3" points="466.32 94.98 -112.45 644.97 -175.22 581.51 403.54 31.51 466.32 94.98"/><ellipse class="cls-4" cx="435.46" cy="62.78" rx="45.29" ry="44.33" transform="translate(-4.3 76.01) rotate(-9.93)"/><polygon class="cls-5" points="381.05 109.9 -197.71 659.89 -260.48 596.42 318.28 46.43 381.05 109.9"/><ellipse class="cls-2" cx="350.2" cy="77.7" rx="45.29" ry="44.33" transform="translate(-8.15 61.53) rotate(-9.93)"/><polygon class="cls-6" points="416.91 355.63 -161.86 905.63 -224.63 842.16 354.14 292.17 416.91 355.63"/><ellipse class="cls-4" cx="386.05" cy="323.44" rx="45.29" ry="44.33" transform="translate(-49.98 71.39) rotate(-9.93)"/><polygon class="cls-7" points="518.42 205.87 -60.35 755.86 -123.12 692.39 455.65 142.4 518.42 205.87"/><ellipse class="cls-2" cx="487.56" cy="173.66" rx="45.29" ry="44.33" transform="translate(-22.64 86.65) rotate(-9.93)"/></svg>