<svg id="Layer_1" data-name="Layer 1" xmlns="http://www.w3.org/2000/svg" xmlns:xlink="http://www.w3.org/1999/xlink" viewBox="0 0 1003 921"><defs><style>.cls-1{fill:url(#linear-gradient);}.cls-2{fill:#c4c4c4;}.cls-3{fill:#9aeedf;}.cls-4{fill:#9bf0e1;}.cls-5{fill:#f037a5;}.cls-6{fill:#fff;}.cls-7{fill:url(#linear-gradient-2);}.cls-8{fill:#388aed;}.cls-9{fill:#88beff;}.cls-10{fill:#1db954;}.cls-11{fill:url(#linear-gradient-3);}.cls-12{fill:url(#linear-gradient-4);}.cls-13{fill:url(#linear-gradient-5);}.cls-14{fill:url(#linear-gradient-6);}.cls-15{fill:url(#linear-gradient-7);}.cls-16{fill:url(#linear-gradient-8);}.cls-17,.cls-18{fill:none;stroke-opacity:0.8;stroke-width:3px;}.cls-17{stroke:url(#linear-gradient-9);}.cls-18{stroke:url(#linear-gradient-10);}.cls-19{fill:url(#linear-gradient-11);}.cls-20{fill:#121212;}</style><linearGradient id="linear-gradient" x1="9.66" y1="1195.3" x2="9.66" y2="1019.28" gradientTransform="matrix(-0.97, 0.24, 0, -1, 945.73, 1430.97)" gradientUnits="userSpaceOnUse"><stop offset="0" stop-color="#757575"/><stop offset="1" stop-color="#282828"/></linearGradient><linearGradient id="linear-gradient-2" x1="10.36" y1="1198.14" x2="10.36" y2="1022.13" gradientTransform="matrix(-0.97, 0.26, 0, -1, 766.94, 1433.02)" gradientUnits="userSpaceOnUse"><stop offset="0" stop-color="#509bf5"/><stop offset="1" stop-color="#1975e2"/></linearGradient><linearGradient id="linear-gradient-3" x1="71.64" y1="1028.77" x2="142.83" y2="1028.77" gradientTransform="translate(-836.1 229.89) rotate(-90)" gradientUnits="userSpaceOnUse"><stop offset="0" stop-color="#1db954"/><stop offset="1" stop-color="#1db954" stop-opacity="0"/></linearGradient><linearGradient id="linear-gradient-4" x1="39.63" y1="1132.13" x2="160.6" y2="1132.13" gradientTransform="translate(-793.52 513.97) rotate(-90)" xlink:href="#linear-gradient-3"/><linearGradient id="linear-gradient-5" x1="24.25" y1="787.54" x2="209.41" y2="787.54" gradientTransform="translate(292.95 -491.26)" xlink:href="#linear-gradient-3"/><linearGradient id="linear-gradient-6" x1="-208.7" y1="1126.47" x2="-66.26" y2="1126.47" gradientTransform="translate(70.53 1911.28) rotate(180)" gradientUnits="userSpaceOnUse"><stop offset="0.14" stop-color="#1db954"/><stop offset="1" stop-color="#1db954" stop-opacity="0"/></linearGradient><linearGradient id="linear-gradient-7" x1="-187.11" y1="546.8" x2="138.03" y2="546.92" gradientTransform="matrix(0, 1, 1, 0, 14.38, 640.86)" xlink:href="#linear-gradient-3"/><linearGradient id="linear-gradient-8" x1="-262.68" y1="833.7" x2="52.78" y2="834.41" gradientTransform="translate(1547.42 246.52) rotate(90)" xlink:href="#linear-gradient-3"/><linearGradient id="linear-gradient-9" x1="243.38" y1="1197.75" x2="243.38" y2="542.35" gradientTransform="matrix(-0.97, 0.26, 0, -1, 527.96, 1207.39)" gradientUnits="userSpaceOnUse"><stop offset="0" stop-color="#1db954" stop-opacity="0.36"/><stop offset="1" stop-color="#63fa98" stop-opacity="0.13"/></linearGradient><linearGradient id="linear-gradient-10" x1="243.38" y1="1197.75" x2="243.38" y2="542.35" gradientTransform="matrix(-0.97, 0.26, 0, -1, 552.3, 1225.65)" xlink:href="#linear-gradient-9"/><linearGradient id="linear-gradient-11" x1="-217.62" y1="1198.14" x2="-217.62" y2="1022.13" gradientTransform="matrix(0.97, -0.26, 0, -1, 788.14, 1379.38)" gradientUnits="userSpaceOnUse"><stop offset="0" stop-color="#4df187"/><stop offset="1" stop-color="#1db954"/></linearGradient></defs><title>Artboard 1</title><path class="cls-1" d="M981.42,227l-90.14,21.82c-11.81,2.86-21.39,15-21.39,27.18v132c0,12.15,9.58,19.68,21.39,16.83l90.14-21.83c11.8-2.86,21.38-15,21.38-27.18v-132C1002.8,231.71,993.22,224.18,981.42,227Z"/><path class="cls-2" d="M984.47,278.69l-81.55,23a3.92,3.92,0,0,0-2.7,3.57h0a2,2,0,0,0,2.7,2l81.55-23a3.92,3.92,0,0,0,2.7-3.57h0A2,2,0,0,0,984.47,278.69Z"/><path class="cls-3" d="M956.2,300.8l-64.79,18.28a3.91,3.91,0,0,0-2.7,3.56h0a2,2,0,0,0,2.7,2.05l64.79-18.28a3.91,3.91,0,0,0,2.7-3.56h0A2,2,0,0,0,956.2,300.8Z"/><path class="cls-2" d="M979.13,266.76l-75.59,21.32a4.41,4.41,0,0,0-3,4h0a2.26,2.26,0,0,0,3,2.3l75.59-21.32a4.4,4.4,0,0,0,3-4h0A2.27,2.27,0,0,0,979.13,266.76Z"/><path class="cls-4" d="M929.2,267.83,892.08,278.3a3.92,3.92,0,0,0-2.7,3.57h0a2,2,0,0,0,2.7,2l37.12-10.47a3.91,3.91,0,0,0,2.7-3.56h0A2,2,0,0,0,929.2,267.83Z"/><path class="cls-5" d="M940.87,251.62l-49.27,13.9a3.92,3.92,0,0,0-2.7,3.57h0a2,2,0,0,0,2.7,2l49.27-13.9a3.91,3.91,0,0,0,2.7-3.56h0A2,2,0,0,0,940.87,251.62Z"/><path class="cls-5" d="M931.2,321.43l-39.48,11.13a3.92,3.92,0,0,0-2.7,3.57h0a2,2,0,0,0,2.7,2L931.2,327a3.92,3.92,0,0,0,2.7-3.57h0A2,2,0,0,0,931.2,321.43Z"/><path class="cls-6" d="M875.25,475.86v-17h-3.36v17Zm7-3.07V461.92H885c2.79,0,5.09,1.75,5.09,5.45s-2.33,5.42-5.11,5.42Zm2.76,3.07c4.85,0,8.42-3.12,8.42-8.49s-3.55-8.52-8.4-8.52H879v17Zm21.86,0v-3.12h-7.34v-3.93h6.65v-3h-6.65V462h7.34v-3.12H896.26v17Z"/><path class="cls-7" d="M801.73,225.56l-89.58,24c-11.74,3.14-21.25,15.54-21.25,27.69v132c0,12.15,9.51,19.45,21.25,16.3l89.58-24C813.47,398.42,823,386,823,373.87v-132C823,229.71,813.47,222.41,801.73,225.56Z"/><polygon class="cls-8" points="807.85 318.99 795.17 322.38 795.17 335.5 807.85 332.11 807.85 318.99"/><polygon class="cls-8" points="791.72 340.02 779.04 343.42 779.04 356.54 791.72 353.14 791.72 340.02"/><polygon class="cls-8" points="791.72 323.19 779.04 326.59 779.04 339.71 791.72 336.31 791.72 323.19"/><polygon class="cls-9" points="775.59 344.23 762.91 347.63 762.91 360.75 775.59 357.35 775.59 344.23"/><polygon class="cls-9" points="775.59 327.4 762.91 330.8 762.91 343.92 775.59 340.52 775.59 327.4"/><polygon class="cls-9" points="791.72 356.85 779.04 360.25 779.04 373.37 791.72 369.97 791.72 356.85"/><polygon class="cls-8" points="791.72 373.68 779.04 377.08 779.04 390.2 791.72 386.8 791.72 373.68"/><polygon class="cls-9" points="807.85 369.47 795.17 372.87 795.17 385.99 807.85 382.6 807.85 369.47"/><polygon class="cls-8" points="807.85 352.64 795.17 356.04 795.17 369.16 807.85 365.77 807.85 352.64"/><polygon class="cls-8" points="807.85 335.81 795.17 339.21 795.17 352.33 807.85 348.94 807.85 335.81"/><polygon class="cls-8" points="791.72 289.53 779.04 292.93 779.04 306.05 791.72 302.65 791.72 289.53"/><polygon class="cls-8" points="791.72 306.36 779.04 309.76 779.04 322.88 791.72 319.48 791.72 306.36"/><polygon class="cls-8" points="807.85 302.15 795.17 305.55 795.17 318.67 807.85 315.28 807.85 302.15"/><polygon class="cls-9" points="807.85 284.62 795.17 288.02 795.17 301.14 807.85 297.75 807.85 284.62"/><polygon class="cls-8" points="775.59 310.57 762.91 313.97 762.91 327.09 775.59 323.69 775.59 310.57"/><polygon class="cls-8" points="743.33 352.64 730.66 356.04 730.66 369.16 743.33 365.77 743.33 352.64"/><polygon class="cls-9" points="743.33 386.3 730.66 389.7 730.66 402.82 743.33 399.43 743.33 386.3"/><polygon class="cls-9" points="743.33 369.47 730.66 372.87 730.66 385.99 743.33 382.6 743.33 369.47"/><polygon class="cls-8" points="727.21 390.51 714.53 393.91 714.53 407.03 727.21 403.63 727.21 390.51"/><polygon class="cls-8" points="727.21 373.68 714.53 377.08 714.53 390.2 727.21 386.8 727.21 373.68"/><polygon class="cls-8" points="759.46 382.1 746.79 385.49 746.79 398.62 759.46 395.22 759.46 382.1"/><polygon class="cls-8" points="775.59 377.89 762.91 381.29 762.91 394.41 775.59 391.01 775.59 377.89"/><polygon class="cls-8" points="775.59 361.06 762.91 364.45 762.91 377.58 775.59 374.18 775.59 361.06"/><polygon class="cls-8" points="759.46 348.44 746.79 351.83 746.79 364.96 759.46 361.56 759.46 348.44"/><polygon class="cls-8" points="759.46 331.61 746.79 335 746.79 348.13 759.46 344.73 759.46 331.61"/><polygon class="cls-8" points="759.46 365.27 746.79 368.66 746.79 381.79 759.46 378.39 759.46 365.27"/><path class="cls-6" d="M708.3,475.86V467h-8.5v2.88h5.38c-.2,1.2-1.42,3.31-4.56,3.31-2.86,0-5.38-2-5.38-5.83,0-4,2.78-5.79,5.35-5.79a4.54,4.54,0,0,1,4.61,3.27l3.17-1.13c-.84-2.62-3.31-5.23-7.78-5.23a8.55,8.55,0,0,0-8.71,8.88c0,5.49,3.91,8.85,8.5,8.85a5.87,5.87,0,0,0,5-2.3l.22,1.94Zm5.92,0V464.05H711v11.81Zm-3.58-15.67a2,2,0,1,0,2-2A2,2,0,0,0,710.64,460.19Zm10.73.34h-2.88v1.65a1.69,1.69,0,0,1-1.82,1.87h-.6v2.84h2.14v5.49A3.42,3.42,0,0,0,722,476a4.71,4.71,0,0,0,1.8-.29V473.1a4.46,4.46,0,0,1-1,.1c-.92,0-1.4-.34-1.4-1.37v-4.94h2.38v-2.84h-2.38Zm19.12,15.33v-17h-3.34v6.84h-7.41v-6.84h-3.31v17h3.31v-7.05h7.41v7.05Zm11.1,0h3a18.86,18.86,0,0,1-.12-2.13v-9.68h-3.19v6.87a2.13,2.13,0,0,1-2.23,2.33,2.1,2.1,0,0,1-2.16-2.38v-6.82h-3.2v7.47a4.35,4.35,0,0,0,4.49,4.65,3.75,3.75,0,0,0,3.27-1.58A7.94,7.94,0,0,0,751.59,475.86Zm9,0v-1.44a4,4,0,0,0,3.51,1.73c3.36,0,5.56-2.66,5.56-6.24s-2-6.17-5.44-6.17a4.2,4.2,0,0,0-3.58,1.61v-6.86h-3.14v17.37Zm5.88-5.93c0,2.16-1.29,3.36-2.93,3.36s-3-1.22-3-3.36,1.35-3.33,3-3.33S766.51,467.77,766.51,469.93Z"/><circle class="cls-10" cx="514.55" cy="96.59" r="23.13"/><circle class="cls-10" cx="242.35" cy="550.16" r="23.13"/><circle class="cls-10" cx="396.94" cy="635.37" r="23.13"/><circle class="cls-10" cx="387.79" cy="134.69" r="23.13"/><circle class="cls-10" cx="426.16" cy="312.79" r="23.13"/><circle class="cls-10" cx="277.65" cy="653.63" r="23.13"/><circle class="cls-10" cx="242.35" cy="185.02" r="23.13"/><rect class="cls-11" x="169.54" y="72.74" width="46.26" height="134.55" transform="translate(-40.24 189.81) rotate(-48.07)"/><circle class="cls-10" cx="395.74" cy="539.07" r="23.13"/><circle class="cls-10" cx="452.74" cy="456.19" r="23.13" transform="translate(-188.82 417.74) rotate(-41.79)"/><rect class="cls-12" x="315.48" y="329.03" width="46.26" height="228.66" transform="translate(-139.86 730.22) rotate(-83.58)"/><rect class="cls-13" x="189.63" y="273.16" width="349.99" height="46.26" transform="translate(-91.28 409.8) rotate(-53.08)"/><circle class="cls-10" cx="260.39" cy="435.07" r="23.13"/><rect class="cls-14" x="108.13" y="761.68" width="269.23" height="46.26" transform="matrix(0.26, -0.97, 0.97, 0.26, -578.05, 818.58)"/><rect class="cls-15" x="538.12" y="440.86" width="46.26" height="378.31" transform="translate(-261.11 818.79) rotate(-61.23)"/><rect class="cls-16" x="690.25" y="-67.47" width="46.26" height="410.47" transform="matrix(0.2, -0.98, 0.98, 0.2, 433.92, 808.42)"/><path class="cls-17" d="M567.52.54,18.21,147.73C8.34,150.37.34,160.8.34,171V786.42c0,10.22,8,16.35,17.87,13.71L567.52,652.94c9.87-2.64,17.87-13.07,17.87-23.28V14.25C585.39,4,577.39-2.11,567.52.54Z"/><path class="cls-18" d="M591.87,18.8,42.56,166c-9.87,2.65-17.87,13.08-17.87,23.29V804.68c0,10.22,8,16.35,17.87,13.71L591.87,671.2c9.87-2.64,17.87-13.07,17.87-23.28V32.51C609.74,22.29,601.74,16.15,591.87,18.8Z"/><path class="cls-19" d="M533.15,249.56l89.58-24c11.74-3.15,21.25,4.15,21.25,16.3v132c0,12.15-9.51,24.55-21.25,27.7l-89.58,24c-11.74,3.15-21.25-4.15-21.25-16.3v-132C511.9,265.1,521.41,252.7,533.15,249.56Z"/><path class="cls-20" d="M526.25,330.66v85.08l33.15-8.88c15.53-4.16,25.73-17.1,25.73-31,0-11-7.18-16.19-14.6-16a26.32,26.32,0,0,0,12.05-21.47c0-13.08-9.39-20.29-25.61-15.94ZM544.1,360V341.6l9.74-2.61c7.18-1.93,10.78.71,10.78,6.23,0,5.76-4.18,10.36-10.55,12.07Zm0,35.52V375.56l11.48-3.08c7.18-1.92,11.36,1,11.36,6.92,0,6.12-4.29,11.11-11.36,13Zm48.71-8.85c0,6.6,5.33,10.93,11.82,9.19s11.94-9,11.94-15.56-5.44-10.78-11.94-9S592.81,379.91,592.81,386.63Z"/><path class="cls-6" d="M513.89,459.11v17h6.57c3.2,0,5.26-2,5.26-4.75a4,4,0,0,0-3-4,3.77,3.77,0,0,0,2.47-3.64c0-2.64-1.87-4.59-5.18-4.59Zm3.26,7V461.9h2.33c1.61,0,2.45.81,2.45,2.11s-.91,2.13-2.43,2.13Zm0,7.23v-4.49h2.74a2.22,2.22,0,0,1,2.52,2.28c0,1.37-1,2.21-2.57,2.21Zm10.31-.46c0,1.85,1.54,3.55,4.06,3.55a3.94,3.94,0,0,0,3.48-1.75,8.19,8.19,0,0,0,.12,1.42h2.93a13.48,13.48,0,0,1-.15-1.87v-5.81c0-2.38-1.39-4.49-5.13-4.49-3.17,0-4.87,2-5.07,3.89l2.84.6a2.09,2.09,0,0,1,2.25-1.92c1.35,0,2,.69,2,1.53,0,.41-.21.75-.88.84l-2.91.44C529,469.62,527.46,470.8,527.46,472.91Zm4.73,1.18a1.38,1.38,0,0,1-1.53-1.37,1.49,1.49,0,0,1,1.46-1.49l2.66-.41v.53C534.78,473.44,533.54,474.09,532.19,474.09Zm14.11-7.18a2.58,2.58,0,0,1,2.61,2l2.86-1a5.41,5.41,0,0,0-5.55-4,6,6,0,0,0-6.12,6.26,6.11,6.11,0,0,0,6.22,6.27,5.49,5.49,0,0,0,5.52-4l-2.81-.93a2.7,2.7,0,0,1-2.71,2,3,3,0,0,1-3-3.34A3,3,0,0,1,546.3,466.91Zm19.06-2.59h-4.18l-4.08,4.39v-10h-3.19v17.38h3.19V473l1.32-1.39,3.12,4.51h3.91l-4.82-6.84Zm.45,8.52c.14,1.34,1.36,3.65,4.92,3.65,3.09,0,4.58-2,4.58-3.89,0-1.73-1.18-3.14-3.5-3.62l-1.68-.36c-.65-.12-1.08-.48-1.08-1.06a1.36,1.36,0,0,1,1.51-1.18A1.79,1.79,0,0,1,572.5,468l2.67-.6c-.15-1.27-1.28-3.41-4.64-3.41-2.54,0-4.41,1.75-4.41,3.86,0,1.66,1,3,3.31,3.53l1.56.36c.91.19,1.27.63,1.27,1.15s-.5,1.18-1.56,1.18a2,2,0,0,1-2.16-1.8Zm16-12h-2.88v1.66a1.71,1.71,0,0,1-1.83,1.87h-.6v2.83h2.14v5.5a3.42,3.42,0,0,0,3.74,3.65,4.71,4.71,0,0,0,1.8-.29v-2.64a4.58,4.58,0,0,1-1,.09c-.91,0-1.39-.33-1.39-1.36v-5h2.37v-2.83H581.8Zm4,12.12c0,1.85,1.54,3.55,4.06,3.55a3.94,3.94,0,0,0,3.48-1.75,8.19,8.19,0,0,0,.12,1.42h2.93a12.09,12.09,0,0,1-.15-1.87v-5.81c0-2.38-1.39-4.49-5.13-4.49-3.17,0-4.88,2-5.07,3.89l2.83.6a2.1,2.1,0,0,1,2.26-1.92c1.34,0,2,.69,2,1.53,0,.41-.21.75-.89.84l-2.9.44C587.35,469.62,585.79,470.8,585.79,472.91Zm4.73,1.18a1.39,1.39,0,0,1-1.54-1.37,1.5,1.5,0,0,1,1.47-1.49l2.66-.41v.53A2.4,2.4,0,0,1,590.52,474.09Zm7.94,2.69c.33,2.25,2.49,4.27,5.73,4.27,4.44,0,6.19-2.95,6.19-6.19V464.32h-3.07v1.39A3.58,3.58,0,0,0,604,464.1a5.54,5.54,0,0,0-5.49,5.76A5.46,5.46,0,0,0,604,475.6a3.74,3.74,0,0,0,3.29-1.51V475c0,2.28-1.13,3.29-3.14,3.29a2.64,2.64,0,0,1-2.76-2.23Zm6-3.92a2.76,2.76,0,0,1-2.83-3,2.81,2.81,0,1,1,5.62,0A2.74,2.74,0,0,1,604.5,472.86Zm11.38-4a2.56,2.56,0,0,1,2.64-2.33,2.37,2.37,0,0,1,2.64,2.33Zm5.59,3.07a2.6,2.6,0,0,1-2.68,1.8,2.88,2.88,0,0,1-3-2.69h8.45s0-.52,0-1c0-3.79-2.19-6.12-5.84-6.12a6.28,6.28,0,0,0,.29,12.53,5.32,5.32,0,0,0,5.38-3.75Z"/><path class="cls-10" d="M626.11,474.11a2.2,2.2,0,1,0,2.18-2.18A2.19,2.19,0,0,0,626.11,474.11Z"/></svg>