<svg id="Layer_1" data-name="Layer 1" xmlns="http://www.w3.org/2000/svg" xmlns:xlink="http://www.w3.org/1999/xlink" viewBox="0 0 1015 803"><defs><style>.cls-1{fill:url(#linear-gradient);}.cls-2{mask:url(#mask);}.cls-10,.cls-11,.cls-12,.cls-13,.cls-14,.cls-15,.cls-16,.cls-17,.cls-18,.cls-19,.cls-20,.cls-21,.cls-22,.cls-23,.cls-3,.cls-4,.cls-5,.cls-6,.cls-7,.cls-8,.cls-9{fill:none;stroke-width:3px;}.cls-3{opacity:0.6;stroke:url(#linear-gradient-2);}.cls-3,.cls-4{isolation:isolate;}.cls-4{opacity:0.7;stroke:url(#linear-gradient-3);}.cls-5{stroke:url(#linear-gradient-4);}.cls-6{stroke:url(#linear-gradient-5);}.cls-7{stroke:url(#linear-gradient-6);}.cls-8{stroke:url(#linear-gradient-7);}.cls-9{stroke:url(#linear-gradient-8);}.cls-10{stroke:url(#linear-gradient-9);}.cls-11{stroke:url(#linear-gradient-10);}.cls-12{stroke:url(#linear-gradient-11);}.cls-13{stroke:url(#linear-gradient-12);}.cls-14{stroke:url(#linear-gradient-13);}.cls-15{stroke:url(#linear-gradient-14);}.cls-16{stroke:url(#linear-gradient-15);}.cls-17{stroke:url(#linear-gradient-16);}.cls-18{stroke:url(#linear-gradient-17);}.cls-19{stroke:url(#linear-gradient-18);}.cls-20{stroke:url(#linear-gradient-19);}.cls-21{stroke:url(#linear-gradient-20);}.cls-22{stroke:url(#linear-gradient-21);}.cls-23{stroke:url(#linear-gradient-22);}.cls-24{fill:#252525;stroke:#f037a5;stroke-width:10px;}</style><linearGradient id="linear-gradient" x1="-223.04" y1="754.9" x2="1751.47" y2="739.16" gradientTransform="matrix(1, -0.05, -0.05, -1, 247.62, 1167.01)" gradientUnits="userSpaceOnUse"><stop offset="0.31" stop-color="#282828"/><stop offset="0.69" stop-color="#121212"/></linearGradient><mask id="mask" x="-13.28" y="-575.02" width="1996.88" height="2125.08" maskUnits="userSpaceOnUse"><g id="mask0"><polygon class="cls-1" points="-13.28 -35.98 1937.85 -124.47 1983.59 807.7 32.46 896.19 -13.28 -35.98"/></g></mask><linearGradient id="linear-gradient-2" x1="425.08" y1="1347.85" x2="425.08" y2="-487.67" gradientTransform="matrix(1, 0, 0, -1, 539, 1094.5)" gradientUnits="userSpaceOnUse"><stop offset="0" stop-color="#282828" stop-opacity="0"/><stop offset="0.65" stop-color="#1db954"/></linearGradient><linearGradient id="linear-gradient-3" x1="348.17" y1="1396.77" x2="348.17" y2="-438.74" xlink:href="#linear-gradient-2"/><linearGradient id="linear-gradient-4" x1="271.27" y1="1445.7" x2="271.27" y2="-389.82" xlink:href="#linear-gradient-2"/><linearGradient id="linear-gradient-5" x1="194.36" y1="1494.63" x2="194.36" y2="-340.89" xlink:href="#linear-gradient-2"/><linearGradient id="linear-gradient-6" x1="117.46" y1="1543.55" x2="117.46" y2="-291.96" gradientTransform="matrix(1, 0, 0, -1, 539, 1094.5)" gradientUnits="userSpaceOnUse"><stop offset="0" stop-color="#282828" stop-opacity="0"/><stop offset="0.53" stop-color="#f037a5"/></linearGradient><linearGradient id="linear-gradient-7" x1="40.56" y1="1592.48" x2="40.56" y2="-243.04" xlink:href="#linear-gradient-2"/><linearGradient id="linear-gradient-8" x1="-36.35" y1="1641.41" x2="-36.35" y2="-194.11" xlink:href="#linear-gradient-2"/><linearGradient id="linear-gradient-9" x1="-113.25" y1="1690.34" x2="-113.25" y2="-145.18" xlink:href="#linear-gradient-2"/><linearGradient id="linear-gradient-10" x1="-190.15" y1="1739.26" x2="-190.15" y2="-96.25" xlink:href="#linear-gradient-2"/><linearGradient id="linear-gradient-11" x1="1137.02" y1="337.3" x2="-883.05" y2="248.29" xlink:href="#linear-gradient-2"/><linearGradient id="linear-gradient-12" x1="1133.63" y1="414.13" x2="-886.44" y2="325.12" xlink:href="#linear-gradient-2"/><linearGradient id="linear-gradient-13" x1="1130.24" y1="490.96" x2="-889.82" y2="401.95" xlink:href="#linear-gradient-2"/><linearGradient id="linear-gradient-14" x1="1126.86" y1="567.79" x2="-893.21" y2="478.78" xlink:href="#linear-gradient-2"/><linearGradient id="linear-gradient-15" x1="1123.47" y1="644.62" x2="-896.59" y2="555.61" xlink:href="#linear-gradient-2"/><linearGradient id="linear-gradient-16" x1="1120.09" y1="721.45" x2="-899.98" y2="632.44" xlink:href="#linear-gradient-2"/><linearGradient id="linear-gradient-17" x1="1116.7" y1="798.28" x2="-903.36" y2="709.27" xlink:href="#linear-gradient-2"/><linearGradient id="linear-gradient-18" x1="1113.32" y1="875.11" x2="-906.75" y2="786.1" gradientTransform="matrix(1, 0, 0, -1, 539, 1094.5)" gradientUnits="userSpaceOnUse"><stop offset="0" stop-color="#282828" stop-opacity="0"/><stop offset="0.46" stop-color="#f037a5"/></linearGradient><linearGradient id="linear-gradient-19" x1="1109.93" y1="951.94" x2="-910.14" y2="862.93" xlink:href="#linear-gradient-2"/><linearGradient id="linear-gradient-20" x1="1106.55" y1="1028.77" x2="-913.52" y2="939.76" xlink:href="#linear-gradient-2"/><linearGradient id="linear-gradient-21" x1="1103.16" y1="1105.6" x2="-916.91" y2="1016.59" xlink:href="#linear-gradient-2"/><linearGradient id="linear-gradient-22" x1="1099.77" y1="1182.43" x2="-920.29" y2="1093.42" xlink:href="#linear-gradient-2"/></defs><title>Artboard 1</title><g class="cls-2"><line class="cls-3" x1="964.08" y1="1550.07" x2="964.08" y2="-183.6"/><line class="cls-4" x1="887.17" y1="1501.14" x2="887.17" y2="-232.53"/><line class="cls-5" x1="810.27" y1="1452.21" x2="810.27" y2="-281.45"/><line class="cls-6" x1="733.36" y1="1403.29" x2="733.36" y2="-330.38"/><line class="cls-7" x1="656.46" y1="1354.36" x2="656.46" y2="-379.31"/><line class="cls-8" x1="579.56" y1="1305.43" x2="579.56" y2="-428.24"/><line class="cls-9" x1="502.65" y1="1256.5" x2="502.65" y2="-477.16"/><line class="cls-10" x1="425.75" y1="1207.58" x2="425.75" y2="-526.09"/><line class="cls-11" x1="348.84" y1="1158.65" x2="348.85" y2="-575.02"/></g><line class="cls-12" x1="-308.72" y1="844.65" x2="1599.26" y2="760.58"/><line class="cls-13" x1="-312.11" y1="767.82" x2="1595.87" y2="683.75"/><line class="cls-14" x1="-315.49" y1="690.99" x2="1592.49" y2="606.92"/><line class="cls-15" x1="-318.88" y1="614.16" x2="1589.1" y2="530.09"/><line class="cls-16" x1="-322.26" y1="537.33" x2="1585.72" y2="453.26"/><line class="cls-17" x1="-325.65" y1="460.5" x2="1582.33" y2="376.43"/><line class="cls-18" x1="-329.03" y1="383.67" x2="1578.95" y2="299.6"/><line class="cls-19" x1="-332.42" y1="306.84" x2="1575.56" y2="222.77"/><line class="cls-20" x1="-335.8" y1="230.01" x2="1572.18" y2="145.94"/><line class="cls-21" x1="-339.19" y1="153.19" x2="1568.79" y2="69.12"/><line class="cls-22" x1="-342.57" y1="76.36" x2="1565.41" y2="-7.71"/><line class="cls-23" x1="-345.96" y1="-0.47" x2="1562.02" y2="-84.54"/><circle class="cls-24" cx="657.61" cy="264.03" r="14.5"/></svg>