<svg width="125" height="23" viewBox="0 0 125 23" fill="none" xmlns="http://www.w3.org/2000/svg">
<path d="M4.424 7.8V3.792H7.952C8.288 3.792 8.608 3.824 8.912 3.888C9.232 3.936 9.512 4.032 9.752 4.176C9.992 4.32 10.184 4.52 10.328 4.776C10.472 5.032 10.544 5.36 10.544 5.76C10.544 6.48 10.328 7 9.896 7.32C9.464 7.64 8.912 7.8 8.24 7.8H4.424ZM0.656 0.863999V18H8.96C9.728 18 10.472 17.904 11.192 17.712C11.928 17.52 12.576 17.224 13.136 16.824C13.712 16.424 14.168 15.912 14.504 15.288C14.84 14.648 15.008 13.896 15.008 13.032C15.008 11.96 14.744 11.048 14.216 10.296C13.704 9.528 12.92 8.992 11.864 8.688C12.632 8.32 13.208 7.848 13.592 7.272C13.992 6.696 14.192 5.976 14.192 5.112C14.192 4.312 14.056 3.64 13.784 3.096C13.528 2.552 13.16 2.12 12.68 1.8C12.2 1.464 11.624 1.224 10.952 1.08C10.28 0.935999 9.536 0.863999 8.72 0.863999H0.656ZM4.424 15.072V10.368H8.528C9.344 10.368 10 10.56 10.496 10.944C10.992 11.312 11.24 11.936 11.24 12.816C11.24 13.264 11.16 13.632 11 13.92C10.856 14.208 10.656 14.44 10.4 14.616C10.144 14.776 9.848 14.896 9.512 14.976C9.176 15.04 8.824 15.072 8.456 15.072H4.424ZM16.8004 9.408C16.8484 8.608 17.0484 7.944 17.4004 7.416C17.7524 6.888 18.2004 6.464 18.7444 6.144C19.2884 5.824 19.8964 5.6 20.5684 5.472C21.2564 5.328 21.9444 5.256 22.6324 5.256C23.2564 5.256 23.8884 5.304 24.5284 5.4C25.1684 5.48 25.7524 5.648 26.2804 5.904C26.8084 6.16 27.2404 6.52 27.5764 6.984C27.9124 7.432 28.0804 8.032 28.0804 8.784V15.24C28.0804 15.8 28.1124 16.336 28.1764 16.848C28.2404 17.36 28.3524 17.744 28.5124 18H25.0564C24.9924 17.808 24.9364 17.616 24.8884 17.424C24.8564 17.216 24.8324 17.008 24.8164 16.8C24.2724 17.36 23.6324 17.752 22.8964 17.976C22.1604 18.2 21.4084 18.312 20.6404 18.312C20.0484 18.312 19.4964 18.24 18.9844 18.096C18.4724 17.952 18.0244 17.728 17.6404 17.424C17.2564 17.12 16.9524 16.736 16.7284 16.272C16.5204 15.808 16.4164 15.256 16.4164 14.616C16.4164 13.912 16.5364 13.336 16.7764 12.888C17.0324 12.424 17.3524 12.056 17.7364 11.784C18.1364 11.512 18.5844 11.312 19.0804 11.184C19.5924 11.04 20.1044 10.928 20.6164 10.848C21.1284 10.768 21.6324 10.704 22.1284 10.656C22.6244 10.608 23.0644 10.536 23.4484 10.44C23.8324 10.344 24.1364 10.208 24.3604 10.032C24.5844 9.84 24.6884 9.568 24.6724 9.216C24.6724 8.848 24.6084 8.56 24.4804 8.352C24.3684 8.128 24.2084 7.96 24.0004 7.848C23.8084 7.72 23.5764 7.64 23.3044 7.608C23.0484 7.56 22.7684 7.536 22.4644 7.536C21.7924 7.536 21.2644 7.68 20.8804 7.968C20.4964 8.256 20.2724 8.736 20.2084 9.408H16.8004ZM24.6724 11.928C24.5284 12.056 24.3444 12.16 24.1204 12.24C23.9124 12.304 23.6804 12.36 23.4244 12.408C23.1844 12.456 22.9284 12.496 22.6564 12.528C22.3844 12.56 22.1124 12.6 21.8404 12.648C21.5844 12.696 21.3284 12.76 21.0724 12.84C20.8324 12.92 20.6164 13.032 20.4244 13.176C20.2484 13.304 20.1044 13.472 19.9924 13.68C19.8804 13.888 19.8244 14.152 19.8244 14.472C19.8244 14.776 19.8804 15.032 19.9924 15.24C20.1044 15.448 20.2564 15.616 20.4484 15.744C20.6404 15.856 20.8644 15.936 21.1204 15.984C21.3764 16.032 21.6404 16.056 21.9124 16.056C22.5844 16.056 23.1044 15.944 23.4724 15.72C23.8404 15.496 24.1124 15.232 24.2884 14.928C24.4644 14.608 24.5684 14.288 24.6004 13.968C24.6484 13.648 24.6724 13.392 24.6724 13.2V11.928ZM38.9237 9.96H42.2597C42.2117 9.16 42.0197 8.472 41.6837 7.896C41.3477 7.304 40.9077 6.816 40.3637 6.432C39.8357 6.032 39.2277 5.736 38.5397 5.544C37.8677 5.352 37.1637 5.256 36.4277 5.256C35.4197 5.256 34.5237 5.424 33.7397 5.76C32.9557 6.096 32.2917 6.568 31.7477 7.176C31.2037 7.768 30.7877 8.48 30.4997 9.312C30.2277 10.128 30.0917 11.016 30.0917 11.976C30.0917 12.904 30.2437 13.76 30.5477 14.544C30.8517 15.312 31.2757 15.976 31.8197 16.536C32.3637 17.096 33.0197 17.536 33.7877 17.856C34.5717 18.16 35.4277 18.312 36.3557 18.312C38.0037 18.312 39.3557 17.88 40.4117 17.016C41.4677 16.152 42.1077 14.896 42.3317 13.248H39.0437C38.9317 14.016 38.6517 14.632 38.2037 15.096C37.7717 15.544 37.1477 15.768 36.3317 15.768C35.8037 15.768 35.3557 15.648 34.9877 15.408C34.6197 15.168 34.3237 14.864 34.0997 14.496C33.8917 14.112 33.7397 13.688 33.6437 13.224C33.5477 12.76 33.4997 12.304 33.4997 11.856C33.4997 11.392 33.5477 10.928 33.6437 10.464C33.7397 9.984 33.8997 9.552 34.1237 9.168C34.3637 8.768 34.6677 8.448 35.0357 8.208C35.4037 7.952 35.8597 7.824 36.4037 7.824C37.8597 7.824 38.6997 8.536 38.9237 9.96ZM44.3189 0.863999V18H47.7269V13.728L49.0469 12.456L52.4549 18H56.5829L51.3749 10.152L56.0549 5.592H52.0229L47.7269 10.056V0.863999H44.3189ZM60.1782 13.968H56.9382C56.9702 14.8 57.1542 15.496 57.4902 16.056C57.8422 16.6 58.2822 17.04 58.8102 17.376C59.3542 17.712 59.9702 17.952 60.6582 18.096C61.3462 18.24 62.0502 18.312 62.7702 18.312C63.4742 18.312 64.1622 18.24 64.8342 18.096C65.5222 17.968 66.1302 17.736 66.6582 17.4C67.1862 17.064 67.6102 16.624 67.9302 16.08C68.2662 15.52 68.4342 14.832 68.4342 14.016C68.4342 13.44 68.3222 12.96 68.0982 12.576C67.8742 12.176 67.5782 11.848 67.2102 11.592C66.8422 11.32 66.4182 11.104 65.9382 10.944C65.4742 10.784 64.9942 10.648 64.4982 10.536C64.0182 10.424 63.5462 10.32 63.0822 10.224C62.6182 10.128 62.2022 10.024 61.8342 9.912C61.4822 9.784 61.1942 9.624 60.9702 9.432C60.7462 9.24 60.6342 8.992 60.6342 8.688C60.6342 8.432 60.6982 8.232 60.8262 8.088C60.9542 7.928 61.1062 7.808 61.2822 7.728C61.4742 7.648 61.6822 7.6 61.9062 7.584C62.1302 7.552 62.3382 7.536 62.5302 7.536C63.1382 7.536 63.6662 7.656 64.1142 7.896C64.5622 8.12 64.8102 8.56 64.8582 9.216H68.0982C68.0342 8.448 67.8342 7.816 67.4982 7.32C67.1782 6.808 66.7702 6.4 66.2742 6.096C65.7782 5.792 65.2102 5.576 64.5702 5.448C63.9462 5.32 63.2982 5.256 62.6262 5.256C61.9542 5.256 61.2982 5.32 60.6582 5.448C60.0182 5.56 59.4422 5.768 58.9302 6.072C58.4182 6.36 58.0022 6.76 57.6822 7.272C57.3782 7.784 57.2262 8.44 57.2262 9.24C57.2262 9.784 57.3382 10.248 57.5622 10.632C57.7862 11 58.0822 11.312 58.4502 11.568C58.8182 11.808 59.2342 12.008 59.6982 12.168C60.1782 12.312 60.6662 12.44 61.1622 12.552C62.3782 12.808 63.3222 13.064 63.9942 13.32C64.6822 13.576 65.0262 13.96 65.0262 14.472C65.0262 14.776 64.9542 15.032 64.8102 15.24C64.6662 15.432 64.4822 15.592 64.2582 15.72C64.0502 15.832 63.8102 15.92 63.5382 15.984C63.2822 16.032 63.0342 16.056 62.7942 16.056C62.4582 16.056 62.1302 16.016 61.8102 15.936C61.5062 15.856 61.2342 15.736 60.9942 15.576C60.7542 15.4 60.5542 15.184 60.3942 14.928C60.2502 14.656 60.1782 14.336 60.1782 13.968ZM74.4988 5.592V1.872H71.0908V5.592H69.0268V7.872H71.0908V15.192C71.0908 15.816 71.1948 16.32 71.4028 16.704C71.6108 17.088 71.8908 17.384 72.2428 17.592C72.6108 17.8 73.0268 17.936 73.4908 18C73.9708 18.08 74.4748 18.12 75.0028 18.12C75.3388 18.12 75.6828 18.112 76.0348 18.096C76.3868 18.08 76.7068 18.048 76.9948 18V15.36C76.8348 15.392 76.6668 15.416 76.4908 15.432C76.3148 15.448 76.1308 15.456 75.9388 15.456C75.3628 15.456 74.9788 15.36 74.7868 15.168C74.5948 14.976 74.4988 14.592 74.4988 14.016V7.872H76.9948V5.592H74.4988ZM78.2223 9.408C78.2703 8.608 78.4703 7.944 78.8223 7.416C79.1743 6.888 79.6223 6.464 80.1663 6.144C80.7103 5.824 81.3183 5.6 81.9903 5.472C82.6783 5.328 83.3663 5.256 84.0543 5.256C84.6783 5.256 85.3103 5.304 85.9503 5.4C86.5903 5.48 87.1743 5.648 87.7023 5.904C88.2303 6.16 88.6623 6.52 88.9983 6.984C89.3343 7.432 89.5023 8.032 89.5023 8.784V15.24C89.5023 15.8 89.5343 16.336 89.5983 16.848C89.6623 17.36 89.7743 17.744 89.9343 18H86.4783C86.4143 17.808 86.3583 17.616 86.3103 17.424C86.2783 17.216 86.2543 17.008 86.2383 16.8C85.6943 17.36 85.0543 17.752 84.3183 17.976C83.5823 18.2 82.8303 18.312 82.0623 18.312C81.4703 18.312 80.9183 18.24 80.4063 18.096C79.8943 17.952 79.4463 17.728 79.0623 17.424C78.6783 17.12 78.3743 16.736 78.1503 16.272C77.9423 15.808 77.8383 15.256 77.8383 14.616C77.8383 13.912 77.9583 13.336 78.1983 12.888C78.4543 12.424 78.7743 12.056 79.1583 11.784C79.5583 11.512 80.0063 11.312 80.5023 11.184C81.0143 11.04 81.5263 10.928 82.0383 10.848C82.5503 10.768 83.0543 10.704 83.5503 10.656C84.0463 10.608 84.4863 10.536 84.8703 10.44C85.2543 10.344 85.5583 10.208 85.7823 10.032C86.0063 9.84 86.1103 9.568 86.0943 9.216C86.0943 8.848 86.0303 8.56 85.9023 8.352C85.7903 8.128 85.6303 7.96 85.4223 7.848C85.2303 7.72 84.9983 7.64 84.7263 7.608C84.4703 7.56 84.1903 7.536 83.8863 7.536C83.2143 7.536 82.6863 7.68 82.3023 7.968C81.9183 8.256 81.6943 8.736 81.6303 9.408H78.2223ZM86.0943 11.928C85.9503 12.056 85.7663 12.16 85.5423 12.24C85.3343 12.304 85.1023 12.36 84.8463 12.408C84.6063 12.456 84.3503 12.496 84.0783 12.528C83.8063 12.56 83.5343 12.6 83.2623 12.648C83.0063 12.696 82.7503 12.76 82.4943 12.84C82.2543 12.92 82.0383 13.032 81.8463 13.176C81.6703 13.304 81.5263 13.472 81.4143 13.68C81.3023 13.888 81.2463 14.152 81.2463 14.472C81.2463 14.776 81.3023 15.032 81.4143 15.24C81.5263 15.448 81.6783 15.616 81.8703 15.744C82.0623 15.856 82.2863 15.936 82.5423 15.984C82.7983 16.032 83.0623 16.056 83.3343 16.056C84.0063 16.056 84.5263 15.944 84.8943 15.72C85.2623 15.496 85.5343 15.232 85.7103 14.928C85.8863 14.608 85.9903 14.288 86.0223 13.968C86.0703 13.648 86.0943 13.392 86.0943 13.2V11.928ZM97.6816 15.072C97.1536 15.072 96.7136 14.96 96.3616 14.736C96.0096 14.512 95.7216 14.224 95.4976 13.872C95.2896 13.52 95.1376 13.128 95.0416 12.696C94.9616 12.248 94.9216 11.8 94.9216 11.352C94.9216 10.888 94.9696 10.448 95.0656 10.032C95.1776 9.6 95.3456 9.224 95.5696 8.904C95.8096 8.568 96.0976 8.304 96.4336 8.112C96.7856 7.92 97.2016 7.824 97.6816 7.824C98.2416 7.824 98.7056 7.928 99.0736 8.136C99.4416 8.344 99.7376 8.624 99.9616 8.976C100.186 9.328 100.346 9.736 100.442 10.2C100.538 10.648 100.586 11.128 100.586 11.64C100.586 12.088 100.522 12.52 100.394 12.936C100.282 13.336 100.106 13.696 99.8656 14.016C99.6256 14.336 99.3216 14.592 98.9536 14.784C98.5856 14.976 98.1616 15.072 97.6816 15.072ZM103.826 17.208V5.592H100.586V7.248H100.538C100.122 6.528 99.6016 6.016 98.9776 5.712C98.3696 5.408 97.6576 5.256 96.8416 5.256C95.9776 5.256 95.2096 5.424 94.5376 5.76C93.8816 6.096 93.3296 6.552 92.8816 7.128C92.4336 7.688 92.0896 8.344 91.8496 9.096C91.6256 9.832 91.5136 10.6 91.5136 11.4C91.5136 12.248 91.6096 13.056 91.8016 13.824C92.0096 14.576 92.3296 15.24 92.7616 15.816C93.1936 16.376 93.7456 16.824 94.4176 17.16C95.0896 17.48 95.8896 17.64 96.8176 17.64C97.5696 17.64 98.2816 17.488 98.9536 17.184C99.6416 16.864 100.17 16.376 100.538 15.72H100.586V17.352C100.602 18.232 100.386 18.96 99.9376 19.536C99.5056 20.112 98.8096 20.4 97.8496 20.4C97.2416 20.4 96.7056 20.272 96.2416 20.016C95.7776 19.776 95.4656 19.336 95.3056 18.696H91.9216C91.9696 19.4 92.1616 20 92.4976 20.496C92.8496 21.008 93.2816 21.424 93.7936 21.744C94.3216 22.064 94.8976 22.296 95.5216 22.44C96.1616 22.6 96.7856 22.68 97.3936 22.68C98.8176 22.68 99.9536 22.488 100.802 22.104C101.65 21.72 102.298 21.248 102.746 20.688C103.194 20.144 103.482 19.552 103.61 18.912C103.754 18.272 103.826 17.704 103.826 17.208ZM114.671 10.464H109.127C109.143 10.224 109.191 9.952 109.271 9.648C109.367 9.344 109.519 9.056 109.727 8.784C109.951 8.512 110.239 8.288 110.591 8.112C110.959 7.92 111.415 7.824 111.959 7.824C112.791 7.824 113.407 8.048 113.807 8.496C114.223 8.944 114.511 9.6 114.671 10.464ZM109.127 12.624H118.079C118.143 11.664 118.063 10.744 117.839 9.864C117.615 8.984 117.247 8.2 116.735 7.512C116.239 6.824 115.599 6.28 114.815 5.88C114.031 5.464 113.111 5.256 112.055 5.256C111.111 5.256 110.247 5.424 109.463 5.76C108.695 6.096 108.031 6.56 107.471 7.152C106.911 7.728 106.479 8.416 106.175 9.216C105.871 10.016 105.719 10.88 105.719 11.808C105.719 12.768 105.863 13.648 106.151 14.448C106.455 15.248 106.879 15.936 107.423 16.512C107.967 17.088 108.631 17.536 109.415 17.856C110.199 18.16 111.079 18.312 112.055 18.312C113.463 18.312 114.663 17.992 115.655 17.352C116.647 16.712 117.383 15.648 117.863 14.16H114.863C114.751 14.544 114.447 14.912 113.951 15.264C113.455 15.6 112.863 15.768 112.175 15.768C111.215 15.768 110.479 15.52 109.967 15.024C109.455 14.528 109.175 13.728 109.127 12.624Z" fill="white"/>
<path d="M119.683 15.984C119.683 17.184 120.667 18.168 121.867 18.168C123.091 18.168 124.075 17.184 124.075 15.984C124.075 14.784 123.091 13.8 121.867 13.8C120.667 13.8 119.683 14.784 119.683 15.984Z" fill="#9BF0E1"/>
</svg>
