<svg width="925" height="731" viewBox="0 0 925 731" fill="none" xmlns="http://www.w3.org/2000/svg">
<rect x="-5" y="5" width="163.199" height="163.199" transform="matrix(-1 0 0 1 349.202 0)" stroke="url(#paint0_linear)" stroke-width="10" stroke-dasharray="20 15"/>
<rect x="-5" y="5" width="163.199" height="163.199" transform="matrix(-1 0 0 1 349.913 185.884)" stroke="url(#paint1_linear)" stroke-width="10" stroke-dasharray="20 15"/>
<rect x="-5" y="5" width="163.199" height="163.199" transform="matrix(-1 0 0 1 163.199 0)" stroke="url(#paint2_linear)" stroke-width="10" stroke-dasharray="20 15"/>
<rect x="-5" y="5" width="163.199" height="163.199" transform="matrix(-1 0 0 1 163.199 186.003)" stroke="url(#paint3_linear)" stroke-width="10" stroke-dasharray="20 15"/>
<rect x="-5" y="5" width="163.199" height="163.199" transform="matrix(-1 0 0 1 724.289 185.884)" stroke="url(#paint4_linear)" stroke-width="10" stroke-dasharray="20 15"/>
<rect x="-5" y="5" width="163.199" height="163.199" transform="matrix(-1 0 0 1 725 371.769)" stroke="url(#paint5_linear)" stroke-width="10" stroke-dasharray="20 15"/>
<rect x="-5" y="5" width="163.199" height="163.199" transform="matrix(-1 0 0 1 914.289 371.884)" stroke="url(#paint6_linear)" stroke-width="10" stroke-dasharray="20 15"/>
<rect x="-5" y="5" width="163.199" height="163.199" transform="matrix(-1 0 0 1 915 557.769)" stroke="url(#paint7_linear)" stroke-width="10" stroke-dasharray="20 15"/>
<rect x="-5" y="5" width="163.199" height="163.199" transform="matrix(-1 0 0 1 538.286 185.884)" stroke="url(#paint8_linear)" stroke-width="10" stroke-dasharray="20 15"/>
<rect x="-5" y="5" width="163.199" height="163.199" transform="matrix(-1 0 0 1 538.286 371.888)" stroke="url(#paint9_linear)" stroke-width="10" stroke-dasharray="20 15"/>
<defs>
<linearGradient id="paint0_linear" x1="7.76436" y1="70.1215" x2="173.317" y2="73.4409" gradientUnits="userSpaceOnUse">
<stop stop-color="#9BF0E1"/>
<stop offset="1" stop-color="#9BF0E1" stop-opacity="0.5"/>
</linearGradient>
<linearGradient id="paint1_linear" x1="7.76436" y1="70.1215" x2="173.317" y2="73.4409" gradientUnits="userSpaceOnUse">
<stop stop-color="#9BF0E1"/>
<stop offset="1" stop-color="#9BF0E1" stop-opacity="0.5"/>
</linearGradient>
<linearGradient id="paint2_linear" x1="128.937" y1="122.522" x2="-14.754" y2="123.805" gradientUnits="userSpaceOnUse">
<stop stop-color="#9BF0E1" stop-opacity="0"/>
<stop offset="1" stop-color="#9BF0E1" stop-opacity="0.5"/>
</linearGradient>
<linearGradient id="paint3_linear" x1="-2.46742e-08" y1="86.5993" x2="147.253" y2="86.2624" gradientUnits="userSpaceOnUse">
<stop stop-color="#9BF0E1" stop-opacity="0.5"/>
<stop offset="1" stop-color="#9BF0E1" stop-opacity="0"/>
</linearGradient>
<linearGradient id="paint4_linear" x1="7.76436" y1="70.1215" x2="173.317" y2="73.4409" gradientUnits="userSpaceOnUse">
<stop stop-color="white"/>
<stop offset="1" stop-color="#C3F9EF"/>
</linearGradient>
<linearGradient id="paint5_linear" x1="7.76436" y1="70.1215" x2="173.317" y2="73.4409" gradientUnits="userSpaceOnUse">
<stop stop-color="white"/>
<stop offset="1" stop-color="#C3F9EF"/>
</linearGradient>
<linearGradient id="paint6_linear" x1="86.2891" y1="145.616" x2="173.317" y2="73.4409" gradientUnits="userSpaceOnUse">
<stop stop-color="#C3F9EF" stop-opacity="0.41"/>
<stop offset="1" stop-color="white"/>
</linearGradient>
<linearGradient id="paint7_linear" x1="125.5" y1="73.2314" x2="196" y2="-14.2686" gradientUnits="userSpaceOnUse">
<stop stop-color="#C3F9EF" stop-opacity="0"/>
<stop offset="1" stop-color="white"/>
</linearGradient>
<linearGradient id="paint8_linear" x1="128.937" y1="122.522" x2="-14.754" y2="123.805" gradientUnits="userSpaceOnUse">
<stop stop-color="#9BF0E1"/>
<stop offset="1" stop-color="#C3F9EF"/>
</linearGradient>
<linearGradient id="paint9_linear" x1="-2.46742e-08" y1="86.5993" x2="147.253" y2="86.2624" gradientUnits="userSpaceOnUse">
<stop stop-color="#C3F9EF"/>
<stop offset="1" stop-color="#9BF0E1"/>
</linearGradient>
</defs>
</svg>
