<svg width="321" height="234" viewBox="0 0 321 234" fill="none" xmlns="http://www.w3.org/2000/svg">
<g filter="url(#filter0_d)">
<rect x="17.2295" y="17.2793" width="269.879" height="183.692" rx="8" fill="url(#paint0_linear)"/>
</g>
<path d="M35.844 88.076H44.004C44.004 86.956 44.104 85.836 44.304 84.716C44.544 83.556 44.924 82.516 45.444 81.596C45.964 80.636 46.644 79.876 47.484 79.316C48.364 78.716 49.424 78.416 50.664 78.416C52.504 78.416 54.004 78.996 55.164 80.156C56.364 81.276 56.964 82.856 56.964 84.896C56.964 86.176 56.664 87.316 56.064 88.316C55.504 89.316 54.784 90.216 53.904 91.016C53.064 91.816 52.124 92.556 51.084 93.236C50.044 93.876 49.064 94.516 48.144 95.156C46.344 96.396 44.624 97.616 42.984 98.816C41.384 100.016 39.984 101.336 38.784 102.776C37.584 104.176 36.624 105.776 35.904 107.576C35.224 109.376 34.884 111.496 34.884 113.936H65.724V106.616H45.864C46.904 105.176 48.104 103.916 49.464 102.836C50.824 101.756 52.224 100.756 53.664 99.836C55.104 98.876 56.524 97.916 57.924 96.956C59.364 95.996 60.644 94.936 61.764 93.776C62.884 92.576 63.784 91.216 64.464 89.696C65.144 88.176 65.484 86.356 65.484 84.236C65.484 82.196 65.084 80.356 64.284 78.716C63.524 77.076 62.484 75.696 61.164 74.576C59.844 73.456 58.304 72.596 56.544 71.996C54.824 71.396 53.004 71.096 51.084 71.096C48.564 71.096 46.324 71.536 44.364 72.416C42.444 73.256 40.844 74.456 39.564 76.016C38.284 77.536 37.324 79.336 36.684 81.416C36.044 83.456 35.764 85.676 35.844 88.076ZM77.0339 83.336C77.0339 82.376 77.1939 81.536 77.5139 80.816C77.8739 80.096 78.3539 79.496 78.9539 79.016C79.5539 78.536 80.2339 78.176 80.9939 77.936C81.7939 77.656 82.6139 77.516 83.4539 77.516C84.7739 77.516 85.8339 77.716 86.6339 78.116C87.4739 78.516 88.1139 79.016 88.5539 79.616C89.0339 80.216 89.3539 80.856 89.5139 81.536C89.6739 82.176 89.7539 82.776 89.7539 83.336C89.7539 85.136 89.1539 86.516 87.9539 87.476C86.7539 88.396 85.2539 88.856 83.4539 88.856C81.7339 88.856 80.2339 88.396 78.9539 87.476C77.6739 86.516 77.0339 85.136 77.0339 83.336ZM69.2939 82.556C69.2939 84.636 69.8139 86.456 70.8539 88.016C71.8939 89.576 73.4339 90.636 75.4739 91.196V91.316C72.9539 91.916 70.9939 93.116 69.5939 94.916C68.2339 96.716 67.5539 98.956 67.5539 101.636C67.5539 103.916 67.9939 105.876 68.8739 107.516C69.7939 109.156 70.9939 110.516 72.4739 111.596C73.9939 112.676 75.6939 113.456 77.5739 113.936C79.4939 114.456 81.4739 114.716 83.5139 114.716C85.4739 114.716 87.3939 114.456 89.2739 113.936C91.1539 113.376 92.8339 112.556 94.3139 111.476C95.7939 110.396 96.9739 109.036 97.8539 107.396C98.7739 105.756 99.2339 103.816 99.2339 101.576C99.2339 98.936 98.5539 96.716 97.1939 94.916C95.8339 93.076 93.8939 91.876 91.3739 91.316V91.196C93.4139 90.516 94.9339 89.396 95.9339 87.836C96.9739 86.276 97.4939 84.456 97.4939 82.376C97.4939 81.336 97.2539 80.176 96.7739 78.896C96.2939 77.576 95.4939 76.356 94.3739 75.236C93.2939 74.076 91.8539 73.096 90.0539 72.296C88.2539 71.496 86.0539 71.096 83.4539 71.096C81.7339 71.096 80.0339 71.336 78.3539 71.816C76.6739 72.296 75.1539 73.016 73.7939 73.976C72.4739 74.936 71.3939 76.136 70.5539 77.576C69.7139 79.016 69.2939 80.676 69.2939 82.556ZM76.0739 101.216C76.0739 99.056 76.7939 97.416 78.2339 96.296C79.6739 95.136 81.4339 94.556 83.5139 94.556C84.5139 94.556 85.4339 94.716 86.2739 95.036C87.1539 95.356 87.9139 95.816 88.5539 96.416C89.2339 97.016 89.7539 97.736 90.1139 98.576C90.5139 99.376 90.7139 100.276 90.7139 101.276C90.7139 102.316 90.5339 103.276 90.1739 104.156C89.8139 105.036 89.2939 105.796 88.6139 106.436C87.9739 107.036 87.2139 107.516 86.3339 107.876C85.4939 108.196 84.5539 108.356 83.5139 108.356C82.5139 108.356 81.5539 108.196 80.6339 107.876C79.7139 107.516 78.9139 107.036 78.2339 106.436C77.5939 105.796 77.0739 105.036 76.6739 104.156C76.2739 103.276 76.0739 102.296 76.0739 101.216ZM109.584 92.756C109.584 92.036 109.584 91.176 109.584 90.176C109.624 89.136 109.704 88.076 109.824 86.996C109.944 85.916 110.144 84.856 110.424 83.816C110.704 82.736 111.084 81.776 111.564 80.936C112.084 80.096 112.724 79.416 113.484 78.896C114.284 78.376 115.264 78.116 116.424 78.116C117.584 78.116 118.564 78.376 119.364 78.896C120.164 79.416 120.824 80.096 121.344 80.936C121.864 81.776 122.244 82.736 122.484 83.816C122.764 84.856 122.964 85.916 123.084 86.996C123.244 88.076 123.324 89.136 123.324 90.176C123.364 91.176 123.384 92.036 123.384 92.756C123.384 93.956 123.344 95.416 123.264 97.136C123.184 98.816 122.924 100.456 122.484 102.056C122.084 103.616 121.404 104.956 120.444 106.076C119.524 107.196 118.184 107.756 116.424 107.756C114.704 107.756 113.384 107.196 112.464 106.076C111.544 104.956 110.864 103.616 110.424 102.056C110.024 100.456 109.784 98.816 109.704 97.136C109.624 95.416 109.584 93.956 109.584 92.756ZM101.064 92.756C101.064 96.956 101.464 100.476 102.264 103.316C103.104 106.116 104.224 108.356 105.624 110.036C107.024 111.716 108.644 112.916 110.484 113.636C112.364 114.356 114.344 114.716 116.424 114.716C118.544 114.716 120.524 114.356 122.364 113.636C124.244 112.916 125.884 111.716 127.284 110.036C128.724 108.356 129.844 106.116 130.644 103.316C131.484 100.476 131.904 96.956 131.904 92.756C131.904 88.676 131.484 85.256 130.644 82.496C129.844 79.696 128.724 77.456 127.284 75.776C125.884 74.096 124.244 72.896 122.364 72.176C120.524 71.456 118.544 71.096 116.424 71.096C114.344 71.096 112.364 71.456 110.484 72.176C108.644 72.896 107.024 74.096 105.624 75.776C104.224 77.456 103.104 79.696 102.264 82.496C101.464 85.256 101.064 88.676 101.064 92.756Z" fill="#9BF0E1"/>
<path d="M42.084 134.629H36.144C36.1707 134.229 36.2574 133.856 36.404 133.509C36.5507 133.149 36.7507 132.836 37.004 132.569C37.2574 132.302 37.5574 132.096 37.904 131.949C38.264 131.789 38.664 131.709 39.104 131.709C39.5307 131.709 39.9174 131.789 40.264 131.949C40.624 132.096 40.9307 132.302 41.184 132.569C41.4507 132.822 41.6574 133.129 41.804 133.489C41.964 133.849 42.0574 134.229 42.084 134.629ZM43.724 137.509H42.044C41.8974 138.189 41.5907 138.696 41.124 139.029C40.6707 139.362 40.084 139.529 39.364 139.529C38.804 139.529 38.3174 139.436 37.904 139.249C37.4907 139.062 37.1507 138.816 36.884 138.509C36.6174 138.189 36.424 137.829 36.304 137.429C36.184 137.016 36.1307 136.582 36.144 136.129H43.884C43.9107 135.502 43.8507 134.842 43.704 134.149C43.5707 133.456 43.3174 132.816 42.944 132.229C42.584 131.642 42.0974 131.162 41.484 130.789C40.884 130.402 40.124 130.209 39.204 130.209C38.4974 130.209 37.844 130.342 37.244 130.609C36.6574 130.876 36.144 131.249 35.704 131.729C35.2774 132.209 34.944 132.776 34.704 133.429C34.464 134.082 34.344 134.802 34.344 135.589C34.3707 136.376 34.484 137.102 34.684 137.769C34.8974 138.436 35.2107 139.009 35.624 139.489C36.0374 139.969 36.544 140.342 37.144 140.609C37.7574 140.876 38.4774 141.009 39.304 141.009C40.4774 141.009 41.4507 140.716 42.224 140.129C42.9974 139.542 43.4974 138.669 43.724 137.509ZM45.3962 130.449V140.789H47.0962V134.949C47.0962 134.482 47.1562 134.056 47.2762 133.669C47.4095 133.269 47.6029 132.922 47.8562 132.629C48.1095 132.336 48.4229 132.109 48.7962 131.949C49.1829 131.789 49.6362 131.709 50.1562 131.709C50.8095 131.709 51.3229 131.896 51.6962 132.269C52.0695 132.642 52.2562 133.149 52.2562 133.789V140.789H53.9562V133.989C53.9562 133.429 53.8962 132.922 53.7762 132.469C53.6695 132.002 53.4762 131.602 53.1962 131.269C52.9162 130.936 52.5495 130.676 52.0962 130.489C51.6429 130.302 51.0762 130.209 50.3962 130.209C48.8629 130.209 47.7429 130.836 47.0362 132.089H46.9962V130.449H45.3962ZM65.1795 139.909V130.449H63.5795V131.929H63.5595C63.2528 131.356 62.8262 130.929 62.2795 130.649C61.7328 130.356 61.1328 130.209 60.4795 130.209C59.5862 130.209 58.8328 130.382 58.2195 130.729C57.6062 131.062 57.1128 131.496 56.7395 132.029C56.3662 132.549 56.0995 133.136 55.9395 133.789C55.7795 134.429 55.6995 135.056 55.6995 135.669C55.6995 136.376 55.7928 137.049 55.9795 137.689C56.1795 138.316 56.4728 138.869 56.8595 139.349C57.2462 139.816 57.7262 140.189 58.2995 140.469C58.8728 140.749 59.5462 140.889 60.3195 140.889C60.9862 140.889 61.6128 140.742 62.1995 140.449C62.7995 140.142 63.2462 139.669 63.5395 139.029H63.5795V139.709C63.5795 140.282 63.5195 140.809 63.3995 141.289C63.2928 141.769 63.1128 142.176 62.8595 142.509C62.6062 142.856 62.2862 143.122 61.8995 143.309C61.5128 143.509 61.0395 143.609 60.4795 143.609C60.1995 143.609 59.9062 143.576 59.5995 143.509C59.2928 143.456 59.0062 143.362 58.7395 143.229C58.4862 143.096 58.2662 142.922 58.0795 142.709C57.9062 142.496 57.8128 142.236 57.7995 141.929H56.0995C56.1262 142.489 56.2728 142.962 56.5395 143.349C56.8062 143.736 57.1395 144.049 57.5395 144.289C57.9528 144.529 58.4062 144.702 58.8995 144.809C59.4062 144.916 59.8995 144.969 60.3795 144.969C62.0328 144.969 63.2462 144.549 64.0195 143.709C64.7928 142.869 65.1795 141.602 65.1795 139.909ZM60.4195 139.409C59.8595 139.409 59.3928 139.296 59.0195 139.069C58.6462 138.829 58.3462 138.522 58.1195 138.149C57.8928 137.762 57.7328 137.336 57.6395 136.869C57.5462 136.402 57.4995 135.936 57.4995 135.469C57.4995 134.976 57.5528 134.502 57.6595 134.049C57.7795 133.596 57.9595 133.196 58.1995 132.849C58.4528 132.502 58.7728 132.229 59.1595 132.029C59.5462 131.816 60.0128 131.709 60.5595 131.709C61.0928 131.709 61.5462 131.816 61.9195 132.029C62.2928 132.242 62.5928 132.529 62.8195 132.889C63.0595 133.236 63.2328 133.629 63.3395 134.069C63.4462 134.509 63.4995 134.956 63.4995 135.409C63.4995 135.889 63.4395 136.369 63.3195 136.849C63.2128 137.329 63.0395 137.762 62.7995 138.149C62.5595 138.522 62.2395 138.829 61.8395 139.069C61.4528 139.296 60.9795 139.409 60.4195 139.409ZM69.2939 128.589V126.509H67.5939V128.589H69.2939ZM67.5939 130.449V140.789H69.2939V130.449H67.5939ZM71.6775 130.449V140.789H73.3775V134.949C73.3775 134.482 73.4375 134.056 73.5575 133.669C73.6908 133.269 73.8841 132.922 74.1375 132.629C74.3908 132.336 74.7041 132.109 75.0775 131.949C75.4641 131.789 75.9175 131.709 76.4375 131.709C77.0908 131.709 77.6041 131.896 77.9775 132.269C78.3508 132.642 78.5375 133.149 78.5375 133.789V140.789H80.2375V133.989C80.2375 133.429 80.1775 132.922 80.0575 132.469C79.9508 132.002 79.7575 131.602 79.4775 131.269C79.1975 130.936 78.8308 130.676 78.3775 130.489C77.9241 130.302 77.3575 130.209 76.6775 130.209C75.1441 130.209 74.0241 130.836 73.3175 132.089H73.2775V130.449H71.6775ZM89.7207 134.629H83.7807C83.8074 134.229 83.8941 133.856 84.0407 133.509C84.1874 133.149 84.3874 132.836 84.6407 132.569C84.8941 132.302 85.1941 132.096 85.5407 131.949C85.9007 131.789 86.3007 131.709 86.7407 131.709C87.1674 131.709 87.5541 131.789 87.9007 131.949C88.2607 132.096 88.5674 132.302 88.8207 132.569C89.0874 132.822 89.2941 133.129 89.4407 133.489C89.6007 133.849 89.6941 134.229 89.7207 134.629ZM91.3607 137.509H89.6807C89.5341 138.189 89.2274 138.696 88.7607 139.029C88.3074 139.362 87.7207 139.529 87.0007 139.529C86.4407 139.529 85.9541 139.436 85.5407 139.249C85.1274 139.062 84.7874 138.816 84.5207 138.509C84.2541 138.189 84.0607 137.829 83.9407 137.429C83.8207 137.016 83.7674 136.582 83.7807 136.129H91.5207C91.5474 135.502 91.4874 134.842 91.3407 134.149C91.2074 133.456 90.9541 132.816 90.5807 132.229C90.2207 131.642 89.7341 131.162 89.1207 130.789C88.5207 130.402 87.7607 130.209 86.8407 130.209C86.1341 130.209 85.4807 130.342 84.8807 130.609C84.2941 130.876 83.7807 131.249 83.3407 131.729C82.9141 132.209 82.5807 132.776 82.3407 133.429C82.1007 134.082 81.9807 134.802 81.9807 135.589C82.0074 136.376 82.1207 137.102 82.3207 137.769C82.5341 138.436 82.8474 139.009 83.2607 139.489C83.6741 139.969 84.1807 140.342 84.7807 140.609C85.3941 140.876 86.1141 141.009 86.9407 141.009C88.1141 141.009 89.0874 140.716 89.8607 140.129C90.6341 139.542 91.1341 138.669 91.3607 137.509ZM100.213 134.629H94.2729C94.2996 134.229 94.3863 133.856 94.5329 133.509C94.6796 133.149 94.8796 132.836 95.1329 132.569C95.3863 132.302 95.6863 132.096 96.0329 131.949C96.3929 131.789 96.7929 131.709 97.2329 131.709C97.6596 131.709 98.0463 131.789 98.3929 131.949C98.7529 132.096 99.0596 132.302 99.3129 132.569C99.5796 132.822 99.7863 133.129 99.9329 133.489C100.093 133.849 100.186 134.229 100.213 134.629ZM101.853 137.509H100.173C100.026 138.189 99.7196 138.696 99.2529 139.029C98.7996 139.362 98.2129 139.529 97.4929 139.529C96.9329 139.529 96.4463 139.436 96.0329 139.249C95.6196 139.062 95.2796 138.816 95.0129 138.509C94.7463 138.189 94.5529 137.829 94.4329 137.429C94.3129 137.016 94.2596 136.582 94.2729 136.129H102.013C102.04 135.502 101.98 134.842 101.833 134.149C101.7 133.456 101.446 132.816 101.073 132.229C100.713 131.642 100.226 131.162 99.6129 130.789C99.0129 130.402 98.2529 130.209 97.3329 130.209C96.6263 130.209 95.9729 130.342 95.3729 130.609C94.7863 130.876 94.2729 131.249 93.8329 131.729C93.4063 132.209 93.0729 132.776 92.8329 133.429C92.5929 134.082 92.4729 134.802 92.4729 135.589C92.4996 136.376 92.6129 137.102 92.8129 137.769C93.0263 138.436 93.3396 139.009 93.7529 139.489C94.1663 139.969 94.6729 140.342 95.2729 140.609C95.8863 140.876 96.6063 141.009 97.4329 141.009C98.6063 141.009 99.5796 140.716 100.353 140.129C101.126 139.542 101.626 138.669 101.853 137.509ZM103.465 130.449V140.789H105.165V136.189C105.165 135.522 105.232 134.936 105.365 134.429C105.498 133.909 105.712 133.469 106.005 133.109C106.298 132.749 106.685 132.476 107.165 132.289C107.645 132.102 108.225 132.009 108.905 132.009V130.209C107.985 130.182 107.225 130.369 106.625 130.769C106.025 131.169 105.518 131.789 105.105 132.629H105.065V130.449H103.465ZM111.735 128.589V126.509H110.035V128.589H111.735ZM110.035 130.449V140.789H111.735V130.449H110.035ZM114.119 130.449V140.789H115.819V134.949C115.819 134.482 115.879 134.056 115.999 133.669C116.132 133.269 116.326 132.922 116.579 132.629C116.832 132.336 117.146 132.109 117.519 131.949C117.906 131.789 118.359 131.709 118.879 131.709C119.532 131.709 120.046 131.896 120.419 132.269C120.792 132.642 120.979 133.149 120.979 133.789V140.789H122.679V133.989C122.679 133.429 122.619 132.922 122.499 132.469C122.392 132.002 122.199 131.602 121.919 131.269C121.639 130.936 121.272 130.676 120.819 130.489C120.366 130.302 119.799 130.209 119.119 130.209C117.586 130.209 116.466 130.836 115.759 132.089H115.719V130.449H114.119ZM133.902 139.909V130.449H132.302V131.929H132.282C131.975 131.356 131.549 130.929 131.002 130.649C130.455 130.356 129.855 130.209 129.202 130.209C128.309 130.209 127.555 130.382 126.942 130.729C126.329 131.062 125.835 131.496 125.462 132.029C125.089 132.549 124.822 133.136 124.662 133.789C124.502 134.429 124.422 135.056 124.422 135.669C124.422 136.376 124.515 137.049 124.702 137.689C124.902 138.316 125.195 138.869 125.582 139.349C125.969 139.816 126.449 140.189 127.022 140.469C127.595 140.749 128.269 140.889 129.042 140.889C129.709 140.889 130.335 140.742 130.922 140.449C131.522 140.142 131.969 139.669 132.262 139.029H132.302V139.709C132.302 140.282 132.242 140.809 132.122 141.289C132.015 141.769 131.835 142.176 131.582 142.509C131.329 142.856 131.009 143.122 130.622 143.309C130.235 143.509 129.762 143.609 129.202 143.609C128.922 143.609 128.629 143.576 128.322 143.509C128.015 143.456 127.729 143.362 127.462 143.229C127.209 143.096 126.989 142.922 126.802 142.709C126.629 142.496 126.535 142.236 126.522 141.929H124.822C124.849 142.489 124.995 142.962 125.262 143.349C125.529 143.736 125.862 144.049 126.262 144.289C126.675 144.529 127.129 144.702 127.622 144.809C128.129 144.916 128.622 144.969 129.102 144.969C130.755 144.969 131.969 144.549 132.742 143.709C133.515 142.869 133.902 141.602 133.902 139.909ZM129.142 139.409C128.582 139.409 128.115 139.296 127.742 139.069C127.369 138.829 127.069 138.522 126.842 138.149C126.615 137.762 126.455 137.336 126.362 136.869C126.269 136.402 126.222 135.936 126.222 135.469C126.222 134.976 126.275 134.502 126.382 134.049C126.502 133.596 126.682 133.196 126.922 132.849C127.175 132.502 127.495 132.229 127.882 132.029C128.269 131.816 128.735 131.709 129.282 131.709C129.815 131.709 130.269 131.816 130.642 132.029C131.015 132.242 131.315 132.529 131.542 132.889C131.782 133.236 131.955 133.629 132.062 134.069C132.169 134.509 132.222 134.956 132.222 135.409C132.222 135.889 132.162 136.369 132.042 136.849C131.935 137.329 131.762 137.762 131.522 138.149C131.282 138.522 130.962 138.829 130.562 139.069C130.175 139.296 129.702 139.409 129.142 139.409ZM37.264 150.449V147.349H35.564V150.449H33.804V151.949H35.564V158.529C35.564 159.009 35.6107 159.396 35.704 159.689C35.7974 159.982 35.9374 160.209 36.124 160.369C36.324 160.529 36.5774 160.642 36.884 160.709C37.204 160.762 37.584 160.789 38.024 160.789H39.324V159.289H38.544C38.2774 159.289 38.0574 159.282 37.884 159.269C37.724 159.242 37.5974 159.196 37.504 159.129C37.4107 159.062 37.344 158.969 37.304 158.849C37.2774 158.729 37.264 158.569 37.264 158.369V151.949H39.324V150.449H37.264ZM48.1426 154.629H42.2026C42.2293 154.229 42.316 153.856 42.4626 153.509C42.6093 153.149 42.8093 152.836 43.0626 152.569C43.316 152.302 43.616 152.096 43.9626 151.949C44.3226 151.789 44.7226 151.709 45.1626 151.709C45.5893 151.709 45.976 151.789 46.3226 151.949C46.6826 152.096 46.9893 152.302 47.2426 152.569C47.5093 152.822 47.716 153.129 47.8626 153.489C48.0226 153.849 48.116 154.229 48.1426 154.629ZM49.7826 157.509H48.1026C47.956 158.189 47.6493 158.696 47.1826 159.029C46.7293 159.362 46.1426 159.529 45.4226 159.529C44.8626 159.529 44.376 159.436 43.9626 159.249C43.5493 159.062 43.2093 158.816 42.9426 158.509C42.676 158.189 42.4826 157.829 42.3626 157.429C42.2426 157.016 42.1893 156.582 42.2026 156.129H49.9426C49.9693 155.502 49.9093 154.842 49.7626 154.149C49.6293 153.456 49.376 152.816 49.0026 152.229C48.6426 151.642 48.156 151.162 47.5426 150.789C46.9426 150.402 46.1826 150.209 45.2626 150.209C44.556 150.209 43.9026 150.342 43.3026 150.609C42.716 150.876 42.2026 151.249 41.7626 151.729C41.336 152.209 41.0026 152.776 40.7626 153.429C40.5226 154.082 40.4026 154.802 40.4026 155.589C40.4293 156.376 40.5426 157.102 40.7426 157.769C40.956 158.436 41.2693 159.009 41.6826 159.489C42.096 159.969 42.6026 160.342 43.2026 160.609C43.816 160.876 44.536 161.009 45.3626 161.009C46.536 161.009 47.5093 160.716 48.2826 160.129C49.056 159.542 49.556 158.669 49.7826 157.509ZM60.6148 160.749C60.3215 160.922 59.9148 161.009 59.3948 161.009C58.9548 161.009 58.6015 160.889 58.3348 160.649C58.0815 160.396 57.9548 159.989 57.9548 159.429C57.4881 159.989 56.9415 160.396 56.3148 160.649C55.7015 160.889 55.0348 161.009 54.3148 161.009C53.8481 161.009 53.4015 160.956 52.9748 160.849C52.5615 160.742 52.2015 160.576 51.8948 160.349C51.5881 160.122 51.3415 159.829 51.1548 159.469C50.9815 159.096 50.8948 158.649 50.8948 158.129C50.8948 157.542 50.9948 157.062 51.1948 156.689C51.3948 156.316 51.6548 156.016 51.9748 155.789C52.3081 155.549 52.6815 155.369 53.0948 155.249C53.5215 155.129 53.9548 155.029 54.3948 154.949C54.8615 154.856 55.3015 154.789 55.7148 154.749C56.1415 154.696 56.5148 154.629 56.8348 154.549C57.1548 154.456 57.4081 154.329 57.5948 154.169C57.7815 153.996 57.8748 153.749 57.8748 153.429C57.8748 153.056 57.8015 152.756 57.6548 152.529C57.5215 152.302 57.3415 152.129 57.1148 152.009C56.9015 151.889 56.6548 151.809 56.3748 151.769C56.1081 151.729 55.8415 151.709 55.5748 151.709C54.8548 151.709 54.2548 151.849 53.7748 152.129C53.2948 152.396 53.0348 152.909 52.9948 153.669H51.2948C51.3215 153.029 51.4548 152.489 51.6948 152.049C51.9348 151.609 52.2548 151.256 52.6548 150.989C53.0548 150.709 53.5081 150.509 54.0148 150.389C54.5348 150.269 55.0881 150.209 55.6748 150.209C56.1415 150.209 56.6015 150.242 57.0548 150.309C57.5215 150.376 57.9415 150.516 58.3148 150.729C58.6881 150.929 58.9881 151.216 59.2148 151.589C59.4415 151.962 59.5548 152.449 59.5548 153.049V158.369C59.5548 158.769 59.5748 159.062 59.6148 159.249C59.6681 159.436 59.8281 159.529 60.0948 159.529C60.2415 159.529 60.4148 159.496 60.6148 159.429V160.749ZM57.8548 155.449C57.6415 155.609 57.3615 155.729 57.0148 155.809C56.6681 155.876 56.3015 155.936 55.9148 155.989C55.5415 156.029 55.1615 156.082 54.7748 156.149C54.3881 156.202 54.0415 156.296 53.7348 156.429C53.4281 156.562 53.1748 156.756 52.9748 157.009C52.7881 157.249 52.6948 157.582 52.6948 158.009C52.6948 158.289 52.7481 158.529 52.8548 158.729C52.9748 158.916 53.1215 159.069 53.2948 159.189C53.4815 159.309 53.6948 159.396 53.9348 159.449C54.1748 159.502 54.4281 159.529 54.6948 159.529C55.2548 159.529 55.7348 159.456 56.1348 159.309C56.5348 159.149 56.8615 158.956 57.1148 158.729C57.3681 158.489 57.5548 158.236 57.6748 157.969C57.7948 157.689 57.8548 157.429 57.8548 157.189V155.449ZM61.947 150.449V160.789H63.647V154.349C63.647 154.149 63.6937 153.902 63.787 153.609C63.8937 153.302 64.0537 153.009 64.267 152.729C64.4937 152.449 64.7803 152.209 65.127 152.009C65.487 151.809 65.9137 151.709 66.407 151.709C66.7937 151.709 67.107 151.769 67.347 151.889C67.6003 151.996 67.8003 152.156 67.947 152.369C68.0937 152.569 68.1937 152.809 68.247 153.089C68.3137 153.369 68.347 153.676 68.347 154.009V160.789H70.047V154.349C70.047 153.549 70.287 152.909 70.767 152.429C71.247 151.949 71.907 151.709 72.747 151.709C73.1603 151.709 73.4937 151.769 73.747 151.889C74.0137 152.009 74.2203 152.176 74.367 152.389C74.5137 152.589 74.6137 152.829 74.667 153.109C74.7203 153.389 74.747 153.689 74.747 154.009V160.789H76.447V153.209C76.447 152.676 76.3603 152.222 76.187 151.849C76.027 151.462 75.7937 151.149 75.487 150.909C75.1937 150.669 74.8337 150.496 74.407 150.389C73.9937 150.269 73.527 150.209 73.007 150.209C72.327 150.209 71.7003 150.362 71.127 150.669C70.567 150.976 70.1137 151.409 69.767 151.969C69.5537 151.329 69.187 150.876 68.667 150.609C68.147 150.342 67.567 150.209 66.927 150.209C65.4737 150.209 64.3603 150.796 63.587 151.969H63.547V150.449H61.947ZM79.7878 157.529H78.0878C78.1144 158.169 78.2478 158.716 78.4878 159.169C78.7278 159.609 79.0478 159.969 79.4478 160.249C79.8478 160.516 80.3078 160.709 80.8278 160.829C81.3478 160.949 81.8944 161.009 82.4678 161.009C82.9878 161.009 83.5078 160.956 84.0278 160.849C84.5611 160.756 85.0344 160.582 85.4478 160.329C85.8744 160.076 86.2144 159.742 86.4678 159.329C86.7344 158.916 86.8678 158.396 86.8678 157.769C86.8678 157.276 86.7678 156.862 86.5678 156.529C86.3811 156.196 86.1278 155.922 85.8078 155.709C85.5011 155.482 85.1411 155.302 84.7278 155.169C84.3278 155.036 83.9144 154.922 83.4878 154.829C83.0878 154.736 82.6878 154.649 82.2878 154.569C81.8878 154.476 81.5278 154.369 81.2078 154.249C80.8878 154.116 80.6211 153.956 80.4078 153.769C80.2078 153.569 80.1078 153.322 80.1078 153.029C80.1078 152.762 80.1744 152.549 80.3078 152.389C80.4411 152.216 80.6144 152.082 80.8278 151.989C81.0411 151.882 81.2744 151.809 81.5278 151.769C81.7944 151.729 82.0544 151.709 82.3078 151.709C82.5878 151.709 82.8611 151.742 83.1278 151.809C83.4078 151.862 83.6611 151.956 83.8878 152.089C84.1144 152.222 84.3011 152.402 84.4478 152.629C84.5944 152.842 84.6811 153.116 84.7078 153.449H86.4078C86.3678 152.822 86.2344 152.302 86.0078 151.889C85.7811 151.462 85.4744 151.129 85.0878 150.889C84.7144 150.636 84.2811 150.462 83.7878 150.369C83.2944 150.262 82.7544 150.209 82.1678 150.209C81.7144 150.209 81.2544 150.269 80.7878 150.389C80.3344 150.496 79.9211 150.669 79.5478 150.909C79.1878 151.136 78.8878 151.436 78.6478 151.809C78.4211 152.182 78.3078 152.629 78.3078 153.149C78.3078 153.816 78.4744 154.336 78.8078 154.709C79.1411 155.082 79.5544 155.376 80.0478 155.589C80.5544 155.789 81.1011 155.949 81.6878 156.069C82.2744 156.176 82.8144 156.302 83.3078 156.449C83.8144 156.582 84.2344 156.762 84.5678 156.989C84.9011 157.216 85.0678 157.549 85.0678 157.989C85.0678 158.309 84.9878 158.576 84.8278 158.789C84.6678 158.989 84.4611 159.142 84.2078 159.249C83.9678 159.356 83.7011 159.429 83.4078 159.469C83.1144 159.509 82.8344 159.529 82.5678 159.529C82.2211 159.529 81.8811 159.496 81.5478 159.429C81.2278 159.362 80.9344 159.256 80.6678 159.109C80.4144 158.949 80.2078 158.742 80.0478 158.489C79.8878 158.222 79.8011 157.902 79.7878 157.529ZM103.214 155.389L104.894 149.709H103.634L103.174 150.969C102.948 150.369 102.634 149.949 102.234 149.709C101.834 149.456 101.401 149.329 100.934 149.329C100.228 149.329 99.5808 149.496 98.9942 149.829C98.4208 150.162 97.9275 150.596 97.5142 151.129C97.1142 151.662 96.8008 152.269 96.5742 152.949C96.3475 153.629 96.2342 154.316 96.2342 155.009C96.2342 155.449 96.3008 155.862 96.4342 156.249C96.5808 156.636 96.7742 156.969 97.0142 157.249C97.2675 157.529 97.5675 157.756 97.9142 157.929C98.2742 158.089 98.6675 158.169 99.0942 158.169C99.5875 158.169 100.048 158.036 100.474 157.769C100.901 157.489 101.268 157.176 101.574 156.829H101.634C101.661 157.269 101.794 157.596 102.034 157.809C102.274 158.022 102.568 158.129 102.914 158.129C103.381 158.129 103.888 157.989 104.434 157.709C104.981 157.429 105.488 157.036 105.954 156.529C106.421 156.022 106.808 155.416 107.114 154.709C107.434 153.989 107.594 153.196 107.594 152.329C107.594 151.422 107.414 150.596 107.054 149.849C106.694 149.089 106.201 148.442 105.574 147.909C104.961 147.362 104.241 146.936 103.414 146.629C102.588 146.322 101.714 146.169 100.794 146.169C99.7808 146.169 98.8208 146.362 97.9142 146.749C97.0208 147.136 96.2342 147.669 95.5542 148.349C94.8875 149.016 94.3542 149.802 93.9542 150.709C93.5675 151.602 93.3742 152.562 93.3742 153.589C93.3742 154.656 93.5675 155.649 93.9542 156.569C94.3408 157.476 94.8675 158.269 95.5342 158.949C96.2142 159.616 97.0075 160.142 97.9142 160.529C98.8342 160.916 99.8208 161.109 100.874 161.109C101.514 161.109 102.141 161.029 102.754 160.869C103.368 160.722 103.941 160.502 104.474 160.209C105.021 159.902 105.521 159.536 105.974 159.109C106.428 158.669 106.814 158.169 107.134 157.609H105.874C105.301 158.342 104.568 158.929 103.674 159.369C102.794 159.809 101.874 160.029 100.914 160.029C100.074 160.029 99.2808 159.869 98.5342 159.549C97.7875 159.216 97.1275 158.769 96.5542 158.209C95.9942 157.636 95.5475 156.962 95.2142 156.189C94.8942 155.416 94.7342 154.582 94.7342 153.689C94.7342 152.809 94.8875 151.982 95.1942 151.209C95.5142 150.436 95.9475 149.756 96.4942 149.169C97.0408 148.582 97.6808 148.122 98.4142 147.789C99.1608 147.442 99.9608 147.269 100.814 147.269C101.521 147.269 102.194 147.389 102.834 147.629C103.488 147.869 104.068 148.216 104.574 148.669C105.081 149.109 105.481 149.649 105.774 150.289C106.081 150.929 106.234 151.642 106.234 152.429C106.234 152.962 106.148 153.502 105.974 154.049C105.801 154.596 105.581 155.089 105.314 155.529C105.048 155.969 104.748 156.329 104.414 156.609C104.094 156.889 103.781 157.029 103.474 157.029C103.154 157.029 102.994 156.822 102.994 156.409C102.994 156.262 103.014 156.102 103.054 155.929C103.108 155.742 103.161 155.562 103.214 155.389ZM100.934 150.689C101.148 150.689 101.348 150.742 101.534 150.849C101.734 150.956 101.908 151.096 102.054 151.269C102.214 151.429 102.334 151.622 102.414 151.849C102.508 152.076 102.554 152.309 102.554 152.549C102.554 152.962 102.474 153.416 102.314 153.909C102.154 154.402 101.934 154.869 101.654 155.309C101.374 155.736 101.048 156.096 100.674 156.389C100.301 156.669 99.8942 156.809 99.4542 156.809C98.9475 156.809 98.5342 156.629 98.2142 156.269C97.8942 155.896 97.7342 155.429 97.7342 154.869C97.7342 154.429 97.8142 153.969 97.9742 153.489C98.1342 152.996 98.3542 152.542 98.6342 152.129C98.9142 151.716 99.2475 151.376 99.6342 151.109C100.034 150.829 100.468 150.689 100.934 150.689ZM123.417 150.689H125.217C125.19 149.902 125.037 149.229 124.757 148.669C124.49 148.096 124.117 147.622 123.637 147.249C123.17 146.876 122.623 146.602 121.997 146.429C121.37 146.256 120.69 146.169 119.957 146.169C119.303 146.169 118.663 146.256 118.037 146.429C117.423 146.589 116.87 146.842 116.377 147.189C115.897 147.522 115.51 147.956 115.217 148.489C114.923 149.009 114.777 149.629 114.777 150.349C114.777 151.002 114.903 151.549 115.157 151.989C115.423 152.416 115.77 152.769 116.197 153.049C116.637 153.316 117.13 153.536 117.677 153.709C118.223 153.869 118.777 154.016 119.337 154.149C119.91 154.269 120.47 154.389 121.017 154.509C121.563 154.629 122.05 154.789 122.477 154.989C122.917 155.176 123.263 155.422 123.517 155.729C123.783 156.036 123.917 156.436 123.917 156.929C123.917 157.449 123.81 157.876 123.597 158.209C123.383 158.542 123.103 158.809 122.757 159.009C122.41 159.196 122.017 159.329 121.577 159.409C121.15 159.489 120.723 159.529 120.297 159.529C119.763 159.529 119.243 159.462 118.737 159.329C118.23 159.196 117.783 158.989 117.397 158.709C117.023 158.429 116.717 158.076 116.477 157.649C116.25 157.209 116.137 156.689 116.137 156.089H114.337C114.337 156.956 114.49 157.709 114.797 158.349C115.117 158.976 115.543 159.496 116.077 159.909C116.623 160.309 117.25 160.609 117.957 160.809C118.677 161.009 119.437 161.109 120.237 161.109C120.89 161.109 121.543 161.029 122.197 160.869C122.863 160.722 123.463 160.482 123.997 160.149C124.53 159.802 124.963 159.362 125.297 158.829C125.643 158.282 125.817 157.629 125.817 156.869C125.817 156.162 125.683 155.576 125.417 155.109C125.163 154.642 124.817 154.256 124.377 153.949C123.95 153.642 123.463 153.402 122.917 153.229C122.37 153.042 121.81 152.882 121.237 152.749C120.677 152.616 120.123 152.496 119.577 152.389C119.03 152.269 118.537 152.122 118.097 151.949C117.67 151.776 117.323 151.556 117.057 151.289C116.803 151.009 116.677 150.649 116.677 150.209C116.677 149.742 116.763 149.356 116.937 149.049C117.123 148.729 117.363 148.476 117.657 148.289C117.963 148.102 118.31 147.969 118.697 147.889C119.083 147.809 119.477 147.769 119.877 147.769C120.863 147.769 121.67 148.002 122.297 148.469C122.937 148.922 123.31 149.662 123.417 150.689ZM127.655 150.449V164.729H129.355V159.409H129.395C129.582 159.716 129.809 159.976 130.075 160.189C130.355 160.389 130.649 160.549 130.955 160.669C131.262 160.789 131.569 160.876 131.875 160.929C132.195 160.982 132.482 161.009 132.735 161.009C133.522 161.009 134.209 160.869 134.795 160.589C135.395 160.309 135.889 159.929 136.275 159.449C136.675 158.956 136.969 158.382 137.155 157.729C137.355 157.076 137.455 156.382 137.455 155.649C137.455 154.916 137.355 154.222 137.155 153.569C136.955 152.916 136.655 152.342 136.255 151.849C135.869 151.342 135.375 150.942 134.775 150.649C134.189 150.356 133.495 150.209 132.695 150.209C131.975 150.209 131.315 150.342 130.715 150.609C130.115 150.862 129.675 151.276 129.395 151.849H129.355V150.449H127.655ZM135.655 155.529C135.655 156.036 135.602 156.529 135.495 157.009C135.389 157.489 135.215 157.916 134.975 158.289C134.735 158.662 134.415 158.962 134.015 159.189C133.629 159.416 133.142 159.529 132.555 159.529C131.969 159.529 131.469 159.422 131.055 159.209C130.642 158.982 130.302 158.689 130.035 158.329C129.782 157.969 129.595 157.556 129.475 157.089C129.355 156.609 129.295 156.116 129.295 155.609C129.295 155.129 129.349 154.656 129.455 154.189C129.575 153.722 129.762 153.309 130.015 152.949C130.269 152.576 130.595 152.276 130.995 152.049C131.395 151.822 131.882 151.709 132.455 151.709C133.002 151.709 133.475 151.816 133.875 152.029C134.289 152.242 134.622 152.529 134.875 152.889C135.142 153.249 135.335 153.662 135.455 154.129C135.589 154.582 135.655 155.049 135.655 155.529ZM140.441 155.629C140.441 155.002 140.521 154.449 140.681 153.969C140.854 153.476 141.088 153.062 141.381 152.729C141.674 152.396 142.014 152.142 142.401 151.969C142.801 151.796 143.221 151.709 143.661 151.709C144.101 151.709 144.514 151.796 144.901 151.969C145.301 152.142 145.648 152.396 145.941 152.729C146.234 153.062 146.461 153.476 146.621 153.969C146.794 154.449 146.881 155.002 146.881 155.629C146.881 156.256 146.794 156.816 146.621 157.309C146.461 157.789 146.234 158.196 145.941 158.529C145.648 158.849 145.301 159.096 144.901 159.269C144.514 159.442 144.101 159.529 143.661 159.529C143.221 159.529 142.801 159.442 142.401 159.269C142.014 159.096 141.674 158.849 141.381 158.529C141.088 158.196 140.854 157.789 140.681 157.309C140.521 156.816 140.441 156.256 140.441 155.629ZM138.641 155.629C138.641 156.389 138.748 157.096 138.961 157.749C139.174 158.402 139.494 158.976 139.921 159.469C140.348 159.949 140.874 160.329 141.501 160.609C142.128 160.876 142.848 161.009 143.661 161.009C144.488 161.009 145.208 160.876 145.821 160.609C146.448 160.329 146.974 159.949 147.401 159.469C147.828 158.976 148.148 158.402 148.361 157.749C148.574 157.096 148.681 156.389 148.681 155.629C148.681 154.869 148.574 154.162 148.361 153.509C148.148 152.842 147.828 152.269 147.401 151.789C146.974 151.296 146.448 150.909 145.821 150.629C145.208 150.349 144.488 150.209 143.661 150.209C142.848 150.209 142.128 150.349 141.501 150.629C140.874 150.909 140.348 151.296 139.921 151.789C139.494 152.269 139.174 152.842 138.961 153.509C138.748 154.162 138.641 154.869 138.641 155.629ZM152.795 150.449V147.349H151.095V150.449H149.335V151.949H151.095V158.529C151.095 159.009 151.142 159.396 151.235 159.689C151.329 159.982 151.469 160.209 151.655 160.369C151.855 160.529 152.109 160.642 152.415 160.709C152.735 160.762 153.115 160.789 153.555 160.789H154.855V159.289H154.075C153.809 159.289 153.589 159.282 153.415 159.269C153.255 159.242 153.129 159.196 153.035 159.129C152.942 159.062 152.875 158.969 152.835 158.849C152.809 158.729 152.795 158.569 152.795 158.369V151.949H154.855V150.449H152.795ZM158.294 148.589V146.509H156.594V148.589H158.294ZM156.594 150.449V160.789H158.294V150.449H156.594ZM161.377 151.949V160.789H163.077V151.949H165.077V150.449H163.077V149.009C163.077 148.556 163.191 148.249 163.417 148.089C163.644 147.929 163.964 147.849 164.377 147.849C164.524 147.849 164.684 147.862 164.857 147.889C165.031 147.902 165.191 147.936 165.337 147.989V146.509C165.177 146.456 164.991 146.416 164.777 146.389C164.577 146.362 164.397 146.349 164.237 146.349C163.304 146.349 162.591 146.569 162.097 147.009C161.617 147.436 161.377 148.069 161.377 148.909V150.449H159.637V151.949H161.377ZM170.405 162.169C170.205 162.676 170.005 163.102 169.805 163.449C169.619 163.796 169.405 164.076 169.165 164.289C168.939 164.516 168.679 164.676 168.385 164.769C168.105 164.876 167.779 164.929 167.405 164.929C167.205 164.929 167.005 164.916 166.805 164.889C166.605 164.862 166.412 164.816 166.225 164.749V163.189C166.372 163.256 166.539 163.309 166.725 163.349C166.925 163.402 167.092 163.429 167.225 163.429C167.572 163.429 167.859 163.342 168.085 163.169C168.325 163.009 168.505 162.776 168.625 162.469L169.325 160.729L165.225 150.449H167.145L170.165 158.909H170.205L173.105 150.449H174.905L170.405 162.169ZM43.464 180.789V170.449H41.764V176.289C41.764 176.756 41.6974 177.189 41.564 177.589C41.444 177.976 41.2574 178.316 41.004 178.609C40.7507 178.902 40.4307 179.129 40.044 179.289C39.6707 179.449 39.224 179.529 38.704 179.529C38.0507 179.529 37.5374 179.342 37.164 178.969C36.7907 178.596 36.604 178.089 36.604 177.449V170.449H34.904V177.249C34.904 177.809 34.9574 178.322 35.064 178.789C35.184 179.242 35.384 179.636 35.664 179.969C35.944 180.302 36.3107 180.562 36.764 180.749C37.2174 180.922 37.784 181.009 38.464 181.009C39.224 181.009 39.884 180.862 40.444 180.569C41.004 180.262 41.464 179.789 41.824 179.149H41.864V180.789H43.464ZM46.8073 177.529H45.1073C45.134 178.169 45.2673 178.716 45.5073 179.169C45.7473 179.609 46.0673 179.969 46.4673 180.249C46.8673 180.516 47.3273 180.709 47.8473 180.829C48.3673 180.949 48.914 181.009 49.4873 181.009C50.0073 181.009 50.5273 180.956 51.0473 180.849C51.5806 180.756 52.054 180.582 52.4673 180.329C52.894 180.076 53.234 179.742 53.4873 179.329C53.754 178.916 53.8873 178.396 53.8873 177.769C53.8873 177.276 53.7873 176.862 53.5873 176.529C53.4006 176.196 53.1473 175.922 52.8273 175.709C52.5206 175.482 52.1606 175.302 51.7473 175.169C51.3473 175.036 50.934 174.922 50.5073 174.829C50.1073 174.736 49.7073 174.649 49.3073 174.569C48.9073 174.476 48.5473 174.369 48.2273 174.249C47.9073 174.116 47.6406 173.956 47.4273 173.769C47.2273 173.569 47.1273 173.322 47.1273 173.029C47.1273 172.762 47.194 172.549 47.3273 172.389C47.4606 172.216 47.634 172.082 47.8473 171.989C48.0606 171.882 48.294 171.809 48.5473 171.769C48.814 171.729 49.074 171.709 49.3273 171.709C49.6073 171.709 49.8806 171.742 50.1473 171.809C50.4273 171.862 50.6806 171.956 50.9073 172.089C51.134 172.222 51.3206 172.402 51.4673 172.629C51.614 172.842 51.7006 173.116 51.7273 173.449H53.4273C53.3873 172.822 53.254 172.302 53.0273 171.889C52.8006 171.462 52.494 171.129 52.1073 170.889C51.734 170.636 51.3006 170.462 50.8073 170.369C50.314 170.262 49.774 170.209 49.1873 170.209C48.734 170.209 48.274 170.269 47.8073 170.389C47.354 170.496 46.9406 170.669 46.5673 170.909C46.2073 171.136 45.9073 171.436 45.6673 171.809C45.4406 172.182 45.3273 172.629 45.3273 173.149C45.3273 173.816 45.494 174.336 45.8273 174.709C46.1606 175.082 46.574 175.376 47.0673 175.589C47.574 175.789 48.1206 175.949 48.7073 176.069C49.294 176.176 49.834 176.302 50.3273 176.449C50.834 176.582 51.254 176.762 51.5873 176.989C51.9206 177.216 52.0873 177.549 52.0873 177.989C52.0873 178.309 52.0073 178.576 51.8473 178.789C51.6873 178.989 51.4806 179.142 51.2273 179.249C50.9873 179.356 50.7206 179.429 50.4273 179.469C50.134 179.509 49.854 179.529 49.5873 179.529C49.2406 179.529 48.9006 179.496 48.5673 179.429C48.2473 179.362 47.954 179.256 47.6873 179.109C47.434 178.949 47.2273 178.742 47.0673 178.489C46.9073 178.222 46.8206 177.902 46.8073 177.529ZM57.3173 168.589V166.509H55.6173V168.589H57.3173ZM55.6173 170.449V180.789H57.3173V170.449H55.6173ZM59.7009 170.449V180.789H61.4009V174.949C61.4009 174.482 61.4609 174.056 61.5809 173.669C61.7142 173.269 61.9076 172.922 62.1609 172.629C62.4142 172.336 62.7276 172.109 63.1009 171.949C63.4876 171.789 63.9409 171.709 64.4609 171.709C65.1142 171.709 65.6276 171.896 66.0009 172.269C66.3742 172.642 66.5609 173.149 66.5609 173.789V180.789H68.2609V173.989C68.2609 173.429 68.2009 172.922 68.0809 172.469C67.9742 172.002 67.7809 171.602 67.5009 171.269C67.2209 170.936 66.8542 170.676 66.4009 170.489C65.9476 170.302 65.3809 170.209 64.7009 170.209C63.1676 170.209 62.0476 170.836 61.3409 172.089H61.3009V170.449H59.7009ZM79.4842 179.909V170.449H77.8842V171.929H77.8642C77.5575 171.356 77.1308 170.929 76.5842 170.649C76.0375 170.356 75.4375 170.209 74.7842 170.209C73.8908 170.209 73.1375 170.382 72.5242 170.729C71.9108 171.062 71.4175 171.496 71.0442 172.029C70.6708 172.549 70.4042 173.136 70.2442 173.789C70.0842 174.429 70.0042 175.056 70.0042 175.669C70.0042 176.376 70.0975 177.049 70.2842 177.689C70.4842 178.316 70.7775 178.869 71.1642 179.349C71.5508 179.816 72.0308 180.189 72.6042 180.469C73.1775 180.749 73.8508 180.889 74.6242 180.889C75.2908 180.889 75.9175 180.742 76.5042 180.449C77.1042 180.142 77.5508 179.669 77.8442 179.029H77.8842V179.709C77.8842 180.282 77.8242 180.809 77.7042 181.289C77.5975 181.769 77.4175 182.176 77.1642 182.509C76.9108 182.856 76.5908 183.122 76.2042 183.309C75.8175 183.509 75.3442 183.609 74.7842 183.609C74.5042 183.609 74.2108 183.576 73.9042 183.509C73.5975 183.456 73.3108 183.362 73.0442 183.229C72.7908 183.096 72.5708 182.922 72.3842 182.709C72.2108 182.496 72.1175 182.236 72.1042 181.929H70.4042C70.4308 182.489 70.5775 182.962 70.8442 183.349C71.1108 183.736 71.4442 184.049 71.8442 184.289C72.2575 184.529 72.7108 184.702 73.2042 184.809C73.7108 184.916 74.2042 184.969 74.6842 184.969C76.3375 184.969 77.5508 184.549 78.3242 183.709C79.0975 182.869 79.4842 181.602 79.4842 179.909ZM74.7242 179.409C74.1642 179.409 73.6975 179.296 73.3242 179.069C72.9508 178.829 72.6508 178.522 72.4242 178.149C72.1975 177.762 72.0375 177.336 71.9442 176.869C71.8508 176.402 71.8042 175.936 71.8042 175.469C71.8042 174.976 71.8575 174.502 71.9642 174.049C72.0842 173.596 72.2642 173.196 72.5042 172.849C72.7575 172.502 73.0775 172.229 73.4642 172.029C73.8508 171.816 74.3175 171.709 74.8642 171.709C75.3975 171.709 75.8508 171.816 76.2242 172.029C76.5975 172.242 76.8975 172.529 77.1242 172.889C77.3642 173.236 77.5375 173.629 77.6442 174.069C77.7508 174.509 77.8042 174.956 77.8042 175.409C77.8042 175.889 77.7442 176.369 77.6242 176.849C77.5175 177.329 77.3442 177.762 77.1042 178.149C76.8642 178.522 76.5442 178.829 76.1442 179.069C75.7575 179.296 75.2842 179.409 74.7242 179.409ZM89.295 172.649V168.109H93.095C93.5083 168.109 93.895 168.136 94.255 168.189C94.6283 168.229 94.955 168.329 95.235 168.489C95.515 168.649 95.735 168.876 95.895 169.169C96.055 169.462 96.135 169.862 96.135 170.369C96.135 171.129 95.895 171.702 95.415 172.089C94.9483 172.462 94.175 172.649 93.095 172.649H89.295ZM87.395 166.509V180.789H94.295C95.0016 180.789 95.6216 180.676 96.155 180.449C96.7016 180.209 97.155 179.902 97.515 179.529C97.8883 179.142 98.1683 178.702 98.355 178.209C98.5416 177.716 98.635 177.209 98.635 176.689C98.635 175.809 98.4016 175.062 97.935 174.449C97.4683 173.836 96.795 173.436 95.915 173.249V173.209C96.595 172.942 97.115 172.536 97.475 171.989C97.8483 171.429 98.035 170.769 98.035 170.009C98.035 169.289 97.8683 168.682 97.535 168.189C97.215 167.696 96.8216 167.309 96.355 167.029C96.1416 166.896 95.8816 166.796 95.575 166.729C95.2816 166.662 94.9616 166.616 94.615 166.589C94.2683 166.549 93.915 166.529 93.555 166.529C93.2083 166.516 92.8816 166.509 92.575 166.509H87.395ZM89.295 179.189V174.249H93.635C94.035 174.249 94.4216 174.289 94.795 174.369C95.1683 174.436 95.495 174.562 95.775 174.749C96.0683 174.922 96.3016 175.162 96.475 175.469C96.6483 175.776 96.735 176.162 96.735 176.629C96.735 177.429 96.495 178.056 96.015 178.509C95.5483 178.962 94.895 179.189 94.055 179.189H89.295ZM109.716 180.749C109.423 180.922 109.016 181.009 108.496 181.009C108.056 181.009 107.703 180.889 107.436 180.649C107.183 180.396 107.056 179.989 107.056 179.429C106.59 179.989 106.043 180.396 105.416 180.649C104.803 180.889 104.136 181.009 103.416 181.009C102.95 181.009 102.503 180.956 102.076 180.849C101.663 180.742 101.303 180.576 100.996 180.349C100.69 180.122 100.443 179.829 100.256 179.469C100.083 179.096 99.9964 178.649 99.9964 178.129C99.9964 177.542 100.096 177.062 100.296 176.689C100.496 176.316 100.756 176.016 101.076 175.789C101.41 175.549 101.783 175.369 102.196 175.249C102.623 175.129 103.056 175.029 103.496 174.949C103.963 174.856 104.403 174.789 104.816 174.749C105.243 174.696 105.616 174.629 105.936 174.549C106.256 174.456 106.51 174.329 106.696 174.169C106.883 173.996 106.976 173.749 106.976 173.429C106.976 173.056 106.903 172.756 106.756 172.529C106.623 172.302 106.443 172.129 106.216 172.009C106.003 171.889 105.756 171.809 105.476 171.769C105.21 171.729 104.943 171.709 104.676 171.709C103.956 171.709 103.356 171.849 102.876 172.129C102.396 172.396 102.136 172.909 102.096 173.669H100.396C100.423 173.029 100.556 172.489 100.796 172.049C101.036 171.609 101.356 171.256 101.756 170.989C102.156 170.709 102.61 170.509 103.116 170.389C103.636 170.269 104.19 170.209 104.776 170.209C105.243 170.209 105.703 170.242 106.156 170.309C106.623 170.376 107.043 170.516 107.416 170.729C107.79 170.929 108.09 171.216 108.316 171.589C108.543 171.962 108.656 172.449 108.656 173.049V178.369C108.656 178.769 108.676 179.062 108.716 179.249C108.77 179.436 108.93 179.529 109.196 179.529C109.343 179.529 109.516 179.496 109.716 179.429V180.749ZM106.956 175.449C106.743 175.609 106.463 175.729 106.116 175.809C105.77 175.876 105.403 175.936 105.016 175.989C104.643 176.029 104.263 176.082 103.876 176.149C103.49 176.202 103.143 176.296 102.836 176.429C102.53 176.562 102.276 176.756 102.076 177.009C101.89 177.249 101.796 177.582 101.796 178.009C101.796 178.289 101.85 178.529 101.956 178.729C102.076 178.916 102.223 179.069 102.396 179.189C102.583 179.309 102.796 179.396 103.036 179.449C103.276 179.502 103.53 179.529 103.796 179.529C104.356 179.529 104.836 179.456 105.236 179.309C105.636 179.149 105.963 178.956 106.216 178.729C106.47 178.489 106.656 178.236 106.776 177.969C106.896 177.689 106.956 177.429 106.956 177.189V175.449ZM118.069 173.769H119.829C119.762 173.156 119.602 172.629 119.349 172.189C119.095 171.736 118.769 171.362 118.369 171.069C117.982 170.776 117.529 170.562 117.009 170.429C116.502 170.282 115.955 170.209 115.369 170.209C114.555 170.209 113.842 170.356 113.229 170.649C112.615 170.929 112.102 171.322 111.689 171.829C111.289 172.322 110.989 172.909 110.789 173.589C110.589 174.256 110.489 174.976 110.489 175.749C110.489 176.522 110.589 177.236 110.789 177.889C111.002 178.529 111.309 179.082 111.709 179.549C112.122 180.016 112.629 180.376 113.229 180.629C113.842 180.882 114.542 181.009 115.329 181.009C116.649 181.009 117.689 180.662 118.449 179.969C119.222 179.276 119.702 178.289 119.889 177.009H118.149C118.042 177.809 117.749 178.429 117.269 178.869C116.802 179.309 116.149 179.529 115.309 179.529C114.775 179.529 114.315 179.422 113.929 179.209C113.542 178.996 113.229 178.716 112.989 178.369C112.749 178.009 112.569 177.602 112.449 177.149C112.342 176.696 112.289 176.229 112.289 175.749C112.289 175.229 112.342 174.729 112.449 174.249C112.555 173.756 112.729 173.322 112.969 172.949C113.222 172.576 113.555 172.276 113.969 172.049C114.382 171.822 114.895 171.709 115.509 171.709C116.229 171.709 116.802 171.889 117.229 172.249C117.655 172.609 117.935 173.116 118.069 173.769ZM121.641 166.509V180.789H123.341V176.869L124.941 175.389L128.481 180.789H130.641L126.241 174.209L130.341 170.449H128.061L123.341 174.969V166.509H121.641ZM132.702 177.529H131.002C131.029 178.169 131.162 178.716 131.402 179.169C131.642 179.609 131.962 179.969 132.362 180.249C132.762 180.516 133.222 180.709 133.742 180.829C134.262 180.949 134.809 181.009 135.382 181.009C135.902 181.009 136.422 180.956 136.942 180.849C137.475 180.756 137.949 180.582 138.362 180.329C138.789 180.076 139.129 179.742 139.382 179.329C139.649 178.916 139.782 178.396 139.782 177.769C139.782 177.276 139.682 176.862 139.482 176.529C139.295 176.196 139.042 175.922 138.722 175.709C138.415 175.482 138.055 175.302 137.642 175.169C137.242 175.036 136.829 174.922 136.402 174.829C136.002 174.736 135.602 174.649 135.202 174.569C134.802 174.476 134.442 174.369 134.122 174.249C133.802 174.116 133.535 173.956 133.322 173.769C133.122 173.569 133.022 173.322 133.022 173.029C133.022 172.762 133.089 172.549 133.222 172.389C133.355 172.216 133.529 172.082 133.742 171.989C133.955 171.882 134.189 171.809 134.442 171.769C134.709 171.729 134.969 171.709 135.222 171.709C135.502 171.709 135.775 171.742 136.042 171.809C136.322 171.862 136.575 171.956 136.802 172.089C137.029 172.222 137.215 172.402 137.362 172.629C137.509 172.842 137.595 173.116 137.622 173.449H139.322C139.282 172.822 139.149 172.302 138.922 171.889C138.695 171.462 138.389 171.129 138.002 170.889C137.629 170.636 137.195 170.462 136.702 170.369C136.209 170.262 135.669 170.209 135.082 170.209C134.629 170.209 134.169 170.269 133.702 170.389C133.249 170.496 132.835 170.669 132.462 170.909C132.102 171.136 131.802 171.436 131.562 171.809C131.335 172.182 131.222 172.629 131.222 173.149C131.222 173.816 131.389 174.336 131.722 174.709C132.055 175.082 132.469 175.376 132.962 175.589C133.469 175.789 134.015 175.949 134.602 176.069C135.189 176.176 135.729 176.302 136.222 176.449C136.729 176.582 137.149 176.762 137.482 176.989C137.815 177.216 137.982 177.549 137.982 177.989C137.982 178.309 137.902 178.576 137.742 178.789C137.582 178.989 137.375 179.142 137.122 179.249C136.882 179.356 136.615 179.429 136.322 179.469C136.029 179.509 135.749 179.529 135.482 179.529C135.135 179.529 134.795 179.496 134.462 179.429C134.142 179.362 133.849 179.256 133.582 179.109C133.329 178.949 133.122 178.742 132.962 178.489C132.802 178.222 132.715 177.902 132.702 177.529ZM143.772 170.449V167.349H142.072V170.449H140.312V171.949H142.072V178.529C142.072 179.009 142.119 179.396 142.212 179.689C142.305 179.982 142.445 180.209 142.632 180.369C142.832 180.529 143.085 180.642 143.392 180.709C143.712 180.762 144.092 180.789 144.532 180.789H145.832V179.289H145.052C144.785 179.289 144.565 179.282 144.392 179.269C144.232 179.242 144.105 179.196 144.012 179.129C143.919 179.062 143.852 178.969 143.812 178.849C143.785 178.729 143.772 178.569 143.772 178.369V171.949H145.832V170.449H143.772ZM156.63 180.749C156.337 180.922 155.93 181.009 155.41 181.009C154.97 181.009 154.617 180.889 154.35 180.649C154.097 180.396 153.97 179.989 153.97 179.429C153.504 179.989 152.957 180.396 152.33 180.649C151.717 180.889 151.05 181.009 150.33 181.009C149.864 181.009 149.417 180.956 148.99 180.849C148.577 180.742 148.217 180.576 147.91 180.349C147.604 180.122 147.357 179.829 147.17 179.469C146.997 179.096 146.91 178.649 146.91 178.129C146.91 177.542 147.01 177.062 147.21 176.689C147.41 176.316 147.67 176.016 147.99 175.789C148.324 175.549 148.697 175.369 149.11 175.249C149.537 175.129 149.97 175.029 150.41 174.949C150.877 174.856 151.317 174.789 151.73 174.749C152.157 174.696 152.53 174.629 152.85 174.549C153.17 174.456 153.424 174.329 153.61 174.169C153.797 173.996 153.89 173.749 153.89 173.429C153.89 173.056 153.817 172.756 153.67 172.529C153.537 172.302 153.357 172.129 153.13 172.009C152.917 171.889 152.67 171.809 152.39 171.769C152.124 171.729 151.857 171.709 151.59 171.709C150.87 171.709 150.27 171.849 149.79 172.129C149.31 172.396 149.05 172.909 149.01 173.669H147.31C147.337 173.029 147.47 172.489 147.71 172.049C147.95 171.609 148.27 171.256 148.67 170.989C149.07 170.709 149.524 170.509 150.03 170.389C150.55 170.269 151.104 170.209 151.69 170.209C152.157 170.209 152.617 170.242 153.07 170.309C153.537 170.376 153.957 170.516 154.33 170.729C154.704 170.929 155.004 171.216 155.23 171.589C155.457 171.962 155.57 172.449 155.57 173.049V178.369C155.57 178.769 155.59 179.062 155.63 179.249C155.684 179.436 155.844 179.529 156.11 179.529C156.257 179.529 156.43 179.496 156.63 179.429V180.749ZM153.87 175.449C153.657 175.609 153.377 175.729 153.03 175.809C152.684 175.876 152.317 175.936 151.93 175.989C151.557 176.029 151.177 176.082 150.79 176.149C150.404 176.202 150.057 176.296 149.75 176.429C149.444 176.562 149.19 176.756 148.99 177.009C148.804 177.249 148.71 177.582 148.71 178.009C148.71 178.289 148.764 178.529 148.87 178.729C148.99 178.916 149.137 179.069 149.31 179.189C149.497 179.309 149.71 179.396 149.95 179.449C150.19 179.502 150.444 179.529 150.71 179.529C151.27 179.529 151.75 179.456 152.15 179.309C152.55 179.149 152.877 178.956 153.13 178.729C153.384 178.489 153.57 178.236 153.69 177.969C153.81 177.689 153.87 177.429 153.87 177.189V175.449ZM166.883 179.909V170.449H165.283V171.929H165.263C164.956 171.356 164.529 170.929 163.983 170.649C163.436 170.356 162.836 170.209 162.183 170.209C161.289 170.209 160.536 170.382 159.923 170.729C159.309 171.062 158.816 171.496 158.443 172.029C158.069 172.549 157.803 173.136 157.643 173.789C157.483 174.429 157.403 175.056 157.403 175.669C157.403 176.376 157.496 177.049 157.683 177.689C157.883 178.316 158.176 178.869 158.563 179.349C158.949 179.816 159.429 180.189 160.003 180.469C160.576 180.749 161.249 180.889 162.023 180.889C162.689 180.889 163.316 180.742 163.903 180.449C164.503 180.142 164.949 179.669 165.243 179.029H165.283V179.709C165.283 180.282 165.223 180.809 165.103 181.289C164.996 181.769 164.816 182.176 164.563 182.509C164.309 182.856 163.989 183.122 163.603 183.309C163.216 183.509 162.743 183.609 162.183 183.609C161.903 183.609 161.609 183.576 161.303 183.509C160.996 183.456 160.709 183.362 160.443 183.229C160.189 183.096 159.969 182.922 159.783 182.709C159.609 182.496 159.516 182.236 159.503 181.929H157.803C157.829 182.489 157.976 182.962 158.243 183.349C158.509 183.736 158.843 184.049 159.243 184.289C159.656 184.529 160.109 184.702 160.603 184.809C161.109 184.916 161.603 184.969 162.083 184.969C163.736 184.969 164.949 184.549 165.723 183.709C166.496 182.869 166.883 181.602 166.883 179.909ZM162.123 179.409C161.563 179.409 161.096 179.296 160.723 179.069C160.349 178.829 160.049 178.522 159.823 178.149C159.596 177.762 159.436 177.336 159.343 176.869C159.249 176.402 159.203 175.936 159.203 175.469C159.203 174.976 159.256 174.502 159.363 174.049C159.483 173.596 159.663 173.196 159.903 172.849C160.156 172.502 160.476 172.229 160.863 172.029C161.249 171.816 161.716 171.709 162.263 171.709C162.796 171.709 163.249 171.816 163.623 172.029C163.996 172.242 164.296 172.529 164.523 172.889C164.763 173.236 164.936 173.629 165.043 174.069C165.149 174.509 165.203 174.956 165.203 175.409C165.203 175.889 165.143 176.369 165.023 176.849C164.916 177.329 164.743 177.762 164.503 178.149C164.263 178.522 163.943 178.829 163.543 179.069C163.156 179.296 162.683 179.409 162.123 179.409ZM176.377 174.629H170.437C170.464 174.229 170.55 173.856 170.697 173.509C170.844 173.149 171.044 172.836 171.297 172.569C171.55 172.302 171.85 172.096 172.197 171.949C172.557 171.789 172.957 171.709 173.397 171.709C173.824 171.709 174.21 171.789 174.557 171.949C174.917 172.096 175.224 172.302 175.477 172.569C175.744 172.822 175.95 173.129 176.097 173.489C176.257 173.849 176.35 174.229 176.377 174.629ZM178.017 177.509H176.337C176.19 178.189 175.884 178.696 175.417 179.029C174.964 179.362 174.377 179.529 173.657 179.529C173.097 179.529 172.61 179.436 172.197 179.249C171.784 179.062 171.444 178.816 171.177 178.509C170.91 178.189 170.717 177.829 170.597 177.429C170.477 177.016 170.424 176.582 170.437 176.129H178.177C178.204 175.502 178.144 174.842 177.997 174.149C177.864 173.456 177.61 172.816 177.237 172.229C176.877 171.642 176.39 171.162 175.777 170.789C175.177 170.402 174.417 170.209 173.497 170.209C172.79 170.209 172.137 170.342 171.537 170.609C170.95 170.876 170.437 171.249 169.997 171.729C169.57 172.209 169.237 172.776 168.997 173.429C168.757 174.082 168.637 174.802 168.637 175.589C168.664 176.376 168.777 177.102 168.977 177.769C169.19 178.436 169.504 179.009 169.917 179.489C170.33 179.969 170.837 180.342 171.437 180.609C172.05 180.876 172.77 181.009 173.597 181.009C174.77 181.009 175.744 180.716 176.517 180.129C177.29 179.542 177.79 178.669 178.017 177.509Z" fill="#BDBDBD"/>
<defs>
<filter id="filter0_d" x="0.229492" y="0.279297" width="319.879" height="233.692" filterUnits="userSpaceOnUse" color-interpolation-filters="sRGB">
<feFlood flood-opacity="0" result="BackgroundImageFix"/>
<feColorMatrix in="SourceAlpha" type="matrix" values="0 0 0 0 0 0 0 0 0 0 0 0 0 0 0 0 0 0 127 0"/>
<feOffset dx="8" dy="8"/>
<feGaussianBlur stdDeviation="12.5"/>
<feColorMatrix type="matrix" values="0 0 0 0 0 0 0 0 0 0 0 0 0 0 0 0 0 0 0.7 0"/>
<feBlend mode="normal" in2="BackgroundImageFix" result="effect1_dropShadow"/>
<feBlend mode="normal" in="SourceGraphic" in2="effect1_dropShadow" result="shape"/>
</filter>
<linearGradient id="paint0_linear" x1="17.2295" y1="114.357" x2="388.624" y2="114.357" gradientUnits="userSpaceOnUse">
<stop stop-color="#181818"/>
<stop offset="1" stop-color="#282828"/>
</linearGradient>
</defs>
</svg>
