<svg width="557" height="285" viewBox="0 0 557 285" fill="none" xmlns="http://www.w3.org/2000/svg">
<g filter="url(#filter0_d)">
<rect width="136.743" height="176.012" rx="22" transform="matrix(-0.971919 0.235317 0 1 545.902 3)" fill="url(#paint0_linear)"/>
</g>
<rect width="90.3463" height="5.60995" rx="2.80498" transform="matrix(-0.962455 0.27144 0 1 530.275 59.0654)" fill="#C4C4C4"/>
<rect width="72.9294" height="5.60995" rx="2.80498" transform="matrix(-0.962455 0.27144 0 1 502.002 81.1807)" fill="#9AEEDF"/>
<rect width="84.8505" height="6.31119" rx="3.1556" transform="matrix(-0.962455 0.27144 0 1 525.275 47.04)" fill="#C4C4C4"/>
<rect width="44.1784" height="5.60995" rx="2.80498" transform="matrix(-0.962455 0.27144 0 1 475.002 48.21)" fill="#9BF0E1"/>
<rect width="56.8007" height="5.60995" rx="2.80498" transform="matrix(-0.962455 0.27144 0 1 486.67 32)" fill="#F037A5"/>
<rect width="46.6303" height="5.60995" rx="2.80498" transform="matrix(-0.962455 0.27144 0 1 477.002 101.804)" fill="#F037A5"/>
<path d="M414.657 241.864V259H418.425V241.864H414.657ZM425.253 255.832V245.032H427.941C428.869 245.032 429.645 245.168 430.269 245.44C430.909 245.696 431.421 246.072 431.805 246.568C432.189 247.064 432.461 247.664 432.621 248.368C432.797 249.056 432.885 249.832 432.885 250.696C432.885 251.64 432.765 252.44 432.525 253.096C432.285 253.752 431.965 254.288 431.565 254.704C431.165 255.104 430.709 255.392 430.197 255.568C429.685 255.744 429.157 255.832 428.613 255.832H425.253ZM421.485 241.864V259H428.877C430.189 259 431.325 258.784 432.285 258.352C433.261 257.904 434.069 257.296 434.709 256.528C435.365 255.76 435.853 254.848 436.173 253.792C436.493 252.736 436.653 251.584 436.653 250.336C436.653 248.912 436.453 247.672 436.053 246.616C435.669 245.56 435.125 244.68 434.421 243.976C433.733 243.272 432.909 242.744 431.949 242.392C431.005 242.04 429.981 241.864 428.877 241.864H421.485ZM439.024 241.864V259H452.032V255.832H442.792V251.632H451.096V248.704H442.792V245.032H451.84V241.864H439.024Z" fill="white"/>
<g filter="url(#filter1_d)">
<rect width="136.743" height="176.012" rx="22" transform="matrix(-0.965926 0.258819 0 1 341.084 1)" fill="url(#paint1_linear)"/>
</g>
<rect width="13.1222" height="13.1222" transform="matrix(-0.965926 0.258819 0 1 325.951 100.123)" fill="#388AED"/>
<rect width="13.1222" height="13.1222" transform="matrix(-0.965926 0.258819 0 1 309.822 121.16)" fill="#388AED"/>
<rect width="13.1222" height="13.1222" transform="matrix(-0.965926 0.258819 0 1 309.822 104.33)" fill="#388AED"/>
<rect width="13.1222" height="13.1222" transform="matrix(-0.965926 0.258819 0 1 293.694 125.367)" fill="#88BEFF"/>
<rect width="13.1222" height="13.1222" transform="matrix(-0.965926 0.258819 0 1 293.694 108.538)" fill="#88BEFF"/>
<rect width="13.1222" height="13.1222" transform="matrix(-0.965926 0.258819 0 1 309.822 137.99)" fill="#88BEFF"/>
<rect width="13.1222" height="13.1222" transform="matrix(-0.965926 0.258819 0 1 309.822 154.82)" fill="#388AED"/>
<rect width="13.1222" height="13.1222" transform="matrix(-0.965926 0.258819 0 1 325.951 150.612)" fill="#88BEFF"/>
<rect width="13.1222" height="13.1222" transform="matrix(-0.965926 0.258819 0 1 325.951 133.782)" fill="#388AED"/>
<rect width="13.1222" height="13.1222" transform="matrix(-0.965926 0.258819 0 1 325.951 116.953)" fill="#388AED"/>
<rect width="13.1222" height="13.1222" transform="matrix(-0.965926 0.258819 0 1 309.822 70.6707)" fill="#388AED"/>
<rect width="13.1222" height="13.1222" transform="matrix(-0.965926 0.258819 0 1 309.822 87.5004)" fill="#388AED"/>
<rect width="13.1222" height="13.1222" transform="matrix(-0.965926 0.258819 0 1 325.951 83.2928)" fill="#388AED"/>
<rect width="13.1222" height="13.1222" transform="matrix(-0.965926 0.258819 0 1 325.951 65.7617)" fill="#88BEFF"/>
<rect width="13.1222" height="13.1222" transform="matrix(-0.965926 0.258819 0 1 293.694 91.7079)" fill="#388AED"/>
<rect width="13.1222" height="13.1222" transform="matrix(-0.965926 0.258819 0 1 261.437 133.782)" fill="#388AED"/>
<rect width="13.1222" height="13.1222" transform="matrix(-0.965926 0.258819 0 1 261.437 167.442)" fill="#88BEFF"/>
<rect width="13.1222" height="13.1222" transform="matrix(-0.965926 0.258819 0 1 261.437 150.612)" fill="#88BEFF"/>
<rect width="13.1222" height="13.1222" transform="matrix(-0.965926 0.258819 0 1 245.309 171.649)" fill="#388AED"/>
<rect width="13.1222" height="13.1222" transform="matrix(-0.965926 0.258819 0 1 245.309 154.82)" fill="#388AED"/>
<rect width="13.1222" height="13.1222" transform="matrix(-0.965926 0.258819 0 1 277.565 163.235)" fill="#388AED"/>
<rect width="13.1222" height="13.1222" transform="matrix(-0.965926 0.258819 0 1 293.694 159.027)" fill="#388AED"/>
<rect width="13.1222" height="13.1222" transform="matrix(-0.965926 0.258819 0 1 293.694 142.198)" fill="#388AED"/>
<rect width="13.1222" height="13.1222" transform="matrix(-0.965926 0.258819 0 1 277.565 129.575)" fill="#388AED"/>
<rect width="13.1222" height="13.1222" transform="matrix(-0.965926 0.258819 0 1 277.565 112.745)" fill="#388AED"/>
<rect width="13.1222" height="13.1222" transform="matrix(-0.965926 0.258819 0 1 277.565 146.405)" fill="#388AED"/>
<path d="M223.04 257.056L223.424 259H225.824V249.736H218.624V252.544H222.416C222.304 253.744 221.904 254.664 221.216 255.304C220.544 255.928 219.584 256.24 218.336 256.24C217.488 256.24 216.768 256.08 216.176 255.76C215.584 255.424 215.104 254.984 214.736 254.44C214.368 253.896 214.096 253.288 213.92 252.616C213.76 251.928 213.68 251.224 213.68 250.504C213.68 249.752 213.76 249.024 213.92 248.32C214.096 247.616 214.368 246.992 214.736 246.448C215.104 245.888 215.584 245.448 216.176 245.128C216.768 244.792 217.488 244.624 218.336 244.624C219.248 244.624 220.024 244.864 220.664 245.344C221.304 245.824 221.736 246.544 221.96 247.504H225.56C225.464 246.528 225.2 245.664 224.768 244.912C224.336 244.16 223.784 243.528 223.112 243.016C222.456 242.504 221.712 242.12 220.88 241.864C220.064 241.592 219.216 241.456 218.336 241.456C217.024 241.456 215.84 241.688 214.784 242.152C213.744 242.616 212.864 243.256 212.144 244.072C211.424 244.888 210.872 245.848 210.488 246.952C210.104 248.04 209.912 249.224 209.912 250.504C209.912 251.752 210.104 252.92 210.488 254.008C210.872 255.08 211.424 256.016 212.144 256.816C212.864 257.616 213.744 258.248 214.784 258.712C215.84 259.16 217.024 259.384 218.336 259.384C219.168 259.384 219.992 259.216 220.808 258.88C221.624 258.528 222.368 257.92 223.04 257.056ZM231.761 244.672V241.864H228.353V244.672H231.761ZM228.353 246.592V259H231.761V246.592H228.353ZM238.514 246.592V242.872H235.106V246.592H233.042V248.872H235.106V256.192C235.106 256.816 235.21 257.32 235.418 257.704C235.626 258.088 235.906 258.384 236.258 258.592C236.626 258.8 237.042 258.936 237.506 259C237.986 259.08 238.49 259.12 239.018 259.12C239.354 259.12 239.698 259.112 240.05 259.096C240.402 259.08 240.722 259.048 241.01 259V256.36C240.85 256.392 240.682 256.416 240.506 256.432C240.33 256.448 240.146 256.456 239.954 256.456C239.378 256.456 238.994 256.36 238.802 256.168C238.61 255.976 238.514 255.592 238.514 255.016V248.872H241.01V246.592H238.514ZM242.742 241.864V259H246.51V251.608H253.446V259H257.214V241.864H253.446V248.44H246.51V241.864H242.742ZM271.561 259V246.592H268.153V253.096C268.153 254.36 267.945 255.272 267.529 255.832C267.113 256.376 266.441 256.648 265.513 256.648C264.697 256.648 264.129 256.4 263.809 255.904C263.489 255.392 263.329 254.624 263.329 253.6V246.592H259.921V254.224C259.921 254.992 259.985 255.696 260.113 256.336C260.257 256.96 260.497 257.496 260.833 257.944C261.169 258.376 261.625 258.712 262.201 258.952C262.793 259.192 263.545 259.312 264.457 259.312C265.177 259.312 265.881 259.152 266.569 258.832C267.257 258.512 267.817 257.992 268.249 257.272H268.321V259H271.561ZM282.994 252.808C282.994 253.32 282.938 253.816 282.826 254.296C282.714 254.776 282.538 255.2 282.298 255.568C282.058 255.936 281.754 256.232 281.386 256.456C281.034 256.664 280.602 256.768 280.09 256.768C279.594 256.768 279.162 256.664 278.794 256.456C278.426 256.232 278.122 255.936 277.882 255.568C277.642 255.2 277.466 254.776 277.354 254.296C277.242 253.816 277.186 253.32 277.186 252.808C277.186 252.28 277.242 251.776 277.354 251.296C277.466 250.816 277.642 250.392 277.882 250.024C278.122 249.656 278.426 249.368 278.794 249.16C279.162 248.936 279.594 248.824 280.09 248.824C280.602 248.824 281.034 248.936 281.386 249.16C281.754 249.368 282.058 249.656 282.298 250.024C282.538 250.392 282.714 250.816 282.826 251.296C282.938 251.776 282.994 252.28 282.994 252.808ZM273.898 241.864V259H277.138V257.416H277.186C277.554 258.104 278.098 258.592 278.818 258.88C279.538 259.168 280.354 259.312 281.266 259.312C281.89 259.312 282.506 259.184 283.114 258.928C283.722 258.672 284.266 258.28 284.746 257.752C285.242 257.224 285.642 256.552 285.946 255.736C286.25 254.904 286.402 253.92 286.402 252.784C286.402 251.648 286.25 250.672 285.946 249.856C285.642 249.024 285.242 248.344 284.746 247.816C284.266 247.288 283.722 246.896 283.114 246.64C282.506 246.384 281.89 246.256 281.266 246.256C280.498 246.256 279.754 246.408 279.034 246.712C278.33 247 277.77 247.464 277.354 248.104H277.306V241.864H273.898Z" fill="white"/>
<g filter="url(#filter2_d)">
<rect width="136.743" height="176.012" rx="22" transform="matrix(0.965926 -0.258819 0 1 5 36.3916)" fill="url(#paint2_linear)"/>
</g>
<path d="M35.8347 118.095V137.138L56.3229 131.649C59.9829 130.668 62.9448 129.171 65.2087 127.158C67.5103 125.096 68.6611 122.249 68.6611 118.616C68.6611 114.593 67.1519 112.341 64.1333 111.861C61.5299 111.66 58.2095 112.1 54.1722 113.182L35.8347 118.095ZM35.8347 151.435V174.463L56.3229 168.973C59.9829 167.992 62.8316 166.721 64.8691 165.159C68.5668 162.294 70.4156 158.205 70.4156 152.892C70.4156 148.4 68.6234 145.794 65.0389 145.075C63.0391 144.673 60.2281 144.938 56.6059 145.87L35.8347 151.435ZM59.7188 96.6957C69.944 94.1122 77.1884 95.2374 81.4521 100.072C84.0178 103.056 85.3007 107.107 85.3007 112.224C85.3007 117.497 84.0178 122.079 81.4521 125.97C80.0183 128.151 77.9053 130.358 75.1132 132.59C79.3769 133.049 82.584 134.729 84.7347 137.629C86.9232 140.52 88.0174 144.445 88.0174 149.406C88.0174 154.523 86.7722 159.447 84.282 164.177C82.6972 167.296 80.7163 170.093 78.3392 172.566C75.6603 175.393 72.4909 177.688 68.8309 179.449C65.2087 181.201 61.2658 182.648 57.0021 183.791L19.1952 193.921V107.554L59.7188 96.6957ZM96.3776 162.9C96.3776 168.95 101.265 172.921 107.215 171.326C113.165 169.732 118.159 163.114 118.159 157.064C118.159 150.904 113.165 147.182 107.215 148.776C101.265 150.371 96.3776 156.74 96.3776 162.9Z" fill="#121212"/>
<path d="M10.424 249.066V245.058H13.952C14.288 245.058 14.608 245.09 14.912 245.154C15.232 245.202 15.512 245.298 15.752 245.442C15.992 245.586 16.184 245.786 16.328 246.042C16.472 246.298 16.544 246.626 16.544 247.026C16.544 247.746 16.328 248.266 15.896 248.586C15.464 248.906 14.912 249.066 14.24 249.066H10.424ZM6.656 242.13V259.266H14.96C15.728 259.266 16.472 259.17 17.192 258.978C17.928 258.786 18.576 258.49 19.136 258.09C19.712 257.69 20.168 257.178 20.504 256.554C20.84 255.914 21.008 255.162 21.008 254.298C21.008 253.226 20.744 252.314 20.216 251.562C19.704 250.794 18.92 250.258 17.864 249.954C18.632 249.586 19.208 249.114 19.592 248.538C19.992 247.962 20.192 247.242 20.192 246.378C20.192 245.578 20.056 244.906 19.784 244.362C19.528 243.818 19.16 243.386 18.68 243.066C18.2 242.73 17.624 242.49 16.952 242.346C16.28 242.202 15.536 242.13 14.72 242.13H6.656ZM10.424 256.338V251.634H14.528C15.344 251.634 16 251.826 16.496 252.21C16.992 252.578 17.24 253.202 17.24 254.082C17.24 254.53 17.16 254.898 17 255.186C16.856 255.474 16.656 255.706 16.4 255.882C16.144 256.042 15.848 256.162 15.512 256.242C15.176 256.306 14.824 256.338 14.456 256.338H10.424ZM22.8004 250.674C22.8484 249.874 23.0484 249.21 23.4004 248.682C23.7524 248.154 24.2004 247.73 24.7444 247.41C25.2884 247.09 25.8964 246.866 26.5684 246.738C27.2564 246.594 27.9444 246.522 28.6324 246.522C29.2564 246.522 29.8884 246.57 30.5284 246.666C31.1684 246.746 31.7524 246.914 32.2804 247.17C32.8084 247.426 33.2404 247.786 33.5764 248.25C33.9124 248.698 34.0804 249.298 34.0804 250.05V256.506C34.0804 257.066 34.1124 257.602 34.1764 258.114C34.2404 258.626 34.3524 259.01 34.5124 259.266H31.0564C30.9924 259.074 30.9364 258.882 30.8884 258.69C30.8564 258.482 30.8324 258.274 30.8164 258.066C30.2724 258.626 29.6324 259.018 28.8964 259.242C28.1604 259.466 27.4084 259.578 26.6404 259.578C26.0484 259.578 25.4964 259.506 24.9844 259.362C24.4724 259.218 24.0244 258.994 23.6404 258.69C23.2564 258.386 22.9524 258.002 22.7284 257.538C22.5204 257.074 22.4164 256.522 22.4164 255.882C22.4164 255.178 22.5364 254.602 22.7764 254.154C23.0324 253.69 23.3524 253.322 23.7364 253.05C24.1364 252.778 24.5844 252.578 25.0804 252.45C25.5924 252.306 26.1044 252.194 26.6164 252.114C27.1284 252.034 27.6324 251.97 28.1284 251.922C28.6244 251.874 29.0644 251.802 29.4484 251.706C29.8324 251.61 30.1364 251.474 30.3604 251.298C30.5844 251.106 30.6884 250.834 30.6724 250.482C30.6724 250.114 30.6084 249.826 30.4804 249.618C30.3684 249.394 30.2084 249.226 30.0004 249.114C29.8084 248.986 29.5764 248.906 29.3044 248.874C29.0484 248.826 28.7684 248.802 28.4644 248.802C27.7924 248.802 27.2644 248.946 26.8804 249.234C26.4964 249.522 26.2724 250.002 26.2084 250.674H22.8004ZM30.6724 253.194C30.5284 253.322 30.3444 253.426 30.1204 253.506C29.9124 253.57 29.6804 253.626 29.4244 253.674C29.1844 253.722 28.9284 253.762 28.6564 253.794C28.3844 253.826 28.1124 253.866 27.8404 253.914C27.5844 253.962 27.3284 254.026 27.0724 254.106C26.8324 254.186 26.6164 254.298 26.4244 254.442C26.2484 254.57 26.1044 254.738 25.9924 254.946C25.8804 255.154 25.8244 255.418 25.8244 255.738C25.8244 256.042 25.8804 256.298 25.9924 256.506C26.1044 256.714 26.2564 256.882 26.4484 257.01C26.6404 257.122 26.8644 257.202 27.1204 257.25C27.3764 257.298 27.6404 257.322 27.9124 257.322C28.5844 257.322 29.1044 257.21 29.4724 256.986C29.8404 256.762 30.1124 256.498 30.2884 256.194C30.4644 255.874 30.5684 255.554 30.6004 255.234C30.6484 254.914 30.6724 254.658 30.6724 254.466V253.194ZM44.9237 251.226H48.2597C48.2117 250.426 48.0197 249.738 47.6837 249.162C47.3477 248.57 46.9077 248.082 46.3637 247.698C45.8357 247.298 45.2277 247.002 44.5397 246.81C43.8677 246.618 43.1637 246.522 42.4277 246.522C41.4197 246.522 40.5237 246.69 39.7397 247.026C38.9557 247.362 38.2917 247.834 37.7477 248.442C37.2037 249.034 36.7877 249.746 36.4997 250.578C36.2277 251.394 36.0917 252.282 36.0917 253.242C36.0917 254.17 36.2437 255.026 36.5477 255.81C36.8517 256.578 37.2757 257.242 37.8197 257.802C38.3637 258.362 39.0197 258.802 39.7877 259.122C40.5717 259.426 41.4277 259.578 42.3557 259.578C44.0037 259.578 45.3557 259.146 46.4117 258.282C47.4677 257.418 48.1077 256.162 48.3317 254.514H45.0437C44.9317 255.282 44.6517 255.898 44.2037 256.362C43.7717 256.81 43.1477 257.034 42.3317 257.034C41.8037 257.034 41.3557 256.914 40.9877 256.674C40.6197 256.434 40.3237 256.13 40.0997 255.762C39.8917 255.378 39.7397 254.954 39.6437 254.49C39.5477 254.026 39.4997 253.57 39.4997 253.122C39.4997 252.658 39.5477 252.194 39.6437 251.73C39.7397 251.25 39.8997 250.818 40.1237 250.434C40.3637 250.034 40.6677 249.714 41.0357 249.474C41.4037 249.218 41.8597 249.09 42.4037 249.09C43.8597 249.09 44.6997 249.802 44.9237 251.226ZM50.3189 242.13V259.266H53.7269V254.994L55.0469 253.722L58.4549 259.266H62.5829L57.3749 251.418L62.0549 246.858H58.0229L53.7269 251.322V242.13H50.3189ZM66.1782 255.234H62.9382C62.9702 256.066 63.1542 256.762 63.4902 257.322C63.8422 257.866 64.2822 258.306 64.8102 258.642C65.3542 258.978 65.9702 259.218 66.6582 259.362C67.3462 259.506 68.0502 259.578 68.7702 259.578C69.4742 259.578 70.1622 259.506 70.8342 259.362C71.5222 259.234 72.1302 259.002 72.6582 258.666C73.1862 258.33 73.6102 257.89 73.9302 257.346C74.2662 256.786 74.4342 256.098 74.4342 255.282C74.4342 254.706 74.3222 254.226 74.0982 253.842C73.8742 253.442 73.5782 253.114 73.2102 252.858C72.8422 252.586 72.4182 252.37 71.9382 252.21C71.4742 252.05 70.9942 251.914 70.4982 251.802C70.0182 251.69 69.5462 251.586 69.0822 251.49C68.6182 251.394 68.2022 251.29 67.8342 251.178C67.4822 251.05 67.1942 250.89 66.9702 250.698C66.7462 250.506 66.6342 250.258 66.6342 249.954C66.6342 249.698 66.6982 249.498 66.8262 249.354C66.9542 249.194 67.1062 249.074 67.2822 248.994C67.4742 248.914 67.6822 248.866 67.9062 248.85C68.1302 248.818 68.3382 248.802 68.5302 248.802C69.1382 248.802 69.6662 248.922 70.1142 249.162C70.5622 249.386 70.8102 249.826 70.8582 250.482H74.0982C74.0342 249.714 73.8342 249.082 73.4982 248.586C73.1782 248.074 72.7702 247.666 72.2742 247.362C71.7782 247.058 71.2102 246.842 70.5702 246.714C69.9462 246.586 69.2982 246.522 68.6262 246.522C67.9542 246.522 67.2982 246.586 66.6582 246.714C66.0182 246.826 65.4422 247.034 64.9302 247.338C64.4182 247.626 64.0022 248.026 63.6822 248.538C63.3782 249.05 63.2262 249.706 63.2262 250.506C63.2262 251.05 63.3382 251.514 63.5622 251.898C63.7862 252.266 64.0822 252.578 64.4502 252.834C64.8182 253.074 65.2342 253.274 65.6982 253.434C66.1782 253.578 66.6662 253.706 67.1622 253.818C68.3782 254.074 69.3222 254.33 69.9942 254.586C70.6822 254.842 71.0262 255.226 71.0262 255.738C71.0262 256.042 70.9542 256.298 70.8102 256.506C70.6662 256.698 70.4822 256.858 70.2582 256.986C70.0502 257.098 69.8102 257.186 69.5382 257.25C69.2822 257.298 69.0342 257.322 68.7942 257.322C68.4582 257.322 68.1302 257.282 67.8102 257.202C67.5062 257.122 67.2342 257.002 66.9942 256.842C66.7542 256.666 66.5542 256.45 66.3942 256.194C66.2502 255.922 66.1782 255.602 66.1782 255.234ZM80.4988 246.858V243.138H77.0908V246.858H75.0268V249.138H77.0908V256.458C77.0908 257.082 77.1948 257.586 77.4028 257.97C77.6108 258.354 77.8908 258.65 78.2428 258.858C78.6108 259.066 79.0268 259.202 79.4908 259.266C79.9708 259.346 80.4748 259.386 81.0028 259.386C81.3388 259.386 81.6828 259.378 82.0348 259.362C82.3868 259.346 82.7068 259.314 82.9948 259.266V256.626C82.8348 256.658 82.6668 256.682 82.4908 256.698C82.3148 256.714 82.1308 256.722 81.9388 256.722C81.3628 256.722 80.9788 256.626 80.7868 256.434C80.5948 256.242 80.4988 255.858 80.4988 255.282V249.138H82.9948V246.858H80.4988ZM84.2223 250.674C84.2703 249.874 84.4703 249.21 84.8223 248.682C85.1743 248.154 85.6223 247.73 86.1663 247.41C86.7103 247.09 87.3183 246.866 87.9903 246.738C88.6783 246.594 89.3663 246.522 90.0543 246.522C90.6783 246.522 91.3103 246.57 91.9503 246.666C92.5903 246.746 93.1743 246.914 93.7023 247.17C94.2303 247.426 94.6623 247.786 94.9983 248.25C95.3343 248.698 95.5023 249.298 95.5023 250.05V256.506C95.5023 257.066 95.5343 257.602 95.5983 258.114C95.6623 258.626 95.7743 259.01 95.9343 259.266H92.4783C92.4143 259.074 92.3583 258.882 92.3103 258.69C92.2783 258.482 92.2543 258.274 92.2383 258.066C91.6943 258.626 91.0543 259.018 90.3183 259.242C89.5823 259.466 88.8303 259.578 88.0623 259.578C87.4703 259.578 86.9183 259.506 86.4063 259.362C85.8943 259.218 85.4463 258.994 85.0623 258.69C84.6783 258.386 84.3743 258.002 84.1503 257.538C83.9423 257.074 83.8383 256.522 83.8383 255.882C83.8383 255.178 83.9583 254.602 84.1983 254.154C84.4543 253.69 84.7743 253.322 85.1583 253.05C85.5583 252.778 86.0063 252.578 86.5023 252.45C87.0143 252.306 87.5263 252.194 88.0383 252.114C88.5503 252.034 89.0543 251.97 89.5503 251.922C90.0463 251.874 90.4863 251.802 90.8703 251.706C91.2543 251.61 91.5583 251.474 91.7823 251.298C92.0063 251.106 92.1103 250.834 92.0943 250.482C92.0943 250.114 92.0303 249.826 91.9023 249.618C91.7903 249.394 91.6303 249.226 91.4223 249.114C91.2303 248.986 90.9983 248.906 90.7263 248.874C90.4703 248.826 90.1903 248.802 89.8863 248.802C89.2143 248.802 88.6863 248.946 88.3023 249.234C87.9183 249.522 87.6943 250.002 87.6303 250.674H84.2223ZM92.0943 253.194C91.9503 253.322 91.7663 253.426 91.5423 253.506C91.3343 253.57 91.1023 253.626 90.8463 253.674C90.6063 253.722 90.3503 253.762 90.0783 253.794C89.8063 253.826 89.5343 253.866 89.2623 253.914C89.0063 253.962 88.7503 254.026 88.4943 254.106C88.2543 254.186 88.0383 254.298 87.8463 254.442C87.6703 254.57 87.5263 254.738 87.4143 254.946C87.3023 255.154 87.2463 255.418 87.2463 255.738C87.2463 256.042 87.3023 256.298 87.4143 256.506C87.5263 256.714 87.6783 256.882 87.8703 257.01C88.0623 257.122 88.2863 257.202 88.5423 257.25C88.7983 257.298 89.0623 257.322 89.3343 257.322C90.0063 257.322 90.5263 257.21 90.8943 256.986C91.2623 256.762 91.5343 256.498 91.7103 256.194C91.8863 255.874 91.9903 255.554 92.0223 255.234C92.0703 254.914 92.0943 254.658 92.0943 254.466V253.194ZM103.682 256.338C103.154 256.338 102.714 256.226 102.362 256.002C102.01 255.778 101.722 255.49 101.498 255.138C101.29 254.786 101.138 254.394 101.042 253.962C100.962 253.514 100.922 253.066 100.922 252.618C100.922 252.154 100.97 251.714 101.066 251.298C101.178 250.866 101.346 250.49 101.57 250.17C101.81 249.834 102.098 249.57 102.434 249.378C102.786 249.186 103.202 249.09 103.682 249.09C104.242 249.09 104.706 249.194 105.074 249.402C105.442 249.61 105.738 249.89 105.962 250.242C106.186 250.594 106.346 251.002 106.442 251.466C106.538 251.914 106.586 252.394 106.586 252.906C106.586 253.354 106.522 253.786 106.394 254.202C106.282 254.602 106.106 254.962 105.866 255.282C105.626 255.602 105.322 255.858 104.954 256.05C104.586 256.242 104.162 256.338 103.682 256.338ZM109.826 258.474V246.858H106.586V248.514H106.538C106.122 247.794 105.602 247.282 104.978 246.978C104.37 246.674 103.658 246.522 102.842 246.522C101.978 246.522 101.21 246.69 100.538 247.026C99.8816 247.362 99.3296 247.818 98.8816 248.394C98.4336 248.954 98.0896 249.61 97.8496 250.362C97.6256 251.098 97.5136 251.866 97.5136 252.666C97.5136 253.514 97.6096 254.322 97.8016 255.09C98.0096 255.842 98.3296 256.506 98.7616 257.082C99.1936 257.642 99.7456 258.09 100.418 258.426C101.09 258.746 101.89 258.906 102.818 258.906C103.57 258.906 104.282 258.754 104.954 258.45C105.642 258.13 106.17 257.642 106.538 256.986H106.586V258.618C106.602 259.498 106.386 260.226 105.938 260.802C105.506 261.378 104.81 261.666 103.85 261.666C103.242 261.666 102.706 261.538 102.242 261.282C101.778 261.042 101.466 260.602 101.306 259.962H97.9216C97.9696 260.666 98.1616 261.266 98.4976 261.762C98.8496 262.274 99.2816 262.69 99.7936 263.01C100.322 263.33 100.898 263.562 101.522 263.706C102.162 263.866 102.786 263.946 103.394 263.946C104.818 263.946 105.954 263.754 106.802 263.37C107.65 262.986 108.298 262.514 108.746 261.954C109.194 261.41 109.482 260.818 109.61 260.178C109.754 259.538 109.826 258.97 109.826 258.474ZM120.671 251.73H115.127C115.143 251.49 115.191 251.218 115.271 250.914C115.367 250.61 115.519 250.322 115.727 250.05C115.951 249.778 116.239 249.554 116.591 249.378C116.959 249.186 117.415 249.09 117.959 249.09C118.791 249.09 119.407 249.314 119.807 249.762C120.223 250.21 120.511 250.866 120.671 251.73ZM115.127 253.89H124.079C124.143 252.93 124.063 252.01 123.839 251.13C123.615 250.25 123.247 249.466 122.735 248.778C122.239 248.09 121.599 247.546 120.815 247.146C120.031 246.73 119.111 246.522 118.055 246.522C117.111 246.522 116.247 246.69 115.463 247.026C114.695 247.362 114.031 247.826 113.471 248.418C112.911 248.994 112.479 249.682 112.175 250.482C111.871 251.282 111.719 252.146 111.719 253.074C111.719 254.034 111.863 254.914 112.151 255.714C112.455 256.514 112.879 257.202 113.423 257.778C113.967 258.354 114.631 258.802 115.415 259.122C116.199 259.426 117.079 259.578 118.055 259.578C119.463 259.578 120.663 259.258 121.655 258.618C122.647 257.978 123.383 256.914 123.863 255.426H120.863C120.751 255.81 120.447 256.178 119.951 256.53C119.455 256.866 118.863 257.034 118.175 257.034C117.215 257.034 116.479 256.786 115.967 256.29C115.455 255.794 115.175 254.994 115.127 253.89Z" fill="white"/>
<path d="M125.683 257.25C125.683 258.45 126.667 259.434 127.867 259.434C129.091 259.434 130.075 258.45 130.075 257.25C130.075 256.05 129.091 255.066 127.867 255.066C126.667 255.066 125.683 256.05 125.683 257.25Z" fill="#9BF0E1"/>
<defs>
<filter id="filter0_d" x="408" y="2.57104" width="148.903" height="215.048" filterUnits="userSpaceOnUse" color-interpolation-filters="sRGB">
<feFlood flood-opacity="0" result="BackgroundImageFix"/>
<feColorMatrix in="SourceAlpha" type="matrix" values="0 0 0 0 0 0 0 0 0 0 0 0 0 0 0 0 0 0 127 0"/>
<feOffset dx="3" dy="3"/>
<feGaussianBlur stdDeviation="4"/>
<feColorMatrix type="matrix" values="0 0 0 0 0 0 0 0 0 0 0 0 0 0 0 0 0 0 0.25 0"/>
<feBlend mode="normal" in2="BackgroundImageFix" result="effect1_dropShadow"/>
<feBlend mode="normal" in="SourceGraphic" in2="effect1_dropShadow" result="shape"/>
</filter>
<filter id="filter1_d" x="204.001" y="0.963623" width="148.083" height="217.477" filterUnits="userSpaceOnUse" color-interpolation-filters="sRGB">
<feFlood flood-opacity="0" result="BackgroundImageFix"/>
<feColorMatrix in="SourceAlpha" type="matrix" values="0 0 0 0 0 0 0 0 0 0 0 0 0 0 0 0 0 0 127 0"/>
<feOffset dx="3" dy="3"/>
<feGaussianBlur stdDeviation="4"/>
<feColorMatrix type="matrix" values="0 0 0 0 0 0 0 0 0 0 0 0 0 0 0 0 0 0 0.25 0"/>
<feBlend mode="normal" in2="BackgroundImageFix" result="effect1_dropShadow"/>
<feBlend mode="normal" in="SourceGraphic" in2="effect1_dropShadow" result="shape"/>
</filter>
<filter id="filter2_d" x="0" y="0.963623" width="148.083" height="217.477" filterUnits="userSpaceOnUse" color-interpolation-filters="sRGB">
<feFlood flood-opacity="0" result="BackgroundImageFix"/>
<feColorMatrix in="SourceAlpha" type="matrix" values="0 0 0 0 0 0 0 0 0 0 0 0 0 0 0 0 0 0 127 0"/>
<feOffset dx="3" dy="3"/>
<feGaussianBlur stdDeviation="4"/>
<feColorMatrix type="matrix" values="0 0 0 0 0 0 0 0 0 0 0 0 0 0 0 0 0 0 0.25 0"/>
<feBlend mode="normal" in2="BackgroundImageFix" result="effect1_dropShadow"/>
<feBlend mode="normal" in="SourceGraphic" in2="effect1_dropShadow" result="shape"/>
</filter>
<linearGradient id="paint0_linear" x1="68.3713" y1="0" x2="68.3713" y2="176.012" gradientUnits="userSpaceOnUse">
<stop stop-color="#757575"/>
<stop offset="1" stop-color="#282828"/>
</linearGradient>
<linearGradient id="paint1_linear" x1="68.3713" y1="0" x2="68.3713" y2="176.012" gradientUnits="userSpaceOnUse">
<stop stop-color="#509BF5"/>
<stop offset="1" stop-color="#1975E2"/>
</linearGradient>
<linearGradient id="paint2_linear" x1="68.3713" y1="0" x2="68.3713" y2="176.012" gradientUnits="userSpaceOnUse">
<stop stop-color="#9BF0E1"/>
<stop offset="1" stop-color="#36BAA2"/>
</linearGradient>
</defs>
</svg>
