<svg width="320" height="234" viewBox="0 0 320 234" fill="none" xmlns="http://www.w3.org/2000/svg">
<g filter="url(#filter0_d)">
<rect x="17.1211" y="17" width="269.879" height="183.692" rx="8" fill="url(#paint0_linear)"/>
</g>
<path d="M47.1956 88.6366V94.6366C48.2356 94.6366 49.3156 94.6766 50.4356 94.7566C51.5956 94.7966 52.6556 95.0166 53.6156 95.4166C54.5756 95.7766 55.3556 96.3766 55.9556 97.2166C56.5956 98.0566 56.9156 99.2766 56.9156 100.877C56.9156 102.917 56.2556 104.537 54.9356 105.737C53.6156 106.897 51.9956 107.477 50.0756 107.477C48.8356 107.477 47.7556 107.257 46.8356 106.817C45.9556 106.377 45.2156 105.797 44.6156 105.077C44.0156 104.317 43.5556 103.437 43.2356 102.437C42.9156 101.397 42.7356 100.317 42.6956 99.1966H34.5956C34.5556 101.637 34.8956 103.797 35.6156 105.677C36.3756 107.557 37.4356 109.157 38.7956 110.477C40.1556 111.757 41.7956 112.737 43.7156 113.417C45.6756 114.097 47.8356 114.437 50.1956 114.437C52.2356 114.437 54.1956 114.137 56.0756 113.537C57.9556 112.937 59.6156 112.057 61.0556 110.897C62.4956 109.737 63.6356 108.297 64.4756 106.577C65.3556 104.857 65.7956 102.897 65.7956 100.697C65.7956 98.2966 65.1356 96.2366 63.8156 94.5166C62.4956 92.7966 60.6756 91.6766 58.3556 91.1566V91.0366C60.3156 90.4766 61.7756 89.4166 62.7356 87.8566C63.7356 86.2966 64.2356 84.4966 64.2356 82.4566C64.2356 80.5766 63.8156 78.9166 62.9756 77.4766C62.1356 76.0366 61.0356 74.8166 59.6756 73.8166C58.3556 72.8166 56.8556 72.0766 55.1756 71.5966C53.4956 71.0766 51.8156 70.8166 50.1356 70.8166C47.9756 70.8166 46.0156 71.1766 44.2556 71.8966C42.4956 72.5766 40.9756 73.5566 39.6956 74.8366C38.4556 76.1166 37.4756 77.6566 36.7556 79.4566C36.0756 81.2166 35.6956 83.1766 35.6156 85.3366H43.7156C43.6756 83.1766 44.1956 81.3966 45.2756 79.9966C46.3956 78.5566 48.0356 77.8366 50.1956 77.8366C51.7556 77.8366 53.1356 78.3166 54.3356 79.2766C55.5356 80.2366 56.1356 81.6166 56.1356 83.4166C56.1356 84.6166 55.8356 85.5766 55.2356 86.2966C54.6756 87.0166 53.9356 87.5766 53.0156 87.9766C52.1356 88.3366 51.1756 88.5566 50.1356 88.6366C49.0956 88.7166 48.1156 88.7166 47.1956 88.6366ZM76.3855 92.4766C76.3855 91.7566 76.3855 90.8966 76.3855 89.8966C76.4255 88.8566 76.5055 87.7966 76.6255 86.7166C76.7455 85.6366 76.9455 84.5766 77.2255 83.5366C77.5055 82.4566 77.8855 81.4966 78.3655 80.6566C78.8855 79.8166 79.5255 79.1366 80.2855 78.6166C81.0855 78.0966 82.0655 77.8366 83.2255 77.8366C84.3855 77.8366 85.3655 78.0966 86.1655 78.6166C86.9655 79.1366 87.6255 79.8166 88.1455 80.6566C88.6655 81.4966 89.0455 82.4566 89.2855 83.5366C89.5655 84.5766 89.7655 85.6366 89.8855 86.7166C90.0455 87.7966 90.1255 88.8566 90.1255 89.8966C90.1655 90.8966 90.1855 91.7566 90.1855 92.4766C90.1855 93.6766 90.1455 95.1366 90.0655 96.8566C89.9855 98.5366 89.7255 100.177 89.2855 101.777C88.8855 103.337 88.2055 104.677 87.2455 105.797C86.3255 106.917 84.9855 107.477 83.2255 107.477C81.5055 107.477 80.1855 106.917 79.2655 105.797C78.3455 104.677 77.6655 103.337 77.2255 101.777C76.8255 100.177 76.5855 98.5366 76.5055 96.8566C76.4255 95.1366 76.3855 93.6766 76.3855 92.4766ZM67.8655 92.4766C67.8655 96.6766 68.2655 100.197 69.0655 103.037C69.9055 105.837 71.0255 108.077 72.4255 109.757C73.8255 111.437 75.4455 112.637 77.2855 113.357C79.1655 114.077 81.1455 114.437 83.2255 114.437C85.3455 114.437 87.3255 114.077 89.1655 113.357C91.0455 112.637 92.6855 111.437 94.0855 109.757C95.5255 108.077 96.6455 105.837 97.4455 103.037C98.2855 100.197 98.7055 96.6766 98.7055 92.4766C98.7055 88.3966 98.2855 84.9766 97.4455 82.2166C96.6455 79.4166 95.5255 77.1766 94.0855 75.4966C92.6855 73.8166 91.0455 72.6166 89.1655 71.8966C87.3255 71.1766 85.3455 70.8166 83.2255 70.8166C81.1455 70.8166 79.1655 71.1766 77.2855 71.8966C75.4455 72.6166 73.8255 73.8166 72.4255 75.4966C71.0255 77.1766 69.9055 79.4166 69.0655 82.2166C68.2655 84.9766 67.8655 88.3966 67.8655 92.4766ZM109.475 92.4766C109.475 91.7566 109.475 90.8966 109.475 89.8966C109.515 88.8566 109.595 87.7966 109.715 86.7166C109.835 85.6366 110.035 84.5766 110.315 83.5366C110.595 82.4566 110.975 81.4966 111.455 80.6566C111.975 79.8166 112.615 79.1366 113.375 78.6166C114.175 78.0966 115.155 77.8366 116.315 77.8366C117.475 77.8366 118.455 78.0966 119.255 78.6166C120.055 79.1366 120.715 79.8166 121.235 80.6566C121.755 81.4966 122.135 82.4566 122.375 83.5366C122.655 84.5766 122.855 85.6366 122.975 86.7166C123.135 87.7966 123.215 88.8566 123.215 89.8966C123.255 90.8966 123.275 91.7566 123.275 92.4766C123.275 93.6766 123.235 95.1366 123.155 96.8566C123.075 98.5366 122.815 100.177 122.375 101.777C121.975 103.337 121.295 104.677 120.335 105.797C119.415 106.917 118.075 107.477 116.315 107.477C114.595 107.477 113.275 106.917 112.355 105.797C111.435 104.677 110.755 103.337 110.315 101.777C109.915 100.177 109.675 98.5366 109.595 96.8566C109.515 95.1366 109.475 93.6766 109.475 92.4766ZM100.955 92.4766C100.955 96.6766 101.355 100.197 102.155 103.037C102.995 105.837 104.115 108.077 105.515 109.757C106.915 111.437 108.535 112.637 110.375 113.357C112.255 114.077 114.235 114.437 116.315 114.437C118.435 114.437 120.415 114.077 122.255 113.357C124.135 112.637 125.775 111.437 127.175 109.757C128.615 108.077 129.735 105.837 130.535 103.037C131.375 100.197 131.795 96.6766 131.795 92.4766C131.795 88.3966 131.375 84.9766 130.535 82.2166C129.735 79.4166 128.615 77.1766 127.175 75.4966C125.775 73.8166 124.135 72.6166 122.255 71.8966C120.415 71.1766 118.435 70.8166 116.315 70.8166C114.235 70.8166 112.255 71.1766 110.375 71.8966C108.535 72.6166 106.915 73.8166 105.515 75.4966C104.115 77.1766 102.995 79.4166 102.155 82.2166C101.355 84.9766 100.955 88.3966 100.955 92.4766ZM154.025 95.2966V83.3566H147.605V95.2966H135.665V101.717H147.605V113.657H154.025V101.717H165.965V95.2966H154.025Z" fill="#9BF0E1"/>
<path d="M43.3356 130.41H45.1356C45.109 129.623 44.9556 128.95 44.6756 128.39C44.409 127.816 44.0356 127.343 43.5556 126.97C43.089 126.596 42.5423 126.323 41.9156 126.15C41.289 125.976 40.609 125.89 39.8756 125.89C39.2223 125.89 38.5823 125.976 37.9556 126.15C37.3423 126.31 36.789 126.563 36.2956 126.91C35.8156 127.243 35.429 127.676 35.1356 128.21C34.8423 128.73 34.6956 129.35 34.6956 130.07C34.6956 130.723 34.8223 131.27 35.0756 131.71C35.3423 132.136 35.689 132.49 36.1156 132.77C36.5556 133.036 37.049 133.256 37.5956 133.43C38.1423 133.59 38.6956 133.736 39.2556 133.87C39.829 133.99 40.389 134.11 40.9356 134.23C41.4823 134.35 41.969 134.51 42.3956 134.71C42.8356 134.896 43.1823 135.143 43.4356 135.45C43.7023 135.756 43.8356 136.156 43.8356 136.65C43.8356 137.17 43.729 137.596 43.5156 137.93C43.3023 138.263 43.0223 138.53 42.6756 138.73C42.329 138.916 41.9356 139.05 41.4956 139.13C41.069 139.21 40.6423 139.25 40.2156 139.25C39.6823 139.25 39.1623 139.183 38.6556 139.05C38.149 138.916 37.7023 138.71 37.3156 138.43C36.9423 138.15 36.6356 137.796 36.3956 137.37C36.169 136.93 36.0556 136.41 36.0556 135.81H34.2556C34.2556 136.676 34.409 137.43 34.7156 138.07C35.0356 138.696 35.4623 139.216 35.9956 139.63C36.5423 140.03 37.169 140.33 37.8756 140.53C38.5956 140.73 39.3556 140.83 40.1556 140.83C40.809 140.83 41.4623 140.75 42.1156 140.59C42.7823 140.443 43.3823 140.203 43.9156 139.87C44.449 139.523 44.8823 139.083 45.2156 138.55C45.5623 138.003 45.7356 137.35 45.7356 136.59C45.7356 135.883 45.6023 135.296 45.3356 134.83C45.0823 134.363 44.7356 133.976 44.2956 133.67C43.869 133.363 43.3823 133.123 42.8356 132.95C42.289 132.763 41.729 132.603 41.1556 132.47C40.5956 132.336 40.0423 132.216 39.4956 132.11C38.949 131.99 38.4556 131.843 38.0156 131.67C37.589 131.496 37.2423 131.276 36.9756 131.01C36.7223 130.73 36.5956 130.37 36.5956 129.93C36.5956 129.463 36.6823 129.076 36.8556 128.77C37.0423 128.45 37.2823 128.196 37.5756 128.01C37.8823 127.823 38.229 127.69 38.6156 127.61C39.0023 127.53 39.3956 127.49 39.7956 127.49C40.7823 127.49 41.589 127.723 42.2156 128.19C42.8556 128.643 43.229 129.383 43.3356 130.41ZM47.5744 130.17V144.45H49.2744V139.13H49.3144C49.501 139.436 49.7277 139.696 49.9944 139.91C50.2744 140.11 50.5677 140.27 50.8744 140.39C51.181 140.51 51.4877 140.596 51.7944 140.65C52.1144 140.703 52.401 140.73 52.6544 140.73C53.441 140.73 54.1277 140.59 54.7144 140.31C55.3144 140.03 55.8077 139.65 56.1944 139.17C56.5944 138.676 56.8877 138.103 57.0744 137.45C57.2744 136.796 57.3744 136.103 57.3744 135.37C57.3744 134.636 57.2744 133.943 57.0744 133.29C56.8744 132.636 56.5744 132.063 56.1744 131.57C55.7877 131.063 55.2944 130.663 54.6944 130.37C54.1077 130.076 53.4144 129.93 52.6144 129.93C51.8944 129.93 51.2344 130.063 50.6344 130.33C50.0344 130.583 49.5944 130.996 49.3144 131.57H49.2744V130.17H47.5744ZM55.5744 135.25C55.5744 135.756 55.521 136.25 55.4144 136.73C55.3077 137.21 55.1344 137.636 54.8944 138.01C54.6544 138.383 54.3344 138.683 53.9344 138.91C53.5477 139.136 53.061 139.25 52.4744 139.25C51.8877 139.25 51.3877 139.143 50.9744 138.93C50.561 138.703 50.221 138.41 49.9544 138.05C49.701 137.69 49.5144 137.276 49.3944 136.81C49.2744 136.33 49.2144 135.836 49.2144 135.33C49.2144 134.85 49.2677 134.376 49.3744 133.91C49.4944 133.443 49.681 133.03 49.9344 132.67C50.1877 132.296 50.5144 131.996 50.9144 131.77C51.3144 131.543 51.801 131.43 52.3744 131.43C52.921 131.43 53.3944 131.536 53.7944 131.75C54.2077 131.963 54.541 132.25 54.7944 132.61C55.061 132.97 55.2544 133.383 55.3744 133.85C55.5077 134.303 55.5744 134.77 55.5744 135.25ZM60.3598 135.35C60.3598 134.723 60.4398 134.17 60.5998 133.69C60.7732 133.196 61.0065 132.783 61.2998 132.45C61.5932 132.116 61.9332 131.863 62.3198 131.69C62.7198 131.516 63.1398 131.43 63.5798 131.43C64.0198 131.43 64.4332 131.516 64.8198 131.69C65.2198 131.863 65.5665 132.116 65.8598 132.45C66.1532 132.783 66.3798 133.196 66.5398 133.69C66.7132 134.17 66.7998 134.723 66.7998 135.35C66.7998 135.976 66.7132 136.536 66.5398 137.03C66.3798 137.51 66.1532 137.916 65.8598 138.25C65.5665 138.57 65.2198 138.816 64.8198 138.99C64.4332 139.163 64.0198 139.25 63.5798 139.25C63.1398 139.25 62.7198 139.163 62.3198 138.99C61.9332 138.816 61.5932 138.57 61.2998 138.25C61.0065 137.916 60.7732 137.51 60.5998 137.03C60.4398 136.536 60.3598 135.976 60.3598 135.35ZM58.5598 135.35C58.5598 136.11 58.6665 136.816 58.8798 137.47C59.0932 138.123 59.4132 138.696 59.8398 139.19C60.2665 139.67 60.7932 140.05 61.4198 140.33C62.0465 140.596 62.7665 140.73 63.5798 140.73C64.4065 140.73 65.1265 140.596 65.7398 140.33C66.3665 140.05 66.8932 139.67 67.3198 139.19C67.7465 138.696 68.0665 138.123 68.2798 137.47C68.4932 136.816 68.5998 136.11 68.5998 135.35C68.5998 134.59 68.4932 133.883 68.2798 133.23C68.0665 132.563 67.7465 131.99 67.3198 131.51C66.8932 131.016 66.3665 130.63 65.7398 130.35C65.1265 130.07 64.4065 129.93 63.5798 129.93C62.7665 129.93 62.0465 130.07 61.4198 130.35C60.7932 130.63 60.2665 131.016 59.8398 131.51C59.4132 131.99 59.0932 132.563 58.8798 133.23C58.6665 133.883 58.5598 134.59 58.5598 135.35ZM72.7142 130.17V127.07H71.0142V130.17H69.2542V131.67H71.0142V138.25C71.0142 138.73 71.0609 139.116 71.1542 139.41C71.2476 139.703 71.3876 139.93 71.5742 140.09C71.7742 140.25 72.0276 140.363 72.3342 140.43C72.6542 140.483 73.0342 140.51 73.4742 140.51H74.7742V139.01H73.9942C73.7276 139.01 73.5076 139.003 73.3342 138.99C73.1742 138.963 73.0476 138.916 72.9542 138.85C72.8609 138.783 72.7942 138.69 72.7542 138.57C72.7276 138.45 72.7142 138.29 72.7142 138.09V131.67H74.7742V130.17H72.7142ZM78.2128 128.31V126.23H76.5128V128.31H78.2128ZM76.5128 130.17V140.51H78.2128V130.17H76.5128ZM81.2964 131.67V140.51H82.9964V131.67H84.9964V130.17H82.9964V128.73C82.9964 128.276 83.1097 127.97 83.3364 127.81C83.5631 127.65 83.8831 127.57 84.2964 127.57C84.4431 127.57 84.6031 127.583 84.7764 127.61C84.9497 127.623 85.1097 127.656 85.2564 127.71V126.23C85.0964 126.176 84.9097 126.136 84.6964 126.11C84.4964 126.083 84.3164 126.07 84.1564 126.07C83.2231 126.07 82.5097 126.29 82.0164 126.73C81.5364 127.156 81.2964 127.79 81.2964 128.63V130.17H79.5564V131.67H81.2964ZM90.3244 141.89C90.1244 142.396 89.9244 142.823 89.7244 143.17C89.5377 143.516 89.3244 143.796 89.0844 144.01C88.8577 144.236 88.5977 144.396 88.3044 144.49C88.0244 144.596 87.6977 144.65 87.3244 144.65C87.1244 144.65 86.9244 144.636 86.7244 144.61C86.5244 144.583 86.331 144.536 86.1444 144.47V142.91C86.291 142.976 86.4577 143.03 86.6444 143.07C86.8444 143.123 87.011 143.15 87.1444 143.15C87.491 143.15 87.7777 143.063 88.0044 142.89C88.2444 142.73 88.4244 142.496 88.5444 142.19L89.2444 140.45L85.1444 130.17H87.0644L90.0844 138.63H90.1244L93.0244 130.17H94.8244L90.3244 141.89ZM111.571 140.51L114.871 130.17H113.111L110.791 138.63H110.751L108.591 130.17H106.731L104.651 138.63H104.611L102.271 130.17H100.391L103.711 140.51H105.551L107.631 132.29H107.671L109.771 140.51H111.571ZM123.417 134.35H117.477C117.504 133.95 117.59 133.576 117.737 133.23C117.884 132.87 118.084 132.556 118.337 132.29C118.59 132.023 118.89 131.816 119.237 131.67C119.597 131.51 119.997 131.43 120.437 131.43C120.864 131.43 121.25 131.51 121.597 131.67C121.957 131.816 122.264 132.023 122.517 132.29C122.784 132.543 122.99 132.85 123.137 133.21C123.297 133.57 123.39 133.95 123.417 134.35ZM125.057 137.23H123.377C123.23 137.91 122.924 138.416 122.457 138.75C122.004 139.083 121.417 139.25 120.697 139.25C120.137 139.25 119.65 139.156 119.237 138.97C118.824 138.783 118.484 138.536 118.217 138.23C117.95 137.91 117.757 137.55 117.637 137.15C117.517 136.736 117.464 136.303 117.477 135.85H125.217C125.244 135.223 125.184 134.563 125.037 133.87C124.904 133.176 124.65 132.536 124.277 131.95C123.917 131.363 123.43 130.883 122.817 130.51C122.217 130.123 121.457 129.93 120.537 129.93C119.83 129.93 119.177 130.063 118.577 130.33C117.99 130.596 117.477 130.97 117.037 131.45C116.61 131.93 116.277 132.496 116.037 133.15C115.797 133.803 115.677 134.523 115.677 135.31C115.704 136.096 115.817 136.823 116.017 137.49C116.23 138.156 116.544 138.73 116.957 139.21C117.37 139.69 117.877 140.063 118.477 140.33C119.09 140.596 119.81 140.73 120.637 140.73C121.81 140.73 122.784 140.436 123.557 139.85C124.33 139.263 124.83 138.39 125.057 137.23ZM126.789 126.23V140.51H128.489V139.13H128.529C128.716 139.436 128.943 139.696 129.209 139.91C129.489 140.11 129.783 140.27 130.089 140.39C130.396 140.51 130.703 140.596 131.009 140.65C131.329 140.703 131.616 140.73 131.869 140.73C132.656 140.73 133.343 140.59 133.929 140.31C134.529 140.03 135.023 139.65 135.409 139.17C135.809 138.676 136.103 138.103 136.289 137.45C136.489 136.796 136.589 136.103 136.589 135.37C136.589 134.636 136.489 133.943 136.289 133.29C136.089 132.636 135.789 132.063 135.389 131.57C135.003 131.063 134.509 130.663 133.909 130.37C133.323 130.076 132.629 129.93 131.829 129.93C131.109 129.93 130.449 130.063 129.849 130.33C129.249 130.583 128.809 130.996 128.529 131.57H128.489V126.23H126.789ZM134.789 135.25C134.789 135.756 134.736 136.25 134.629 136.73C134.523 137.21 134.349 137.636 134.109 138.01C133.869 138.383 133.549 138.683 133.149 138.91C132.763 139.136 132.276 139.25 131.689 139.25C131.103 139.25 130.603 139.143 130.189 138.93C129.776 138.703 129.436 138.41 129.169 138.05C128.916 137.69 128.729 137.276 128.609 136.81C128.489 136.33 128.429 135.836 128.429 135.33C128.429 134.85 128.483 134.376 128.589 133.91C128.709 133.443 128.896 133.03 129.149 132.67C129.403 132.296 129.729 131.996 130.129 131.77C130.529 131.543 131.016 131.43 131.589 131.43C132.136 131.43 132.609 131.536 133.009 131.75C133.423 131.963 133.756 132.25 134.009 132.61C134.276 132.97 134.469 133.383 134.589 133.85C134.723 134.303 134.789 134.77 134.789 135.25ZM139.375 137.25H137.675C137.701 137.89 137.835 138.436 138.075 138.89C138.315 139.33 138.635 139.69 139.035 139.97C139.435 140.236 139.895 140.43 140.415 140.55C140.935 140.67 141.481 140.73 142.055 140.73C142.575 140.73 143.095 140.676 143.615 140.57C144.148 140.476 144.621 140.303 145.035 140.05C145.461 139.796 145.801 139.463 146.055 139.05C146.321 138.636 146.455 138.116 146.455 137.49C146.455 136.996 146.355 136.583 146.155 136.25C145.968 135.916 145.715 135.643 145.395 135.43C145.088 135.203 144.728 135.023 144.315 134.89C143.915 134.756 143.501 134.643 143.075 134.55C142.675 134.456 142.275 134.37 141.875 134.29C141.475 134.196 141.115 134.09 140.795 133.97C140.475 133.836 140.208 133.676 139.995 133.49C139.795 133.29 139.695 133.043 139.695 132.75C139.695 132.483 139.761 132.27 139.895 132.11C140.028 131.936 140.201 131.803 140.415 131.71C140.628 131.603 140.861 131.53 141.115 131.49C141.381 131.45 141.641 131.43 141.895 131.43C142.175 131.43 142.448 131.463 142.715 131.53C142.995 131.583 143.248 131.676 143.475 131.81C143.701 131.943 143.888 132.123 144.035 132.35C144.181 132.563 144.268 132.836 144.295 133.17H145.995C145.955 132.543 145.821 132.023 145.595 131.61C145.368 131.183 145.061 130.85 144.675 130.61C144.301 130.356 143.868 130.183 143.375 130.09C142.881 129.983 142.341 129.93 141.755 129.93C141.301 129.93 140.841 129.99 140.375 130.11C139.921 130.216 139.508 130.39 139.135 130.63C138.775 130.856 138.475 131.156 138.235 131.53C138.008 131.903 137.895 132.35 137.895 132.87C137.895 133.536 138.061 134.056 138.395 134.43C138.728 134.803 139.141 135.096 139.635 135.31C140.141 135.51 140.688 135.67 141.275 135.79C141.861 135.896 142.401 136.023 142.895 136.17C143.401 136.303 143.821 136.483 144.155 136.71C144.488 136.936 144.655 137.27 144.655 137.71C144.655 138.03 144.575 138.296 144.415 138.51C144.255 138.71 144.048 138.863 143.795 138.97C143.555 139.076 143.288 139.15 142.995 139.19C142.701 139.23 142.421 139.25 142.155 139.25C141.808 139.25 141.468 139.216 141.135 139.15C140.815 139.083 140.521 138.976 140.255 138.83C140.001 138.67 139.795 138.463 139.635 138.21C139.475 137.943 139.388 137.623 139.375 137.25ZM149.885 128.31V126.23H148.185V128.31H149.885ZM148.185 130.17V140.51H149.885V130.17H148.185ZM154.628 130.17V127.07H152.928V130.17H151.168V131.67H152.928V138.25C152.928 138.73 152.975 139.116 153.068 139.41C153.162 139.703 153.302 139.93 153.488 140.09C153.688 140.25 153.942 140.363 154.248 140.43C154.568 140.483 154.948 140.51 155.388 140.51H156.688V139.01H155.908C155.642 139.01 155.422 139.003 155.248 138.99C155.088 138.963 154.962 138.916 154.868 138.85C154.775 138.783 154.708 138.69 154.668 138.57C154.642 138.45 154.628 138.29 154.628 138.09V131.67H156.688V130.17H154.628ZM165.507 134.35H159.567C159.594 133.95 159.68 133.576 159.827 133.23C159.974 132.87 160.174 132.556 160.427 132.29C160.68 132.023 160.98 131.816 161.327 131.67C161.687 131.51 162.087 131.43 162.527 131.43C162.954 131.43 163.34 131.51 163.687 131.67C164.047 131.816 164.354 132.023 164.607 132.29C164.874 132.543 165.08 132.85 165.227 133.21C165.387 133.57 165.48 133.95 165.507 134.35ZM167.147 137.23H165.467C165.32 137.91 165.014 138.416 164.547 138.75C164.094 139.083 163.507 139.25 162.787 139.25C162.227 139.25 161.74 139.156 161.327 138.97C160.914 138.783 160.574 138.536 160.307 138.23C160.04 137.91 159.847 137.55 159.727 137.15C159.607 136.736 159.554 136.303 159.567 135.85H167.307C167.334 135.223 167.274 134.563 167.127 133.87C166.994 133.176 166.74 132.536 166.367 131.95C166.007 131.363 165.52 130.883 164.907 130.51C164.307 130.123 163.547 129.93 162.627 129.93C161.92 129.93 161.267 130.063 160.667 130.33C160.08 130.596 159.567 130.97 159.127 131.45C158.7 131.93 158.367 132.496 158.127 133.15C157.887 133.803 157.767 134.523 157.767 135.31C157.794 136.096 157.907 136.823 158.107 137.49C158.32 138.156 158.634 138.73 159.047 139.21C159.46 139.69 159.967 140.063 160.567 140.33C161.18 140.596 161.9 140.73 162.727 140.73C163.9 140.73 164.874 140.436 165.647 139.85C166.42 139.263 166.92 138.39 167.147 137.23ZM35.8356 157.25H34.1356C34.1623 157.89 34.2956 158.436 34.5356 158.89C34.7756 159.33 35.0956 159.69 35.4956 159.97C35.8956 160.236 36.3556 160.43 36.8756 160.55C37.3956 160.67 37.9423 160.73 38.5156 160.73C39.0356 160.73 39.5556 160.676 40.0756 160.57C40.609 160.476 41.0823 160.303 41.4956 160.05C41.9223 159.796 42.2623 159.463 42.5156 159.05C42.7823 158.636 42.9156 158.116 42.9156 157.49C42.9156 156.996 42.8156 156.583 42.6156 156.25C42.429 155.916 42.1756 155.643 41.8556 155.43C41.549 155.203 41.189 155.023 40.7756 154.89C40.3756 154.756 39.9623 154.643 39.5356 154.55C39.1356 154.456 38.7356 154.37 38.3356 154.29C37.9356 154.196 37.5756 154.09 37.2556 153.97C36.9356 153.836 36.669 153.676 36.4556 153.49C36.2556 153.29 36.1556 153.043 36.1556 152.75C36.1556 152.483 36.2223 152.27 36.3556 152.11C36.489 151.936 36.6623 151.803 36.8756 151.71C37.089 151.603 37.3223 151.53 37.5756 151.49C37.8423 151.45 38.1023 151.43 38.3556 151.43C38.6356 151.43 38.909 151.463 39.1756 151.53C39.4556 151.583 39.709 151.676 39.9356 151.81C40.1623 151.943 40.349 152.123 40.4956 152.35C40.6423 152.563 40.729 152.836 40.7556 153.17H42.4556C42.4156 152.543 42.2823 152.023 42.0556 151.61C41.829 151.183 41.5223 150.85 41.1356 150.61C40.7623 150.356 40.329 150.183 39.8356 150.09C39.3423 149.983 38.8023 149.93 38.2156 149.93C37.7623 149.93 37.3023 149.99 36.8356 150.11C36.3823 150.216 35.969 150.39 35.5956 150.63C35.2356 150.856 34.9356 151.156 34.6956 151.53C34.469 151.903 34.3556 152.35 34.3556 152.87C34.3556 153.536 34.5223 154.056 34.8556 154.43C35.189 154.803 35.6023 155.096 36.0956 155.31C36.6023 155.51 37.149 155.67 37.7356 155.79C38.3223 155.896 38.8623 156.023 39.3556 156.17C39.8623 156.303 40.2823 156.483 40.6156 156.71C40.949 156.936 41.1156 157.27 41.1156 157.71C41.1156 158.03 41.0356 158.296 40.8756 158.51C40.7156 158.71 40.509 158.863 40.2556 158.97C40.0156 159.076 39.749 159.15 39.4556 159.19C39.1623 159.23 38.8823 159.25 38.6156 159.25C38.269 159.25 37.929 159.216 37.5956 159.15C37.2756 159.083 36.9823 158.976 36.7156 158.83C36.4623 158.67 36.2556 158.463 36.0956 158.21C35.9356 157.943 35.849 157.623 35.8356 157.25ZM51.7256 154.35H45.7856C45.8123 153.95 45.899 153.576 46.0456 153.23C46.1923 152.87 46.3923 152.556 46.6456 152.29C46.899 152.023 47.199 151.816 47.5456 151.67C47.9056 151.51 48.3056 151.43 48.7456 151.43C49.1723 151.43 49.559 151.51 49.9056 151.67C50.2656 151.816 50.5723 152.023 50.8256 152.29C51.0923 152.543 51.299 152.85 51.4456 153.21C51.6056 153.57 51.699 153.95 51.7256 154.35ZM53.3656 157.23H51.6856C51.539 157.91 51.2323 158.416 50.7656 158.75C50.3123 159.083 49.7256 159.25 49.0056 159.25C48.4456 159.25 47.959 159.156 47.5456 158.97C47.1323 158.783 46.7923 158.536 46.5256 158.23C46.259 157.91 46.0656 157.55 45.9456 157.15C45.8256 156.736 45.7723 156.303 45.7856 155.85H53.5256C53.5523 155.223 53.4923 154.563 53.3456 153.87C53.2123 153.176 52.959 152.536 52.5856 151.95C52.2256 151.363 51.739 150.883 51.1256 150.51C50.5256 150.123 49.7656 149.93 48.8456 149.93C48.139 149.93 47.4856 150.063 46.8856 150.33C46.299 150.596 45.7856 150.97 45.3456 151.45C44.919 151.93 44.5856 152.496 44.3456 153.15C44.1056 153.803 43.9856 154.523 43.9856 155.31C44.0123 156.096 44.1256 156.823 44.3256 157.49C44.539 158.156 44.8523 158.73 45.2656 159.21C45.679 159.69 46.1856 160.063 46.7856 160.33C47.399 160.596 48.119 160.73 48.9456 160.73C50.119 160.73 51.0923 160.436 51.8656 159.85C52.639 159.263 53.139 158.39 53.3656 157.23ZM54.9778 150.17V160.51H56.6778V155.91C56.6778 155.243 56.7445 154.656 56.8778 154.15C57.0111 153.63 57.2245 153.19 57.5178 152.83C57.8111 152.47 58.1978 152.196 58.6778 152.01C59.1578 151.823 59.7378 151.73 60.4178 151.73V149.93C59.4978 149.903 58.7378 150.09 58.1378 150.49C57.5378 150.89 57.0311 151.51 56.6178 152.35H56.5778V150.17H54.9778ZM66.108 160.51L69.888 150.17H68.108L65.288 158.79H65.248L62.348 150.17H60.448L64.288 160.51H66.108ZM72.998 148.31V146.23H71.298V148.31H72.998ZM71.298 150.17V160.51H72.998V150.17H71.298ZM82.4016 153.49H84.1616C84.0949 152.876 83.9349 152.35 83.6816 151.91C83.4282 151.456 83.1016 151.083 82.7016 150.79C82.3149 150.496 81.8616 150.283 81.3416 150.15C80.8349 150.003 80.2882 149.93 79.7016 149.93C78.8882 149.93 78.1749 150.076 77.5616 150.37C76.9482 150.65 76.4349 151.043 76.0216 151.55C75.6216 152.043 75.3216 152.63 75.1216 153.31C74.9216 153.976 74.8216 154.696 74.8216 155.47C74.8216 156.243 74.9216 156.956 75.1216 157.61C75.3349 158.25 75.6416 158.803 76.0416 159.27C76.4549 159.736 76.9616 160.096 77.5616 160.35C78.1749 160.603 78.8749 160.73 79.6616 160.73C80.9816 160.73 82.0216 160.383 82.7816 159.69C83.5549 158.996 84.0349 158.01 84.2216 156.73H82.4816C82.3749 157.53 82.0816 158.15 81.6016 158.59C81.1349 159.03 80.4816 159.25 79.6416 159.25C79.1082 159.25 78.6482 159.143 78.2616 158.93C77.8749 158.716 77.5616 158.436 77.3216 158.09C77.0816 157.73 76.9016 157.323 76.7816 156.87C76.6749 156.416 76.6216 155.95 76.6216 155.47C76.6216 154.95 76.6749 154.45 76.7816 153.97C76.8882 153.476 77.0616 153.043 77.3016 152.67C77.5549 152.296 77.8882 151.996 78.3016 151.77C78.7149 151.543 79.2282 151.43 79.8416 151.43C80.5616 151.43 81.1349 151.61 81.5616 151.97C81.9882 152.33 82.2682 152.836 82.4016 153.49ZM93.0538 154.35H87.1138C87.1404 153.95 87.2271 153.576 87.3738 153.23C87.5204 152.87 87.7204 152.556 87.9738 152.29C88.2271 152.023 88.5271 151.816 88.8738 151.67C89.2338 151.51 89.6338 151.43 90.0738 151.43C90.5004 151.43 90.8871 151.51 91.2338 151.67C91.5938 151.816 91.9004 152.023 92.1538 152.29C92.4204 152.543 92.6271 152.85 92.7738 153.21C92.9338 153.57 93.0271 153.95 93.0538 154.35ZM94.6937 157.23H93.0138C92.8671 157.91 92.5604 158.416 92.0938 158.75C91.6404 159.083 91.0538 159.25 90.3338 159.25C89.7738 159.25 89.2871 159.156 88.8738 158.97C88.4604 158.783 88.1204 158.536 87.8538 158.23C87.5871 157.91 87.3938 157.55 87.2738 157.15C87.1538 156.736 87.1004 156.303 87.1138 155.85H94.8538C94.8804 155.223 94.8204 154.563 94.6738 153.87C94.5404 153.176 94.2871 152.536 93.9138 151.95C93.5538 151.363 93.0671 150.883 92.4538 150.51C91.8538 150.123 91.0938 149.93 90.1738 149.93C89.4671 149.93 88.8138 150.063 88.2138 150.33C87.6271 150.596 87.1138 150.97 86.6738 151.45C86.2471 151.93 85.9138 152.496 85.6738 153.15C85.4338 153.803 85.3138 154.523 85.3138 155.31C85.3404 156.096 85.4538 156.823 85.6538 157.49C85.8671 158.156 86.1804 158.73 86.5938 159.21C87.0071 159.69 87.5138 160.063 88.1138 160.33C88.7271 160.596 89.4471 160.73 90.2738 160.73C91.4471 160.73 92.4204 160.436 93.1938 159.85C93.9671 159.263 94.4671 158.39 94.6937 157.23ZM97.4059 157.25H95.7059C95.7326 157.89 95.8659 158.436 96.1059 158.89C96.3459 159.33 96.6659 159.69 97.0659 159.97C97.4659 160.236 97.9259 160.43 98.4459 160.55C98.9659 160.67 99.5126 160.73 100.086 160.73C100.606 160.73 101.126 160.676 101.646 160.57C102.179 160.476 102.653 160.303 103.066 160.05C103.493 159.796 103.833 159.463 104.086 159.05C104.353 158.636 104.486 158.116 104.486 157.49C104.486 156.996 104.386 156.583 104.186 156.25C103.999 155.916 103.746 155.643 103.426 155.43C103.119 155.203 102.759 155.023 102.346 154.89C101.946 154.756 101.533 154.643 101.106 154.55C100.706 154.456 100.306 154.37 99.9059 154.29C99.5059 154.196 99.1459 154.09 98.8259 153.97C98.5059 153.836 98.2393 153.676 98.0259 153.49C97.8259 153.29 97.7259 153.043 97.7259 152.75C97.7259 152.483 97.7926 152.27 97.9259 152.11C98.0593 151.936 98.2326 151.803 98.4459 151.71C98.6593 151.603 98.8926 151.53 99.1459 151.49C99.4126 151.45 99.6726 151.43 99.9259 151.43C100.206 151.43 100.479 151.463 100.746 151.53C101.026 151.583 101.279 151.676 101.506 151.81C101.733 151.943 101.919 152.123 102.066 152.35C102.213 152.563 102.299 152.836 102.326 153.17H104.026C103.986 152.543 103.853 152.023 103.626 151.61C103.399 151.183 103.093 150.85 102.706 150.61C102.333 150.356 101.899 150.183 101.406 150.09C100.913 149.983 100.373 149.93 99.7859 149.93C99.3326 149.93 98.8726 149.99 98.4059 150.11C97.9526 150.216 97.5393 150.39 97.1659 150.63C96.8059 150.856 96.5059 151.156 96.2659 151.53C96.0393 151.903 95.9259 152.35 95.9259 152.87C95.9259 153.536 96.0926 154.056 96.4259 154.43C96.7593 154.803 97.1726 155.096 97.6659 155.31C98.1726 155.51 98.7193 155.67 99.3059 155.79C99.8926 155.896 100.433 156.023 100.926 156.17C101.433 156.303 101.853 156.483 102.186 156.71C102.519 156.936 102.686 157.27 102.686 157.71C102.686 158.03 102.606 158.296 102.446 158.51C102.286 158.71 102.079 158.863 101.826 158.97C101.586 159.076 101.319 159.15 101.026 159.19C100.733 159.23 100.453 159.25 100.186 159.25C99.8393 159.25 99.4993 159.216 99.1659 159.15C98.8459 159.083 98.5526 158.976 98.2859 158.83C98.0326 158.67 97.8259 158.463 97.6659 158.21C97.5059 157.943 97.4193 157.623 97.4059 157.25ZM112.672 155.35C112.672 154.723 112.752 154.17 112.912 153.69C113.086 153.196 113.319 152.783 113.612 152.45C113.906 152.116 114.246 151.863 114.632 151.69C115.032 151.516 115.452 151.43 115.892 151.43C116.332 151.43 116.746 151.516 117.132 151.69C117.532 151.863 117.879 152.116 118.172 152.45C118.466 152.783 118.692 153.196 118.852 153.69C119.026 154.17 119.112 154.723 119.112 155.35C119.112 155.976 119.026 156.536 118.852 157.03C118.692 157.51 118.466 157.916 118.172 158.25C117.879 158.57 117.532 158.816 117.132 158.99C116.746 159.163 116.332 159.25 115.892 159.25C115.452 159.25 115.032 159.163 114.632 158.99C114.246 158.816 113.906 158.57 113.612 158.25C113.319 157.916 113.086 157.51 112.912 157.03C112.752 156.536 112.672 155.976 112.672 155.35ZM110.872 155.35C110.872 156.11 110.979 156.816 111.192 157.47C111.406 158.123 111.726 158.696 112.152 159.19C112.579 159.67 113.106 160.05 113.732 160.33C114.359 160.596 115.079 160.73 115.892 160.73C116.719 160.73 117.439 160.596 118.052 160.33C118.679 160.05 119.206 159.67 119.632 159.19C120.059 158.696 120.379 158.123 120.592 157.47C120.806 156.816 120.912 156.11 120.912 155.35C120.912 154.59 120.806 153.883 120.592 153.23C120.379 152.563 120.059 151.99 119.632 151.51C119.206 151.016 118.679 150.63 118.052 150.35C117.439 150.07 116.719 149.93 115.892 149.93C115.079 149.93 114.359 150.07 113.732 150.35C113.106 150.63 112.579 151.016 112.152 151.51C111.726 151.99 111.406 152.563 111.192 153.23C110.979 153.883 110.872 154.59 110.872 155.35ZM122.667 150.17V160.51H124.367V154.67C124.367 154.203 124.427 153.776 124.547 153.39C124.68 152.99 124.873 152.643 125.127 152.35C125.38 152.056 125.693 151.83 126.067 151.67C126.453 151.51 126.907 151.43 127.427 151.43C128.08 151.43 128.593 151.616 128.967 151.99C129.34 152.363 129.527 152.87 129.527 153.51V160.51H131.227V153.71C131.227 153.15 131.167 152.643 131.047 152.19C130.94 151.723 130.747 151.323 130.467 150.99C130.187 150.656 129.82 150.396 129.367 150.21C128.913 150.023 128.347 149.93 127.667 149.93C126.133 149.93 125.013 150.556 124.307 151.81H124.267V150.17H122.667ZM36.9756 172.37V167.83H40.7756C41.189 167.83 41.5756 167.856 41.9356 167.91C42.309 167.95 42.6356 168.05 42.9156 168.21C43.1956 168.37 43.4156 168.596 43.5756 168.89C43.7356 169.183 43.8156 169.583 43.8156 170.09C43.8156 170.85 43.5756 171.423 43.0956 171.81C42.629 172.183 41.8556 172.37 40.7756 172.37H36.9756ZM35.0756 166.23V180.51H41.9756C42.6823 180.51 43.3023 180.396 43.8356 180.17C44.3823 179.93 44.8356 179.623 45.1956 179.25C45.569 178.863 45.849 178.423 46.0356 177.93C46.2223 177.436 46.3156 176.93 46.3156 176.41C46.3156 175.53 46.0823 174.783 45.6156 174.17C45.149 173.556 44.4756 173.156 43.5956 172.97V172.93C44.2756 172.663 44.7956 172.256 45.1556 171.71C45.529 171.15 45.7156 170.49 45.7156 169.73C45.7156 169.01 45.549 168.403 45.2156 167.91C44.8956 167.416 44.5023 167.03 44.0356 166.75C43.8223 166.616 43.5623 166.516 43.2556 166.45C42.9623 166.383 42.6423 166.336 42.2956 166.31C41.949 166.27 41.5956 166.25 41.2356 166.25C40.889 166.236 40.5623 166.23 40.2556 166.23H35.0756ZM36.9756 178.91V173.97H41.3156C41.7156 173.97 42.1023 174.01 42.4756 174.09C42.849 174.156 43.1756 174.283 43.4556 174.47C43.749 174.643 43.9823 174.883 44.1556 175.19C44.329 175.496 44.4156 175.883 44.4156 176.35C44.4156 177.15 44.1756 177.776 43.6956 178.23C43.229 178.683 42.5756 178.91 41.7356 178.91H36.9756ZM57.397 180.47C57.1037 180.643 56.697 180.73 56.177 180.73C55.737 180.73 55.3837 180.61 55.117 180.37C54.8637 180.116 54.737 179.71 54.737 179.15C54.2704 179.71 53.7237 180.116 53.097 180.37C52.4837 180.61 51.817 180.73 51.097 180.73C50.6304 180.73 50.1837 180.676 49.757 180.57C49.3437 180.463 48.9837 180.296 48.677 180.07C48.3704 179.843 48.1237 179.55 47.937 179.19C47.7637 178.816 47.677 178.37 47.677 177.85C47.677 177.263 47.777 176.783 47.977 176.41C48.177 176.036 48.437 175.736 48.757 175.51C49.0904 175.27 49.4637 175.09 49.877 174.97C50.3037 174.85 50.737 174.75 51.177 174.67C51.6437 174.576 52.0837 174.51 52.497 174.47C52.9237 174.416 53.297 174.35 53.617 174.27C53.937 174.176 54.1904 174.05 54.377 173.89C54.5637 173.716 54.657 173.47 54.657 173.15C54.657 172.776 54.5837 172.476 54.437 172.25C54.3037 172.023 54.1237 171.85 53.897 171.73C53.6837 171.61 53.437 171.53 53.157 171.49C52.8904 171.45 52.6237 171.43 52.357 171.43C51.637 171.43 51.037 171.57 50.557 171.85C50.077 172.116 49.817 172.63 49.777 173.39H48.077C48.1037 172.75 48.237 172.21 48.477 171.77C48.717 171.33 49.037 170.976 49.437 170.71C49.837 170.43 50.2904 170.23 50.797 170.11C51.317 169.99 51.8704 169.93 52.457 169.93C52.9237 169.93 53.3837 169.963 53.837 170.03C54.3037 170.096 54.7237 170.236 55.097 170.45C55.4704 170.65 55.7704 170.936 55.997 171.31C56.2237 171.683 56.337 172.17 56.337 172.77V178.09C56.337 178.49 56.357 178.783 56.397 178.97C56.4504 179.156 56.6104 179.25 56.877 179.25C57.0237 179.25 57.197 179.216 57.397 179.15V180.47ZM54.637 175.17C54.4237 175.33 54.1437 175.45 53.797 175.53C53.4504 175.596 53.0837 175.656 52.697 175.71C52.3237 175.75 51.9437 175.803 51.557 175.87C51.1704 175.923 50.8237 176.016 50.517 176.15C50.2104 176.283 49.957 176.476 49.757 176.73C49.5704 176.97 49.477 177.303 49.477 177.73C49.477 178.01 49.5304 178.25 49.637 178.45C49.757 178.636 49.9037 178.79 50.077 178.91C50.2637 179.03 50.477 179.116 50.717 179.17C50.957 179.223 51.2104 179.25 51.477 179.25C52.037 179.25 52.517 179.176 52.917 179.03C53.317 178.87 53.6437 178.676 53.897 178.45C54.1504 178.21 54.337 177.956 54.457 177.69C54.577 177.41 54.637 177.15 54.637 176.91V175.17ZM65.7492 173.49H67.5092C67.4426 172.876 67.2826 172.35 67.0292 171.91C66.7759 171.456 66.4492 171.083 66.0492 170.79C65.6626 170.496 65.2092 170.283 64.6892 170.15C64.1826 170.003 63.6359 169.93 63.0492 169.93C62.2359 169.93 61.5226 170.076 60.9092 170.37C60.2959 170.65 59.7826 171.043 59.3692 171.55C58.9692 172.043 58.6692 172.63 58.4692 173.31C58.2692 173.976 58.1692 174.696 58.1692 175.47C58.1692 176.243 58.2692 176.956 58.4692 177.61C58.6826 178.25 58.9892 178.803 59.3892 179.27C59.8026 179.736 60.3092 180.096 60.9092 180.35C61.5226 180.603 62.2226 180.73 63.0092 180.73C64.3292 180.73 65.3692 180.383 66.1292 179.69C66.9026 178.996 67.3826 178.01 67.5692 176.73H65.8292C65.7226 177.53 65.4292 178.15 64.9492 178.59C64.4826 179.03 63.8292 179.25 62.9892 179.25C62.4559 179.25 61.9959 179.143 61.6092 178.93C61.2226 178.716 60.9092 178.436 60.6692 178.09C60.4292 177.73 60.2492 177.323 60.1292 176.87C60.0226 176.416 59.9692 175.95 59.9692 175.47C59.9692 174.95 60.0226 174.45 60.1292 173.97C60.2359 173.476 60.4092 173.043 60.6492 172.67C60.9026 172.296 61.2359 171.996 61.6492 171.77C62.0626 171.543 62.5759 171.43 63.1892 171.43C63.9092 171.43 64.4826 171.61 64.9092 171.97C65.3359 172.33 65.6159 172.836 65.7492 173.49ZM69.3214 166.23V180.51H71.0214V176.59L72.6214 175.11L76.1614 180.51H78.3214L73.9214 173.93L78.0214 170.17H75.7414L71.0214 174.69V166.23H69.3214ZM80.3825 177.25H78.6825C78.7092 177.89 78.8425 178.436 79.0825 178.89C79.3225 179.33 79.6425 179.69 80.0425 179.97C80.4425 180.236 80.9025 180.43 81.4225 180.55C81.9425 180.67 82.4892 180.73 83.0625 180.73C83.5825 180.73 84.1025 180.676 84.6225 180.57C85.1558 180.476 85.6292 180.303 86.0425 180.05C86.4692 179.796 86.8092 179.463 87.0625 179.05C87.3292 178.636 87.4625 178.116 87.4625 177.49C87.4625 176.996 87.3625 176.583 87.1625 176.25C86.9758 175.916 86.7225 175.643 86.4025 175.43C86.0958 175.203 85.7358 175.023 85.3225 174.89C84.9225 174.756 84.5092 174.643 84.0825 174.55C83.6825 174.456 83.2825 174.37 82.8825 174.29C82.4825 174.196 82.1225 174.09 81.8025 173.97C81.4825 173.836 81.2158 173.676 81.0025 173.49C80.8025 173.29 80.7025 173.043 80.7025 172.75C80.7025 172.483 80.7692 172.27 80.9025 172.11C81.0358 171.936 81.2092 171.803 81.4225 171.71C81.6358 171.603 81.8692 171.53 82.1225 171.49C82.3892 171.45 82.6492 171.43 82.9025 171.43C83.1825 171.43 83.4558 171.463 83.7225 171.53C84.0025 171.583 84.2558 171.676 84.4825 171.81C84.7092 171.943 84.8958 172.123 85.0425 172.35C85.1892 172.563 85.2758 172.836 85.3025 173.17H87.0025C86.9625 172.543 86.8292 172.023 86.6025 171.61C86.3758 171.183 86.0692 170.85 85.6825 170.61C85.3092 170.356 84.8758 170.183 84.3825 170.09C83.8892 169.983 83.3492 169.93 82.7625 169.93C82.3092 169.93 81.8492 169.99 81.3825 170.11C80.9292 170.216 80.5158 170.39 80.1425 170.63C79.7825 170.856 79.4825 171.156 79.2425 171.53C79.0158 171.903 78.9025 172.35 78.9025 172.87C78.9025 173.536 79.0692 174.056 79.4025 174.43C79.7358 174.803 80.1492 175.096 80.6425 175.31C81.1492 175.51 81.6958 175.67 82.2825 175.79C82.8692 175.896 83.4092 176.023 83.9025 176.17C84.4092 176.303 84.8292 176.483 85.1625 176.71C85.4958 176.936 85.6625 177.27 85.6625 177.71C85.6625 178.03 85.5825 178.296 85.4225 178.51C85.2625 178.71 85.0558 178.863 84.8025 178.97C84.5625 179.076 84.2958 179.15 84.0025 179.19C83.7092 179.23 83.4292 179.25 83.1625 179.25C82.8158 179.25 82.4758 179.216 82.1425 179.15C81.8225 179.083 81.5292 178.976 81.2625 178.83C81.0092 178.67 80.8025 178.463 80.6425 178.21C80.4825 177.943 80.3958 177.623 80.3825 177.25ZM91.4525 170.17V167.07H89.7525V170.17H87.9925V171.67H89.7525V178.25C89.7525 178.73 89.7992 179.116 89.8925 179.41C89.9858 179.703 90.1258 179.93 90.3125 180.09C90.5125 180.25 90.7658 180.363 91.0725 180.43C91.3925 180.483 91.7725 180.51 92.2125 180.51H93.5125V179.01H92.7325C92.4658 179.01 92.2458 179.003 92.0725 178.99C91.9125 178.963 91.7858 178.916 91.6925 178.85C91.5992 178.783 91.5325 178.69 91.4925 178.57C91.4658 178.45 91.4525 178.29 91.4525 178.09V171.67H93.5125V170.17H91.4525ZM104.311 180.47C104.018 180.643 103.611 180.73 103.091 180.73C102.651 180.73 102.298 180.61 102.031 180.37C101.778 180.116 101.651 179.71 101.651 179.15C101.184 179.71 100.638 180.116 100.011 180.37C99.3978 180.61 98.7311 180.73 98.0111 180.73C97.5444 180.73 97.0978 180.676 96.6711 180.57C96.2578 180.463 95.8978 180.296 95.5911 180.07C95.2844 179.843 95.0378 179.55 94.8511 179.19C94.6778 178.816 94.5911 178.37 94.5911 177.85C94.5911 177.263 94.6911 176.783 94.8911 176.41C95.0911 176.036 95.3511 175.736 95.6711 175.51C96.0044 175.27 96.3778 175.09 96.7911 174.97C97.2178 174.85 97.6511 174.75 98.0911 174.67C98.5578 174.576 98.9978 174.51 99.4111 174.47C99.8378 174.416 100.211 174.35 100.531 174.27C100.851 174.176 101.104 174.05 101.291 173.89C101.478 173.716 101.571 173.47 101.571 173.15C101.571 172.776 101.498 172.476 101.351 172.25C101.218 172.023 101.038 171.85 100.811 171.73C100.598 171.61 100.351 171.53 100.071 171.49C99.8044 171.45 99.5378 171.43 99.2711 171.43C98.5511 171.43 97.9511 171.57 97.4711 171.85C96.9911 172.116 96.7311 172.63 96.6911 173.39H94.9911C95.0178 172.75 95.1511 172.21 95.3911 171.77C95.6311 171.33 95.9511 170.976 96.3511 170.71C96.7511 170.43 97.2044 170.23 97.7111 170.11C98.2311 169.99 98.7844 169.93 99.3711 169.93C99.8378 169.93 100.298 169.963 100.751 170.03C101.218 170.096 101.638 170.236 102.011 170.45C102.384 170.65 102.684 170.936 102.911 171.31C103.138 171.683 103.251 172.17 103.251 172.77V178.09C103.251 178.49 103.271 178.783 103.311 178.97C103.364 179.156 103.524 179.25 103.791 179.25C103.938 179.25 104.111 179.216 104.311 179.15V180.47ZM101.551 175.17C101.338 175.33 101.058 175.45 100.711 175.53C100.364 175.596 99.9978 175.656 99.6111 175.71C99.2378 175.75 98.8578 175.803 98.4711 175.87C98.0844 175.923 97.7378 176.016 97.4311 176.15C97.1244 176.283 96.8711 176.476 96.6711 176.73C96.4844 176.97 96.3911 177.303 96.3911 177.73C96.3911 178.01 96.4444 178.25 96.5511 178.45C96.6711 178.636 96.8178 178.79 96.9911 178.91C97.1778 179.03 97.3911 179.116 97.6311 179.17C97.8711 179.223 98.1244 179.25 98.3911 179.25C98.9511 179.25 99.4311 179.176 99.8311 179.03C100.231 178.87 100.558 178.676 100.811 178.45C101.064 178.21 101.251 177.956 101.371 177.69C101.491 177.41 101.551 177.15 101.551 176.91V175.17ZM114.563 179.63V170.17H112.963V171.65H112.943C112.637 171.076 112.21 170.65 111.663 170.37C111.117 170.076 110.517 169.93 109.863 169.93C108.97 169.93 108.217 170.103 107.603 170.45C106.99 170.783 106.497 171.216 106.123 171.75C105.75 172.27 105.483 172.856 105.323 173.51C105.163 174.15 105.083 174.776 105.083 175.39C105.083 176.096 105.177 176.77 105.363 177.41C105.563 178.036 105.857 178.59 106.243 179.07C106.63 179.536 107.11 179.91 107.683 180.19C108.257 180.47 108.93 180.61 109.703 180.61C110.37 180.61 110.997 180.463 111.583 180.17C112.183 179.863 112.63 179.39 112.923 178.75H112.963V179.43C112.963 180.003 112.903 180.53 112.783 181.01C112.677 181.49 112.497 181.896 112.243 182.23C111.99 182.576 111.67 182.843 111.283 183.03C110.897 183.23 110.423 183.33 109.863 183.33C109.583 183.33 109.29 183.296 108.983 183.23C108.677 183.176 108.39 183.083 108.123 182.95C107.87 182.816 107.65 182.643 107.463 182.43C107.29 182.216 107.197 181.956 107.183 181.65H105.483C105.51 182.21 105.657 182.683 105.923 183.07C106.19 183.456 106.523 183.77 106.923 184.01C107.337 184.25 107.79 184.423 108.283 184.53C108.79 184.636 109.283 184.69 109.763 184.69C111.417 184.69 112.63 184.27 113.403 183.43C114.177 182.59 114.563 181.323 114.563 179.63ZM109.803 179.13C109.243 179.13 108.777 179.016 108.403 178.79C108.03 178.55 107.73 178.243 107.503 177.87C107.277 177.483 107.117 177.056 107.023 176.59C106.93 176.123 106.883 175.656 106.883 175.19C106.883 174.696 106.937 174.223 107.043 173.77C107.163 173.316 107.343 172.916 107.583 172.57C107.837 172.223 108.157 171.95 108.543 171.75C108.93 171.536 109.397 171.43 109.943 171.43C110.477 171.43 110.93 171.536 111.303 171.75C111.677 171.963 111.977 172.25 112.203 172.61C112.443 172.956 112.617 173.35 112.723 173.79C112.83 174.23 112.883 174.676 112.883 175.13C112.883 175.61 112.823 176.09 112.703 176.57C112.597 177.05 112.423 177.483 112.183 177.87C111.943 178.243 111.623 178.55 111.223 178.79C110.837 179.016 110.363 179.13 109.803 179.13ZM124.058 174.35H118.118C118.144 173.95 118.231 173.576 118.378 173.23C118.524 172.87 118.724 172.556 118.978 172.29C119.231 172.023 119.531 171.816 119.878 171.67C120.238 171.51 120.638 171.43 121.078 171.43C121.504 171.43 121.891 171.51 122.238 171.67C122.598 171.816 122.904 172.023 123.158 172.29C123.424 172.543 123.631 172.85 123.778 173.21C123.938 173.57 124.031 173.95 124.058 174.35ZM125.698 177.23H124.018C123.871 177.91 123.564 178.416 123.098 178.75C122.644 179.083 122.058 179.25 121.338 179.25C120.778 179.25 120.291 179.156 119.878 178.97C119.464 178.783 119.124 178.536 118.858 178.23C118.591 177.91 118.398 177.55 118.278 177.15C118.158 176.736 118.104 176.303 118.118 175.85H125.858C125.884 175.223 125.824 174.563 125.678 173.87C125.544 173.176 125.291 172.536 124.918 171.95C124.558 171.363 124.071 170.883 123.458 170.51C122.858 170.123 122.098 169.93 121.178 169.93C120.471 169.93 119.818 170.063 119.218 170.33C118.631 170.596 118.118 170.97 117.678 171.45C117.251 171.93 116.918 172.496 116.678 173.15C116.438 173.803 116.318 174.523 116.318 175.31C116.344 176.096 116.458 176.823 116.658 177.49C116.871 178.156 117.184 178.73 117.598 179.21C118.011 179.69 118.518 180.063 119.118 180.33C119.731 180.596 120.451 180.73 121.278 180.73C122.451 180.73 123.424 180.436 124.198 179.85C124.971 179.263 125.471 178.39 125.698 177.23Z" fill="#BDBDBD"/>
<defs>
<filter id="filter0_d" x="0.121094" y="0" width="319.879" height="233.692" filterUnits="userSpaceOnUse" color-interpolation-filters="sRGB">
<feFlood flood-opacity="0" result="BackgroundImageFix"/>
<feColorMatrix in="SourceAlpha" type="matrix" values="0 0 0 0 0 0 0 0 0 0 0 0 0 0 0 0 0 0 127 0"/>
<feOffset dx="8" dy="8"/>
<feGaussianBlur stdDeviation="12.5"/>
<feColorMatrix type="matrix" values="0 0 0 0 0 0 0 0 0 0 0 0 0 0 0 0 0 0 0.7 0"/>
<feBlend mode="normal" in2="BackgroundImageFix" result="effect1_dropShadow"/>
<feBlend mode="normal" in="SourceGraphic" in2="effect1_dropShadow" result="shape"/>
</filter>
<linearGradient id="paint0_linear" x1="17.1211" y1="114.077" x2="388.516" y2="114.077" gradientUnits="userSpaceOnUse">
<stop stop-color="#181818"/>
<stop offset="1" stop-color="#282828"/>
</linearGradient>
</defs>
</svg>
