<svg data-name="Layer 1" xmlns="http://www.w3.org/2000/svg" xmlns:xlink="http://www.w3.org/1999/xlink" viewBox="0 0 1015 803"><defs><linearGradient id="b" x1="-223.04" y1="754.9" x2="1751.47" y2="739.16" gradientTransform="matrix(1 -.05 -.05 -1 247.62 1167.01)" gradientUnits="userSpaceOnUse"><stop offset=".31" stop-color="#282828"/><stop offset=".69" stop-color="#121212"/></linearGradient><linearGradient id="a" x1="425.08" y1="1347.85" x2="425.08" y2="-487.67" gradientTransform="matrix(1 0 0 -1 539 1094.5)" gradientUnits="userSpaceOnUse"><stop offset="0" stop-color="#282828" stop-opacity="0"/><stop offset=".65" stop-color="#1db954"/></linearGradient><linearGradient id="d" x1="348.17" y1="1396.77" x2="348.17" y2="-438.74" xlink:href="#a"/><linearGradient id="e" x1="271.27" y1="1445.7" x2="271.27" y2="-389.82" xlink:href="#a"/><linearGradient id="f" x1="194.36" y1="1494.63" x2="194.36" y2="-340.89" xlink:href="#a"/><linearGradient id="g" x1="117.46" y1="1543.55" x2="117.46" y2="-291.96" gradientTransform="matrix(1 0 0 -1 539 1094.5)" gradientUnits="userSpaceOnUse"><stop offset="0" stop-color="#282828" stop-opacity="0"/><stop offset=".53" stop-color="#f037a5"/></linearGradient><linearGradient id="h" x1="40.56" y1="1592.48" x2="40.56" y2="-243.04" xlink:href="#a"/><linearGradient id="i" x1="-36.35" y1="1641.41" x2="-36.35" y2="-194.11" xlink:href="#a"/><linearGradient id="j" x1="-113.25" y1="1690.34" x2="-113.25" y2="-145.18" xlink:href="#a"/><linearGradient id="k" x1="-190.15" y1="1739.26" x2="-190.15" y2="-96.25" xlink:href="#a"/><linearGradient id="l" x1="1137.02" y1="337.3" x2="-883.05" y2="248.29" xlink:href="#a"/><linearGradient id="m" x1="1133.63" y1="414.13" x2="-886.44" y2="325.12" xlink:href="#a"/><linearGradient id="n" x1="1130.24" y1="490.96" x2="-889.82" y2="401.95" xlink:href="#a"/><linearGradient id="o" x1="1126.86" y1="567.79" x2="-893.21" y2="478.78" xlink:href="#a"/><linearGradient id="p" x1="1123.47" y1="644.62" x2="-896.59" y2="555.61" xlink:href="#a"/><linearGradient id="q" x1="1120.09" y1="721.45" x2="-899.98" y2="632.44" xlink:href="#a"/><linearGradient id="r" x1="1116.7" y1="798.28" x2="-903.36" y2="709.27" xlink:href="#a"/><linearGradient id="s" x1="1113.32" y1="875.11" x2="-906.75" y2="786.1" gradientTransform="matrix(1 0 0 -1 539 1094.5)" gradientUnits="userSpaceOnUse"><stop offset="0" stop-color="#282828" stop-opacity="0"/><stop offset=".46" stop-color="#f037a5"/></linearGradient><linearGradient id="t" x1="1109.93" y1="951.94" x2="-910.14" y2="862.93" xlink:href="#a"/><linearGradient id="u" x1="1106.55" y1="1028.77" x2="-913.52" y2="939.76" xlink:href="#a"/><linearGradient id="v" x1="1103.16" y1="1105.6" x2="-916.91" y2="1016.59" xlink:href="#a"/><linearGradient id="w" x1="1099.77" y1="1182.43" x2="-920.29" y2="1093.42" xlink:href="#a"/><mask id="c" x="-13.28" y="-575.02" width="1996.88" height="2125.08" maskUnits="userSpaceOnUse"><path fill="url(#b)" d="M-13.28-35.98l1951.13-88.49 45.74 932.17L32.46 896.19-13.28-35.98z"/></mask></defs><g mask="url(#c)" fill="none" stroke-width="3"><path style="isolation:isolate" opacity=".6" stroke="url(#a)" d="M964.08 1550.07V-183.6"/><path style="isolation:isolate" opacity=".7" stroke="url(#d)" d="M887.17 1501.14V-232.53"/><path stroke="url(#e)" d="M810.27 1452.21V-281.45"/><path stroke="url(#f)" d="M733.36 1403.29V-330.38"/><path stroke="url(#g)" d="M656.46 1354.36V-379.31"/><path stroke="url(#h)" d="M579.56 1305.43V-428.24"/><path stroke="url(#i)" d="M502.65 1256.5V-477.16"/><path stroke="url(#j)" d="M425.75 1207.58V-526.09"/><path stroke="url(#k)" d="M348.84 1158.65l.01-1733.67"/></g><path stroke="url(#l)" fill="none" stroke-width="3" d="M-308.72 844.65l1907.98-84.07"/><path stroke="url(#m)" fill="none" stroke-width="3" d="M-312.11 767.82l1907.98-84.07"/><path stroke="url(#n)" fill="none" stroke-width="3" d="M-315.49 690.99l1907.98-84.07"/><path stroke="url(#o)" fill="none" stroke-width="3" d="M-318.88 614.16l1907.98-84.07"/><path stroke="url(#p)" fill="none" stroke-width="3" d="M-322.26 537.33l1907.98-84.07"/><path stroke="url(#q)" fill="none" stroke-width="3" d="M-325.65 460.5l1907.98-84.07"/><path stroke="url(#r)" fill="none" stroke-width="3" d="M-329.03 383.67l1907.98-84.07"/><path stroke="url(#s)" fill="none" stroke-width="3" d="M-332.42 306.84l1907.98-84.07"/><path stroke="url(#t)" fill="none" stroke-width="3" d="M-335.8 230.01l1907.98-84.07"/><path stroke="url(#u)" fill="none" stroke-width="3" d="M-339.19 153.19l1907.98-84.07"/><path stroke="url(#v)" fill="none" stroke-width="3" d="M-342.57 76.36L1565.41-7.71"/><path stroke="url(#w)" fill="none" stroke-width="3" d="M-345.96-.47l1907.98-84.07"/><circle cx="657.61" cy="264.03" r="14.5" fill="#252525" stroke="#f037a5" stroke-width="10"/></svg>