<svg id="Layer_1" data-name="Layer 1" xmlns="http://www.w3.org/2000/svg" xmlns:xlink="http://www.w3.org/1999/xlink" viewBox="0 0 1003 921"><defs><linearGradient id="linear-gradient" x1="9.66" y1="1195.3" x2="9.66" y2="1019.28" gradientTransform="matrix(-.97 .24 0 -1 945.73 1430.97)" gradientUnits="userSpaceOnUse"><stop offset="0" stop-color="#757575"/><stop offset="1" stop-color="#282828"/></linearGradient><linearGradient id="linear-gradient-2" x1="10.36" y1="1198.14" x2="10.36" y2="1022.13" gradientTransform="matrix(-.97 .26 0 -1 766.94 1433.02)" gradientUnits="userSpaceOnUse"><stop offset="0" stop-color="#509bf5"/><stop offset="1" stop-color="#1975e2"/></linearGradient><linearGradient id="linear-gradient-3" x1="71.64" y1="1028.77" x2="142.83" y2="1028.77" gradientTransform="rotate(-90 -303.105 532.995)" gradientUnits="userSpaceOnUse"><stop offset="0" stop-color="#1db954"/><stop offset="1" stop-color="#1db954" stop-opacity="0"/></linearGradient><linearGradient id="linear-gradient-4" x1="39.63" y1="1132.13" x2="160.6" y2="1132.13" gradientTransform="rotate(-90 -139.775 653.745)" xlink:href="#linear-gradient-3"/><linearGradient id="linear-gradient-5" x1="24.25" y1="787.54" x2="209.41" y2="787.54" gradientTransform="translate(292.95 -491.26)" xlink:href="#linear-gradient-3"/><linearGradient id="linear-gradient-6" x1="-208.7" y1="1126.47" x2="-66.26" y2="1126.47" gradientTransform="rotate(180 35.265 955.64)" gradientUnits="userSpaceOnUse"><stop offset=".14" stop-color="#1db954"/><stop offset="1" stop-color="#1db954" stop-opacity="0"/></linearGradient><linearGradient id="linear-gradient-7" x1="-187.11" y1="546.8" x2="138.03" y2="546.92" gradientTransform="matrix(0 1 1 0 14.38 640.86)" xlink:href="#linear-gradient-3"/><linearGradient id="linear-gradient-8" x1="-262.68" y1="833.7" x2="52.78" y2="834.41" gradientTransform="rotate(90 650.45 896.97)" xlink:href="#linear-gradient-3"/><linearGradient id="linear-gradient-9" x1="243.38" y1="1197.75" x2="243.38" y2="542.35" gradientTransform="matrix(-.97 .26 0 -1 527.96 1207.39)" gradientUnits="userSpaceOnUse"><stop offset="0" stop-color="#1db954" stop-opacity=".36"/><stop offset="1" stop-color="#63fa98" stop-opacity=".13"/></linearGradient><linearGradient id="linear-gradient-10" x1="243.38" y1="1197.75" x2="243.38" y2="542.35" gradientTransform="matrix(-.97 .26 0 -1 552.3 1225.65)" xlink:href="#linear-gradient-9"/><linearGradient id="linear-gradient-11" x1="-217.62" y1="1198.14" x2="-217.62" y2="1022.13" gradientTransform="matrix(.97 -.26 0 -1 788.14 1379.38)" gradientUnits="userSpaceOnUse"><stop offset="0" stop-color="#4df187"/><stop offset="1" stop-color="#1db954"/></linearGradient><style>.cls-2{fill:#c4c4c4}.cls-6{fill:#fff}.cls-8{fill:#388aed}.cls-9{fill:#88beff}.cls-10{fill:#1db954}</style></defs><path d="M981.42 227l-90.14 21.82c-11.81 2.86-21.39 15-21.39 27.18v132c0 12.15 9.58 19.68 21.39 16.83L981.42 403c11.8-2.86 21.38-15 21.38-27.18v-132c0-12.11-9.58-19.64-21.38-16.82z" fill="url(#linear-gradient)"/><path class="cls-2" d="M984.47 278.69l-81.55 23a3.92 3.92 0 00-2.7 3.57 2 2 0 002.7 2l81.55-23a3.92 3.92 0 002.7-3.57 2 2 0 00-2.7-2z"/><path d="M956.2 300.8l-64.79 18.28a3.91 3.91 0 00-2.7 3.56 2 2 0 002.7 2.05l64.79-18.28a3.91 3.91 0 002.7-3.56 2 2 0 00-2.7-2.05z" fill="#9aeedf"/><path class="cls-2" d="M979.13 266.76l-75.59 21.32a4.41 4.41 0 00-3 4 2.26 2.26 0 003 2.3l75.59-21.32a4.4 4.4 0 003-4 2.27 2.27 0 00-3-2.3z"/><path d="M929.2 267.83l-37.12 10.47a3.92 3.92 0 00-2.7 3.57 2 2 0 002.7 2l37.12-10.47a3.91 3.91 0 002.7-3.56 2 2 0 00-2.7-2.01z" fill="#9bf0e1"/><path d="M940.87 251.62l-49.27 13.9a3.92 3.92 0 00-2.7 3.57 2 2 0 002.7 2l49.27-13.9a3.91 3.91 0 002.7-3.56 2 2 0 00-2.7-2.01zm-9.67 69.81l-39.48 11.13a3.92 3.92 0 00-2.7 3.57 2 2 0 002.7 2L931.2 327a3.92 3.92 0 002.7-3.57 2 2 0 00-2.7-2z" fill="#f037a5"/><path class="cls-6" d="M875.25 475.86v-17h-3.36v17zm7-3.07v-10.87H885c2.79 0 5.09 1.75 5.09 5.45s-2.33 5.42-5.11 5.42zm2.76 3.07c4.85 0 8.42-3.12 8.42-8.49s-3.55-8.52-8.4-8.52H879v17zm21.86 0v-3.12h-7.34v-3.93h6.65v-3h-6.65V462h7.34v-3.12h-10.61v17z"/><path d="M801.73 225.56l-89.58 24c-11.74 3.14-21.25 15.54-21.25 27.69v132c0 12.15 9.51 19.45 21.25 16.3l89.58-24C813.47 398.42 823 386 823 373.87v-132c0-12.16-9.53-19.46-21.27-16.31z" fill="url(#linear-gradient-2)"/><path class="cls-8" d="M807.85 318.99l-12.68 3.39v13.12l12.68-3.39v-13.12zm-16.13 21.03l-12.68 3.4v13.12l12.68-3.4v-13.12zm0-16.83l-12.68 3.4v13.12l12.68-3.4v-13.12z"/><path class="cls-9" d="M775.59 344.23l-12.68 3.4v13.12l12.68-3.4v-13.12zm0-16.83l-12.68 3.4v13.12l12.68-3.4V327.4zm16.13 29.45l-12.68 3.4v13.12l12.68-3.4v-13.12z"/><path class="cls-8" d="M791.72 373.68l-12.68 3.4v13.12l12.68-3.4v-13.12z"/><path class="cls-9" d="M807.85 369.47l-12.68 3.4v13.12l12.68-3.39v-13.13z"/><path class="cls-8" d="M807.85 352.64l-12.68 3.4v13.12l12.68-3.39v-13.13zm0-16.83l-12.68 3.4v13.12l12.68-3.39v-13.13zm-16.13-46.28l-12.68 3.4v13.12l12.68-3.4v-13.12zm0 16.83l-12.68 3.4v13.12l12.68-3.4v-13.12zm16.13-4.21l-12.68 3.4v13.12l12.68-3.39v-13.13z"/><path class="cls-9" d="M807.85 284.62l-12.68 3.4v13.12l12.68-3.39v-13.13z"/><path class="cls-8" d="M775.59 310.57l-12.68 3.4v13.12l12.68-3.4v-13.12zm-32.26 42.07l-12.67 3.4v13.12l12.67-3.39v-13.13z"/><path class="cls-9" d="M743.33 386.3l-12.67 3.4v13.12l12.67-3.39V386.3zm0-16.83l-12.67 3.4v13.12l12.67-3.39v-13.13z"/><path class="cls-8" d="M727.21 390.51l-12.68 3.4v13.12l12.68-3.4v-13.12zm0-16.83l-12.68 3.4v13.12l12.68-3.4v-13.12zm32.25 8.42l-12.67 3.39v13.13l12.67-3.4V382.1zm16.13-4.21l-12.68 3.4v13.12l12.68-3.4v-13.12zm0-16.83l-12.68 3.39v13.13l12.68-3.4v-13.12zm-16.13-12.62l-12.67 3.39v13.13l12.67-3.4v-13.12zm0-16.83L746.79 335v13.13l12.67-3.4v-13.12zm0 33.66l-12.67 3.39v13.13l12.67-3.4v-13.12z"/><path class="cls-6" d="M708.3 475.86V467h-8.5v2.88h5.38c-.2 1.2-1.42 3.31-4.56 3.31-2.86 0-5.38-2-5.38-5.83 0-4 2.78-5.79 5.35-5.79a4.54 4.54 0 014.61 3.27l3.17-1.13c-.84-2.62-3.31-5.23-7.78-5.23a8.55 8.55 0 00-8.71 8.88c0 5.49 3.91 8.85 8.5 8.85a5.87 5.87 0 005-2.3l.22 1.94zm5.92 0v-11.81H711v11.81zm-3.58-15.67a2 2 0 102-2 2 2 0 00-2 2zm10.73.34h-2.88v1.65a1.69 1.69 0 01-1.82 1.87h-.6v2.84h2.14v5.49A3.42 3.42 0 00722 476a4.71 4.71 0 001.8-.29v-2.61a4.46 4.46 0 01-1 .1c-.92 0-1.4-.34-1.4-1.37v-4.94h2.38v-2.84h-2.38zm19.12 15.33v-17h-3.34v6.84h-7.41v-6.84h-3.31v17h3.31v-7.05h7.41v7.05zm11.1 0h3a18.86 18.86 0 01-.12-2.13v-9.68h-3.19v6.87a2.13 2.13 0 01-2.23 2.33 2.1 2.1 0 01-2.16-2.38v-6.82h-3.2v7.47a4.35 4.35 0 004.49 4.65 3.75 3.75 0 003.27-1.58 7.94 7.94 0 00.14 1.27zm9 0v-1.44a4 4 0 003.51 1.73c3.36 0 5.56-2.66 5.56-6.24s-2-6.17-5.44-6.17a4.2 4.2 0 00-3.58 1.61v-6.86h-3.14v17.37zm5.88-5.93c0 2.16-1.29 3.36-2.93 3.36s-3-1.22-3-3.36 1.35-3.33 3-3.33 2.97 1.17 2.97 3.33z"/><circle class="cls-10" cx="514.55" cy="96.59" r="23.13"/><circle class="cls-10" cx="242.35" cy="550.16" r="23.13"/><circle class="cls-10" cx="396.94" cy="635.37" r="23.13"/><circle class="cls-10" cx="387.79" cy="134.69" r="23.13"/><circle class="cls-10" cx="426.16" cy="312.79" r="23.13"/><circle class="cls-10" cx="277.65" cy="653.63" r="23.13"/><circle class="cls-10" cx="242.35" cy="185.02" r="23.13"/><path transform="rotate(-48.07 192.69 140.021)" fill="url(#linear-gradient-3)" d="M169.54 72.74h46.26v134.55h-46.26z"/><circle class="cls-10" cx="395.74" cy="539.07" r="23.13"/><circle class="cls-10" cx="452.74" cy="456.19" r="23.13" transform="rotate(-41.79 452.71 456.17)"/><path transform="rotate(-83.58 338.567 443.35)" fill="url(#linear-gradient-4)" d="M315.48 329.03h46.26v228.66h-46.26z"/><path transform="rotate(-53.08 364.608 296.28)" fill="url(#linear-gradient-5)" d="M189.63 273.16h349.99v46.26H189.63z"/><circle class="cls-10" cx="260.39" cy="435.07" r="23.13"/><path transform="rotate(-75 243.387 782.669)" fill="url(#linear-gradient-6)" d="M108.13 761.68h269.23v46.26H108.13z"/><path transform="rotate(-61.23 561.28 630.02)" fill="url(#linear-gradient-7)" d="M538.12 440.86h46.26v378.31h-46.26z"/><path transform="rotate(-78.5 711.94 138.4)" fill="url(#linear-gradient-8)" d="M690.25-67.47h46.26V343h-46.26z"/><path d="M567.52.54L18.21 147.73C8.34 150.37.34 160.8.34 171v615.42c0 10.22 8 16.35 17.87 13.71l549.31-147.19c9.87-2.64 17.87-13.07 17.87-23.28V14.25c0-10.25-8-16.36-17.87-13.71z" stroke="url(#linear-gradient-9)" fill="none" stroke-opacity=".8" stroke-width="3"/><path d="M591.87 18.8L42.56 166c-9.87 2.65-17.87 13.08-17.87 23.29v615.39c0 10.22 8 16.35 17.87 13.71L591.87 671.2c9.87-2.64 17.87-13.07 17.87-23.28V32.51c0-10.22-8-16.36-17.87-13.71z" stroke="url(#linear-gradient-10)" fill="none" stroke-opacity=".8" stroke-width="3"/><path d="M533.15 249.56l89.58-24c11.74-3.15 21.25 4.15 21.25 16.3v132c0 12.15-9.51 24.55-21.25 27.7l-89.58 24c-11.74 3.15-21.25-4.15-21.25-16.3v-132c0-12.16 9.51-24.56 21.25-27.7z" fill="url(#linear-gradient-11)"/><path d="M526.25 330.66v85.08l33.15-8.88c15.53-4.16 25.73-17.1 25.73-31 0-11-7.18-16.19-14.6-16a26.32 26.32 0 0012.05-21.47c0-13.08-9.39-20.29-25.61-15.94zM544.1 360v-18.4l9.74-2.61c7.18-1.93 10.78.71 10.78 6.23 0 5.76-4.18 10.36-10.55 12.07zm0 35.52v-19.96l11.48-3.08c7.18-1.92 11.36 1 11.36 6.92 0 6.12-4.29 11.11-11.36 13zm48.71-8.85c0 6.6 5.33 10.93 11.82 9.19s11.94-9 11.94-15.56-5.44-10.78-11.94-9-11.82 8.61-11.82 15.33z" fill="#121212"/><path class="cls-6" d="M513.89 459.11v17h6.57c3.2 0 5.26-2 5.26-4.75a4 4 0 00-3-4 3.77 3.77 0 002.47-3.64c0-2.64-1.87-4.59-5.18-4.59zm3.26 7v-4.21h2.33c1.61 0 2.45.81 2.45 2.11s-.91 2.13-2.43 2.13zm0 7.23v-4.49h2.74a2.22 2.22 0 012.52 2.28c0 1.37-1 2.21-2.57 2.21zm10.31-.46c0 1.85 1.54 3.55 4.06 3.55a3.94 3.94 0 003.48-1.75 8.19 8.19 0 00.12 1.42h2.93a13.48 13.48 0 01-.15-1.87v-5.81c0-2.38-1.39-4.49-5.13-4.49-3.17 0-4.87 2-5.07 3.89l2.84.6a2.09 2.09 0 012.25-1.92c1.35 0 2 .69 2 1.53 0 .41-.21.75-.88.84l-2.91.44c-2 .31-3.54 1.49-3.54 3.6zm4.73 1.18a1.38 1.38 0 01-1.53-1.37 1.49 1.49 0 011.46-1.49l2.66-.41v.53c0 2.12-1.24 2.77-2.59 2.77zm14.11-7.18a2.58 2.58 0 012.61 2l2.86-1a5.41 5.41 0 00-5.55-4 6 6 0 00-6.12 6.26 6.11 6.11 0 006.22 6.27 5.49 5.49 0 005.52-4l-2.81-.93a2.7 2.7 0 01-2.71 2 3 3 0 01-3-3.34 3 3 0 012.98-3.23zm19.06-2.59h-4.18l-4.08 4.39v-10h-3.19v17.38h3.19V473l1.32-1.39 3.12 4.51h3.91l-4.82-6.84zm.45 8.52c.14 1.34 1.36 3.65 4.92 3.65 3.09 0 4.58-2 4.58-3.89 0-1.73-1.18-3.14-3.5-3.62l-1.68-.36c-.65-.12-1.08-.48-1.08-1.06a1.36 1.36 0 011.51-1.18 1.79 1.79 0 011.94 1.65l2.67-.6c-.15-1.27-1.28-3.41-4.64-3.41-2.54 0-4.41 1.75-4.41 3.86 0 1.66 1 3 3.31 3.53l1.56.36c.91.19 1.27.63 1.27 1.15s-.5 1.18-1.56 1.18a2 2 0 01-2.16-1.8zm16-12h-2.88v1.66a1.71 1.71 0 01-1.83 1.87h-.6v2.83h2.14v5.5a3.42 3.42 0 003.74 3.65 4.71 4.71 0 001.8-.29v-2.64a4.58 4.58 0 01-1 .09c-.91 0-1.39-.33-1.39-1.36v-5h2.37v-2.83h-2.36zm4 12.12c0 1.85 1.54 3.55 4.06 3.55a3.94 3.94 0 003.48-1.75 8.19 8.19 0 00.12 1.42h2.93a12.09 12.09 0 01-.15-1.87v-5.81c0-2.38-1.39-4.49-5.13-4.49-3.17 0-4.88 2-5.07 3.89l2.83.6a2.1 2.1 0 012.26-1.92c1.34 0 2 .69 2 1.53 0 .41-.21.75-.89.84l-2.9.44c-2 .26-3.56 1.44-3.56 3.55zm4.73 1.18a1.39 1.39 0 01-1.54-1.37 1.5 1.5 0 011.47-1.49l2.66-.41v.53a2.4 2.4 0 01-2.61 2.72zm7.94 2.69c.33 2.25 2.49 4.27 5.73 4.27 4.44 0 6.19-2.95 6.19-6.19v-10.56h-3.07v1.39a3.58 3.58 0 00-3.33-1.61 5.54 5.54 0 00-5.49 5.76 5.46 5.46 0 005.49 5.74 3.74 3.74 0 003.29-1.51v.91c0 2.28-1.13 3.29-3.14 3.29a2.64 2.64 0 01-2.76-2.23zm6-3.92a2.76 2.76 0 01-2.83-3 2.81 2.81 0 115.62 0 2.74 2.74 0 01-2.77 2.98zm11.38-4a2.56 2.56 0 012.64-2.33 2.37 2.37 0 012.64 2.33zm5.59 3.07a2.6 2.6 0 01-2.68 1.8 2.88 2.88 0 01-3-2.69h8.45v-1c0-3.79-2.19-6.12-5.84-6.12a6.28 6.28 0 00.29 12.53 5.32 5.32 0 005.38-3.75z"/><path class="cls-10" d="M626.11 474.11a2.2 2.2 0 102.18-2.18 2.19 2.19 0 00-2.18 2.18z"/></svg>