<svg data-name="Layer 1" xmlns="http://www.w3.org/2000/svg" xmlns:xlink="http://www.w3.org/1999/xlink" viewBox="0 0 964 716"><defs><linearGradient id="b" x1="-1220.44" y1="665.13" x2="453.77" y2="652.29" gradientTransform="matrix(1 0 0 -1 546.15 939.08)" gradientUnits="userSpaceOnUse"><stop offset=".35" stop-color="#121212"/><stop offset=".8" stop-color="#282828"/></linearGradient><linearGradient id="a" x1="-65.73" y1="1060.46" x2="-213.35" y2="1003.02" gradientTransform="rotate(180 335.34 686.59)" gradientUnits="userSpaceOnUse"><stop offset="0" stop-color="#9deba3"/><stop offset="1" stop-color="#ffc635"/></linearGradient><linearGradient id="d" x1="-38.31" y1="1059.29" x2="-285.1" y2="983.46" gradientTransform="rotate(180 211.5 686.59)" gradientUnits="userSpaceOnUse"><stop offset="0" stop-color="#58b560"/><stop offset="1" stop-color="#9deba3"/></linearGradient><linearGradient id="e" x1="29.15" y1="1025.2" x2="-172.32" y2="1015.33" gradientTransform="rotate(180 335.34 810.435)" xlink:href="#a"/><linearGradient id="f" x1="-183.07" y1="1130.12" x2="-183.07" y2="899.49" gradientTransform="rotate(180 211.5 810.435)" gradientUnits="userSpaceOnUse"><stop offset="0" stop-color="#9deba3"/><stop offset="1" stop-color="#58b560"/></linearGradient><linearGradient id="g" x1="-43.91" y1="1065.3" x2="-297.43" y2="973.31" gradientTransform="rotate(180 87.66 562.75)" gradientUnits="userSpaceOnUse"><stop offset="0" stop-color="#9bf0e1"/><stop offset="1" stop-color="#1db954"/></linearGradient><linearGradient id="h" x1="-117.13" y1="1015.39" x2="-308.47" y2="1013.69" gradientTransform="rotate(180 -36.185 562.75)" gradientUnits="userSpaceOnUse"><stop offset="0" stop-color="#9bf0e1" stop-opacity="0"/><stop offset="1" stop-color="#9bf0e1"/></linearGradient><linearGradient id="i" x1="-43.78" y1="992.89" x2="-291.91" y2="1031.93" gradientTransform="rotate(180 87.66 686.59)" gradientUnits="userSpaceOnUse"><stop offset="0" stop-color="#9bf0e1"/><stop offset=".89" stop-color="#58b560"/></linearGradient><linearGradient id="j" x1="-288.39" y1="1014.54" x2="-92.31" y2="1014.99" gradientTransform="rotate(180 -36.185 686.59)" gradientUnits="userSpaceOnUse"><stop offset="0" stop-color="#9bf0e1"/><stop offset="1" stop-color="#9bf0e1" stop-opacity="0"/></linearGradient><mask id="c" x="-674.61" y="-169.62" width="1693.03" height="900.12" maskUnits="userSpaceOnUse"><path transform="rotate(-2.7 171.923 280.447)" fill="url(#b)" d="M-656.14-131.06H999.95v823H-656.14z"/></mask></defs><g mask="url(#c)" fill="none" stroke-width="10" stroke-dasharray="20 15"><path stroke="url(#a)" d="M743.44 248.06h220.63v220.63H743.44z"/><path stroke="url(#d)" d="M495.76 248.06h220.63v220.63H495.76z"/><path stroke="url(#e)" d="M743.44 495.75h220.63v220.63H743.44z"/><path stroke="url(#f)" d="M495.76 495.75h220.63v220.63H495.76z"/><path stroke="url(#g)" d="M248.07.38H468.7v220.63H248.07z"/><path stroke="url(#h)" d="M.39.38h220.63v220.63H.39z"/><path stroke="url(#i)" d="M248.07 248.06H468.7v220.63H248.07z"/><path stroke="url(#j)" d="M.39 248.06h220.63v220.63H.39z"/></g></svg>