<svg id="Layer_1" data-name="Layer 1" xmlns="http://www.w3.org/2000/svg" xmlns:xlink="http://www.w3.org/1999/xlink" viewBox="0 0 578 756"><defs><linearGradient id="linear-gradient" x1="-1596.11" y1="900.23" x2="-982.5" y2="901.62" gradientTransform="matrix(-.72 .69 .7 .71 -1340 585.57)" gradientUnits="userSpaceOnUse"><stop offset="0" stop-color="#ffc635"/><stop offset="1" stop-color="#ffc635" stop-opacity="0"/></linearGradient><linearGradient id="linear-gradient-2" x1="-1596.11" y1="900.23" x2="-982.5" y2="901.62" gradientTransform="matrix(-.72 .69 .7 .71 -1427.96 590.96)" gradientUnits="userSpaceOnUse"><stop offset="0" stop-color="#ffedbe"/><stop offset="1" stop-color="#ffedbe" stop-opacity="0"/></linearGradient><linearGradient id="linear-gradient-3" x1="-1596.11" y1="900.23" x2="-982.5" y2="901.62" gradientTransform="matrix(-.72 .69 .7 .71 -1513.22 605.88)" xlink:href="#linear-gradient"/><linearGradient id="linear-gradient-4" x1="-1596.11" y1="900.23" x2="-982.5" y2="901.62" gradientTransform="matrix(-.72 .69 .7 .71 -1477.36 851.62)" xlink:href="#linear-gradient-2"/><linearGradient id="linear-gradient-5" x1="-1596.11" y1="900.23" x2="-982.5" y2="901.62" gradientTransform="matrix(-.72 .69 .7 .71 -1375.85 701.85)" xlink:href="#linear-gradient"/><style>.cls-2{fill:#ffc635}.cls-4{fill:#ffedbe}</style></defs><path fill="url(#linear-gradient)" d="M554.27 89.59L-24.5 639.58l-62.77-63.46 578.77-550 62.77 63.47z"/><ellipse class="cls-2" cx="523.41" cy="57.39" rx="45.29" ry="44.33" transform="rotate(-9.93 523.24 57.401)"/><path fill="url(#linear-gradient-2)" d="M466.32 94.98l-578.77 549.99-62.77-63.46 578.76-550 62.78 63.47z"/><ellipse class="cls-4" cx="435.46" cy="62.78" rx="45.29" ry="44.33" transform="rotate(-9.93 435.327 62.754)"/><path fill="url(#linear-gradient-3)" d="M381.05 109.9l-578.76 549.99-62.77-63.47L318.28 46.43l62.77 63.47z"/><ellipse class="cls-2" cx="350.2" cy="77.7" rx="45.29" ry="44.33" transform="rotate(-9.93 350.062 77.672)"/><path fill="url(#linear-gradient-4)" d="M416.91 355.63l-578.77 550-62.77-63.47 578.77-549.99 62.77 63.46z"/><ellipse class="cls-4" cx="386.05" cy="323.44" rx="45.29" ry="44.33" transform="rotate(-9.93 385.896 323.356)"/><path fill="url(#linear-gradient-5)" d="M518.42 205.87L-60.35 755.86l-62.77-63.47L455.65 142.4l62.77 63.47z"/><ellipse class="cls-2" cx="487.56" cy="173.66" rx="45.29" ry="44.33" transform="rotate(-9.93 487.396 173.63)"/></svg>