<svg width="845" height="568" viewBox="0 0 845 568" fill="none" xmlns="http://www.w3.org/2000/svg">
<rect x="41" y="82" width="589" height="408" rx="4" fill="url(#paint0_linear)"/>
<rect x="505" y="434" width="340" height="134" rx="4" fill="url(#paint1_linear)"/>
<rect width="255" height="154" rx="4" fill="url(#paint2_linear)"/>
<g filter="url(#filter0_d)">
<rect width="136.743" height="176.012" rx="22" transform="matrix(-0.971919 0.235317 0 1 697.903 168)" fill="url(#paint3_linear)"/>
</g>
<rect width="90.3463" height="5.60995" rx="2.80498" transform="matrix(-0.962455 0.27144 0 1 682.276 224.065)" fill="#C4C4C4"/>
<rect width="72.9294" height="5.60995" rx="2.80498" transform="matrix(-0.962455 0.27144 0 1 654.002 246.181)" fill="#9AEEDF"/>
<rect width="84.8505" height="6.31119" rx="3.1556" transform="matrix(-0.962455 0.27144 0 1 677.276 212.04)" fill="#C4C4C4"/>
<rect width="44.1784" height="5.60995" rx="2.80498" transform="matrix(-0.962455 0.27144 0 1 627.002 213.21)" fill="#9BF0E1"/>
<rect width="56.8007" height="5.60995" rx="2.80498" transform="matrix(-0.962455 0.27144 0 1 638.67 197)" fill="#F037A5"/>
<rect width="46.6303" height="5.60995" rx="2.80498" transform="matrix(-0.962455 0.27144 0 1 629.002 266.804)" fill="#F037A5"/>
<path d="M566.658 406.864V424H570.426V406.864H566.658ZM577.254 420.832V410.032H579.942C580.87 410.032 581.646 410.168 582.27 410.44C582.91 410.696 583.422 411.072 583.806 411.568C584.19 412.064 584.462 412.664 584.622 413.368C584.798 414.056 584.886 414.832 584.886 415.696C584.886 416.64 584.766 417.44 584.526 418.096C584.286 418.752 583.966 419.288 583.566 419.704C583.166 420.104 582.71 420.392 582.198 420.568C581.686 420.744 581.158 420.832 580.614 420.832H577.254ZM573.486 406.864V424H580.878C582.19 424 583.326 423.784 584.286 423.352C585.262 422.904 586.07 422.296 586.71 421.528C587.366 420.76 587.854 419.848 588.174 418.792C588.494 417.736 588.654 416.584 588.654 415.336C588.654 413.912 588.454 412.672 588.054 411.616C587.67 410.56 587.126 409.68 586.422 408.976C585.734 408.272 584.91 407.744 583.95 407.392C583.006 407.04 581.982 406.864 580.878 406.864H573.486ZM591.025 406.864V424H604.033V420.832H594.793V416.632H603.097V413.704H594.793V410.032H603.841V406.864H591.025Z" fill="white"/>
<g filter="url(#filter1_d)">
<rect width="136.743" height="176.012" rx="22" transform="matrix(-0.965926 0.258819 0 1 493.084 166)" fill="url(#paint4_linear)"/>
</g>
<rect width="13.1222" height="13.1222" transform="matrix(-0.965926 0.258819 0 1 477.951 265.123)" fill="#388AED"/>
<rect width="13.1222" height="13.1222" transform="matrix(-0.965926 0.258819 0 1 461.823 286.16)" fill="#388AED"/>
<rect width="13.1222" height="13.1222" transform="matrix(-0.965926 0.258819 0 1 461.823 269.33)" fill="#388AED"/>
<rect width="13.1222" height="13.1222" transform="matrix(-0.965926 0.258819 0 1 445.694 290.367)" fill="#88BEFF"/>
<rect width="13.1222" height="13.1222" transform="matrix(-0.965926 0.258819 0 1 445.694 273.538)" fill="#88BEFF"/>
<rect width="13.1222" height="13.1222" transform="matrix(-0.965926 0.258819 0 1 461.823 302.99)" fill="#88BEFF"/>
<rect width="13.1222" height="13.1222" transform="matrix(-0.965926 0.258819 0 1 461.823 319.82)" fill="#388AED"/>
<rect width="13.1222" height="13.1222" transform="matrix(-0.965926 0.258819 0 1 477.951 315.612)" fill="#88BEFF"/>
<rect width="13.1222" height="13.1222" transform="matrix(-0.965926 0.258819 0 1 477.951 298.782)" fill="#388AED"/>
<rect width="13.1222" height="13.1222" transform="matrix(-0.965926 0.258819 0 1 477.951 281.953)" fill="#388AED"/>
<rect width="13.1222" height="13.1222" transform="matrix(-0.965926 0.258819 0 1 461.823 235.671)" fill="#388AED"/>
<rect width="13.1222" height="13.1222" transform="matrix(-0.965926 0.258819 0 1 461.823 252.5)" fill="#388AED"/>
<rect width="13.1222" height="13.1222" transform="matrix(-0.965926 0.258819 0 1 477.951 248.293)" fill="#388AED"/>
<rect width="13.1222" height="13.1222" transform="matrix(-0.965926 0.258819 0 1 477.951 230.762)" fill="#88BEFF"/>
<rect width="13.1222" height="13.1222" transform="matrix(-0.965926 0.258819 0 1 445.694 256.708)" fill="#388AED"/>
<rect width="13.1222" height="13.1222" transform="matrix(-0.965926 0.258819 0 1 413.437 298.782)" fill="#388AED"/>
<rect width="13.1222" height="13.1222" transform="matrix(-0.965926 0.258819 0 1 413.437 332.442)" fill="#88BEFF"/>
<rect width="13.1222" height="13.1222" transform="matrix(-0.965926 0.258819 0 1 413.437 315.612)" fill="#88BEFF"/>
<rect width="13.1222" height="13.1222" transform="matrix(-0.965926 0.258819 0 1 397.308 336.649)" fill="#388AED"/>
<rect width="13.1222" height="13.1222" transform="matrix(-0.965926 0.258819 0 1 397.308 319.82)" fill="#388AED"/>
<rect width="13.1222" height="13.1222" transform="matrix(-0.965926 0.258819 0 1 429.565 328.235)" fill="#388AED"/>
<rect width="13.1222" height="13.1222" transform="matrix(-0.965926 0.258819 0 1 445.694 324.027)" fill="#388AED"/>
<rect width="13.1222" height="13.1222" transform="matrix(-0.965926 0.258819 0 1 445.694 307.198)" fill="#388AED"/>
<rect width="13.1222" height="13.1222" transform="matrix(-0.965926 0.258819 0 1 429.565 294.575)" fill="#388AED"/>
<rect width="13.1222" height="13.1222" transform="matrix(-0.965926 0.258819 0 1 429.565 277.745)" fill="#388AED"/>
<rect width="13.1222" height="13.1222" transform="matrix(-0.965926 0.258819 0 1 429.565 311.405)" fill="#388AED"/>
<path d="M375.04 422.056L375.424 424H377.824V414.736H370.624V417.544H374.416C374.304 418.744 373.904 419.664 373.216 420.304C372.544 420.928 371.584 421.24 370.336 421.24C369.488 421.24 368.768 421.08 368.176 420.76C367.584 420.424 367.104 419.984 366.736 419.44C366.368 418.896 366.096 418.288 365.92 417.616C365.76 416.928 365.68 416.224 365.68 415.504C365.68 414.752 365.76 414.024 365.92 413.32C366.096 412.616 366.368 411.992 366.736 411.448C367.104 410.888 367.584 410.448 368.176 410.128C368.768 409.792 369.488 409.624 370.336 409.624C371.248 409.624 372.024 409.864 372.664 410.344C373.304 410.824 373.736 411.544 373.96 412.504H377.56C377.464 411.528 377.2 410.664 376.768 409.912C376.336 409.16 375.784 408.528 375.112 408.016C374.456 407.504 373.712 407.12 372.88 406.864C372.064 406.592 371.216 406.456 370.336 406.456C369.024 406.456 367.84 406.688 366.784 407.152C365.744 407.616 364.864 408.256 364.144 409.072C363.424 409.888 362.872 410.848 362.488 411.952C362.104 413.04 361.912 414.224 361.912 415.504C361.912 416.752 362.104 417.92 362.488 419.008C362.872 420.08 363.424 421.016 364.144 421.816C364.864 422.616 365.744 423.248 366.784 423.712C367.84 424.16 369.024 424.384 370.336 424.384C371.168 424.384 371.992 424.216 372.808 423.88C373.624 423.528 374.368 422.92 375.04 422.056ZM383.761 409.672V406.864H380.353V409.672H383.761ZM380.353 411.592V424H383.761V411.592H380.353ZM390.514 411.592V407.872H387.106V411.592H385.042V413.872H387.106V421.192C387.106 421.816 387.21 422.32 387.418 422.704C387.626 423.088 387.906 423.384 388.258 423.592C388.626 423.8 389.042 423.936 389.506 424C389.986 424.08 390.49 424.12 391.018 424.12C391.354 424.12 391.698 424.112 392.05 424.096C392.402 424.08 392.722 424.048 393.01 424V421.36C392.85 421.392 392.682 421.416 392.506 421.432C392.33 421.448 392.146 421.456 391.954 421.456C391.378 421.456 390.994 421.36 390.802 421.168C390.61 420.976 390.514 420.592 390.514 420.016V413.872H393.01V411.592H390.514ZM394.742 406.864V424H398.51V416.608H405.446V424H409.214V406.864H405.446V413.44H398.51V406.864H394.742ZM423.561 424V411.592H420.153V418.096C420.153 419.36 419.945 420.272 419.529 420.832C419.113 421.376 418.441 421.648 417.513 421.648C416.697 421.648 416.129 421.4 415.809 420.904C415.489 420.392 415.329 419.624 415.329 418.6V411.592H411.921V419.224C411.921 419.992 411.985 420.696 412.113 421.336C412.257 421.96 412.497 422.496 412.833 422.944C413.169 423.376 413.625 423.712 414.201 423.952C414.793 424.192 415.545 424.312 416.457 424.312C417.177 424.312 417.881 424.152 418.569 423.832C419.257 423.512 419.817 422.992 420.249 422.272H420.321V424H423.561ZM434.994 417.808C434.994 418.32 434.938 418.816 434.826 419.296C434.714 419.776 434.538 420.2 434.298 420.568C434.058 420.936 433.754 421.232 433.386 421.456C433.034 421.664 432.602 421.768 432.09 421.768C431.594 421.768 431.162 421.664 430.794 421.456C430.426 421.232 430.122 420.936 429.882 420.568C429.642 420.2 429.466 419.776 429.354 419.296C429.242 418.816 429.186 418.32 429.186 417.808C429.186 417.28 429.242 416.776 429.354 416.296C429.466 415.816 429.642 415.392 429.882 415.024C430.122 414.656 430.426 414.368 430.794 414.16C431.162 413.936 431.594 413.824 432.09 413.824C432.602 413.824 433.034 413.936 433.386 414.16C433.754 414.368 434.058 414.656 434.298 415.024C434.538 415.392 434.714 415.816 434.826 416.296C434.938 416.776 434.994 417.28 434.994 417.808ZM425.898 406.864V424H429.138V422.416H429.186C429.554 423.104 430.098 423.592 430.818 423.88C431.538 424.168 432.354 424.312 433.266 424.312C433.89 424.312 434.506 424.184 435.114 423.928C435.722 423.672 436.266 423.28 436.746 422.752C437.242 422.224 437.642 421.552 437.946 420.736C438.25 419.904 438.402 418.92 438.402 417.784C438.402 416.648 438.25 415.672 437.946 414.856C437.642 414.024 437.242 413.344 436.746 412.816C436.266 412.288 435.722 411.896 435.114 411.64C434.506 411.384 433.89 411.256 433.266 411.256C432.498 411.256 431.754 411.408 431.034 411.712C430.33 412 429.77 412.464 429.354 413.104H429.306V406.864H425.898Z" fill="white"/>
<g filter="url(#filter2_d)">
<rect width="136.743" height="176.012" rx="22" transform="matrix(0.965926 -0.258819 0 1 157 201.392)" fill="url(#paint5_linear)"/>
</g>
<path d="M187.835 283.095V302.138L208.323 296.649C211.983 295.668 214.945 294.171 217.209 292.158C219.51 290.096 220.661 287.249 220.661 283.616C220.661 279.593 219.152 277.341 216.133 276.86C213.53 276.66 210.21 277.1 206.172 278.182L187.835 283.095ZM187.835 316.435V339.463L208.323 333.973C211.983 332.992 214.832 331.721 216.869 330.159C220.567 327.294 222.416 323.204 222.416 317.892C222.416 313.4 220.623 310.794 217.039 310.075C215.039 309.673 212.228 309.938 208.606 310.87L187.835 316.435ZM211.719 261.696C221.944 259.112 229.188 260.237 233.452 265.072C236.018 268.056 237.301 272.107 237.301 277.224C237.301 282.497 236.018 287.079 233.452 290.97C232.018 293.151 229.905 295.358 227.113 297.59C231.377 298.049 234.584 299.729 236.735 302.629C238.923 305.52 240.017 309.445 240.017 314.406C240.017 319.523 238.772 324.447 236.282 329.177C234.697 332.296 232.716 335.093 230.339 337.566C227.66 340.393 224.491 342.688 220.831 344.449C217.209 346.201 213.266 347.648 209.002 348.791L171.195 358.921V272.554L211.719 261.696ZM248.378 327.9C248.378 333.95 253.265 337.921 259.215 336.326C265.165 334.732 270.159 328.114 270.159 322.064C270.159 315.904 265.165 312.182 259.215 313.776C253.265 315.371 248.378 321.74 248.378 327.9Z" fill="#121212"/>
<path d="M162.424 414.066V410.058H165.952C166.288 410.058 166.608 410.09 166.912 410.154C167.232 410.202 167.512 410.298 167.752 410.442C167.992 410.586 168.184 410.786 168.328 411.042C168.472 411.298 168.544 411.626 168.544 412.026C168.544 412.746 168.328 413.266 167.896 413.586C167.464 413.906 166.912 414.066 166.24 414.066H162.424ZM158.656 407.13V424.266H166.96C167.728 424.266 168.472 424.17 169.192 423.978C169.928 423.786 170.576 423.49 171.136 423.09C171.712 422.69 172.168 422.178 172.504 421.554C172.84 420.914 173.008 420.162 173.008 419.298C173.008 418.226 172.744 417.314 172.216 416.562C171.704 415.794 170.92 415.258 169.864 414.954C170.632 414.586 171.208 414.114 171.592 413.538C171.992 412.962 172.192 412.242 172.192 411.378C172.192 410.578 172.056 409.906 171.784 409.362C171.528 408.818 171.16 408.386 170.68 408.066C170.2 407.73 169.624 407.49 168.952 407.346C168.28 407.202 167.536 407.13 166.72 407.13H158.656ZM162.424 421.338V416.634H166.528C167.344 416.634 168 416.826 168.496 417.21C168.992 417.578 169.24 418.202 169.24 419.082C169.24 419.53 169.16 419.898 169 420.186C168.856 420.474 168.656 420.706 168.4 420.882C168.144 421.042 167.848 421.162 167.512 421.242C167.176 421.306 166.824 421.338 166.456 421.338H162.424ZM174.8 415.674C174.848 414.874 175.048 414.21 175.4 413.682C175.752 413.154 176.2 412.73 176.744 412.41C177.288 412.09 177.896 411.866 178.568 411.738C179.256 411.594 179.944 411.522 180.632 411.522C181.256 411.522 181.888 411.57 182.528 411.666C183.168 411.746 183.752 411.914 184.28 412.17C184.808 412.426 185.24 412.786 185.576 413.25C185.912 413.698 186.08 414.298 186.08 415.05V421.506C186.08 422.066 186.112 422.602 186.176 423.114C186.24 423.626 186.352 424.01 186.512 424.266H183.056C182.992 424.074 182.936 423.882 182.888 423.69C182.856 423.482 182.832 423.274 182.816 423.066C182.272 423.626 181.632 424.018 180.896 424.242C180.16 424.466 179.408 424.578 178.64 424.578C178.048 424.578 177.496 424.506 176.984 424.362C176.472 424.218 176.024 423.994 175.64 423.69C175.256 423.386 174.952 423.002 174.728 422.538C174.52 422.074 174.416 421.522 174.416 420.882C174.416 420.178 174.536 419.602 174.776 419.154C175.032 418.69 175.352 418.322 175.736 418.05C176.136 417.778 176.584 417.578 177.08 417.45C177.592 417.306 178.104 417.194 178.616 417.114C179.128 417.034 179.632 416.97 180.128 416.922C180.624 416.874 181.064 416.802 181.448 416.706C181.832 416.61 182.136 416.474 182.36 416.298C182.584 416.106 182.688 415.834 182.672 415.482C182.672 415.114 182.608 414.826 182.48 414.618C182.368 414.394 182.208 414.226 182 414.114C181.808 413.986 181.576 413.906 181.304 413.874C181.048 413.826 180.768 413.802 180.464 413.802C179.792 413.802 179.264 413.946 178.88 414.234C178.496 414.522 178.272 415.002 178.208 415.674H174.8ZM182.672 418.194C182.528 418.322 182.344 418.426 182.12 418.506C181.912 418.57 181.68 418.626 181.424 418.674C181.184 418.722 180.928 418.762 180.656 418.794C180.384 418.826 180.112 418.866 179.84 418.914C179.584 418.962 179.328 419.026 179.072 419.106C178.832 419.186 178.616 419.298 178.424 419.442C178.248 419.57 178.104 419.738 177.992 419.946C177.88 420.154 177.824 420.418 177.824 420.738C177.824 421.042 177.88 421.298 177.992 421.506C178.104 421.714 178.256 421.882 178.448 422.01C178.64 422.122 178.864 422.202 179.12 422.25C179.376 422.298 179.64 422.322 179.912 422.322C180.584 422.322 181.104 422.21 181.472 421.986C181.84 421.762 182.112 421.498 182.288 421.194C182.464 420.874 182.568 420.554 182.6 420.234C182.648 419.914 182.672 419.658 182.672 419.466V418.194ZM196.924 416.226H200.26C200.212 415.426 200.02 414.738 199.684 414.162C199.348 413.57 198.908 413.082 198.364 412.698C197.836 412.298 197.228 412.002 196.54 411.81C195.868 411.618 195.164 411.522 194.428 411.522C193.42 411.522 192.524 411.69 191.74 412.026C190.956 412.362 190.292 412.834 189.748 413.442C189.204 414.034 188.788 414.746 188.5 415.578C188.228 416.394 188.092 417.282 188.092 418.242C188.092 419.17 188.244 420.026 188.548 420.81C188.852 421.578 189.276 422.242 189.82 422.802C190.364 423.362 191.02 423.802 191.788 424.122C192.572 424.426 193.428 424.578 194.356 424.578C196.004 424.578 197.356 424.146 198.412 423.282C199.468 422.418 200.108 421.162 200.332 419.514H197.044C196.932 420.282 196.652 420.898 196.204 421.362C195.772 421.81 195.148 422.034 194.332 422.034C193.804 422.034 193.356 421.914 192.988 421.674C192.62 421.434 192.324 421.13 192.1 420.762C191.892 420.378 191.74 419.954 191.644 419.49C191.548 419.026 191.5 418.57 191.5 418.122C191.5 417.658 191.548 417.194 191.644 416.73C191.74 416.25 191.9 415.818 192.124 415.434C192.364 415.034 192.668 414.714 193.036 414.474C193.404 414.218 193.86 414.09 194.404 414.09C195.86 414.09 196.7 414.802 196.924 416.226ZM202.319 407.13V424.266H205.727V419.994L207.047 418.722L210.455 424.266H214.583L209.375 416.418L214.055 411.858H210.023L205.727 416.322V407.13H202.319ZM218.178 420.234H214.938C214.97 421.066 215.154 421.762 215.49 422.322C215.842 422.866 216.282 423.306 216.81 423.642C217.354 423.978 217.97 424.218 218.658 424.362C219.346 424.506 220.05 424.578 220.77 424.578C221.474 424.578 222.162 424.506 222.834 424.362C223.522 424.234 224.13 424.002 224.658 423.666C225.186 423.33 225.61 422.89 225.93 422.346C226.266 421.786 226.434 421.098 226.434 420.282C226.434 419.706 226.322 419.226 226.098 418.842C225.874 418.442 225.578 418.114 225.21 417.858C224.842 417.586 224.418 417.37 223.938 417.21C223.474 417.05 222.994 416.914 222.498 416.802C222.018 416.69 221.546 416.586 221.082 416.49C220.618 416.394 220.202 416.29 219.834 416.178C219.482 416.05 219.194 415.89 218.97 415.698C218.746 415.506 218.634 415.258 218.634 414.954C218.634 414.698 218.698 414.498 218.826 414.354C218.954 414.194 219.106 414.074 219.282 413.994C219.474 413.914 219.682 413.866 219.906 413.85C220.13 413.818 220.338 413.802 220.53 413.802C221.138 413.802 221.666 413.922 222.114 414.162C222.562 414.386 222.81 414.826 222.858 415.482H226.098C226.034 414.714 225.834 414.082 225.498 413.586C225.178 413.074 224.77 412.666 224.274 412.362C223.778 412.058 223.21 411.842 222.57 411.714C221.946 411.586 221.298 411.522 220.626 411.522C219.954 411.522 219.298 411.586 218.658 411.714C218.018 411.826 217.442 412.034 216.93 412.338C216.418 412.626 216.002 413.026 215.682 413.538C215.378 414.05 215.226 414.706 215.226 415.506C215.226 416.05 215.338 416.514 215.562 416.898C215.786 417.266 216.082 417.578 216.45 417.834C216.818 418.074 217.234 418.274 217.698 418.434C218.178 418.578 218.666 418.706 219.162 418.818C220.378 419.074 221.322 419.33 221.994 419.586C222.682 419.842 223.026 420.226 223.026 420.738C223.026 421.042 222.954 421.298 222.81 421.506C222.666 421.698 222.482 421.858 222.258 421.986C222.05 422.098 221.81 422.186 221.538 422.25C221.282 422.298 221.034 422.322 220.794 422.322C220.458 422.322 220.13 422.282 219.81 422.202C219.506 422.122 219.234 422.002 218.994 421.842C218.754 421.666 218.554 421.45 218.394 421.194C218.25 420.922 218.178 420.602 218.178 420.234ZM232.499 411.858V408.138H229.091V411.858H227.027V414.138H229.091V421.458C229.091 422.082 229.195 422.586 229.403 422.97C229.611 423.354 229.891 423.65 230.243 423.858C230.611 424.066 231.027 424.202 231.491 424.266C231.971 424.346 232.475 424.386 233.003 424.386C233.339 424.386 233.683 424.378 234.035 424.362C234.387 424.346 234.707 424.314 234.995 424.266V421.626C234.835 421.658 234.667 421.682 234.491 421.698C234.315 421.714 234.131 421.722 233.939 421.722C233.363 421.722 232.979 421.626 232.787 421.434C232.595 421.242 232.499 420.858 232.499 420.282V414.138H234.995V411.858H232.499ZM236.222 415.674C236.27 414.874 236.47 414.21 236.822 413.682C237.174 413.154 237.622 412.73 238.166 412.41C238.71 412.09 239.318 411.866 239.99 411.738C240.678 411.594 241.366 411.522 242.054 411.522C242.678 411.522 243.31 411.57 243.95 411.666C244.59 411.746 245.174 411.914 245.702 412.17C246.23 412.426 246.662 412.786 246.998 413.25C247.334 413.698 247.502 414.298 247.502 415.05V421.506C247.502 422.066 247.534 422.602 247.598 423.114C247.662 423.626 247.774 424.01 247.934 424.266H244.478C244.414 424.074 244.358 423.882 244.31 423.69C244.278 423.482 244.254 423.274 244.238 423.066C243.694 423.626 243.054 424.018 242.318 424.242C241.582 424.466 240.83 424.578 240.062 424.578C239.47 424.578 238.918 424.506 238.406 424.362C237.894 424.218 237.446 423.994 237.062 423.69C236.678 423.386 236.374 423.002 236.15 422.538C235.942 422.074 235.838 421.522 235.838 420.882C235.838 420.178 235.958 419.602 236.198 419.154C236.454 418.69 236.774 418.322 237.158 418.05C237.558 417.778 238.006 417.578 238.502 417.45C239.014 417.306 239.526 417.194 240.038 417.114C240.55 417.034 241.054 416.97 241.55 416.922C242.046 416.874 242.486 416.802 242.87 416.706C243.254 416.61 243.558 416.474 243.782 416.298C244.006 416.106 244.11 415.834 244.094 415.482C244.094 415.114 244.03 414.826 243.902 414.618C243.79 414.394 243.63 414.226 243.422 414.114C243.23 413.986 242.998 413.906 242.726 413.874C242.47 413.826 242.19 413.802 241.886 413.802C241.214 413.802 240.686 413.946 240.302 414.234C239.918 414.522 239.694 415.002 239.63 415.674H236.222ZM244.094 418.194C243.95 418.322 243.766 418.426 243.542 418.506C243.334 418.57 243.102 418.626 242.846 418.674C242.606 418.722 242.35 418.762 242.078 418.794C241.806 418.826 241.534 418.866 241.262 418.914C241.006 418.962 240.75 419.026 240.494 419.106C240.254 419.186 240.038 419.298 239.846 419.442C239.67 419.57 239.526 419.738 239.414 419.946C239.302 420.154 239.246 420.418 239.246 420.738C239.246 421.042 239.302 421.298 239.414 421.506C239.526 421.714 239.678 421.882 239.87 422.01C240.062 422.122 240.286 422.202 240.542 422.25C240.798 422.298 241.062 422.322 241.334 422.322C242.006 422.322 242.526 422.21 242.894 421.986C243.262 421.762 243.534 421.498 243.71 421.194C243.886 420.874 243.99 420.554 244.022 420.234C244.07 419.914 244.094 419.658 244.094 419.466V418.194ZM255.682 421.338C255.154 421.338 254.714 421.226 254.362 421.002C254.01 420.778 253.722 420.49 253.498 420.138C253.29 419.786 253.138 419.394 253.042 418.962C252.962 418.514 252.922 418.066 252.922 417.618C252.922 417.154 252.97 416.714 253.066 416.298C253.178 415.866 253.346 415.49 253.57 415.17C253.81 414.834 254.098 414.57 254.434 414.378C254.786 414.186 255.202 414.09 255.682 414.09C256.242 414.09 256.706 414.194 257.074 414.402C257.442 414.61 257.738 414.89 257.962 415.242C258.186 415.594 258.346 416.002 258.442 416.466C258.538 416.914 258.586 417.394 258.586 417.906C258.586 418.354 258.522 418.786 258.394 419.202C258.282 419.602 258.106 419.962 257.866 420.282C257.626 420.602 257.322 420.858 256.954 421.05C256.586 421.242 256.162 421.338 255.682 421.338ZM261.826 423.474V411.858H258.586V413.514H258.538C258.122 412.794 257.602 412.282 256.978 411.978C256.37 411.674 255.658 411.522 254.842 411.522C253.978 411.522 253.21 411.69 252.538 412.026C251.882 412.362 251.33 412.818 250.882 413.394C250.434 413.954 250.09 414.61 249.85 415.362C249.626 416.098 249.514 416.866 249.514 417.666C249.514 418.514 249.61 419.322 249.802 420.09C250.01 420.842 250.33 421.506 250.762 422.082C251.194 422.642 251.746 423.09 252.418 423.426C253.09 423.746 253.89 423.906 254.818 423.906C255.57 423.906 256.282 423.754 256.954 423.45C257.642 423.13 258.17 422.642 258.538 421.986H258.586V423.618C258.602 424.498 258.386 425.226 257.938 425.802C257.506 426.378 256.81 426.666 255.85 426.666C255.242 426.666 254.706 426.538 254.242 426.282C253.778 426.042 253.466 425.602 253.306 424.962H249.922C249.97 425.666 250.162 426.266 250.498 426.762C250.85 427.274 251.282 427.69 251.794 428.01C252.322 428.33 252.898 428.562 253.522 428.706C254.162 428.866 254.786 428.946 255.394 428.946C256.818 428.946 257.954 428.754 258.802 428.37C259.65 427.986 260.298 427.514 260.746 426.954C261.194 426.41 261.482 425.818 261.61 425.178C261.754 424.538 261.826 423.97 261.826 423.474ZM272.671 416.73H267.127C267.143 416.49 267.191 416.218 267.271 415.914C267.367 415.61 267.519 415.322 267.727 415.05C267.951 414.778 268.239 414.554 268.591 414.378C268.959 414.186 269.415 414.09 269.959 414.09C270.791 414.09 271.407 414.314 271.807 414.762C272.223 415.21 272.511 415.866 272.671 416.73ZM267.127 418.89H276.079C276.143 417.93 276.063 417.01 275.839 416.13C275.615 415.25 275.247 414.466 274.735 413.778C274.239 413.09 273.599 412.546 272.815 412.146C272.031 411.73 271.111 411.522 270.055 411.522C269.111 411.522 268.247 411.69 267.463 412.026C266.695 412.362 266.031 412.826 265.471 413.418C264.911 413.994 264.479 414.682 264.175 415.482C263.871 416.282 263.719 417.146 263.719 418.074C263.719 419.034 263.863 419.914 264.151 420.714C264.455 421.514 264.879 422.202 265.423 422.778C265.967 423.354 266.631 423.802 267.415 424.122C268.199 424.426 269.079 424.578 270.055 424.578C271.463 424.578 272.663 424.258 273.655 423.618C274.647 422.978 275.383 421.914 275.863 420.426H272.863C272.751 420.81 272.447 421.178 271.951 421.53C271.455 421.866 270.863 422.034 270.175 422.034C269.215 422.034 268.479 421.786 267.967 421.29C267.455 420.794 267.175 419.994 267.127 418.89Z" fill="white"/>
<path d="M277.683 422.25C277.683 423.45 278.667 424.434 279.867 424.434C281.091 424.434 282.075 423.45 282.075 422.25C282.075 421.05 281.091 420.066 279.867 420.066C278.667 420.066 277.683 421.05 277.683 422.25Z" fill="#9BF0E1"/>
<defs>
<filter id="filter0_d" x="560" y="167.571" width="148.903" height="215.048" filterUnits="userSpaceOnUse" color-interpolation-filters="sRGB">
<feFlood flood-opacity="0" result="BackgroundImageFix"/>
<feColorMatrix in="SourceAlpha" type="matrix" values="0 0 0 0 0 0 0 0 0 0 0 0 0 0 0 0 0 0 127 0"/>
<feOffset dx="3" dy="3"/>
<feGaussianBlur stdDeviation="4"/>
<feColorMatrix type="matrix" values="0 0 0 0 0 0 0 0 0 0 0 0 0 0 0 0 0 0 0.25 0"/>
<feBlend mode="normal" in2="BackgroundImageFix" result="effect1_dropShadow"/>
<feBlend mode="normal" in="SourceGraphic" in2="effect1_dropShadow" result="shape"/>
</filter>
<filter id="filter1_d" x="356.001" y="165.964" width="148.083" height="217.477" filterUnits="userSpaceOnUse" color-interpolation-filters="sRGB">
<feFlood flood-opacity="0" result="BackgroundImageFix"/>
<feColorMatrix in="SourceAlpha" type="matrix" values="0 0 0 0 0 0 0 0 0 0 0 0 0 0 0 0 0 0 127 0"/>
<feOffset dx="3" dy="3"/>
<feGaussianBlur stdDeviation="4"/>
<feColorMatrix type="matrix" values="0 0 0 0 0 0 0 0 0 0 0 0 0 0 0 0 0 0 0.25 0"/>
<feBlend mode="normal" in2="BackgroundImageFix" result="effect1_dropShadow"/>
<feBlend mode="normal" in="SourceGraphic" in2="effect1_dropShadow" result="shape"/>
</filter>
<filter id="filter2_d" x="152" y="165.964" width="148.083" height="217.477" filterUnits="userSpaceOnUse" color-interpolation-filters="sRGB">
<feFlood flood-opacity="0" result="BackgroundImageFix"/>
<feColorMatrix in="SourceAlpha" type="matrix" values="0 0 0 0 0 0 0 0 0 0 0 0 0 0 0 0 0 0 127 0"/>
<feOffset dx="3" dy="3"/>
<feGaussianBlur stdDeviation="4"/>
<feColorMatrix type="matrix" values="0 0 0 0 0 0 0 0 0 0 0 0 0 0 0 0 0 0 0.25 0"/>
<feBlend mode="normal" in2="BackgroundImageFix" result="effect1_dropShadow"/>
<feBlend mode="normal" in="SourceGraphic" in2="effect1_dropShadow" result="shape"/>
</filter>
<linearGradient id="paint0_linear" x1="-333.5" y1="710.794" x2="393.63" y2="261.327" gradientUnits="userSpaceOnUse">
<stop offset="0.040557" stop-color="#9BF0E1"/>
<stop offset="1" stop-color="#9BF0E1" stop-opacity="0.11"/>
</linearGradient>
<linearGradient id="paint1_linear" x1="288.82" y1="640.516" x2="554.885" y2="351.452" gradientUnits="userSpaceOnUse">
<stop offset="0.040557" stop-color="#9BF0E1"/>
<stop offset="1" stop-color="#9BF0E1" stop-opacity="0.13"/>
</linearGradient>
<linearGradient id="paint2_linear" x1="-162.135" y1="237.339" x2="127.403" y2="32.0546" gradientUnits="userSpaceOnUse">
<stop offset="0.040557" stop-color="#9BF0E1"/>
<stop offset="1" stop-color="#9BF0E1" stop-opacity="0.1"/>
</linearGradient>
<linearGradient id="paint3_linear" x1="68.3713" y1="0" x2="68.3713" y2="176.012" gradientUnits="userSpaceOnUse">
<stop stop-color="#757575"/>
<stop offset="1" stop-color="#282828"/>
</linearGradient>
<linearGradient id="paint4_linear" x1="68.3713" y1="0" x2="68.3713" y2="176.012" gradientUnits="userSpaceOnUse">
<stop stop-color="#509BF5"/>
<stop offset="1" stop-color="#1975E2"/>
</linearGradient>
<linearGradient id="paint5_linear" x1="68.3713" y1="0" x2="68.3713" y2="176.012" gradientUnits="userSpaceOnUse">
<stop stop-color="#9BF0E1"/>
<stop offset="1" stop-color="#36BAA2"/>
</linearGradient>
</defs>
</svg>
